<svg id="Ñëîé_1" data-name="Ñëîé 1" xmlns="http://www.w3.org/2000/svg" viewBox="0 0 2200.06 739.87"><defs><style>.cls-1{fill:#c0cabe;}.cls-2{fill:#ffb95f;}.cls-3{fill:#e4f2e5;}.cls-4{fill:#ff8539;}.cls-37,.cls-5{fill:#fff;}.cls-6{fill:#a3f2ee;}.cls-7{fill:#7b312c;}.cls-8{fill:#ff925b;}.cls-9{fill:#875744;}.cls-10{fill:#5e3d38;}.cls-11{fill:#2e2a21;}.cls-12{fill:#3989af;}.cls-13{fill:#38b3c3;}.cls-14{fill:#d66d99;}.cls-15{fill:#ee2a7b;}.cls-16{fill:#dddac8;}.cls-17{fill:#423731;}.cls-18{fill:#f2ece4;}.cls-19{fill:#785474;}.cls-20,.cls-33,.cls-45{fill:none;stroke-miterlimit:10;}.cls-20{stroke:#d66d99;stroke-width:6px;}.cls-21{fill:#8f4c68;}.cls-22{fill:#7bdce8;}.cls-23{fill:#9e9c8f;}.cls-24{fill:#533d2f;}.cls-25{fill:#bab8a8;}.cls-26{fill:#935c38;}.cls-27{fill:#f1a51f;}.cls-28{fill:#f1ca1f;}.cls-29{fill:#b85e84;}.cls-30{fill:#355570;}.cls-31{fill:#805a41;}.cls-32{fill:#704836;}.cls-33{stroke:#b89a88;}.cls-34{fill:#00aeef;}.cls-34,.cls-35,.cls-36{opacity:0.64;}.cls-35{fill:#4bcc00;}.cls-36{fill:#ec008c;}.cls-37{opacity:0.5;}.cls-38{fill:#453f31;}.cls-39{fill:#bfb012;}.cls-40{fill:#f0dd16;}.cls-41{fill:#30734f;}.cls-42{fill:#009444;}.cls-43{fill:#168064;}.cls-44{fill:#1dbd80;}.cls-45{stroke:#dddac8;stroke-width:2px;}.cls-46{fill:#a37658;}</style></defs><title>shutterstock_1056356447 group females ver2 [Converted]</title><ellipse class="cls-1" cx="91" cy="733.09" rx="91" ry="6.78"/><path class="cls-2" d="M149.23,875.15h0A33.24,33.24,0,0,1,116,841.91V829.63a33.24,33.24,0,0,1,33.24-33.24h0a33.24,33.24,0,0,1,33.24,33.24v12.28A33.24,33.24,0,0,1,149.23,875.15Z" transform="translate(-58.45 -144.87)"/><path class="cls-3" d="M60.26,685.5h59.13a6.84,6.84,0,0,1,6.84,6.84v16.8a22.67,22.67,0,0,1-22.67,22.67H76.08a22.67,22.67,0,0,1-22.67-22.67V692.35a6.84,6.84,0,0,1,6.84-6.84Z"/><path class="cls-4" d="M111.93,873H96.82A14.63,14.63,0,0,1,82.2,858.34h0a14.63,14.63,0,0,1,14.62-14.62h15.11a14.63,14.63,0,0,1,14.62,14.62h0A14.63,14.63,0,0,1,111.93,873Z" transform="translate(-58.45 -144.87)"/><path class="cls-2" d="M74.33,874.47,90.69,881a12.19,12.19,0,0,0,15.83-6.81h0a12.18,12.18,0,0,0-6.8-15.83l-16.37-6.52a12.17,12.17,0,0,0-15.83,6.8h0A12.19,12.19,0,0,0,74.33,874.47Z" transform="translate(-58.45 -144.87)"/><path class="cls-2" d="M183.28,873h15.1A14.63,14.63,0,0,0,213,858.34h0a14.63,14.63,0,0,0-14.63-14.62h-15.1a14.63,14.63,0,0,0-14.63,14.62h0A14.63,14.63,0,0,0,183.28,873Z" transform="translate(-58.45 -144.87)"/><path class="cls-4" d="M224.78,873.06l-16.37,6.52a12.17,12.17,0,0,1-15.83-6.8h0A12.19,12.19,0,0,1,199.39,857l16.36-6.53a12.19,12.19,0,0,1,15.83,6.81h0A12.18,12.18,0,0,1,224.78,873.06Z" transform="translate(-58.45 -144.87)"/><path class="cls-2" d="M191.47,801.37l-15.62,12.2a9.8,9.8,0,0,1-13.75-1.69h0a9.8,9.8,0,0,1,1.69-13.76l15.61-12.2a9.81,9.81,0,0,1,13.76,1.69h0A9.8,9.8,0,0,1,191.47,801.37Z" transform="translate(-58.45 -144.87)"/><rect class="cls-2" x="177.91" y="768.12" width="48.36" height="27.01" rx="13.22" transform="matrix(0.79, -0.62, 0.62, 0.79, -496.84, 145.26)"/><path class="cls-2" d="M218.51,784.69h0a16.25,16.25,0,0,1-20.16-11l-.32-1.09a16.25,16.25,0,0,1,11-20.16h0a16.25,16.25,0,0,1,20.16,11l.32,1.1A16.25,16.25,0,0,1,218.51,784.69Z" transform="translate(-58.45 -144.87)"/><path class="cls-2" d="M204,762.22h0a4.29,4.29,0,0,1-5.13-3.24l-2-9.1a4.28,4.28,0,0,1,3.24-5.13h0a4.29,4.29,0,0,1,5.13,3.24l2.06,9.09A4.3,4.3,0,0,1,204,762.22Z" transform="translate(-58.45 -144.87)"/><path class="cls-2" d="M211.58,758.65h0a4.3,4.3,0,0,1-3.5-5l1.58-9.19a4.28,4.28,0,0,1,5-3.5h0a4.28,4.28,0,0,1,3.5,5l-1.58,9.18A4.3,4.3,0,0,1,211.58,758.65Z" transform="translate(-58.45 -144.87)"/><path class="cls-2" d="M217.74,760h0a4.3,4.3,0,0,1-.13-6.07l6.44-6.75a4.29,4.29,0,0,1,6.07-.13h0a4.29,4.29,0,0,1,.13,6.07l-6.44,6.74A4.3,4.3,0,0,1,217.74,760Z" transform="translate(-58.45 -144.87)"/><path class="cls-2" d="M220.79,766.29h0a4.29,4.29,0,0,1,2.61-5.48l8.78-3.12a4.29,4.29,0,0,1,5.49,2.61h0a4.3,4.3,0,0,1-2.61,5.48l-8.79,3.12A4.29,4.29,0,0,1,220.79,766.29Z" transform="translate(-58.45 -144.87)"/><path class="cls-4" d="M205,773.84h0a6.39,6.39,0,0,1-8.14-3.91l-1.14-3.24a6.4,6.4,0,0,1,3.91-8.14h0a6.38,6.38,0,0,1,8.14,3.91l1.14,3.24A6.38,6.38,0,0,1,205,773.84Z" transform="translate(-58.45 -144.87)"/><path class="cls-5" d="M139.82,833.89h14.83a11,11,0,0,1,11,11v3.17a11,11,0,0,1-11,11h-3.82a11,11,0,0,1-11-11V833.89a0,0,0,0,1,0,0Z" transform="translate(-341.21 -40.14) rotate(-20.19)"/><path class="cls-5" d="M173.12,842.27H140.85a5,5,0,0,1-4.95-5h0a5,5,0,0,1,4.95-4.95h32.27a5,5,0,0,1,4.95,4.95h0A5,5,0,0,1,173.12,842.27Z" transform="translate(-58.45 -144.87)"/><path class="cls-4" d="M161.1,798.58a33.14,33.14,0,0,0-11.87-2.19h0A33.24,33.24,0,0,0,116,829.63V833Z" transform="translate(-58.45 -144.87)"/><path class="cls-2" d="M107.87,842.93l1.75-19.74a9.8,9.8,0,0,1,10.63-8.89h0a9.79,9.79,0,0,1,8.89,10.62l-1.75,19.74a9.8,9.8,0,0,1-10.63,8.9h0A9.8,9.8,0,0,1,107.87,842.93Z" transform="translate(-58.45 -144.87)"/><path class="cls-2" d="M112.35,867.16l-3.53-16.92a12.48,12.48,0,0,1,9.66-14.77h0a12.48,12.48,0,0,1,14.77,9.66l3.53,16.93a12.47,12.47,0,0,1-9.66,14.77h0A12.49,12.49,0,0,1,112.35,867.16Z" transform="translate(-58.45 -144.87)"/><rect class="cls-2" x="55.38" y="710.51" width="30.41" height="25.05" rx="12.3"/><path class="cls-6" d="M154.6,842.27h-9.44a3.86,3.86,0,0,1-3.86-3.86h0a3.86,3.86,0,0,1,3.86-3.85h9.44a3.86,3.86,0,0,1,3.86,3.85h0A3.86,3.86,0,0,1,154.6,842.27Z" transform="translate(-58.45 -144.87)"/><path class="cls-4" d="M172.33,769.06h0a5.79,5.79,0,0,1-5.92-5.66l-.15-6.27a5.79,5.79,0,0,1,5.66-5.92h0a5.77,5.77,0,0,1,5.92,5.65l.15,6.27A5.8,5.8,0,0,1,172.33,769.06Z" transform="translate(-58.45 -144.87)"/><path class="cls-4" d="M103.75,796.82h0a5.8,5.8,0,0,1-8.16-.72l-4-4.81a5.79,5.79,0,0,1,.73-8.16h0a5.79,5.79,0,0,1,8.15.72l4,4.81A5.8,5.8,0,0,1,103.75,796.82Z" transform="translate(-58.45 -144.87)"/><path class="cls-2" d="M146.74,803.25h0a38,38,0,0,1-49.58-20.59L90.6,766.79a38,38,0,0,1,20.6-49.58h0a38,38,0,0,1,49.58,20.59l6.55,15.87A38,38,0,0,1,146.74,803.25Z" transform="translate(-58.45 -144.87)"/><path class="cls-7" d="M113.76,772.61h0a4.58,4.58,0,0,0-2.46,6h0l8.45-3.54h0A4.57,4.57,0,0,0,113.76,772.61Z" transform="translate(-58.45 -144.87)"/><path class="cls-7" d="M149.62,758.3h0a4.57,4.57,0,0,0-2.49,6h0l8.47-3.49h0A4.58,4.58,0,0,0,149.62,758.3Z" transform="translate(-58.45 -144.87)"/><path class="cls-8" d="M120.17,791.8l-4.38,1.71a5.46,5.46,0,0,1-7.08-3.11h0a5.46,5.46,0,0,1,3.11-7.08l4.37-1.71a5.48,5.48,0,0,1,7.08,3.11h0A5.47,5.47,0,0,1,120.17,791.8Z" transform="translate(-58.45 -144.87)"/><path class="cls-8" d="M161.73,774.23l-4.37,1.71a5.49,5.49,0,0,1-7.09-3.11h0a5.46,5.46,0,0,1,3.11-7.08l4.37-1.71a5.46,5.46,0,0,1,7.08,3.11h0A5.47,5.47,0,0,1,161.73,774.23Z" transform="translate(-58.45 -144.87)"/><path class="cls-9" d="M111.86,708.49H97.71v14.15a14.15,14.15,0,0,0,14.15,14.16h0A14.16,14.16,0,0,0,126,722.64h0A14.15,14.15,0,0,0,111.86,708.49Z" transform="translate(-58.45 -144.87)"/><path class="cls-9" d="M109,704.82a17.75,17.75,0,0,1,11.45,28.77c5.84-4.59,8.36-12.19,5.69-18.92S116.44,704.14,109,704.82Z" transform="translate(-58.45 -144.87)"/><path class="cls-7" d="M140.54,783.48l-2.83,1.13a9.5,9.5,0,0,1-12.35-5.3h0a1.12,1.12,0,0,1,.62-1.45l18.41-7.35a1.12,1.12,0,0,1,1.45.62h0A9.5,9.5,0,0,1,140.54,783.48Z" transform="translate(-58.45 -144.87)"/><path class="cls-5" d="M142.77,771.16,128,777.07a10.6,10.6,0,0,0,8.73.4h0A10.61,10.61,0,0,0,142.77,771.16Z" transform="translate(-58.45 -144.87)"/><path class="cls-5" d="M140.54,783.48a9.48,9.48,0,0,0,4-3.07A10.58,10.58,0,0,0,134,785.29a9.55,9.55,0,0,0,3.68-.68Z" transform="translate(-58.45 -144.87)"/><path class="cls-7" d="M140.54,783.48l-2.83,1.13a9.5,9.5,0,0,1-12.35-5.3h0a1.12,1.12,0,0,1,.62-1.45l18.41-7.35a1.12,1.12,0,0,1,1.45.62h0A9.5,9.5,0,0,1,140.54,783.48Z" transform="translate(-58.45 -144.87)"/><path class="cls-5" d="M142.77,771.16,128,777.07a10.6,10.6,0,0,0,8.73.4h0A10.61,10.61,0,0,0,142.77,771.16Z" transform="translate(-58.45 -144.87)"/><path class="cls-5" d="M140.54,783.48a9.48,9.48,0,0,0,4-3.07A10.58,10.58,0,0,0,134,785.29a9.55,9.55,0,0,0,3.68-.68Z" transform="translate(-58.45 -144.87)"/><ellipse class="cls-1" cx="303.31" cy="733.09" rx="62.19" ry="6.78"/><rect class="cls-4" x="287.4" y="544.53" width="18.74" height="26.3"/><path class="cls-10" d="M237.08,510.36H254.7a0,0,0,0,1,0,0v22.35a21.64,21.64,0,0,1-21.64,21.64H215.44a0,0,0,0,1,0,0V532A21.64,21.64,0,0,1,237.08,510.36Z"/><path class="cls-10" d="M397.27,655.23H414.9a21.64,21.64,0,0,1,21.64,21.64v22.35a0,0,0,0,1,0,0H418.91a21.64,21.64,0,0,1-21.64-21.64V655.23A0,0,0,0,1,397.27,655.23Z" transform="translate(775.98 1209.18) rotate(179.95)"/><path class="cls-10" d="M294.68,450.79h3.78a46.1,46.1,0,0,1,46.1,46.1v12.58a22.39,22.39,0,0,1-22.39,22.39H271a22.39,22.39,0,0,1-22.39-22.39V496.89A46.1,46.1,0,0,1,294.68,450.79Z"/><rect class="cls-4" x="391" y="663.04" width="12.49" height="19.26" rx="6" transform="translate(161.34 -232.99) rotate(17.43)"/><rect class="cls-4" x="306.92" y="662.23" width="12.49" height="19.26" rx="6" transform="translate(-214.03 -47.25) rotate(-14.23)"/><path class="cls-2" d="M355.21,705.17h0a40.93,40.93,0,0,1-40.92-41V645.69a40.94,40.94,0,0,1,41-40.92h0a40.94,40.94,0,0,1,40.93,41v18.52A40.94,40.94,0,0,1,355.21,705.17Z" transform="translate(-58.45 -144.87)"/><path class="cls-5" d="M343.7,671.43h23.79a0,0,0,0,1,0,0v.45a11,11,0,0,1-11,11H354.7a11,11,0,0,1-11-11v-.45A0,0,0,0,1,343.7,671.43Z" transform="translate(-50.28 -149.1) rotate(0.69)"/><path class="cls-11" d="M335,661h0a5,5,0,0,0-4.92,5h0l9.89,0h0A5,5,0,0,0,335,661Z" transform="translate(-58.45 -144.87)"/><path class="cls-11" d="M376.62,661.56h0a5,5,0,0,0-5,4.94h0l9.89,0h0A5,5,0,0,0,376.62,661.56Z" transform="translate(-58.45 -144.87)"/><path class="cls-8" d="M333.45,682.81l-5.07-.1a5.91,5.91,0,0,1-5.78-6h0a5.91,5.91,0,0,1,6-5.78l5.06.11a5.88,5.88,0,0,1,5.78,6h0A5.89,5.89,0,0,1,333.45,682.81Z" transform="translate(-58.45 -144.87)"/><path class="cls-8" d="M382.12,682.43l-5.07-.1a5.91,5.91,0,0,1-5.78-6h0a5.91,5.91,0,0,1,6-5.78l5.06.1a5.9,5.9,0,0,1,5.78,6h0A5.89,5.89,0,0,1,382.12,682.43Z" transform="translate(-58.45 -144.87)"/><path class="cls-10" d="M290.89,454.3h9.72A25.73,25.73,0,0,1,326.34,480v25.16a0,0,0,0,1,0,0h-38A23.15,23.15,0,0,1,265.16,482v-2A25.73,25.73,0,0,1,290.89,454.3Z"/><path class="cls-10" d="M344.27,652.05c-13.1-2.58-21.83-16.34-19.49-30.74h0a26.93,26.93,0,0,1,10-17.19c-7.34,4.62-12.26,13.33-12.21,23.28h0c.07,14.62,10.92,26.43,24.23,26.36l6,0Z" transform="translate(-58.45 -144.87)"/><path class="cls-12" d="M336.36,878.33h0c-5.13,0-9.37-5.2-9.63-11.83l-3.17-79.28c-.29-7.13,4.11-13.11,9.64-13.11h8.71c5.67,0,10.12,6.29,9.61,13.59L346,867C345.53,873.41,341.36,878.33,336.36,878.33Z" transform="translate(-58.45 -144.87)"/><path class="cls-13" d="M385.46,878.08h0c-5,1.25-10.38-2.82-12.27-9.27l-22.67-77.12c-2-6.93.75-13.88,6.11-15.23l8.45-2.13c5.5-1.38,11.37,3.71,12.68,11L392,864.59C393.13,871,390.3,876.86,385.46,878.08Z" transform="translate(-58.45 -144.87)"/><path class="cls-13" d="M353.5,807.05H349a25.41,25.41,0,0,1-25.41-25.42h0A21.65,21.65,0,0,1,345.2,760h8.3A23.54,23.54,0,0,1,377,783.51h0A23.54,23.54,0,0,1,353.5,807.05Z" transform="translate(-58.45 -144.87)"/><path class="cls-13" d="M329.13,860.89h-.39a13.87,13.87,0,0,0-13.87,13.87h0a3.5,3.5,0,0,0,3.5,3.5h19.1a4.51,4.51,0,0,0,4.51-4.51h0A12.85,12.85,0,0,0,329.13,860.89Z" transform="translate(-58.45 -144.87)"/><path class="cls-13" d="M391.37,860.89h1.47a13.87,13.87,0,0,1,13.87,13.87h0a3.5,3.5,0,0,1-3.5,3.5H383a4.51,4.51,0,0,1-4.51-4.51h0A12.85,12.85,0,0,1,391.37,860.89Z" transform="translate(-58.45 -144.87)"/><path class="cls-14" d="M361.12,711H349.85A21,21,0,0,0,329,730l-5.4,54.14H377l5-50A21,21,0,0,0,361.12,711Z" transform="translate(-58.45 -144.87)"/><path class="cls-14" d="M329.08,740.61h0a13.24,13.24,0,0,1-13.22-13.26v-1.61a13.25,13.25,0,0,1,13.27-13.23h0a13.26,13.26,0,0,1,13.23,13.27v1.61A13.24,13.24,0,0,1,329.08,740.61Z" transform="translate(-58.45 -144.87)"/><path class="cls-3" d="M329.13,746H329a10.17,10.17,0,0,1-10.18-10.17h0A10.17,10.17,0,0,1,329,725.69h.13a10.17,10.17,0,0,1,10.18,10.17h0A10.17,10.17,0,0,1,329.13,746Z" transform="translate(-58.45 -144.87)"/><rect class="cls-3" x="265.1" y="635.3" width="53.88" height="3.93"/><path class="cls-4" d="M329,788.9h0a8.86,8.86,0,0,1-8.86-8.84l0-42.3a8.85,8.85,0,0,1,8.85-8.85h0a8.84,8.84,0,0,1,8.85,8.84l0,42.3A8.84,8.84,0,0,1,329,788.9Z" transform="translate(-58.45 -144.87)"/><path class="cls-3" d="M351.15,720.34h3.76a14.77,14.77,0,0,0,13.17-8.11,20.76,20.76,0,0,0-7-1.19H349.85a20.89,20.89,0,0,0-7.68,1.45A9.07,9.07,0,0,0,351.15,720.34Z" transform="translate(-58.45 -144.87)"/><path class="cls-4" d="M347.92,716.26a6,6,0,0,0,3.35,1h3.64A11.63,11.63,0,0,0,365,711.4l-.52-.13a37.79,37.79,0,0,0-19.24.3h0A5.94,5.94,0,0,0,347.92,716.26Z" transform="translate(-58.45 -144.87)"/><path class="cls-10" d="M424.09,659.43c9.66,4.75,15.93,13.27,17.2,22,.36-9.58-5.67-19.46-16-24.51s-21.79-3.79-29.15,2.35C403.85,654.93,414.43,654.69,424.09,659.43Z" transform="translate(-58.45 -144.87)"/><path class="cls-2" d="M340.17,827.88h0a1.49,1.49,0,0,1-1.57-1.37l-4.36-41.77a3.21,3.21,0,0,1,2.86-3.61h0a3.23,3.23,0,0,1,3.4,3.21l1,42A1.49,1.49,0,0,1,340.17,827.88Z" transform="translate(-58.45 -144.87)"/><path class="cls-2" d="M331.53,827.67h0a1.51,1.51,0,0,1-1.46-1.5l-.73-42a3.21,3.21,0,0,1,3.17-3.34h0a3.21,3.21,0,0,1,3.1,3.49L333,826.23A1.5,1.5,0,0,1,331.53,827.67Z" transform="translate(-58.45 -144.87)"/><rect class="cls-3" x="327.72" y="777.45" width="12.95" height="11" rx="4.91" transform="translate(-22.97 -159.08) rotate(2.57)"/><rect class="cls-3" x="328.14" y="783.35" width="12.95" height="13.05" transform="translate(-100.62 -125.65) rotate(-3.1)"/><path class="cls-11" d="M339.19,773.21h0A19.08,19.08,0,0,1,316.27,759l-2.71-11.61a19.08,19.08,0,0,1,14.25-22.91h0a19.07,19.07,0,0,1,22.91,14.24l2.71,11.61A19.07,19.07,0,0,1,339.19,773.21Z" transform="translate(-58.45 -144.87)"/><path class="cls-2" d="M336,730.43a15.74,15.74,0,0,0-11.4-1.68h0c-8.9,0-14.53,7.1-12.51,15.77l1.29,5.53a15.76,15.76,0,0,0,18.93,11.77h0l.11,0a10.1,10.1,0,0,0,7.4-11.79Z" transform="translate(-58.45 -144.87)"/><path class="cls-8" d="M335.9,754.88l-1.79.42a3.07,3.07,0,0,1-3.68-2.29h0a3.07,3.07,0,0,1,2.29-3.68l1.79-.41a3.05,3.05,0,0,1,3.68,2.28h0A3.06,3.06,0,0,1,335.9,754.88Z" transform="translate(-58.45 -144.87)"/><path class="cls-11" d="M318.56,748.76a2.19,2.19,0,1,0-4.26,1,2.19,2.19,0,0,0,4.26-1Z" transform="translate(-58.45 -144.87)"/><path class="cls-11" d="M334.63,745.56a2.19,2.19,0,1,0-1.64,2.63A2.19,2.19,0,0,0,334.63,745.56Z" transform="translate(-58.45 -144.87)"/><path class="cls-15" d="M323.23,751.33h4.35a1.77,1.77,0,0,1,1.77,1.77v.14a1.76,1.76,0,0,1-1.76,1.76h-4.35a1.77,1.77,0,0,1-1.77-1.77v-.14A1.76,1.76,0,0,1,323.23,751.33Z" transform="translate(-201.96 -64.96) rotate(-11.49)"/><path class="cls-11" d="M337.19,740,311.24,745a1.57,1.57,0,0,1-1.83-1.24h0a14.89,14.89,0,0,1,11.76-17.47l7.56-1.48a7,7,0,0,1,8.18,5.5l1.52,7.78A1.56,1.56,0,0,1,337.19,740Z" transform="translate(-58.45 -144.87)"/><path class="cls-8" d="M320.68,753.72a3.09,3.09,0,0,0-3.39-1.34l-1.7.39a2.9,2.9,0,0,0-1.09.52,15.61,15.61,0,0,0,3.93,5.11l.34-.08A3.07,3.07,0,0,0,320.68,753.72Z" transform="translate(-58.45 -144.87)"/><path class="cls-2" d="M320.81,786.53h0a1.3,1.3,0,0,1-.8-1.6l6-19.09a2.18,2.18,0,0,1,2.82-1.4h0a2.18,2.18,0,0,1,1.28,2.88l-7.63,18.49A1.3,1.3,0,0,1,320.81,786.53Z" transform="translate(-58.45 -144.87)"/><rect class="cls-3" x="328.1" y="762.83" width="12.03" height="15.89" rx="5.78" transform="translate(-23.5 -159.1) rotate(2.57)"/><path class="cls-3" d="M331.33,829.89h0a1.21,1.21,0,0,1-1.15-1.09l-.48-5.27a1.21,1.21,0,0,1,1.26-1.31l1.42.06a1.2,1.2,0,0,1,1.13,1.42l-.95,5.2A1.2,1.2,0,0,1,331.33,829.89Z" transform="translate(-58.45 -144.87)"/><path class="cls-3" d="M340.38,829.92h0a1.21,1.21,0,0,1-1.27-.94L338,823.81a1.2,1.2,0,0,1,1.08-1.46l1.42-.11a1.2,1.2,0,0,1,1.3,1.26l-.29,5.29A1.21,1.21,0,0,1,340.38,829.92Z" transform="translate(-58.45 -144.87)"/><path class="cls-3" d="M330.69,828.13a1.18,1.18,0,0,0-.56.12l.05.55a1.2,1.2,0,0,0,2.38.1l.1-.54a1.1,1.1,0,0,0-.54-.16Z" transform="translate(-58.45 -144.87)"/><path class="cls-3" d="M341.52,828.18a1.29,1.29,0,0,0-.52-.08l-1.42.12a1.31,1.31,0,0,0-.59.21l.12.55a1.21,1.21,0,0,0,2.38-.19Z" transform="translate(-58.45 -144.87)"/><path class="cls-14" d="M368.7,743.17h0a13.26,13.26,0,0,1-3.29-18.45l3.63-5.21a13.26,13.26,0,0,1,18.45-3.29h0a13.26,13.26,0,0,1,3.29,18.45l-3.63,5.2A13.25,13.25,0,0,1,368.7,743.17Z" transform="translate(-58.45 -144.87)"/><path class="cls-3" d="M365.07,747.43l-.11-.08a10.17,10.17,0,0,1-2.23-14.21h0A10.17,10.17,0,0,1,377,730.91l.1.07a10.18,10.18,0,0,1,2.23,14.22h0A10.17,10.17,0,0,1,365.07,747.43Z" transform="translate(-58.45 -144.87)"/><path class="cls-2" d="M335.72,787.68h0a8.86,8.86,0,0,1-1.94-12.37L362.41,736a8.84,8.84,0,0,1,12.36-1.94h0a8.84,8.84,0,0,1,1.94,12.36l-28.63,39.28A8.84,8.84,0,0,1,335.72,787.68Z" transform="translate(-58.45 -144.87)"/><path class="cls-4" d="M343.41,785h0a1.28,1.28,0,0,1-1.49-1l-4.52-19.48a2.17,2.17,0,0,1,1.72-2.63h0a2.18,2.18,0,0,1,2.56,1.84l2.78,19.8A1.29,1.29,0,0,1,343.41,785Z" transform="translate(-58.45 -144.87)"/><ellipse class="cls-1" cx="744.17" cy="733.09" rx="117.67" ry="6.78"/><path class="cls-2" d="M840.73,581h0c-15.77,0-28.17,15-26.86,32.47l18.9,252.81c.38,5.11,4.21,9,8.82,9h0c4.63,0,8.48-4,8.83-9.1l17.19-253C868.79,595.79,856.42,581,840.73,581Z" transform="translate(-58.45 -144.87)"/><path class="cls-2" d="M809.3,582h0c-15.33-4.07-30.52,7.31-32.89,24.65l-34.34,250.8c-.69,5.06,2.22,9.87,6.7,11.06h0c4.51,1.19,9.08-1.68,10.49-6.58l69.47-241.63C833.5,603.67,824.56,586,809.3,582Z" transform="translate(-58.45 -144.87)"/><path class="cls-5" d="M882.6,879.18H836.85A6.14,6.14,0,0,1,830.7,873v-2.86A11.25,11.25,0,0,1,842,858.93h6.6a49.86,49.86,0,0,1,36.1,15.47h0A2.83,2.83,0,0,1,882.6,879.18Z" transform="translate(-58.45 -144.87)"/><path class="cls-5" d="M708.24,879.18h45.61a6.28,6.28,0,0,0,6.28-6.28v-2.72a11.25,11.25,0,0,0-11.25-11.25h-6.6a49.83,49.83,0,0,0-36.09,15.47h0A2.83,2.83,0,0,0,708.24,879.18Z" transform="translate(-58.45 -144.87)"/><path class="cls-4" d="M867.61,613.19c1.18-17.4-11.19-32.24-26.88-32.24h0c-.65,0-1.29,0-1.93.09l-12.38,4.48c-8.22,5.75-13.42,16.27-12.55,27.9l6.75,90.34,41.86-15.17Z" transform="translate(-58.45 -144.87)"/><path class="cls-4" d="M802.88,710.2l25.85-89.91c3.5-12.19-.38-24.92-8.72-32.44l-43,15.59c-.24,1-.45,2.11-.59,3.2L760.11,725.7Z" transform="translate(-58.45 -144.87)"/><path class="cls-11" d="M844.19,558.23h0a53.13,53.13,0,0,1-63.25-40.56l-19.87-90.84a53.13,53.13,0,0,1,40.56-63.26h0a53.14,53.14,0,0,1,63.25,40.56L884.75,495A53.14,53.14,0,0,1,844.19,558.23Z" transform="translate(-58.45 -144.87)"/><path class="cls-11" d="M773.33,556.12h0a53.12,53.12,0,0,1-35.87-66l21.67-73.23a53.12,53.12,0,0,1,66-35.87h0A53.13,53.13,0,0,1,861,447l-21.66,73.22A53.13,53.13,0,0,1,773.33,556.12Z" transform="translate(-58.45 -144.87)"/><path class="cls-11" d="M825.52,482.51l-2.7.12a53.49,53.49,0,0,1-55.83-51h0a53.49,53.49,0,0,1,51-55.84l2.7-.12a53.49,53.49,0,0,1,55.83,51.05h0A53.49,53.49,0,0,1,825.52,482.51Z" transform="translate(-58.45 -144.87)"/><rect class="cls-4" x="748.52" y="319.72" width="22.68" height="29.53"/><path class="cls-11" d="M851.52,353.12a36,36,0,0,1-15.09,66.46,36,36,0,1,0-2.12-71.75A35.82,35.82,0,0,1,851.52,353.12Z" transform="translate(-58.45 -144.87)"/><path class="cls-4" d="M854.19,453.64h0l2.3-20.28h0a10.21,10.21,0,0,1,9,11.29h0A10.21,10.21,0,0,1,854.19,453.64Z" transform="translate(-58.45 -144.87)"/><path class="cls-4" d="M783.29,453.64h0L781,433.36h0a10.2,10.2,0,0,0-9,11.29h0A10.21,10.21,0,0,0,783.29,453.64Z" transform="translate(-58.45 -144.87)"/><rect class="cls-2" x="719.66" y="228.4" width="82.27" height="103.87" rx="41.13"/><path class="cls-5" d="M806.71,446.32h25.16a0,0,0,0,1,0,0v1.11a11,11,0,0,1-11,11h-3.16a11,11,0,0,1-11-11v-1.11A0,0,0,0,1,806.71,446.32Z" transform="translate(-56.81 -147.83) rotate(0.21)"/><path class="cls-11" d="M839.51,442h0a3.32,3.32,0,0,1-3.32-3.31v-3.2a3.32,3.32,0,0,1,3.32-3.31h0a3.31,3.31,0,0,1,3.31,3.31v3.2A3.31,3.31,0,0,1,839.51,442Z" transform="translate(-58.45 -144.87)"/><path class="cls-11" d="M798,442h0a3.31,3.31,0,0,1-3.31-3.31v-3.2a3.31,3.31,0,0,1,3.31-3.31h0a3.31,3.31,0,0,1,3.31,3.31v3.2A3.31,3.31,0,0,1,798,442Z" transform="translate(-58.45 -144.87)"/><path class="cls-8" d="M846.37,456.33H841.3a5.9,5.9,0,0,1-5.91-5.88h0a5.89,5.89,0,0,1,5.88-5.91l5.06,0a5.9,5.9,0,0,1,5.92,5.88h0A5.9,5.9,0,0,1,846.37,456.33Z" transform="translate(-58.45 -144.87)"/><path class="cls-8" d="M797.27,456.33H792.2a5.89,5.89,0,0,1-5.91-5.88h0a5.89,5.89,0,0,1,5.88-5.91l5.06,0a5.9,5.9,0,0,1,5.92,5.88h0A5.9,5.9,0,0,1,797.27,456.33Z" transform="translate(-58.45 -144.87)"/><ellipse class="cls-11" cx="767.63" cy="241.93" rx="44.71" ry="36.69"/><path class="cls-11" d="M778.11,434.12l15.34-46.41h0a18.83,18.83,0,0,0-19.32,21.82Z" transform="translate(-58.45 -144.87)"/><circle class="cls-12" cx="727.54" cy="480.89" r="50.8"/><ellipse class="cls-13" cx="733.9" cy="473.21" rx="50.8" ry="47.95"/><circle class="cls-12" cx="801.15" cy="640.45" r="51.56" transform="translate(-276.66 609.21) rotate(-45)"/><ellipse class="cls-13" cx="754.33" cy="487.47" rx="51.56" ry="48.58"/><circle class="cls-12" cx="781.06" cy="487.67" r="50.8"/><ellipse class="cls-13" cx="787.82" cy="476.01" rx="50.8" ry="48.54"/><path class="cls-4" d="M822.1,567.22l14.92-52c2.73-9.52,11.5-15.35,19.13-12.72h0c7.7,2.65,11,12.78,7.17,22l-20.75,49.94c-2.62,6.29-8.63,9.84-14,8.23h0C823,581,820.12,574.14,822.1,567.22Z" transform="translate(-58.45 -144.87)"/><circle class="cls-12" cx="849.32" cy="514.88" r="19.68" transform="translate(-154.64 65.93) rotate(-13.4)"/><path class="cls-2" d="M832,534.56H802.47a21.22,21.22,0,0,1-21.22-21.22h0a21.22,21.22,0,0,1,21.22-21.22H832a21.22,21.22,0,0,1,21.22,21.22h0A21.22,21.22,0,0,1,832,534.56Z" transform="translate(-58.45 -144.87)"/><path class="cls-12" d="M828.68,596.32h0c-15.73,0-28.93-10.81-30.59-25.05L793,527.76h52.88l5.34,45.73C852.65,585.69,842.15,596.32,828.68,596.32Z" transform="translate(-58.45 -144.87)"/><circle class="cls-13" cx="786.92" cy="514.69" r="20.04" transform="translate(-51.76 894.6) rotate(-67.11)"/><path class="cls-13" d="M846.08,542.09l-30.4.45A17.39,17.39,0,0,1,798,525.4h0a17.39,17.39,0,0,1,17.13-17.64l30.4-.45a17.39,17.39,0,0,1,17.65,17.14h0A17.39,17.39,0,0,1,846.08,542.09Z" transform="translate(-58.45 -144.87)"/><path class="cls-5" d="M779.28,458.44a3.68,3.68,0,1,0-3.68,3.67A3.68,3.68,0,0,0,779.28,458.44Z" transform="translate(-58.45 -144.87)"/><path class="cls-5" d="M864.05,458.44a3.68,3.68,0,1,0-3.67,3.67A3.67,3.67,0,0,0,864.05,458.44Z" transform="translate(-58.45 -144.87)"/><path class="cls-4" d="M747.92,567l20.53-50c3.75-9.16,13.11-14,20.41-10.54h0c7.36,3.47,9.53,13.91,4.71,22.65l-26.1,47.36c-3.29,6-9.66,8.84-14.77,6.65h0C747.3,580.81,745.19,573.7,747.92,567Z" transform="translate(-58.45 -144.87)"/><path class="cls-2" d="M746.4,576.14h0A12,12,0,0,1,756,561l57.54-9.47a6.33,6.33,0,0,1,7.12,4.5h0a6.33,6.33,0,0,1-3.87,7.69l-54.64,20.4A12,12,0,0,1,746.4,576.14Z" transform="translate(-58.45 -144.87)"/><path class="cls-16" d="M867.37,595l-61.85,6.66c-4,.43-7.65-2.15-8.15-5.77l-4.09-29.51c-.5-3.66,2.37-7,6.41-7.42l61.86-6.65c4-.43,7.64,2.14,8.14,5.76l4.09,29.52C874.29,591.23,871.41,594.56,867.37,595Z" transform="translate(-58.45 -144.87)"/><path class="cls-5" d="M873.79,587.62l-4.09-29.51c-.5-3.64-4.26-6.23-8.39-5.79l-61.47,6.62c-.24,0-.47.06-.7.1a5.92,5.92,0,0,0-1,4.13l4.09,29.51c.5,3.64,4.26,6.23,8.38,5.79l61.48-6.62a5.37,5.37,0,0,0,.7-.11A5.94,5.94,0,0,0,873.79,587.62Z" transform="translate(-58.45 -144.87)"/><path class="cls-2" d="M830.09,584.57h0A22.4,22.4,0,0,1,804,566.64l-2.43-13,12.93-2.41a9.28,9.28,0,0,1,10.81,7.41Z" transform="translate(-58.45 -144.87)"/><path class="cls-2" d="M843.89,577.42l3.17.88a15.75,15.75,0,0,0,19.39-11l2.71-9.76a9.78,9.78,0,0,0-6.8-12h0A9.28,9.28,0,0,0,851,552Z" transform="translate(-58.45 -144.87)"/><path class="cls-2" d="M848.55,858.39H842a11.52,11.52,0,0,0-11.25,11.78v.26h23.45a12.32,12.32,0,0,0,11.63-8.82A47.77,47.77,0,0,0,848.55,858.39Z" transform="translate(-58.45 -144.87)"/><path class="cls-2" d="M748.88,858.39h-6.6a47.63,47.63,0,0,0-14,2.11,11.49,11.49,0,0,0,11.17,9.93h20.65v-.26A11.52,11.52,0,0,0,748.88,858.39Z" transform="translate(-58.45 -144.87)"/><ellipse class="cls-1" cx="524.75" cy="733.09" rx="90.09" ry="6.78"/><path class="cls-2" d="M548.3,871.2h0a8.11,8.11,0,0,0,8.5-7l23.91-177a21.79,21.79,0,0,0-20.32-24.66h0a21.79,21.79,0,0,0-23,22.15l3.32,178.54A8.1,8.1,0,0,0,548.3,871.2Z" transform="translate(-58.45 -144.87)"/><path class="cls-2" d="M624.24,870.05h0a8.09,8.09,0,0,0,6.15-9.14l-27.5-176.44a21.77,21.77,0,0,0-26.5-17.84h0a21.77,21.77,0,0,0-15.77,27.78l54,170.2A8.11,8.11,0,0,0,624.24,870.05Z" transform="translate(-58.45 -144.87)"/><path class="cls-16" d="M614.66,864.61a8.1,8.1,0,0,0,15.73-3.7l-10.55-67.69-26.94,2.87Z" transform="translate(-58.45 -144.87)"/><path class="cls-16" d="M539.43,796.6l1.24,66.66a8.1,8.1,0,0,0,16.13.93l9.13-67.59Z" transform="translate(-58.45 -144.87)"/><polygon class="cls-5" points="481.04 655.14 507.02 655.14 507.58 651.01 480.97 651.01 481.04 655.14"/><polygon class="cls-5" points="535.34 654.01 561.83 651.15 561.19 647.07 534.07 650 535.34 654.01"/><path class="cls-5" d="M644.47,862.9,629,858.52l-5,.68a2.09,2.09,0,0,0-1.79,2.36,2.1,2.1,0,0,1-1.79,2.35l-5.83.79a12,12,0,0,0-1.22,5.27,5.54,5.54,0,0,0,5.53,5.54H654A13.11,13.11,0,0,0,644.47,862.9Z" transform="translate(-58.45 -144.87)"/><path class="cls-5" d="M556.35,862.14h-5.5a2.09,2.09,0,0,1-2.09-2.09,2.1,2.1,0,0,0-1.82-2.07,14.41,14.41,0,0,0-4.09.44l-17.33,4.48c-6.16,1.6-10.41,6.74-10.41,12.61h38.37a5.81,5.81,0,0,0,6-5.54A11.34,11.34,0,0,0,556.35,862.14Z" transform="translate(-58.45 -144.87)"/><path class="cls-17" d="M615,872.75h39.11a2.76,2.76,0,0,1,2.76,2.76h0a2.76,2.76,0,0,1-2.76,2.75H615a2.76,2.76,0,0,1-2.76-2.75h0A2.76,2.76,0,0,1,615,872.75Z" transform="translate(-58.45 -144.87)"/><rect class="cls-17" x="454.06" y="727.87" width="48.16" height="5.52" rx="2.76"/><path class="cls-11" d="M556.94,863.18h-5.76a3.09,3.09,0,0,1-3.09-3.09A1.09,1.09,0,0,0,547,859h-6.41v-2H547a3.1,3.1,0,0,1,3.09,3.09,1.09,1.09,0,0,0,1.09,1.09h5.76Z" transform="translate(-58.45 -144.87)"/><path class="cls-11" d="M614.87,865.33l-.29-2,5.7-.83a1.1,1.1,0,0,0,.92-1.24,3.09,3.09,0,0,1,2.61-3.5l6.34-.93.29,2-6.34.93a1.08,1.08,0,0,0-.92,1.23,3.11,3.11,0,0,1-2.61,3.51Z" transform="translate(-58.45 -144.87)"/><path class="cls-18" d="M624,746.89a5,5,0,0,0-2.37-9.38,5.14,5.14,0,0,0-1.58.28,6.88,6.88,0,0,0-3.62-1H534.25a6.85,6.85,0,0,0-3.19.79,5,5,0,0,0-5.94,8,5,5,0,0,0,3.27,8.75,5.09,5.09,0,0,0,2.39-.62,4.63,4.63,0,0,0-.26,1.5,5,5,0,0,0,9.86,1.12h.18c0,.13,0,.26,0,.39a5,5,0,1,0,10,0c0-.13,0-.26,0-.39h.08c0,.13,0,.26,0,.39a5,5,0,0,0,9.87,1.08,5,5,0,0,0,9.7.18,5.15,5.15,0,0,0,10.27-.48,5.07,5.07,0,0,0-.15-1.17h.25a4.87,4.87,0,0,0-.1,1,5,5,0,0,0,9.75,1.47,5,5,0,0,0,9.54,1.23A5.44,5.44,0,0,0,610,758.34a5,5,0,0,0,9.54-2.08,4.4,4.4,0,0,0,0-.51,5,5,0,0,0,4.55-8.86Zm-33.66,9.37c0,.1-.06.2-.09.29a2.58,2.58,0,0,1,0-.29Z" transform="translate(-58.45 -144.87)"/><path class="cls-14" d="M535.94,480.49h24.36a24.42,24.42,0,0,1,24.42,24.42V531.6a12.17,12.17,0,0,1-12.17,12.17H535.94a12.17,12.17,0,0,1-12.17-12.17V492.66A12.17,12.17,0,0,1,535.94,480.49Z"/><rect class="cls-17" x="526.51" y="527.69" width="106.53" height="102.3" rx="48.15" transform="translate(1190.08 -39.28) rotate(99.76)"/><circle class="cls-11" cx="532.47" cy="625.2" r="17.98" transform="translate(-307.83 731.52) rotate(-67.39)"/><path class="cls-3" d="M528.87,616.16a13.69,13.69,0,1,1-15.24,12A13.69,13.69,0,0,1,528.87,616.16Z" transform="translate(-58.45 -144.87)"/><path class="cls-4" d="M491,658.77h0a8.74,8.74,0,0,1,.8-11.62l24.36-23a11.52,11.52,0,0,1,17.14,1.18h0a11.51,11.51,0,0,1-2.79,16.7l-27.82,18.68A8.74,8.74,0,0,1,491,658.77Z" transform="translate(-58.45 -144.87)"/><path class="cls-14" d="M507,459.62h46.8A24.42,24.42,0,0,1,578.22,484v50A12.17,12.17,0,0,1,566,546.19H507A12.17,12.17,0,0,1,494.83,534V471.79A12.17,12.17,0,0,1,507,459.62Z"/><path class="cls-3" d="M625.26,660.43a1.5,1.5,0,0,1-1.5-1.5v-31A23,23,0,0,0,600.84,605a1.5,1.5,0,1,1,0-3,26,26,0,0,1,25.92,25.93v31A1.5,1.5,0,0,1,625.26,660.43Z" transform="translate(-58.45 -144.87)"/><path class="cls-19" d="M611.7,678.89v-50a24.52,24.52,0,0,0-24.61-24.43H553.73a12.22,12.22,0,0,0-12.27,12.18v62.22a12.22,12.22,0,0,0,12.27,12.17h45.7A12.22,12.22,0,0,0,611.7,678.89Z" transform="translate(-58.45 -144.87)"/><path class="cls-20" d="M575.79,674.5l-35.54-22.26a24.58,24.58,0,0,1-11.46-20.84h0a24.31,24.31,0,0,1,24.13-24.49h11" transform="translate(-58.45 -144.87)"/><path class="cls-17" d="M609.07,751.65H543.18a13.6,13.6,0,0,1-13.6-13.6V711.83c0-34.57,12.69-53.35,28.35-53.35h0a63.21,63.21,0,0,1,63.21,63.21v17.9A12.06,12.06,0,0,1,609.07,751.65Z" transform="translate(-58.45 -144.87)"/><path class="cls-5" d="M562.56,680.93h-5.25a19.86,19.86,0,0,1-19.86-19.86h0a19.87,19.87,0,0,1,19.86-19.87h5.25a19.87,19.87,0,0,1,19.87,19.87h0A19.87,19.87,0,0,1,562.56,680.93Z" transform="translate(-58.45 -144.87)"/><path class="cls-17" d="M511.48,500.85h1.6a33.63,33.63,0,0,1,33.63,33.63V565.8a0,0,0,0,1,0,0h-3a32.21,32.21,0,0,1-32.21-32.21V500.85a0,0,0,0,1,0,0Z" transform="translate(197.28 -311.3) rotate(23.43)"/><rect class="cls-4" x="494.22" y="436.38" width="22.69" height="31.7"/><path class="cls-2" d="M560.88,598.06h0a43.31,43.31,0,0,1-43.28-43.32l5.45-31.06a38.44,38.44,0,0,1,37.88-31.8h0a43.31,43.31,0,0,1,43.28,43.32v19.58A43.31,43.31,0,0,1,560.88,598.06Z" transform="translate(-58.45 -144.87)"/><path class="cls-5" d="M539.87,570.38H565a0,0,0,0,1,0,0v1.11a11,11,0,0,1-11,11h-3.16a11,11,0,0,1-11-11v-1.11A0,0,0,0,1,539.87,570.38Z" transform="translate(-51.47 -151.49) rotate(0.69)"/><rect class="cls-17" x="444.68" y="335.58" width="88.91" height="59.46" rx="29.73"/><path class="cls-17" d="M523.28,354.35h0A33.63,33.63,0,0,1,556.92,388v31.32a0,0,0,0,1,0,0H555.5a32.21,32.21,0,0,1-32.21-32.21V354.35A0,0,0,0,1,523.28,354.35Z"/><path class="cls-11" d="M573.67,566h0a3.32,3.32,0,0,1-3.32-3.32V559.5a3.32,3.32,0,0,1,3.32-3.31h0A3.31,3.31,0,0,1,577,559.5v3.19A3.32,3.32,0,0,1,573.67,566Z" transform="translate(-58.45 -144.87)"/><path class="cls-11" d="M532.19,566h0a3.32,3.32,0,0,1-3.31-3.32V559.5a3.31,3.31,0,0,1,3.31-3.31h0a3.31,3.31,0,0,1,3.31,3.31v3.19A3.32,3.32,0,0,1,532.19,566Z" transform="translate(-58.45 -144.87)"/><path class="cls-4" d="M598.88,575.43h0l2.3-20.28h0a10.21,10.21,0,0,1,9,11.29h0A10.21,10.21,0,0,1,598.88,575.43Z" transform="translate(-58.45 -144.87)"/><path class="cls-8" d="M580.39,580.44l-5.06-.1a5.89,5.89,0,0,1-5.78-6h0a5.89,5.89,0,0,1,6-5.78l5.06.1a5.9,5.9,0,0,1,5.78,6h0A5.9,5.9,0,0,1,580.39,580.44Z" transform="translate(-58.45 -144.87)"/><circle class="cls-17" cx="474.62" cy="363.47" r="33.75"/><path class="cls-17" d="M505.15,522.61a36,36,0,0,1,50.19-46.12,36,36,0,1,0-39,60.25A35.84,35.84,0,0,1,505.15,522.61Z" transform="translate(-58.45 -144.87)"/><path class="cls-16" d="M499.53,462.21h10.59a17,17,0,0,1,17,17v25.21A27.58,27.58,0,0,1,499.53,532h0a27.58,27.58,0,0,1-27.58-27.58V489.8a27.58,27.58,0,0,1,27.58-27.58Z"/><path class="cls-8" d="M530.53,568.65l-5.07-.1a5.89,5.89,0,0,0-4.77,2.28,43.64,43.64,0,0,0,5.29,9.53l4.31.08a5.9,5.9,0,1,0,.24-11.79Z" transform="translate(-58.45 -144.87)"/><path class="cls-5" d="M578.66,610.42a16.92,16.92,0,0,0-10.09-3.34H558a27.55,27.55,0,0,0-18.67,7.28,7.83,7.83,0,0,0,.47,3.12,7.6,7.6,0,0,0,7.17,5,47.78,47.78,0,0,0,31.42-11.78Z" transform="translate(-58.45 -144.87)"/><ellipse class="cls-18" cx="574.45" cy="492.91" rx="6.11" ry="12.93" transform="translate(-191.06 618.25) rotate(-61.55)"/><ellipse class="cls-18" cx="597.19" cy="505.23" rx="6.11" ry="12.93" transform="translate(-189.99 644.69) rotate(-61.55)"/><ellipse class="cls-18" cx="590.1" cy="491.17" rx="8.98" ry="8.79" transform="translate(-181.32 631.14) rotate(-61.55)"/><path class="cls-18" d="M577.26,514.86a9,9,0,1,0-3.45-12.08A8.88,8.88,0,0,0,577.26,514.86Z" transform="translate(-58.45 -144.87)"/><ellipse class="cls-18" cx="580.81" cy="489.12" rx="6.8" ry="11.62" transform="translate(-236.88 332.5) rotate(-39.22)"/><ellipse class="cls-18" cx="590.83" cy="509.01" rx="6.8" ry="11.62" transform="translate(-247.19 343.31) rotate(-39.22)"/><ellipse class="cls-18" cx="596.88" cy="497.84" rx="6.8" ry="11.62" transform="translate(-20.22 893.35) rotate(-83.88)"/><path class="cls-18" d="M563.69,501.53c1.88,3.73,8.36,6.2,14.47,5.53s9.54-4.26,7.66-8-8.36-6.21-14.47-5.53S561.81,497.79,563.69,501.53Z" transform="translate(-58.45 -144.87)"/><path class="cls-14" d="M589.37,501c.74-1.36-.25-3.33-2.21-4.39s-4.15-.82-4.89.54.25,3.33,2.21,4.39S588.63,502.35,589.37,501Z" transform="translate(-58.45 -144.87)"/><path class="cls-4" d="M575,608.35a16.9,16.9,0,0,0-6.42-1.27H558a27.86,27.86,0,0,0-6.69.82l-4,3.52a4.12,4.12,0,0,0,2.7,7.22,35.3,35.3,0,0,0,23.21-8.71Z" transform="translate(-58.45 -144.87)"/><rect class="cls-5" x="558.64" y="677.26" width="7" height="20.84" transform="translate(-135.34 -74.08) rotate(-6.75)"/><rect class="cls-5" x="548.91" y="677.29" width="7" height="20.84" transform="translate(219.35 -295.43) rotate(20.64)"/><path class="cls-21" d="M456.05,457.29h4.05a1.2,1.2,0,0,1,1.2,1.2v3.15a0,0,0,0,1,0,0h-6.45a0,0,0,0,1,0,0v-3.15A1.2,1.2,0,0,1,456.05,457.29Z"/><rect class="cls-12" x="445.57" y="458.29" width="57.12" height="84.42" rx="2.06"/><rect class="cls-13" x="441.68" y="458.29" width="49.05" height="84.42" rx="2.06"/><rect class="cls-22" x="449.39" y="466.4" width="33.63" height="12.92" rx="2.06"/><path class="cls-15" d="M514.3,616.06h0a3.22,3.22,0,0,1-3.22-3.23v-9.46a1.2,1.2,0,0,1,1.2-1.2h4.05a1.2,1.2,0,0,1,1.2,1.2v9.46A3.22,3.22,0,0,1,514.3,616.06Z" transform="translate(-58.45 -144.87)"/><path class="cls-20" d="M615.72,675.5l-35.54-22.26a24.58,24.58,0,0,1-11.46-20.84h0a24.31,24.31,0,0,1,24.13-24.49H603.8" transform="translate(-58.45 -144.87)"/><ellipse class="cls-17" cx="614.48" cy="599.47" rx="19.07" ry="23.29" transform="translate(-229.82 800.13) rotate(-68.03)"/><path class="cls-3" d="M625.27,675.51h0a3.53,3.53,0,0,1-3.43-4.37l1.57-6.42a1.92,1.92,0,0,1,1.86-1.46h0a1.92,1.92,0,0,1,1.86,1.46l1.57,6.42A3.53,3.53,0,0,1,625.27,675.51Z" transform="translate(-58.45 -144.87)"/><path class="cls-4" d="M549.83,668.84,498,666.1A14.4,14.4,0,0,1,484.4,651h0a14.38,14.38,0,0,1,15.13-13.6l51.82,2.75A14.39,14.39,0,0,1,565,655.24h0A14.38,14.38,0,0,1,549.83,668.84Z" transform="translate(-58.45 -144.87)"/><path class="cls-2" d="M498,666.1l51.82,2.74a14.37,14.37,0,0,0,9.65-25.66l-73.33,15.44A14.39,14.39,0,0,0,498,666.1Z" transform="translate(-58.45 -144.87)"/><circle class="cls-16" cx="592.13" cy="632.55" r="21.96" transform="translate(-274.79 799.31) rotate(-67.97)"/><circle class="cls-5" cx="584.2" cy="637.72" r="14.41" transform="translate(-154.42 -41.33) rotate(-9.36)"/><path class="cls-2" d="M547.78,663.47h0a8.75,8.75,0,0,1,1.46-11.56l25.61-21.57a11.52,11.52,0,0,1,17,2.14h0A11.52,11.52,0,0,1,588.17,649l-28.82,17.08A8.76,8.76,0,0,1,547.78,663.47Z" transform="translate(-58.45 -144.87)"/><path class="cls-23" d="M646.44,865.18h-1.66a7.39,7.39,0,0,0-7.39,7.39v.18H654A7.57,7.57,0,0,0,646.44,865.18Z" transform="translate(-58.45 -144.87)"/><path class="cls-23" d="M524.15,865.18H522.5a7.39,7.39,0,0,0-7.39,7.39v.18h16.61A7.57,7.57,0,0,0,524.15,865.18Z" transform="translate(-58.45 -144.87)"/><ellipse class="cls-1" cx="1029.83" cy="733.09" rx="109.33" ry="6.78"/><path class="cls-24" d="M1052.49,877.91h0a1.38,1.38,0,0,0,1.29-1.28l1.33-35.31a3.29,3.29,0,0,0-3.62-3.3h0a3.31,3.31,0,0,0-3.13,3.46L1051,876.7A1.35,1.35,0,0,0,1052.49,877.91Z" transform="translate(-58.45 -144.87)"/><path class="cls-2" d="M1166.7,629.93h0a3.44,3.44,0,0,1-4.76-3.52l7.82-57.31,14.48-4.39,2.34,8.46a54.2,54.2,0,0,1-7.43,45.54C1175.53,623.88,1171.26,628,1166.7,629.93Z" transform="translate(-58.45 -144.87)"/><path class="cls-11" d="M1115.41,277.8h5.9a56.8,56.8,0,0,1,56.8,56.8V434.7a75.78,75.78,0,0,1-75.78,75.78h-5.9a56.8,56.8,0,0,1-56.8-56.8V353.58a75.77,75.77,0,0,1,75.77-75.77Z" transform="translate(2226.74 214.48) rotate(158.74)"/><path class="cls-25" d="M1038.69,490.65l39.89-54.15c7.3-9.91,6.78-22.73-1.14-28h0c-8-5.3-20.12-.66-26.36,10.07l-33.78,58.12c-4.26,7.32-3.47,15.78,1.83,19.6h0C1024.73,500.36,1033.38,497.85,1038.69,490.65Z" transform="translate(-58.45 -144.87)"/><circle class="cls-25" cx="1025.57" cy="481.73" r="21.33" transform="translate(-98.7 721.41) rotate(-45)"/><path class="cls-26" d="M1045.21,531.57l-54.08-8.26,8.74-41.55a25,25,0,0,1,49.41,7.55Zm-45-14.56,38.2,5.83,3.29-34.26a17.43,17.43,0,0,0-34.41-5.25Z" transform="translate(-58.45 -144.87)"/><path class="cls-24" d="M1055.87,525.1l-54.51,4.57-1.19-42.44a25,25,0,0,1,49.81-4.17Zm-47.14-3.68,38.51-3.22-4.78-34.09a17.43,17.43,0,0,0-34.69,2.91Z" transform="translate(-58.45 -144.87)"/><path class="cls-26" d="M1064.76,608.07h-87A17.87,17.87,0,0,1,960,588.19l6.82-60.42a17.87,17.87,0,0,1,17.76-15.87h73.35a17.87,17.87,0,0,1,17.76,15.87l6.82,60.42A17.87,17.87,0,0,1,1064.76,608.07Z" transform="translate(-58.45 -144.87)"/><path class="cls-24" d="M1064.76,608.07H1000a17.87,17.87,0,0,1-17.86-17.27l-2-60.42A17.88,17.88,0,0,1,998,511.9h60a17.87,17.87,0,0,1,17.76,15.87l6.82,60.42A17.87,17.87,0,0,1,1064.76,608.07Z" transform="translate(-58.45 -144.87)"/><path class="cls-27" d="M1006.61,525.29a4.89,4.89,0,1,1,4.89-4.88A4.89,4.89,0,0,1,1006.61,525.29Zm0-7.6a2.72,2.72,0,1,0,2.72,2.72A2.71,2.71,0,0,0,1006.61,517.69Z" transform="translate(-58.45 -144.87)"/><path class="cls-27" d="M1051.18,525.29a4.89,4.89,0,1,1,4.88-4.88A4.89,4.89,0,0,1,1051.18,525.29Zm0-7.6a2.72,2.72,0,1,0,2.71,2.72A2.72,2.72,0,0,0,1051.18,517.69Z" transform="translate(-58.45 -144.87)"/><path class="cls-26" d="M1022.42,879.17a5.19,5.19,0,0,1-5-6.28,78.49,78.49,0,0,1,2.86-10.65l9.53-25.82a12.85,12.85,0,0,1,16.7-7.45h0a13,13,0,0,1,7.65,16.53l-11.26,28.77C1040.8,880,1036.39,879.17,1022.42,879.17Z" transform="translate(-58.45 -144.87)"/><path class="cls-2" d="M1031.83,865.56c-4.74,3.44-13.7,2.59-9.58-7.73l12-64.37a10.59,10.59,0,0,1,12.16-8.42h0a10.18,10.18,0,0,1,8.34,11.93l-6.48,34.73S1045.64,855.56,1031.83,865.56Z" transform="translate(-58.45 -144.87)"/><path class="cls-23" d="M1041.57,815.92a19.79,19.79,0,0,1-17.77-22.36l34.82-257.65c2.51-19.57,19.48-33.7,37.91-31.55h0c20.3,2.36,33.46,23.26,27.87,44.27l-61.56,252.29a19.79,19.79,0,0,1-21.06,15Z" transform="translate(-58.45 -144.87)"/><path class="cls-16" d="M1090.42,541.73h0a30.1,30.1,0,0,1-30.1-30.1V444.82a30.1,30.1,0,0,1,30.1-30.11h0a30.11,30.11,0,0,1,30.11,30.11v66.81A30.11,30.11,0,0,1,1090.42,541.73Z" transform="translate(-58.45 -144.87)"/><polygon class="cls-4" points="1047.9 264.27 1023.62 264.14 1023.62 230.02 1047.9 230.02 1047.9 264.27"/><path class="cls-4" d="M1132.83,346h.72a10.2,10.2,0,0,1,10.2,10.2v1.45a10.2,10.2,0,0,1-10.2,10.2h-.72a0,0,0,0,1,0,0V346a0,0,0,0,1,0,0Z" transform="translate(-11 -270.83) rotate(6.47)"/><path class="cls-4" d="M1044.08,346.78h.72A10.2,10.2,0,0,1,1055,357v1.45a10.2,10.2,0,0,1-10.2,10.2h-.72a0,0,0,0,1,0,0V346.78A0,0,0,0,1,1044.08,346.78Z" transform="translate(2096.59 298.62) rotate(165.62)"/><rect class="cls-2" x="991.72" y="132.23" width="88.09" height="111.23" rx="44.05"/><path class="cls-5" d="M1094.74,372.29h-1a13,13,0,0,1-12.92-13h0l26.94.09h0A13,13,0,0,1,1094.74,372.29Z" transform="translate(-58.45 -144.87)"/><path class="cls-11" d="M1115.91,354.64h0a3.55,3.55,0,0,1-3.55-3.54v-3.42a3.55,3.55,0,0,1,3.55-3.55h0a3.55,3.55,0,0,1,3.55,3.55v3.42A3.55,3.55,0,0,1,1115.91,354.64Z" transform="translate(-58.45 -144.87)"/><path class="cls-11" d="M1071.5,354.64h0a3.55,3.55,0,0,1-3.55-3.54v-3.42a3.55,3.55,0,0,1,3.55-3.55h0a3.54,3.54,0,0,1,3.54,3.55v3.42A3.54,3.54,0,0,1,1071.5,354.64Z" transform="translate(-58.45 -144.87)"/><path class="cls-8" d="M1123.26,370l-5.42,0a6.32,6.32,0,0,1-6.34-6.3h0a6.32,6.32,0,0,1,6.3-6.34h5.42a6.32,6.32,0,0,1,6.34,6.29h0A6.32,6.32,0,0,1,1123.26,370Z" transform="translate(-58.45 -144.87)"/><path class="cls-8" d="M1070.68,370l-5.42,0a6.32,6.32,0,0,1-6.34-6.3h0a6.32,6.32,0,0,1,6.3-6.34h5.42a6.32,6.32,0,0,1,6.34,6.29h0A6.32,6.32,0,0,1,1070.68,370Z" transform="translate(-58.45 -144.87)"/><path class="cls-11" d="M1049.59,346.47s24.22-16.37,24.22-54.69c.75-4.4-5.62-6.29-5.62-6.29S1033.37,300.17,1049.59,346.47Z" transform="translate(-58.45 -144.87)"/><path class="cls-11" d="M1158.18,330.88c1.84,6.1-1.58,12.74-7.52,14.09-14.71,3.34-40.12-4.82-58-17.22-23.24-16.08-34.33-37.67-25.58-51.72s34.67-12.41,57.91,3.67C1145.17,293.69,1152.83,313.09,1158.18,330.88Z" transform="translate(-58.45 -144.87)"/><path class="cls-11" d="M1069,274.24c6.18-9.9,19.78-12.86,35-9.1-16.92-5.93-32.41-4-38.78,6.2-5.74,9.23-2.93,21.72,6.27,33.76C1064.84,294.11,1063.52,283,1069,274.24Z" transform="translate(-58.45 -144.87)"/><rect class="cls-16" x="995.61" y="261.57" width="89.81" height="44.08" rx="22.04"/><rect class="cls-16" x="983.28" y="283.99" width="78.48" height="48.83" rx="24.42"/><path class="cls-5" d="M1073.6,439.61l45.56-33.16H1076.1a22,22,0,0,0-5.29.64Z" transform="translate(-58.45 -144.87)"/><path class="cls-2" d="M1077,432.21l-2.21-25.76h0a172.41,172.41,0,0,1,37.59,0h0Z" transform="translate(-58.45 -144.87)"/><path class="cls-25" d="M1001.87,355.32h60.21a0,0,0,0,1,0,0v57.9a0,0,0,0,1,0,0h-28.19a32,32,0,0,1-32-32V355.32A0,0,0,0,1,1001.87,355.32Z"/><path class="cls-2" d="M1148.89,876.47h0a10.3,10.3,0,0,1-11.52-8.74L1130,804.66a10.07,10.07,0,0,1,9.23-10.95h0a10.31,10.31,0,0,1,11.47,8.81l7.32,63A10,10,0,0,1,1148.89,876.47Z" transform="translate(-58.45 -144.87)"/><path class="cls-25" d="M1142.24,813.13A19.8,19.8,0,0,1,1120.51,797L1077.72,559.8c-3.75-22,8.21-40.92,26.51-43.91h0c20.15-3.31,39.75,12.69,40.27,37.77l15.24,238.55a19.79,19.79,0,0,1-17.5,20.92Z" transform="translate(-58.45 -144.87)"/><path class="cls-26" d="M1149.45,878.76h0a13,13,0,0,1-13.19-12.55l-.64-27.51a12.86,12.86,0,0,1,12.78-13.08h0a13,13,0,0,1,13.19,12.56l.65,27.51A12.85,12.85,0,0,1,1149.45,878.76Z" transform="translate(-58.45 -144.87)"/><path class="cls-2" d="M1148,866.56h0a10.47,10.47,0,0,1-11.57-9.09L1133,828.73a10.39,10.39,0,0,1,9.28-11.49h0a10.47,10.47,0,0,1,11.57,9.08l3.41,28.74A10.39,10.39,0,0,1,1148,866.56Z" transform="translate(-58.45 -144.87)"/><rect class="cls-26" x="1001.87" y="346.39" width="60.21" height="8.93"/><rect class="cls-25" x="1041.95" y="346.39" width="5.19" height="10.83"/><path class="cls-28" d="M1075.48,503.89a8.16,8.16,0,1,1,8.16-8.16A8.17,8.17,0,0,1,1075.48,503.89Zm0-14.14a6,6,0,1,0,6,6A6,6,0,0,0,1075.48,489.75Z" transform="translate(-58.45 -144.87)"/><path class="cls-16" d="M1131.55,494.19l-18.63-60.85c-3.41-11.14,1.5-22.51,10.71-24.82h0c9.3-2.32,19,5.56,21.18,17.11l11.55,62.56c1.45,7.88-2.2,15.24-8.48,17.06h0C1141.25,507.18,1134,502.28,1131.55,494.19Z" transform="translate(-58.45 -144.87)"/><path class="cls-4" d="M994.5,431.68l2.07-21a6.82,6.82,0,0,0-6.11-7.46h0a6.82,6.82,0,0,0-7.46,6.12l-2.07,21a6.82,6.82,0,0,0,6.11,7.45h0A6.82,6.82,0,0,0,994.5,431.68Z" transform="translate(-58.45 -144.87)"/><path class="cls-11" d="M1001.46,430.59l3.59-27.87c0-2.32-1.48-4.12-3.1-5.79-9.29-9.47-33.56-38-33.56-38a2.29,2.29,0,0,0-3.55,1.9l-1.68,30.52c0,1.63,1.14,2.8,2.17,4.07,9.06,11.05,31.23,37.81,31.23,37.81A3.15,3.15,0,0,0,1001.46,430.59Z" transform="translate(-58.45 -144.87)"/><path class="cls-2" d="M1035,492h0a14.13,14.13,0,0,0-.27-21.12L982.86,426a7.45,7.45,0,0,0-9.91.13h0a7.44,7.44,0,0,0-.85,10.08l42.18,54.11A14.13,14.13,0,0,0,1035,492Z" transform="translate(-58.45 -144.87)"/><path class="cls-2" d="M970.52,433.14h20.05l.68-20.92a22.69,22.69,0,0,0-5.54-16l-15.19-16.46Z" transform="translate(-58.45 -144.87)"/><path class="cls-2" d="M975,373.54h0a2.86,2.86,0,0,0-4.47,2.36v27.72h5.72V375.9A2.85,2.85,0,0,0,975,373.54Z" transform="translate(-58.45 -144.87)"/><circle class="cls-16" cx="1145" cy="494.89" r="18.83" transform="translate(75.91 1081.16) rotate(-59.26)"/><path class="cls-2" d="M1140.85,485.1h0c-7.79,3.31-10.72,13.18-6.28,21.12l36,64.37a7.68,7.68,0,0,0,9.59,3.63h0a7.69,7.69,0,0,0,3.94-9.71l-23.88-69.83C1157.37,486.29,1148.44,481.87,1140.85,485.1Z" transform="translate(-58.45 -144.87)"/><path class="cls-4" d="M1178.58,587.93l-8.85,16.57a2.37,2.37,0,0,1-3.09,1h0a2.36,2.36,0,0,1-1.34-2.48l4.82-34.35h0A13.35,13.35,0,0,1,1178.58,587.93Z" transform="translate(-58.45 -144.87)"/><path class="cls-25" d="M1066.65,450.28a2.75,2.75,0,1,1,2.74,2.74A2.75,2.75,0,0,1,1066.65,450.28Z" transform="translate(-58.45 -144.87)"/><circle class="cls-25" cx="1010.95" cy="327.43" r="2.75"/><path class="cls-2" d="M1067.67,308.93l-17.31,34.17S1065.57,326.1,1067.67,308.93Z" transform="translate(-58.45 -144.87)"/><path class="cls-28" d="M1070.06,496.74h-4.17a1,1,0,0,1,0-2h4.17a1,1,0,0,1,0,2Z" transform="translate(-58.45 -144.87)"/><ellipse class="cls-1" cx="1430.94" cy="733.09" rx="176.89" ry="6.78"/><circle class="cls-29" cx="1380.18" cy="597.2" r="26.58"/><ellipse class="cls-14" cx="1445.28" cy="732.69" rx="23.78" ry="27.84" transform="translate(-233.4 564.96) rotate(-26.07)"/><circle class="cls-29" cx="1358.42" cy="740.46" r="26.58" transform="translate(-160.21 84.26) rotate(-9.3)"/><ellipse class="cls-14" cx="1357.81" cy="734.48" rx="28.29" ry="23.5" transform="matrix(0.76, -0.65, 0.65, 0.76, -210.46, 911.42)"/><path class="cls-17" d="M1292.35,690.22h0A11.68,11.68,0,0,1,1304,701.9v26.89a5.55,5.55,0,0,1-5.55,5.55h-3.23a14.58,14.58,0,0,1-14.58-14.58V701.9a11.68,11.68,0,0,1,11.68-11.68Z"/><path class="cls-17" d="M1436.6,877.49l-3.16.67a14.59,14.59,0,0,1-17.28-11.26l-3.69-17.48a11.68,11.68,0,0,1,9-13.84h0a11.68,11.68,0,0,1,13.84,9l5.55,26.31A5.55,5.55,0,0,1,1436.6,877.49Z" transform="translate(-58.45 -144.87)"/><path class="cls-2" d="M1430,866.2h0a8.27,8.27,0,0,1-8.77-6.9l-24.67-174.4c-1.75-12.38,7.9-23.57,21-24.29h0c13.06-.73,24,9.32,23.76,21.82l-3.42,176A8.16,8.16,0,0,1,1430,866.2Z" transform="translate(-58.45 -144.87)"/><path class="cls-2" d="M1350.64,865.07h0a8,8,0,0,1-6.35-9l28.39-173.88c2-12.34,14.61-20.44,27.35-17.58h0c12.73,2.86,20.23,15.47,16.27,27.38l-55.77,167.73A8.43,8.43,0,0,1,1350.64,865.07Z" transform="translate(-58.45 -144.87)"/><path class="cls-14" d="M1442.64,748.55H1368c-8.93,0-16.17-6.62-16.17-14.77l5.15-42.69c3-24.4,25.5-42.87,52.35-42.87h0c19.51,0,35.87,13.47,37.9,31.21l6.74,58.8C1453.93,743.93,1448.88,748.55,1442.64,748.55Z" transform="translate(-58.45 -144.87)"/><rect class="cls-17" x="1329.78" y="514.29" width="109.92" height="105.57" rx="48.15" transform="translate(1511.14 -1062.69) rotate(74.83)"/><path class="cls-4" d="M1450,568.44h0c-5.47-2.87-7.11-10.16-3.54-15.76l30-47a6.9,6.9,0,0,1,8.92-2.68h0a6.87,6.87,0,0,1,2.76,9l-23.23,50.69C1462.21,568.64,1455.39,571.26,1450,568.44Z" transform="translate(-58.45 -144.87)"/><path class="cls-2" d="M1445.52,554.84l-20,30c-3.46,5.18-2.43,12,2.31,15.13h0c4.73,3.17,11.37,1.53,14.83-3.65l20-30c3.46-5.19,2.42-12-2.31-15.13h0C1455.62,548,1449,549.65,1445.52,554.84Z" transform="translate(-58.45 -144.87)"/><circle class="cls-5" cx="1432.4" cy="593.54" r="13" transform="translate(625.63 1806.64) rotate(-83.65)"/><ellipse class="cls-25" cx="1424.47" cy="601.79" rx="19.58" ry="19.53" transform="translate(699.96 1852.49) rotate(-87.39)"/><path class="cls-13" d="M1503.81,878.43h0c10.06-.86,12-.23,11-13.32l-1.17-27.49c-.3-7.11-5.79-12.62-12.22-12.28h0c-6.38.33-11.28,6.28-11,13.32l1.17,27.49C1491.89,873.26,1497.38,878.77,1503.81,878.43Z" transform="translate(-58.45 -144.87)"/><path class="cls-2" d="M1617.24,853.5h0a8.48,8.48,0,0,1-10-5.53l-59.52-205.15c-5.48-17.29.47-34.46,18.93-38.43h0c18.8-4,36.77,8.58,38.4,27l19,213.22A8.47,8.47,0,0,1,1617.24,853.5Z" transform="translate(-58.45 -144.87)"/><path class="cls-2" d="M1504.48,865.68h0a8,8,0,0,1-7-8.15l.31-213.93c0-18.13,14.62-32.5,31.5-31h0c17.19,1.5,29.12,18.74,25.49,36.84l-42,209.68A7.92,7.92,0,0,1,1504.48,865.68Z" transform="translate(-58.45 -144.87)"/><path class="cls-17" d="M1596.37,686.46h0c-14,5.21-29.84-1.93-37.59-16.94l-46-89.13c-15.12-29.31-3.87-65.58,23.49-75.74h0c27.36-10.16,57.51,10.74,63,43.65l16.54,100.06C1618.56,665.21,1610.39,681.26,1596.37,686.46Z" transform="translate(-58.45 -144.87)"/><path class="cls-17" d="M1494.31,692.47h0c-14.06-4.93-22.19-21.36-19.29-39l17.19-104.71c5.66-34.43,36.09-57.22,63.55-47.58h0c27.46,9.64,38.56,47,23.19,78l-46.74,94.33C1524.33,689.44,1508.37,697.41,1494.31,692.47Z" transform="translate(-58.45 -144.87)"/><path class="cls-2" d="M1623.57,497.82l-39.34,0a14.37,14.37,0,0,1-14.34-14.37h0a14.36,14.36,0,0,1,14.37-14.33l39.34,0a14.36,14.36,0,0,1,14.34,14.37h0A14.36,14.36,0,0,1,1623.57,497.82Z" transform="translate(-58.45 -144.87)"/><path class="cls-11" d="M1605.33,416.05h0a47.25,47.25,0,0,0,16.16-64.83l-35.89-59.73a47.25,47.25,0,0,0-64.84-16.17h0a47.25,47.25,0,0,0-16.16,64.84l35.89,59.73A47.25,47.25,0,0,0,1605.33,416.05Z" transform="translate(-58.45 -144.87)"/><path class="cls-11" d="M1509.21,430.16h0a47.24,47.24,0,0,0,57.8-33.52l17.39-65.42a47.25,47.25,0,0,0-33.53-57.8h0a47.25,47.25,0,0,0-57.8,33.53l-17.39,65.41A47.25,47.25,0,0,0,1509.21,430.16Z" transform="translate(-58.45 -144.87)"/><path class="cls-4" d="M1543.64,413.64l71.56,15.73a11.08,11.08,0,0,0,13.19-8.44h0a11.06,11.06,0,0,0-8.44-13.19L1548.39,392a11.08,11.08,0,0,0-13.19,8.44h0A11.08,11.08,0,0,0,1543.64,413.64Z" transform="translate(-58.45 -144.87)"/><polygon class="cls-4" points="1470.84 267.63 1494.93 264.64 1490.92 230.76 1466.81 233.62 1470.84 267.63"/><path class="cls-2" d="M1525.8,280h0a44,44,0,0,0-38.55,48.92l2.72,23a44,44,0,0,0,48.92,38.56h0a44,44,0,0,0,38.56-48.92l-2.72-23A44.05,44.05,0,0,0,1525.8,280Z" transform="translate(-58.45 -144.87)"/><path class="cls-5" d="M1527.78,377.59l1-.12a13,13,0,0,0,11.3-14.45h0l-26.74,3.27h0A13,13,0,0,0,1527.78,377.59Z" transform="translate(-58.45 -144.87)"/><path class="cls-11" d="M1504.68,362.55h0a3.55,3.55,0,0,0,3.11-3.94l-.41-3.39a3.55,3.55,0,0,0-3.94-3.11h0a3.54,3.54,0,0,0-3.1,3.94l.4,3.4A3.54,3.54,0,0,0,1504.68,362.55Z" transform="translate(-58.45 -144.87)"/><path class="cls-11" d="M1548.79,357.33h0a3.56,3.56,0,0,0,3.1-3.94l-.4-3.4a3.55,3.55,0,0,0-3.94-3.11h0a3.55,3.55,0,0,0-3.11,3.94l.41,3.4A3.55,3.55,0,0,0,1548.79,357.33Z" transform="translate(-58.45 -144.87)"/><path class="cls-8" d="M1551.41,372.52l5.39-.62a6.32,6.32,0,0,0,5.55-7h0a6.33,6.33,0,0,0-7-5.55L1550,360a6.31,6.31,0,0,0-5.55,7h0A6.32,6.32,0,0,0,1551.41,372.52Z" transform="translate(-58.45 -144.87)"/><path class="cls-30" d="M1599.48,877.91h0a1.38,1.38,0,0,1-1.28-1.28l-1.33-35.31a3.29,3.29,0,0,1,3.62-3.3h0a3.31,3.31,0,0,1,3.13,3.46L1601,876.7A1.36,1.36,0,0,1,1599.48,877.91Z" transform="translate(-58.45 -144.87)"/><path class="cls-13" d="M1628.56,879.17a5.18,5.18,0,0,0,5-6.28,77,77,0,0,0-2.85-10.65l-9.53-25.82a12.85,12.85,0,0,0-16.7-7.45h0a13,13,0,0,0-7.65,16.53l11.26,28.77C1610.18,880,1614.59,879.17,1628.56,879.17Z" transform="translate(-58.45 -144.87)"/><path class="cls-2" d="M1619.15,865.56c4.74,3.44,13.7,2.59,9.58-7.73l-6.83-35.2a10.58,10.58,0,0,0-12.16-8.42h0a10.15,10.15,0,0,0-8.33,11.92l1.3,5.57S1605.34,855.56,1619.15,865.56Z" transform="translate(-58.45 -144.87)"/><path class="cls-13" d="M1552.16,529.64h0a30.11,30.11,0,0,0,26.52-33.31l-6.09-53.7a30.11,30.11,0,0,0-33.31-26.52h0a30.12,30.12,0,0,0-26.52,33.31l6.09,53.7A30.12,30.12,0,0,0,1552.16,529.64Z" transform="translate(-58.45 -144.87)"/><path class="cls-13" d="M1525.28,454.66l42.44-5a22.05,22.05,0,0,0,19.3-24.48h0a22.06,22.06,0,0,0-24.49-19.29l-42.43,5a22,22,0,0,0-19.3,24.48h0A22,22,0,0,0,1525.28,454.66Z" transform="translate(-58.45 -144.87)"/><path class="cls-13" d="M1556.58,478.3l24.23-2.87a24.41,24.41,0,0,0,21.37-27.12h0a24.43,24.43,0,0,0-27.12-21.38l-24.23,2.88a24.4,24.4,0,0,0-21.37,27.12h0A24.4,24.4,0,0,0,1556.58,478.3Z" transform="translate(-58.45 -144.87)"/><path class="cls-3" d="M1545.39,428.17l-25.61-17.25,42.75-5.07a22.17,22.17,0,0,1,5.34,0l3,16.94a8.39,8.39,0,0,1-7.27,9.76h0A26.9,26.9,0,0,1,1545.39,428.17Z" transform="translate(-58.45 -144.87)"/><rect class="cls-5" x="1382.97" y="624.85" width="46.41" height="40.99" rx="19.86" transform="translate(2753.9 1145.83) rotate(180)"/><path class="cls-17" d="M1419.88,470H1424a0,0,0,0,1,0,0V503.4A33.63,33.63,0,0,1,1390.4,537h-2.73a0,0,0,0,1,0,0V502.22A32.21,32.21,0,0,1,1419.88,470Z" transform="translate(2629.87 -406.35) rotate(129.48)"/><rect class="cls-4" x="1388.86" y="563.2" width="23.41" height="32.71" transform="translate(2827.57 736.16) rotate(168.99)"/><path class="cls-2" d="M1407.07,577.93h0a44.69,44.69,0,0,0,19.41-60.14l-19.61-26a39.65,39.65,0,0,0-49.74-11.41h0a44.69,44.69,0,0,0-19.4,60.13l9.21,18A44.68,44.68,0,0,0,1407.07,577.93Z" transform="translate(-58.45 -144.87)"/><path class="cls-5" d="M1402.68,547.85h4a11,11,0,0,1,11,11v1.49a0,0,0,0,1,0,0h-26a0,0,0,0,1,0,0v-1.5a11,11,0,0,1,11-11Z" transform="translate(2847.23 244.77) rotate(152.22)"/><rect class="cls-17" x="1332.12" y="460.28" width="91.75" height="61.35" rx="29.73" transform="translate(2769.93 155.65) rotate(152.91)"/><path class="cls-17" d="M1356.15,501.15h2.49a0,0,0,0,1,0,0v33.39A33.63,33.63,0,0,1,1325,568.18h-1.07a0,0,0,0,1,0,0V533.37a32.21,32.21,0,0,1,32.21-32.21Z" transform="translate(2720.46 254.98) rotate(152.91)"/><rect class="cls-11" x="1374.54" y="544.91" width="6.84" height="10.13" rx="3.31" transform="translate(2796.76 267.33) rotate(152.91)"/><rect class="cls-11" x="1412.64" y="525.42" width="6.84" height="10.13" rx="3.31" transform="translate(2859.95 213.45) rotate(152.93)"/><path class="cls-4" d="M1346.06,558.6h.32a10.21,10.21,0,0,1,10.21,10.21v.65a10.2,10.2,0,0,1-10.2,10.2h-.33a0,0,0,0,1,0,0V558.6A0,0,0,0,1,1346.06,558.6Z" transform="translate(2733.58 151.61) rotate(146.44)"/><rect class="cls-8" x="1371.59" y="558.23" width="17.4" height="12.17" rx="5.9" transform="translate(2804.86 263.52) rotate(151.76)"/><circle class="cls-17" cx="1390.46" cy="482.44" r="34.82" transform="translate(645.3 1639.32) rotate(-81.32)"/><path class="cls-17" d="M1422.81,482.43A37.14,37.14,0,0,0,1355,463.64a37.14,37.14,0,1,1,64.16,37A36.86,36.86,0,0,0,1422.81,482.43Z" transform="translate(-58.45 -144.87)"/><path class="cls-16" d="M1407.31,589.65h1.76a27.58,27.58,0,0,1,27.58,27.58v27.44a17,17,0,0,1-17,17h-12.35a27.58,27.58,0,0,1-27.58-27.58V617.23a27.58,27.58,0,0,1,27.58-27.58Z" transform="translate(2757.93 1106.43) rotate(-180)"/><path class="cls-8" d="M1421.14,536.64l4.6-2.47a6.09,6.09,0,0,1,5.45-.15,44.52,44.52,0,0,1-.38,11.25l-3.91,2.1a6.09,6.09,0,0,1-5.76-10.73Z" transform="translate(-58.45 -144.87)"/><path class="cls-5" d="M1386.86,593.09a17.44,17.44,0,0,1,10.4-3.44h10.93a28.37,28.37,0,0,1,19.26,7.51,7.75,7.75,0,0,1-.48,3.21,7.83,7.83,0,0,1-7.4,5.13,49.31,49.31,0,0,1-32.42-12.15Z" transform="translate(-58.45 -144.87)"/><path class="cls-18" d="M1337.65,498.7c-2.88-2-1.82-8.49,2.35-14.56s9.87-9.41,12.74-7.44,1.82,8.49-2.35,14.57S1340.52,500.67,1337.65,498.7Z" transform="translate(-58.45 -144.87)"/><path class="cls-18" d="M1322.55,520.71c-2.87-2-1.82-8.5,2.35-14.57s9.87-9.41,12.75-7.44,1.81,8.49-2.36,14.57S1325.42,522.67,1322.55,520.71Z" transform="translate(-58.45 -144.87)"/><path class="cls-18" d="M1337.65,498.7a9.27,9.27,0,1,1-2.52-12.72A9.19,9.19,0,0,1,1337.65,498.7Z" transform="translate(-58.45 -144.87)"/><ellipse class="cls-18" cx="1345.29" cy="503.95" rx="9.07" ry="9.27" transform="translate(110.22 1183.29) rotate(-55.55)"/><path class="cls-18" d="M1337.65,498.7c-4,1.53-7.34-2.37-7.38-8.72s3.21-12.72,7.24-14.25,7.33,2.37,7.37,8.72S1341.68,497.18,1337.65,498.7Z" transform="translate(-58.45 -144.87)"/><ellipse class="cls-18" cx="1337.71" cy="510.19" rx="11.99" ry="7.01" transform="translate(499.46 1566.02) rotate(-77.87)"/><path class="cls-18" d="M1337.65,498.7c0,4.32-4.77,9.64-10.7,11.88s-10.77.58-10.79-3.74,4.76-9.63,10.7-11.88S1337.62,494.39,1337.65,498.7Z" transform="translate(-58.45 -144.87)"/><path class="cls-18" d="M1359.13,490.56c0,4.32-4.76,9.64-10.7,11.88s-10.76.58-10.78-3.74,4.76-9.63,10.69-11.88S1359.11,486.25,1359.13,490.56Z" transform="translate(-58.45 -144.87)"/><path class="cls-14" d="M1335.29,502.14c-1.32-.91-1.33-3.18,0-5.07s3.42-2.71,4.74-1.8,1.33,3.17,0,5.07S1336.61,503,1335.29,502.14Z" transform="translate(-58.45 -144.87)"/><path class="cls-4" d="M1390.23,590.93c1-1.17,7.33-1.83,13.53-1.87,4.86,0,9.16.33,10.88,1l4.61,4a4.24,4.24,0,0,1-2.79,7.44,36.45,36.45,0,0,1-24-9Z" transform="translate(-58.45 -144.87)"/><rect class="cls-5" x="1400.28" y="662.06" width="7.22" height="21.51" transform="translate(2660.58 1361.04) rotate(-173.25)"/><rect class="cls-5" x="1410.32" y="662.09" width="7.22" height="21.51" transform="translate(2915.83 659.35) rotate(159.36)"/><circle class="cls-16" cx="1380.8" cy="618.28" r="20.72" transform="translate(-177.99 668.02) rotate(-31.51)"/><circle class="cls-5" cx="1373.71" cy="625.97" r="13" transform="translate(-58.09 1107.86) rotate(-49.03)"/><path class="cls-4" d="M1573.6,343.08h.72a10.2,10.2,0,0,1,10.2,10.2v1.45a10.2,10.2,0,0,1-10.2,10.2h-.72a0,0,0,0,1,0,0V343.08A0,0,0,0,1,1573.6,343.08Z" transform="translate(-66.12 -108.72) rotate(-1.31)"/><path class="cls-8" d="M1497.75,366.16l5.38-.63a6.32,6.32,0,0,1,7,5.55h0a6.31,6.31,0,0,1-5.55,7l-1.55.18a44,44,0,0,1-8.23-11A6.12,6.12,0,0,1,1497.75,366.16Z" transform="translate(-58.45 -144.87)"/><ellipse class="cls-11" cx="1506.73" cy="305.59" rx="55.11" ry="30.2" transform="translate(255.97 1131.29) rotate(-50.61)"/><ellipse class="cls-11" cx="1561.9" cy="317.88" rx="19.97" ry="47.71" transform="translate(92.78 915.02) rotate(-39.25)"/><path class="cls-2" d="M1573.6,350.1l-33.91-39.36A95.27,95.27,0,0,0,1573.6,350.1Z" transform="translate(-58.45 -144.87)"/><path class="cls-11" d="M1530.44,487.84h0a10.67,10.67,0,0,0,3.06-14.77l-8.54-13a10.66,10.66,0,0,0-14.77-3.07h0a10.66,10.66,0,0,0-3.06,14.76l8.54,13A10.67,10.67,0,0,0,1530.44,487.84Z" transform="translate(-58.45 -144.87)"/><rect class="cls-16" x="1515.62" y="459.55" width="16.47" height="27.67" rx="7.79" transform="translate(2999.1 -111.95) rotate(146.72)"/><path class="cls-24" d="M1534.72,485.48l25.87-7.84a12.25,12.25,0,0,0,8.17-15.27h0a12.24,12.24,0,0,0-15.27-8.16l-25.87,7.84a12.23,12.23,0,0,0-8.16,15.26h0A12.24,12.24,0,0,0,1534.72,485.48Z" transform="translate(-58.45 -144.87)"/><path class="cls-31" d="M1583.46,385.16h0a27.66,27.66,0,0,0,28.66-26.63l.51-14A27.66,27.66,0,0,0,1586,315.89h0a27.65,27.65,0,0,0-28.65,26.63l-.52,14A27.66,27.66,0,0,0,1583.46,385.16Z" transform="translate(-58.45 -144.87)"/><path class="cls-31" d="M1607.79,387.12h0a27.65,27.65,0,0,0,38.9-4.07l8.42-10.39a27.66,27.66,0,0,0-4.06-38.9h0a27.65,27.65,0,0,0-38.9,4.07l-8.43,10.39A27.65,27.65,0,0,0,1607.79,387.12Z" transform="translate(-58.45 -144.87)"/><path class="cls-2" d="M1587.18,409.36h0a40.94,40.94,0,0,0,51.12-27.19l5.42-17.7a41,41,0,0,0-27.2-51.13h0a40.94,40.94,0,0,0-51.12,27.19L1560,358.24A41,41,0,0,0,1587.18,409.36Z" transform="translate(-58.45 -144.87)"/><path class="cls-5" d="M1579.94,375h1.79a11,11,0,0,1,11,11v.45a0,0,0,0,1,0,0h-23.79a0,0,0,0,1,0,0V386A11,11,0,0,1,1579.94,375Z" transform="translate(2887.47 1119.32) rotate(-160.63)"/><path class="cls-7" d="M1605,372.61h0a4.94,4.94,0,0,1,2.92,6.35h0l-9.27-3.43h0A4.94,4.94,0,0,1,1605,372.61Z" transform="translate(-58.45 -144.87)"/><path class="cls-7" d="M1568.43,359.07h0a4.94,4.94,0,0,1,3,6.33h0L1562.1,362h0A4.93,4.93,0,0,1,1568.43,359.07Z" transform="translate(-58.45 -144.87)"/><path class="cls-31" d="M1626.12,388.57h0a12.62,12.62,0,0,0,16.88-5.8l14.24-29.16a12.62,12.62,0,0,0-5.81-16.88h0a12.62,12.62,0,0,0-16.88,5.81l-14.24,29.15A12.61,12.61,0,0,0,1626.12,388.57Z" transform="translate(-58.45 -144.87)"/><rect class="cls-4" x="1622.42" y="381.42" width="12.49" height="19.26" rx="6" transform="translate(2567.24 1592.07) rotate(-140.03)"/><path class="cls-32" d="M1607.39,360.32l12.09.9a29,29,0,0,0,30-27.89h0a29,29,0,0,0-27.9-30l-60.42-2.18-.83,10.44A47.9,47.9,0,0,0,1607.39,360.32Z" transform="translate(-58.45 -144.87)"/><path class="cls-2" d="M1541,419.94l28.25,8.72a11.58,11.58,0,0,0,14.39-7.22h0a10.92,10.92,0,0,0-7.28-13.91l-49.92-15.41h0A21.81,21.81,0,0,0,1541,419.94Z" transform="translate(-58.45 -144.87)"/><path class="cls-16" d="M1597.63,477.43l24.22-1.25c7.32-.37,12.09-5.49,11.85-11.48l-1.51-39.5c-.42-7.16-7.85-12.6-16.6-12.15l-29.07,1.5c-7.19.37-12.74,5.44-12.4,11.32l1.38,35.18C1575.87,470.31,1586.33,478,1597.63,477.43Z" transform="translate(-58.45 -144.87)"/><path class="cls-26" d="M1589.9,455.15h28.64a15.65,15.65,0,0,1,15.65,15.65v10.85a4.8,4.8,0,0,1-4.8,4.8h-49.91a5.23,5.23,0,0,1-5.23-5.23V470.8a15.65,15.65,0,0,1,15.65-15.65Z" transform="translate(3133.88 848.48) rotate(-178.14)"/><path class="cls-13" d="M1464,508.68h0a12.83,12.83,0,0,0,17.79-3.59l42.83-64.5A12.82,12.82,0,0,0,1521,422.8h0a12.82,12.82,0,0,0-17.79,3.59l-42.83,64.5A12.83,12.83,0,0,0,1464,508.68Z" transform="translate(-58.45 -144.87)"/><path class="cls-3" d="M1483,486.94c13.17,14.61-2.29,37.88-20.86,31.41a22.37,22.37,0,0,1-4.92-2.45,22.65,22.65,0,0,1-4.17-3.59c-13.17-14.61,2.28-37.88,20.85-31.4a22,22,0,0,1,4.93,2.44A22.65,22.65,0,0,1,1483,486.94Z" transform="translate(-58.45 -144.87)"/><path class="cls-16" d="M1576.56,431.18l-16.08-4.79a11.89,11.89,0,0,1-8-14.8h0a11.9,11.9,0,0,1,14.8-8l16.07,4.79a11.9,11.9,0,0,1,8,14.8h0A11.91,11.91,0,0,1,1576.56,431.18Z" transform="translate(-58.45 -144.87)"/><path class="cls-16" d="M1632.63,422a14.53,14.53,0,0,1-2.46,8.19,12.09,12.09,0,0,1-1.08,1.42,13.26,13.26,0,0,1-1.84,1.83c-.29.24-.58.47-.89.69a16.31,16.31,0,0,1-2,1.24l-.07,0a15.7,15.7,0,0,1-7,1.63l-20.61,0h-8.84c-.32,0-.64,0-1,0a15.28,15.28,0,0,1-14.57-15,15.06,15.06,0,0,1,11.89-14.65,12.78,12.78,0,0,1,1.4-.24c.35-.05.71-.09,1.06-.11s.68,0,1,0h5.53l23.92,0c.32,0,.65,0,1,0a14.74,14.74,0,0,1,2.24.3l.12,0,.6.14a15.08,15.08,0,0,1,4.64,2,6.18,6.18,0,0,1,.53.36h0c.45.32.86.65,1.27,1A14.84,14.84,0,0,1,1632.63,422Z" transform="translate(-58.45 -144.87)"/><path class="cls-26" d="M1558,478.12l32.74,6.94a12.24,12.24,0,0,0,14.51-9.44h0a12.23,12.23,0,0,0-9.44-14.51l-32.73-6.94a12.26,12.26,0,0,0-14.52,9.44h0A12.24,12.24,0,0,0,1558,478.12Z" transform="translate(-58.45 -144.87)"/><circle class="cls-17" cx="1485.96" cy="512.64" r="38.51"/><rect class="cls-24" x="1574.9" y="452.16" width="58.69" height="5.96" transform="translate(-51.54 -168.56) rotate(0.85)"/><path class="cls-2" d="M1587.69,495.74h0A10.74,10.74,0,0,0,1591.2,481l-16.5-26.79h0a21.5,21.5,0,0,0-7,29.58l5.23,8.49A10.76,10.76,0,0,0,1587.69,495.74Z" transform="translate(-58.45 -144.87)"/><path class="cls-2" d="M1362.65,662.07h0c3.93-4.78,3.16-11.7-1.66-15l-40.52-27.32a6.51,6.51,0,0,0-8.63,1.5h0a6.51,6.51,0,0,0,.33,8.89l35.7,33.35C1352,667.43,1358.8,666.76,1362.65,662.07Z" transform="translate(-58.45 -144.87)"/><path class="cls-2" d="M1363.57,616.15h.63a9.88,9.88,0,0,1,9.88,9.88v33.12a9.88,9.88,0,0,1-9.88,9.88h-.63a9.87,9.87,0,0,1-9.87-9.87V626A9.87,9.87,0,0,1,1363.57,616.15Z" transform="translate(504.15 -779.41) rotate(32.67)"/><path class="cls-33" d="M1320.41,622.1s1.64,34.13-7.12,33.39" transform="translate(-58.45 -144.87)"/><path class="cls-33" d="M1320.28,623.07s-1.57,43.54,7.86,41.21" transform="translate(-58.45 -144.87)"/><path class="cls-33" d="M1320.19,635.38c0,.64,0,22.69,0,22.69" transform="translate(-58.45 -144.87)"/><circle class="cls-4" cx="1420.41" cy="353" r="15.44"/><path class="cls-2" d="M1457.69,494.13h0c4.39-7.23,14.76-8.62,22.17-3L1540,537c3.32,2.53,4.34,6.87,2.38,10.1h0c-2,3.33-6.53,4.38-10.35,2.42l-67.28-34.61C1456.66,510.75,1453.41,501.18,1457.69,494.13Z" transform="translate(-58.45 -144.87)"/><circle class="cls-29" cx="1381.27" cy="743.96" r="26.58" transform="translate(-160.48 88) rotate(-9.3)"/><circle class="cls-14" cx="1327.12" cy="588.41" r="26.58"/><ellipse class="cls-29" cx="1420.66" cy="742.92" rx="27.68" ry="26.58" transform="matrix(0.26, -0.96, 0.96, 0.26, 270, 1771.62)"/><circle class="cls-14" cx="1421.83" cy="735.46" r="26.58" transform="translate(-158.57 94.44) rotate(-9.3)"/><path class="cls-5" d="M1577,591.35" transform="translate(-58.45 -144.87)"/><path class="cls-5" d="M1580,603.46a4.88,4.88,0,1,1,4.16-5.51A4.88,4.88,0,0,1,1580,603.46Zm-1-7.52a2.71,2.71,0,1,0,3.06,2.31A2.71,2.71,0,0,0,1579,595.94Z" transform="translate(-58.45 -144.87)"/><path class="cls-5" d="M1524.51,583.93a4.89,4.89,0,1,1,4.16-5.52A4.9,4.9,0,0,1,1524.51,583.93Zm-1-7.53a2.72,2.72,0,1,0,3.06,2.31A2.71,2.71,0,0,0,1523.46,576.4Z" transform="translate(-58.45 -144.87)"/><rect class="cls-13" x="1493.11" y="587.79" width="93.99" height="58.97" rx="12.03" transform="translate(267.19 -658.1) rotate(21.11)"/><path class="cls-5" d="M1536.55,629.91a4.88,4.88,0,1,1,4.08-5.57A4.9,4.9,0,0,1,1536.55,629.91Zm-1.17-7.51a2.72,2.72,0,1,0,3.1,2.27A2.72,2.72,0,0,0,1535.38,622.4Z" transform="translate(-58.45 -144.87)"/><path class="cls-5" d="M1525.8,578.32a1,1,0,0,1-.81-.41,1,1,0,0,1,.22-1.4l6.83-5a1,1,0,0,1,1.4.22,1,1,0,0,1-.22,1.4l-6.83,5A1,1,0,0,1,1525.8,578.32Z" transform="translate(-58.45 -144.87)"/><path class="cls-5" d="M1578.61,597.07a1,1,0,0,1-.95-.69l-2.65-8a1,1,0,1,1,1.89-.63l2.66,8a1,1,0,0,1-.64,1.27A1.12,1.12,0,0,1,1578.61,597.07Z" transform="translate(-58.45 -144.87)"/><path class="cls-13" d="M1574.87,592.05l-9.26-27.55a9.92,9.92,0,0,0-16.1-1.68l-.37.34-17.6,13.37-3-4,17.4-13.21a14.92,14.92,0,0,1,24.19,3l.17.39,9.33,27.76Z" transform="translate(-58.45 -144.87)"/><path class="cls-2" d="M1568.69,573.55l-23.37-8.84a25.1,25.1,0,0,1-14.61-32.35h0l23.38,8.83a25.11,25.11,0,0,1,14.6,32.36Z" transform="translate(-58.45 -144.87)"/><path class="cls-24" d="M1594.75,415.51v40.75h-3V415.51a8.51,8.51,0,0,0-6.17-8.35c.35-.05.71-.09,1.06-.11s.68,0,1,0h3.61A12,12,0,0,1,1594.75,415.51Z" transform="translate(-58.45 -144.87)"/><path class="cls-24" d="M1627.25,414.83v41.43h-3V414.83a9,9,0,0,0-3.93-7.53l.12,0,.6.14a15.08,15.08,0,0,1,4.64,2,6.18,6.18,0,0,1,.53.36h0A12.51,12.51,0,0,1,1627.25,414.83Z" transform="translate(-58.45 -144.87)"/><ellipse class="cls-34" cx="1238.62" cy="196.5" rx="64.39" ry="78.13"/><line class="cls-33" x1="1258.57" y1="156.07" x2="1261.84" y2="480.21"/><ellipse class="cls-35" cx="1307.87" cy="222.92" rx="78.13" ry="64.39" transform="translate(916.67 1362.37) rotate(-85.15)"/><polyline class="cls-33" points="1236.34 264.91 1261.23 480.18 1280.63 250.4"/><path class="cls-13" d="M1293.33,420.71l-1.57,4.09a1.88,1.88,0,0,0,1.86,2.54l4-.23a1.88,1.88,0,0,0,1.48-2.86l-2.4-3.87A1.87,1.87,0,0,0,1293.33,420.71Z" transform="translate(-58.45 -144.87)"/><path class="cls-14" d="M1337.07,404.8l-2.52,4.6c-.78,1.43-.12,3.21,1.23,3.36l4,.43c1.41.15,2.58-1.57,2.13-3.14l-1.45-5C1339.94,403.3,1338,403.18,1337.07,404.8Z" transform="translate(-58.45 -144.87)"/><ellipse class="cls-36" cx="1346.47" cy="326.47" rx="78.13" ry="64.39" transform="translate(602.35 1385.52) rotate(-73.97)"/><path class="cls-5" d="M1317.52,281c3.34-2.82,4.46-7,2.5-9.31s-6.25-1.93-9.59.89-4.47,7-2.51,9.3S1314.17,283.82,1317.52,281Z" transform="translate(-58.45 -144.87)"/><path class="cls-5" d="M1290.61,172.07c3.34-2.82,4.47-7,2.51-9.31s-6.26-1.93-9.6.89-4.46,7-2.51,9.3S1287.27,174.88,1290.61,172.07Z" transform="translate(-58.45 -144.87)"/><path class="cls-5" d="M1260.75,301c2.46-3.61,2.43-7.93-.08-9.64s-6.55-.18-9,3.43-2.43,7.92.08,9.64S1258.29,304.58,1260.75,301Z" transform="translate(-58.45 -144.87)"/><path class="cls-5" d="M1330.35,269.54a2.75,2.75,0,1,0-3.88-.33A2.76,2.76,0,0,0,1330.35,269.54Z" transform="translate(-58.45 -144.87)"/><path class="cls-5" d="M1277.65,183.84a2.75,2.75,0,1,0-3.88-.33A2.76,2.76,0,0,0,1277.65,183.84Z" transform="translate(-58.45 -144.87)"/><path class="cls-37" d="M1380.92,382.78c2.68-2.26,4.25-4.79,3.52-5.67s-3.5.26-6.18,2.51-4.26,4.79-3.52,5.66S1378.24,385,1380.92,382.78Z" transform="translate(-58.45 -144.87)"/><path class="cls-37" d="M1260.25,398.88c2.41,2.54,5,4,5.86,3.17s-.46-3.47-2.88-6-5-4-5.86-3.18S1257.83,396.34,1260.25,398.88Z" transform="translate(-58.45 -144.87)"/><path class="cls-37" d="M1262.93,270.67c2,2.88,4.36,4.69,5.3,4s.08-3.5-1.91-6.38-4.37-4.7-5.3-4.05S1260.94,267.79,1262.93,270.67Z" transform="translate(-58.45 -144.87)"/><circle class="cls-2" cx="1261.84" cy="472" r="14.96"/><ellipse class="cls-1" cx="1800.76" cy="733.09" rx="101.22" ry="6.78"/><rect class="cls-2" x="1819.25" y="831.77" width="25.14" height="30.99" transform="translate(16.64 -291.24) rotate(4.67)"/><path class="cls-17" d="M1817,855h13.16c10.93,0,19.79,8.22,19.79,18.36h0a5.74,5.74,0,0,1-5.93,5.5h-56.52a2.49,2.49,0,0,1-2.47-3.32h0C1790,863.18,1802.73,855,1817,855Z" transform="translate(-58.45 -144.87)"/><path class="cls-2" d="M1830.12,853.14,1817,855a36.34,36.34,0,0,0-8,.88h0c0,6.9,6,12.49,13.46,12.49h26.71C1846.81,860.66,1839.18,853.14,1830.12,853.14Z" transform="translate(-58.45 -144.87)"/><polygon class="cls-2" points="1859.35 692.72 1833.75 692.72 1833.75 716.76 1859.35 713.22 1859.35 692.72"/><path class="cls-11" d="M1825.7,594.29h0a1425.79,1425.79,0,0,0-11,235.66l0,1.11A17.54,17.54,0,0,0,1832.33,848h0a17.54,17.54,0,0,0,17.14-14.17l44.79-228.3a34.75,34.75,0,0,0-25.07-40.29h0A34.75,34.75,0,0,0,1825.7,594.29Z" transform="translate(-58.45 -144.87)"/><path class="cls-23" d="M1760.88,470.46h0A18.42,18.42,0,0,1,1779.23,452l56.07-.2a18.42,18.42,0,0,1,18.48,18.35h0a18.42,18.42,0,0,1-18.35,18.48l-56.07.2A18.42,18.42,0,0,1,1760.88,470.46Z" transform="translate(-58.45 -144.87)"/><circle class="cls-23" cx="1772.08" cy="470.41" r="25.27" transform="translate(1094.36 2051.24) rotate(-85.13)"/><path class="cls-2" d="M1772.47,489.84h0A20.07,20.07,0,0,1,1749,471.23L1746,420.59a14.12,14.12,0,0,1,11.65-14.72h0a14.12,14.12,0,0,1,16,9.85l14.57,48.59A20.07,20.07,0,0,1,1772.47,489.84Z" transform="translate(-58.45 -144.87)"/><path class="cls-38" d="M1905.25,847.26h0a15.69,15.69,0,0,1-15.65-14.53l-17.45-235.08c-1-27-2.28-49.37,24.72-49.37h0a47.67,47.67,0,0,1,46.83,56.57l-22.83,228.28A15.7,15.7,0,0,1,1905.25,847.26Z" transform="translate(-58.45 -144.87)"/><path class="cls-38" d="M1878.38,641.24l-19.79-7.13a51.18,51.18,0,0,1-30.83-65.5h0a51.18,51.18,0,0,1,65.5-30.83l19.79,7.12a51.18,51.18,0,0,1,30.83,65.5h0A51.19,51.19,0,0,1,1878.38,641.24Z" transform="translate(-58.45 -144.87)"/><path class="cls-25" d="M1775.08,339.75h81.25a0,0,0,0,1,0,0v72.4a40.62,40.62,0,0,1-40.62,40.62h0a40.62,40.62,0,0,1-40.62-40.62v-72.4A0,0,0,0,1,1775.08,339.75Z"/><path class="cls-38" d="M1833.94,433.77h0a48.72,48.72,0,0,1-13-67.67l16.79-24.76a48.74,48.74,0,0,1,67.68-13h0a48.73,48.73,0,0,1,13,67.68l-16.79,24.75A48.71,48.71,0,0,1,1833.94,433.77Z" transform="translate(-58.45 -144.87)"/><path class="cls-38" d="M1922.72,445.05h0a48.73,48.73,0,0,0,29.48-62.29l-10.07-28.17a48.73,48.73,0,0,0-62.29-29.48h0a48.73,48.73,0,0,0-29.48,62.29l10.07,28.16A48.74,48.74,0,0,0,1922.72,445.05Z" transform="translate(-58.45 -144.87)"/><path class="cls-38" d="M1946,371.1l4.68,18.51A62.32,62.32,0,0,1,1937,446.05a55.32,55.32,0,0,0,14.09-66l-4.92-10.29q-.68-1.39-1.41-2.76C1945.23,368.33,1945.63,369.7,1946,371.1Z" transform="translate(-58.45 -144.87)"/><circle class="cls-38" cx="1892.58" cy="321.02" r="31.74" transform="translate(268.88 1287.41) rotate(-45)"/><path class="cls-38" d="M1860.84,324.21a32.33,32.33,0,0,0,2.31,6.41c-.12-.43-.24-.87-.35-1.31a33.41,33.41,0,0,1,49.82-36.45,31.74,31.74,0,0,0-51.78,31.35Z" transform="translate(-58.45 -144.87)"/><polygon class="cls-4" points="1832.62 311.28 1808.34 311.15 1808.34 277.03 1832.62 277.03 1832.62 311.28"/><path class="cls-4" d="M1920.31,398.66h.72a10.2,10.2,0,0,1,10.2,10.2v1.45a10.2,10.2,0,0,1-10.2,10.2h-.72a0,0,0,0,1,0,0V398.66a0,0,0,0,1,0,0Z" transform="translate(93.43 -589.49) rotate(13.71)"/><path class="cls-4" d="M1832.16,388.26h.72a10.2,10.2,0,0,1,10.2,10.2v1.44a10.2,10.2,0,0,1-10.2,10.2h-.72a0,0,0,0,1,0,0V388.26a0,0,0,0,1,0,0Z" transform="translate(3652.19 421.75) rotate(172.85)"/><path class="cls-2" d="M1889.18,347.8h0a44.06,44.06,0,0,1,38.15,49.25h0a44,44,0,0,1-49.25,38.14h0A44,44,0,0,1,1839.94,386h0A44,44,0,0,1,1889.18,347.8Z" transform="translate(-58.45 -144.87)"/><path class="cls-5" d="M1880.62,419.35l-1-.13a13,13,0,0,1-11.18-14.53h0l26.71,3.49h0A13,13,0,0,1,1880.62,419.35Z" transform="translate(-58.45 -144.87)"/><path class="cls-8" d="M1909.58,417.74l-5.38-.67a6.32,6.32,0,0,1-5.49-7.05h0a6.31,6.31,0,0,1,7-5.49l5.38.67a6.32,6.32,0,0,1,5.5,7h0A6.32,6.32,0,0,1,1909.58,417.74Z" transform="translate(-58.45 -144.87)"/><path class="cls-8" d="M1857.42,411.11l-5.38-.66a6.32,6.32,0,0,1-5.49-7.05h0a6.31,6.31,0,0,1,7-5.49l5.38.67a6.32,6.32,0,0,1,5.5,7h0A6.32,6.32,0,0,1,1857.42,411.11Z" transform="translate(-58.45 -144.87)"/><path class="cls-38" d="M1914,388.38,1879.25,378a33.1,33.1,0,0,1-23.36-35.88h0l63,8Z" transform="translate(-58.45 -144.87)"/><path class="cls-38" d="M1875.94,375.63c-12.41-6.23-20.11-18-20.88-30.48h0a33.11,33.11,0,0,0,22.87,36.2l25.22,7.91Z" transform="translate(-58.45 -144.87)"/><path class="cls-11" d="M1904.73,395.67h0a4.59,4.59,0,0,0-5.12,4l-.09.75,9.56,1.21,0-.27A5.06,5.06,0,0,0,1904.73,395.67Z" transform="translate(-58.45 -144.87)"/><path class="cls-11" d="M1861.15,390.14h0a5.06,5.06,0,0,0-5.66,4.38l0,.27L1865,396l.09-.75A4.57,4.57,0,0,0,1861.15,390.14Z" transform="translate(-58.45 -144.87)"/><path class="cls-25" d="M1897.77,507.72l-48.1-4.62a25.45,25.45,0,0,1-22.9-27.77h0a25.44,25.44,0,0,1,27.76-22.9l48.11,4.61a25.45,25.45,0,0,1,22.9,27.77h0A25.46,25.46,0,0,1,1897.77,507.72Z" transform="translate(-58.45 -144.87)"/><path class="cls-25" d="M1878.35,531.21,1837,527.87a27.33,27.33,0,0,1-25-29.44h0a27.34,27.34,0,0,1,29.45-25l41.31,3.33a27.34,27.34,0,0,1,25,29.44h0A27.34,27.34,0,0,1,1878.35,531.21Z" transform="translate(-58.45 -144.87)"/><path class="cls-25" d="M1965.94,530.82h0a18.41,18.41,0,0,1-26,1.23l-41.47-37.74a18.41,18.41,0,0,1-1.22-26h0a18.41,18.41,0,0,1,26-1.23l41.47,37.74A18.41,18.41,0,0,1,1965.94,530.82Z" transform="translate(-58.45 -144.87)"/><path class="cls-5" d="M1902.64,457l-48.11-4.61a24.52,24.52,0,0,0-3.42-.1l-2.63,13a19.54,19.54,0,0,0,14.75,22.79,24.25,24.25,0,0,0,2.55.44h0a24.48,24.48,0,0,0,22.58-9.84l15.73-21.48C1903.61,457.15,1903.13,457.09,1902.64,457Z" transform="translate(-58.45 -144.87)"/><path class="cls-2" d="M1855.16,452.49l-2.76,13.62a15.42,15.42,0,0,0,11.71,18.1h0a20.45,20.45,0,0,0,21-7.86l14.36-19.61L1895,456a284.75,284.75,0,0,0-39.86-3.53Z" transform="translate(-58.45 -144.87)"/><circle class="cls-25" cx="1961.16" cy="533.83" r="25.27" transform="translate(1044.55 2231.42) rotate(-80.25)"/><path class="cls-2" d="M1960.17,553.21H1904a12.87,12.87,0,0,1-12.87-12.87h0a12.86,12.86,0,0,1,10.19-12.58l55.5-11.8A18.78,18.78,0,0,1,1979,534.43h0A18.78,18.78,0,0,1,1960.17,553.21Z" transform="translate(-58.45 -144.87)"/><path class="cls-39" d="M1898.17,533.55l10.4,4a6.33,6.33,0,0,0,8.2-3.62h0a6.33,6.33,0,0,0-3.62-8.19l-22.22-8.6h0A12.68,12.68,0,0,0,1898.17,533.55Z" transform="translate(-58.45 -144.87)"/><rect class="cls-11" x="1789.83" y="361.89" width="38.93" height="27.67" rx="13.83"/><polygon class="cls-26" points="1828.59 411.06 1791.76 411.06 1786.76 373.89 1833.59 373.89 1828.59 411.06"/><path class="cls-24" d="M1885.14,559.1h-33a5.38,5.38,0,0,1-5.38-5.38h0a1,1,0,0,1,1-1h41.88a1,1,0,0,1,1,1h0A5.38,5.38,0,0,1,1885.14,559.1Z" transform="translate(-58.45 -144.87)"/><path class="cls-40" d="M1906.29,555.93h-16.17A15.92,15.92,0,0,1,1874.2,540V524.1h32.09A15.91,15.91,0,0,1,1922.2,540h0A15.91,15.91,0,0,1,1906.29,555.93Z" transform="translate(-58.45 -144.87)"/><path class="cls-40" d="M1896,534.43h-22.17a5.16,5.16,0,0,1-5.17-5.17h0a5.16,5.16,0,0,1,5.17-5.16H1896a5.16,5.16,0,0,1,5.17,5.16h0A5.16,5.16,0,0,1,1896,534.43Z" transform="translate(-58.45 -144.87)"/><rect class="cls-24" x="1783.08" y="365.56" width="54.18" height="16.67" rx="4.75"/><path class="cls-41" d="M1852.51,481.84c8.22,3.11,10.35,17.61,10.35,17.61s-11.2,9.46-19.42,6.35-10.35-17.61-10.35-17.61S1844.29,478.73,1852.51,481.84Z" transform="translate(-58.45 -144.87)"/><path class="cls-42" d="M1882.36,485.1c-1.47,8.67-15.29,13.56-15.29,13.56s-11.43-9.17-10-17.84,15.29-13.55,15.29-13.55S1883.83,476.44,1882.36,485.1Z" transform="translate(-58.45 -144.87)"/><path class="cls-41" d="M1886,511.09c-8.61-1.77-13-15.75-13-15.75s9.57-11.11,18.18-9.34,13,15.76,13,15.76S1894.62,512.87,1886,511.09Z" transform="translate(-58.45 -144.87)"/><ellipse class="cls-5" cx="1868.57" cy="496.54" rx="8.4" ry="14.67" transform="translate(1224.64 2194.31) rotate(-87.25)"/><path class="cls-42" d="M1883.18,509.8c-.32,4.64-17,7.28-17,7.28s-16.13-4.89-15.81-9.52,7.91-7.9,17-7.28S1883.5,505.16,1883.18,509.8Z" transform="translate(-58.45 -144.87)"/><path class="cls-28" d="M1876,493.9c.11-2.34-3.1-4.39-7.17-4.58s-7.47,1.54-7.58,3.87,3.1,4.39,7.17,4.58S1875.84,496.23,1876,493.9Z" transform="translate(-58.45 -144.87)"/><path class="cls-39" d="M1769.41,426l-3.26-5.24a6.34,6.34,0,0,1,2-8.72h0a6.33,6.33,0,0,1,8.72,2l9.94,16h0A12.66,12.66,0,0,1,1769.41,426Z" transform="translate(-58.45 -144.87)"/><path class="cls-43" d="M1722.07,471.74a38,38,0,1,1,52-13.5A38.05,38.05,0,0,1,1722.07,471.74Zm34.46-58.62a30,30,0,1,0,10.66,41.06A30,30,0,0,0,1756.53,413.12Z" transform="translate(-58.45 -144.87)"/><path class="cls-43" d="M1756.53,413.12a30,30,0,0,1-2,52.76l13.69-.09a38,38,0,0,0,.15-53.45l-13.13.09C1755.7,412.65,1756.11,412.88,1756.53,413.12Z" transform="translate(-58.45 -144.87)"/><path class="cls-43" d="M1837.48,463.37l-.26-.12v0A55,55,0,0,0,1762,482.76l6.9,4.05a47,47,0,0,1,64.28-16.69l0-.05.23.17a4,4,0,1,0,4-6.87Z" transform="translate(-58.45 -144.87)"/><path class="cls-43" d="M1763.45,473.64l5,2.94a5.58,5.58,0,0,1,2,7.62l-1,1.67a11.36,11.36,0,0,1-15.56,4h0a5.55,5.55,0,0,1-2-7.61l3.93-6.68A5.55,5.55,0,0,1,1763.45,473.64Z" transform="translate(-58.45 -144.87)"/><rect class="cls-44" x="1705.81" y="441.98" width="60.72" height="46.37" transform="translate(416.69 -960.52) rotate(30.45)"/><path class="cls-43" d="M1770.49,463.76l-49.79-29.27a4.58,4.58,0,0,1-1.63-6.27h0a4.58,4.58,0,0,1,6.27-1.63l49.79,29.27a4.57,4.57,0,0,1,1.63,6.27h0A4.57,4.57,0,0,1,1770.49,463.76Z" transform="translate(-58.45 -144.87)"/><path class="cls-43" d="M1747.5,502.87l-49.79-29.26a4.6,4.6,0,0,1-1.63-6.28h0a4.58,4.58,0,0,1,6.27-1.63l49.8,29.27a4.57,4.57,0,0,1,1.62,6.27h0A4.57,4.57,0,0,1,1747.5,502.87Z" transform="translate(-58.45 -144.87)"/><rect class="cls-40" x="1736.3" y="393.5" width="39.61" height="31.42" rx="12.28" transform="translate(418.5 -1006.53) rotate(31.7)"/><path class="cls-40" d="M1755.52,432.48h0a8.24,8.24,0,0,1-2.68-11.34l6.45-10.44a1,1,0,0,1,1.36-.33L1773,418a1,1,0,0,1,.32,1.35l-6.45,10.45A8.24,8.24,0,0,1,1755.52,432.48Z" transform="translate(-58.45 -144.87)"/><path class="cls-5" d="M1716.24,460.14a2.88,2.88,0,1,0-2.83,2.92A2.87,2.87,0,0,0,1716.24,460.14Z" transform="translate(-58.45 -144.87)"/><path class="cls-5" d="M1733.58,450.6a2.88,2.88,0,1,0-2.83,2.93A2.87,2.87,0,0,0,1733.58,450.6Z" transform="translate(-58.45 -144.87)"/><path class="cls-5" d="M1735.4,471.2a2.88,2.88,0,1,0-2.83,2.92A2.88,2.88,0,0,0,1735.4,471.2Z" transform="translate(-58.45 -144.87)"/><path class="cls-5" d="M1752.74,461.66a2.87,2.87,0,1,0-2.82,2.92A2.86,2.86,0,0,0,1752.74,461.66Z" transform="translate(-58.45 -144.87)"/><path class="cls-5" d="M1754.56,482.26a2.87,2.87,0,1,0-2.82,2.92A2.87,2.87,0,0,0,1754.56,482.26Z" transform="translate(-58.45 -144.87)"/><path class="cls-2" d="M1911.79,855h-11.53a11.31,11.31,0,0,0-11.32,11.31h0a11.32,11.32,0,0,0,11.32,11.32h34.17A22.64,22.64,0,0,0,1911.79,855Z" transform="translate(-58.45 -144.87)"/><path class="cls-17" d="M1898.06,877.63V872.3c0-9.56,8.14-17.3,18.18-17.3h0c10,0,18.19,7.74,18.19,17.3v5.33h-36.37" transform="translate(-58.45 -144.87)"/><path class="cls-17" d="M1889.27,868.37h22a4.63,4.63,0,0,1,4.63,4.63h0a4.62,4.62,0,0,1-4.63,4.62h-22a4.63,4.63,0,0,1-4.63-4.62h0A4.63,4.63,0,0,1,1889.27,868.37Z" transform="translate(-58.45 -144.87)"/><ellipse class="cls-1" cx="2092.85" cy="733.09" rx="101.22" ry="6.78"/><path class="cls-2" d="M2181.83,872.9h0c-4.44,0-8.14-2.47-8.53-5.63l-14.16-158.84c-1.65-13.46,7.85-25,26.73-24.88h0c19.23.1,34.07,12.2,31.72,25.85L2190.4,867.52C2189.86,870.61,2186.18,872.92,2181.83,872.9Z" transform="translate(-58.45 -144.87)"/><path class="cls-2" d="M2112.94,873.05h0c-4.39-.65-7.68-3.79-7.59-7.25l10.12-172.93c.41-14.72,11.57-25.8,30.25-23.06h0c19,2.78,31.89,17.86,27.49,32.22l-51,166.42C2121.25,871.7,2117.25,873.68,2112.94,873.05Z" transform="translate(-58.45 -144.87)"/><path class="cls-26" d="M2141,797.11l-3.05-.36a67.19,67.19,0,0,1-58.83-74.64l15-126.4a68.75,68.75,0,0,1,76.35-60.18h0a68.75,68.75,0,0,1,60.18,76.35l-15,126.4A67.19,67.19,0,0,1,2141,797.11Z" transform="translate(-58.45 -144.87)"/><path class="cls-26" d="M2203.48,795.84l-3,.56a67.2,67.2,0,0,1-78.27-53.91L2099.1,617.32a68.74,68.74,0,0,1,55.13-80.07h0a68.75,68.75,0,0,1,80.07,55.14l23.08,125.17A67.21,67.21,0,0,1,2203.48,795.84Z" transform="translate(-58.45 -144.87)"/><rect class="cls-26" x="2111.55" y="481.17" width="90.18" height="70.33" rx="29.33" transform="translate(17.63 -395.97) rotate(6.78)"/><path class="cls-16" d="M2143.34,468.16h0A48.73,48.73,0,0,1,2090,424.57l-3-29.76a48.73,48.73,0,0,1,43.59-53.37h0A48.72,48.72,0,0,1,2183.92,385l3,29.77A48.73,48.73,0,0,1,2143.34,468.16Z" transform="translate(-58.45 -144.87)"/><path class="cls-16" d="M2177.87,463.41h0a48.71,48.71,0,0,0,36.6-58.38l-6.68-29.16a48.73,48.73,0,0,0-58.39-36.6h0a48.73,48.73,0,0,0-36.6,58.39l6.69,29.15A48.71,48.71,0,0,0,2177.87,463.41Z" transform="translate(-58.45 -144.87)"/><path class="cls-16" d="M2209.67,392.72l2.47,18.93A62.3,62.3,0,0,1,2192,466.09a55.35,55.35,0,0,0,21.76-63.92l-3.68-10.78c-.33-1-.7-1.95-1.07-2.91C2209.25,389.88,2209.49,391.29,2209.67,392.72Z" transform="translate(-58.45 -144.87)"/><circle class="cls-16" cx="2144.92" cy="343.47" r="31.74" transform="matrix(1, -0.08, 0.08, 1, -79.05, 27.84)"/><path class="cls-16" d="M2114.91,354.28a31.73,31.73,0,0,0,3.8,5.65c-.23-.39-.45-.78-.67-1.19a33.42,33.42,0,0,1,39.48-47.46,31.74,31.74,0,0,0-42.61,43Z" transform="translate(-58.45 -144.87)"/><polygon class="cls-4" points="2112.85 345.57 2088.56 345.42 2088.55 305.71 2112.84 305.71 2112.85 345.57"/><path class="cls-4" d="M2194.12,417.93h.72a10.2,10.2,0,0,1,10.2,10.2v1.45a10.21,10.21,0,0,1-10.21,10.21h-.72a0,0,0,0,1,0,0V417.93A0,0,0,0,1,2194.12,417.93Z" transform="translate(28.78 -464.38) rotate(8.48)"/><path class="cls-4" d="M2106.36,430.16h.72a10.2,10.2,0,0,1,10.2,10.2v1.44A10.21,10.21,0,0,1,2107.08,452h-.72a0,0,0,0,1,0,0V430.16A0,0,0,0,1,2106.36,430.16Z" transform="translate(4165.63 -142.81) rotate(156.46)"/><path class="cls-2" d="M2149,376.21h0a44.05,44.05,0,0,1,49,38.51h0a44.06,44.06,0,0,1-38.5,49h0a44,44,0,0,1-49-38.51h0A44.06,44.06,0,0,1,2149,376.21Z" transform="translate(-58.45 -144.87)"/><path class="cls-5" d="M2158.33,448.05l-1,.12A13,13,0,0,1,2143,436.78h0l26.75-3.1h0A13,13,0,0,1,2158.33,448.05Z" transform="translate(-58.45 -144.87)"/><path class="cls-8" d="M2186.15,442.07l-5.38.66a6.33,6.33,0,0,1-7-5.5h0a6.32,6.32,0,0,1,5.5-7l5.39-.66a6.3,6.3,0,0,1,7,5.5h0A6.31,6.31,0,0,1,2186.15,442.07Z" transform="translate(-58.45 -144.87)"/><path class="cls-8" d="M2134,448.32l-5.38.66a6.32,6.32,0,0,1-7-5.5h0a6.31,6.31,0,0,1,5.5-7l5.38-.66a6.32,6.32,0,0,1,7,5.5h0A6.33,6.33,0,0,1,2134,448.32Z" transform="translate(-58.45 -144.87)"/><path class="cls-16" d="M2182.91,409.54l-36.25-1.63a33.1,33.1,0,0,1-31.38-29.13h0l63-7.55Z" transform="translate(-58.45 -144.87)"/><path class="cls-16" d="M2142.88,406.42c-13.55-3-23.89-12.6-27.66-24.48h0a33.1,33.1,0,0,0,31,29.56l26.39,1.55Z" transform="translate(-58.45 -144.87)"/><path class="cls-7" d="M2176.09,421.85h0a4.58,4.58,0,0,0-4,5.09l.09.74,9.57-1.14,0-.27A5.05,5.05,0,0,0,2176.09,421.85Z" transform="translate(-58.45 -144.87)"/><path class="cls-7" d="M2132.47,427.07h0a5.05,5.05,0,0,0-4.42,5.62l0,.27,9.57-1.14-.09-.75A4.58,4.58,0,0,0,2132.47,427.07Z" transform="translate(-58.45 -144.87)"/><path class="cls-2" d="M2198.47,856h-11.53a11.31,11.31,0,0,0-11.32,11.31h0a11.32,11.32,0,0,0,11.32,11.32h34.17A22.64,22.64,0,0,0,2198.47,856Z" transform="translate(-58.45 -144.87)"/><path class="cls-38" d="M2189,878.63V873a18.37,18.37,0,0,1,18.37-18.37h0A18.37,18.37,0,0,1,2225.7,873v5.66H2189" transform="translate(-58.45 -144.87)"/><path class="cls-38" d="M2176,869.37h22a4.63,4.63,0,0,1,4.63,4.63h0a4.62,4.62,0,0,1-4.63,4.62h-22a4.62,4.62,0,0,1-4.62-4.62h0A4.62,4.62,0,0,1,2176,869.37Z" transform="translate(-58.45 -144.87)"/><path class="cls-2" d="M2098.3,856h11.53a11.31,11.31,0,0,1,11.32,11.31h0a11.32,11.32,0,0,1-11.32,11.32h-34.17A22.63,22.63,0,0,1,2098.3,856Z" transform="translate(-58.45 -144.87)"/><path class="cls-38" d="M2107.82,878.63V873.3c0-9.56-8.08-17.3-18.05-17.3h0c-10,0-18.05,7.74-18.05,17.3v5.33h36.1" transform="translate(-58.45 -144.87)"/><path class="cls-38" d="M2120.82,869.37h-22a4.63,4.63,0,0,0-4.63,4.63h0a4.62,4.62,0,0,0,4.63,4.62h22a4.62,4.62,0,0,0,4.62-4.62h0A4.62,4.62,0,0,0,2120.82,869.37Z" transform="translate(-58.45 -144.87)"/><path class="cls-4" d="M2115.6,430.47a1,1,0,0,0,.79,1.25,26.5,26.5,0,0,0,6.77.26,1,1,0,0,0,.9-1.09,1,1,0,0,0-.74-.87,1.05,1.05,0,0,0-.36,0,24.6,24.6,0,0,1-6.23-.24,1,1,0,0,0-1.13.72Z" transform="translate(-58.45 -144.87)"/><path class="cls-4" d="M2124.64,433.79a1,1,0,0,0-1.1-1,26.58,26.58,0,0,0-6.6,1.53,1,1,0,0,0,.36,1.94,1.15,1.15,0,0,0,.36-.07,25.11,25.11,0,0,1,6.08-1.41,1,1,0,0,0,.9-1Z" transform="translate(-58.45 -144.87)"/><path class="cls-4" d="M2194.23,420.34a1,1,0,0,1-.45,1.41,26.83,26.83,0,0,1-6.48,2,1,1,0,0,1-1.14-.83,1,1,0,0,1,.48-1,1,1,0,0,1,.35-.12,25.09,25.09,0,0,0,6-1.81,1,1,0,0,1,1.27.41Z" transform="translate(-58.45 -144.87)"/><path class="cls-4" d="M2186.33,425.83a1,1,0,0,1,.8-1.24,26.81,26.81,0,0,1,6.77-.19,1,1,0,0,1,.15,2,1.1,1.1,0,0,1-.36,0,25,25,0,0,0-6.24.17,1,1,0,0,1-1.12-.73Z" transform="translate(-58.45 -144.87)"/><path class="cls-16" d="M2181.4,493.83l-7.11,5.83a9.86,9.86,0,0,1-13.89-1.37l-4.68-5.71,14.74-12.09a8.63,8.63,0,0,1,12.14,1.2h0A8.63,8.63,0,0,1,2181.4,493.83Z" transform="translate(-58.45 -144.87)"/><path class="cls-16" d="M2142.09,496.59l-5.84-7.11a8.63,8.63,0,0,1,1.2-12.14h0a8.63,8.63,0,0,1,12.14,1.2l12.09,14.75L2156,498A9.87,9.87,0,0,1,2142.09,496.59Z" transform="translate(-58.45 -144.87)"/><ellipse class="cls-26" cx="2113.21" cy="503.28" rx="22.56" ry="25.8" transform="translate(-115.46 262.95) rotate(-10.88)"/><circle class="cls-16" cx="2104.35" cy="512.37" r="16.66" transform="translate(328.94 1687.68) rotate(-51.24)"/><ellipse class="cls-26" cx="2204.7" cy="512.93" rx="26.05" ry="24.88" transform="translate(815.78 2199.35) rotate(-67.1)"/><circle class="cls-16" cx="2200.24" cy="519.48" r="16.66" transform="translate(-117.87 305.13) rotate(-11.52)"/><path class="cls-16" d="M2152.62,676.91h0a42.45,42.45,0,0,1-36.6-47.59l3.33-52.92a42.4,42.4,0,0,1,45.52-39.63h0a42.41,42.41,0,0,1,39.12,45l-3.78,58.52A42.45,42.45,0,0,1,2152.62,676.91Z" transform="translate(-58.45 -144.87)"/><path class="cls-45" d="M2125.47,583a5.07,5.07,0,1,0-5.13,5A5.09,5.09,0,0,0,2125.47,583Z" transform="translate(-58.45 -144.87)"/><path class="cls-45" d="M2124.36,592.77a5.07,5.07,0,1,0-5.12,5A5.07,5.07,0,0,0,2124.36,592.77Z" transform="translate(-58.45 -144.87)"/><path class="cls-45" d="M2124.1,601.9a5.07,5.07,0,1,0-5.12,5A5.07,5.07,0,0,0,2124.1,601.9Z" transform="translate(-58.45 -144.87)"/><path class="cls-45" d="M2124,612a5.07,5.07,0,1,0-5.13,5A5.07,5.07,0,0,0,2124,612Z" transform="translate(-58.45 -144.87)"/><path class="cls-45" d="M2122.5,622.15a5.07,5.07,0,1,0-5.12,5A5.07,5.07,0,0,0,2122.5,622.15Z" transform="translate(-58.45 -144.87)"/><path class="cls-45" d="M2122.39,632.29a5.07,5.07,0,1,0-5.12,5A5.07,5.07,0,0,0,2122.39,632.29Z" transform="translate(-58.45 -144.87)"/><path class="cls-45" d="M2122.28,642a5.07,5.07,0,1,0-5.12,5A5.06,5.06,0,0,0,2122.28,642Z" transform="translate(-58.45 -144.87)"/><circle class="cls-45" cx="2061.2" cy="506.26" r="5.07"/><path class="cls-45" d="M2129.65,659.3a5.07,5.07,0,1,0-4.39,5.66A5.07,5.07,0,0,0,2129.65,659.3Z" transform="translate(-58.45 -144.87)"/><path class="cls-45" d="M2136.58,665.87a5.07,5.07,0,1,0-4.39,5.67A5.07,5.07,0,0,0,2136.58,665.87Z" transform="translate(-58.45 -144.87)"/><path class="cls-45" d="M2144.27,672a5.07,5.07,0,1,0-4.38,5.67A5.06,5.06,0,0,0,2144.27,672Z" transform="translate(-58.45 -144.87)"/><path class="cls-45" d="M2153.94,674.93a5.07,5.07,0,1,0-4.39,5.67A5.06,5.06,0,0,0,2153.94,674.93Z" transform="translate(-58.45 -144.87)"/><path class="cls-45" d="M2164.06,676a5.07,5.07,0,1,0-4.38,5.67A5.06,5.06,0,0,0,2164.06,676Z" transform="translate(-58.45 -144.87)"/><circle class="cls-45" cx="2169.15" cy="675.54" r="5.07" transform="translate(1397.56 2687.74) rotate(-89)"/><circle class="cls-45" cx="2179.46" cy="672.09" r="5.07" transform="translate(1411.14 2694.67) rotate(-89)"/><path class="cls-45" d="M2192,664.48a5.07,5.07,0,1,0-4.38,5.67A5.06,5.06,0,0,0,2192,664.48Z" transform="translate(-58.45 -144.87)"/><path class="cls-45" d="M2198.8,656.09a5.07,5.07,0,1,0-4.38,5.66A5.06,5.06,0,0,0,2198.8,656.09Z" transform="translate(-58.45 -144.87)"/><path class="cls-45" d="M2203,647.36a5.07,5.07,0,1,0-4.38,5.67A5.06,5.06,0,0,0,2203,647.36Z" transform="translate(-58.45 -144.87)"/><circle class="cls-45" cx="2140.99" cy="492.58" r="5.07"/><circle class="cls-45" cx="2141.86" cy="482.58" r="5.07"/><circle class="cls-45" cx="2141.61" cy="472.03" r="5.07"/><path class="cls-45" d="M2206.19,606.31a5.07,5.07,0,1,0-4.38,5.66A5.06,5.06,0,0,0,2206.19,606.31Z" transform="translate(-58.45 -144.87)"/><path class="cls-45" d="M2206.31,595.81a5.07,5.07,0,1,0-4.39,5.66A5.07,5.07,0,0,0,2206.31,595.81Z" transform="translate(-58.45 -144.87)"/><path class="cls-45" d="M2206.9,586.06a5.07,5.07,0,1,0-4.38,5.67A5.06,5.06,0,0,0,2206.9,586.06Z" transform="translate(-58.45 -144.87)"/><path class="cls-2" d="M2157.66,521.33a2.23,2.23,0,1,0-2.47,1.95A2.22,2.22,0,0,0,2157.66,521.33Z" transform="translate(-58.45 -144.87)"/><path class="cls-2" d="M2163.41,538.47l26.61-25.4a12.13,12.13,0,0,1,17.14.4h0a12.11,12.11,0,0,1-.4,17.14l-26.6,25.4a12.13,12.13,0,0,1-17.15-.4h0A12.13,12.13,0,0,1,2163.41,538.47Z" transform="translate(-58.45 -144.87)"/><path class="cls-4" d="M2112.19,521.86l-17.55,24.38c-3.49,4.76-10.7,5.39-16.09,1.42h0c-5.39-4-6.93-11-3.44-15.78l17.55-24.39c3.5-4.75,10.7-5.38,16.1-1.42h0C2114.14,510,2115.68,517.11,2112.19,521.86Z" transform="translate(-58.45 -144.87)"/><path class="cls-2" d="M2121.1,519.75l-26.95,27c-5.33,5.27-13.46,5.68-18.17.92h0c-4.71-4.77-4.2-12.9,1.13-18.17l26.94-27c5.33-5.27,13.47-5.68,18.17-.92h0C2126.93,506.35,2126.43,514.48,2121.1,519.75Z" transform="translate(-58.45 -144.87)"/><ellipse class="cls-11" cx="2157.76" cy="529.94" rx="22.2" ry="33.04" transform="matrix(0.18, -0.98, 0.98, 0.18, 1194.38, 2414.32)"/><path class="cls-2" d="M2169,559.33l-47.76-6.08a12.12,12.12,0,0,1-10.49-13.56h0a12.12,12.12,0,0,1,13.56-10.5l47.76,6.09a12.13,12.13,0,0,1,10.5,13.56h0A12.13,12.13,0,0,1,2169,559.33Z" transform="translate(-58.45 -144.87)"/><path class="cls-11" d="M2150.63,546.35h0a5.25,5.25,0,0,1-5-5.53l.45-8.2a5.25,5.25,0,0,1,5.53-5h0a5.25,5.25,0,0,1,5,5.53l-.45,8.21A5.25,5.25,0,0,1,2150.63,546.35Z" transform="translate(-58.45 -144.87)"/><path class="cls-11" d="M2112.26,542.9h0a5.25,5.25,0,0,1-5-5.53l.45-8.2a5.25,5.25,0,0,1,5.53-5h0a5.25,5.25,0,0,1,4.95,5.53l-.45,8.21A5.25,5.25,0,0,1,2112.26,542.9Z" transform="translate(-58.45 -144.87)"/><path class="cls-11" d="M2146.57,513.77l-9.48-14.33a1.78,1.78,0,0,0-3.22.6l-3.69,16.78a9.05,9.05,0,0,0,10.5,10.84h0A9.05,9.05,0,0,0,2146.57,513.77Z" transform="translate(-58.45 -144.87)"/><path class="cls-11" d="M2127,540.49l9.66-.41a14.8,14.8,0,0,0,14.15-15.41h0a14.79,14.79,0,0,0-15.41-14.15l-9.66.41a14.8,14.8,0,0,0-14.15,15.41h0A14.8,14.8,0,0,0,2127,540.49Z" transform="translate(-58.45 -144.87)"/><path class="cls-2" d="M2134.57,504.44c1.71,5.65-7,10-15.21,12.44s-15.37,2.9-17.07-2.75,2.69-15.24,10.9-17.71S2132.87,498.79,2134.57,504.44Z" transform="translate(-58.45 -144.87)"/><path class="cls-11" d="M2128.28,514.52l-9.2-13.5a1.69,1.69,0,0,0-3,.61l-4.16,20.27a5.72,5.72,0,0,0,6.73,6.76l4.26-.86A8.6,8.6,0,0,0,2128.28,514.52Z" transform="translate(-58.45 -144.87)"/><path class="cls-5" d="M2127,540.49l9.66-.41a14.8,14.8,0,0,0,13.3-9.82l-8.76.41a5.4,5.4,0,0,1-5.64-5.2l-.16-4.48a5.42,5.42,0,0,0-3.86-4.76h0a2.74,2.74,0,0,0-3.59,2.91l.24,6.8a5.39,5.39,0,0,1-5.13,5.58L2113,532A14.79,14.79,0,0,0,2127,540.49Z" transform="translate(-58.45 -144.87)"/><path class="cls-14" d="M2132.68,532.79h0a2.55,2.55,0,0,1-2.63-2.49h0l5.12-.14h0A2.57,2.57,0,0,1,2132.68,532.79Z" transform="translate(-58.45 -144.87)"/><path class="cls-5" d="M2125.59,528.22l-5.12.1h0a1.3,1.3,0,0,1,1.28-1.33l2.51,0a1.3,1.3,0,0,1,1.33,1.28Z" transform="translate(-58.45 -144.87)"/><path class="cls-5" d="M2143.73,527.52l-5.12.1h0a1.32,1.32,0,0,1,1.28-1.34l2.51,0a1.3,1.3,0,0,1,1.33,1.28Z" transform="translate(-58.45 -144.87)"/><path class="cls-11" d="M2131.06,536.26a2.75,2.75,0,0,1-.9-.15.5.5,0,0,1,.36-.93,1.32,1.32,0,0,0,1.82-1.14.5.5,0,0,1,1,0,1.68,1.68,0,0,0,.78,1.08,1.16,1.16,0,0,0,.81,0,.5.5,0,0,1,.4.91,2.08,2.08,0,0,1-1.62,0,2.12,2.12,0,0,1-.81-.66,2.14,2.14,0,0,1-.78.69A2.11,2.11,0,0,1,2131.06,536.26Z" transform="translate(-58.45 -144.87)"/><path class="cls-11" d="M2173.69,579.33a6,6,0,0,1-1.66-11.77c5.39-1.55,9.76-7.81,10.62-15.22.85-7.22-1.73-14.06-6.41-17a6,6,0,1,1,6.4-10.15c8.64,5.45,13.32,16.66,11.93,28.56-1.43,12.26-9.16,22.45-19.21,25.35A6.07,6.07,0,0,1,2173.69,579.33Z" transform="translate(-58.45 -144.87)"/><path class="cls-46" d="M2131.78,765.6a5.28,5.28,0,1,0-5.28,5.27A5.28,5.28,0,0,0,2131.78,765.6Z" transform="translate(-58.45 -144.87)"/><path class="cls-46" d="M2161.85,724a5.28,5.28,0,1,0-5.28,5.28A5.27,5.27,0,0,0,2161.85,724Z" transform="translate(-58.45 -144.87)"/><path class="cls-46" d="M2197.17,766.26a5.28,5.28,0,1,0-5.27,5.28A5.27,5.27,0,0,0,2197.17,766.26Z" transform="translate(-58.45 -144.87)"/><path class="cls-46" d="M2224.5,726a5.28,5.28,0,1,0-5.27,5.28A5.27,5.27,0,0,0,2224.5,726Z" transform="translate(-58.45 -144.87)"/><circle class="cls-46" cx="2184.95" cy="547.37" r="5.28"/><path class="cls-46" d="M2227.56,636.9a5.28,5.28,0,1,0-5.27,5.28A5.27,5.27,0,0,0,2227.56,636.9Z" transform="translate(-58.45 -144.87)"/><path class="cls-46" d="M2222.12,574.15a5.28,5.28,0,1,0-5.28,5.28A5.27,5.27,0,0,0,2222.12,574.15Z" transform="translate(-58.45 -144.87)"/><path class="cls-46" d="M2097,732a5.28,5.28,0,1,0-5.28,5.28A5.28,5.28,0,0,0,2097,732Z" transform="translate(-58.45 -144.87)"/><path class="cls-46" d="M2199.05,687a5.28,5.28,0,1,0-5.27,5.28A5.27,5.27,0,0,0,2199.05,687Z" transform="translate(-58.45 -144.87)"/><path class="cls-46" d="M2101.27,644.63a5.28,5.28,0,1,0-5.27,5.28A5.27,5.27,0,0,0,2101.27,644.63Z" transform="translate(-58.45 -144.87)"/><path class="cls-46" d="M2109.63,595.19a5.28,5.28,0,1,0-5.28,5.28A5.27,5.27,0,0,0,2109.63,595.19Z" transform="translate(-58.45 -144.87)"/><path class="cls-46" d="M2121.05,689a5.28,5.28,0,1,0-5.28,5.28A5.27,5.27,0,0,0,2121.05,689Z" transform="translate(-58.45 -144.87)"/><path class="cls-46" d="M2245.4,759.6a5.28,5.28,0,1,0-5.28,5.27A5.28,5.28,0,0,0,2245.4,759.6Z" transform="translate(-58.45 -144.87)"/></svg>