<?xml version="1.0" standalone="no"?>
<!DOCTYPE svg PUBLIC "-//W3C//DTD SVG 20010904//EN"
 "http://www.w3.org/TR/2001/REC-SVG-20010904/DTD/svg10.dtd">
<svg version="1.0" xmlns="http://www.w3.org/2000/svg"
 width="640.000000pt" height="360.000000pt" viewBox="0 0 640.000000 360.000000"
 preserveAspectRatio="xMidYMid meet">

<g transform="translate(0.000000,360.000000) scale(0.100000,-0.100000)"
fill="#000000" stroke="none">
<path d="M5553 1690 c-24 -12 -55 -36 -69 -53 -25 -30 -30 -32 -85 -29 -84 5
-161 -20 -197 -63 -40 -49 -52 -93 -59 -210 -5 -97 10 -202 48 -349 6 -21 8
-40 6 -42 -3 -3 -13 27 -22 67 -17 66 -19 71 -32 53 -21 -27 -11 -96 21 -144
31 -46 49 -52 41 -12 -5 26 -5 26 5 4 5 -13 8 -28 4 -33 -3 -5 -1 -9 5 -9 5 0
19 -30 32 -67 26 -79 77 -135 158 -173 l53 -24 -7 -91 c-4 -59 -12 -96 -22
-107 -9 -10 -62 -32 -119 -49 -91 -28 -102 -34 -92 -48 10 -13 9 -13 -6 1 -17
15 -22 15 -71 -2 -102 -35 -154 -77 -193 -155 -15 -32 -42 -126 -42 -150 0 -3
304 -5 676 -5 l677 0 -6 49 c-13 109 -89 213 -181 245 -23 8 -105 33 -183 57
-79 23 -148 48 -155 56 -7 9 -14 55 -16 107 l-4 91 46 22 c73 36 132 97 156
160 22 60 44 96 52 88 3 -3 19 10 36 29 39 44 59 107 45 138 -9 20 -12 16 -32
-42 -12 -36 -29 -76 -37 -90 -17 -27 -14 -17 18 64 28 72 39 140 39 240 0 171
-38 274 -135 372 -110 110 -257 153 -353 104z m-104 -370 c11 -24 11 -24 -3
-6 -16 19 -16 19 -38 -1 -13 -11 -30 -24 -38 -28 -8 -4 3 8 25 27 22 20 41 35
41 35 1 -1 7 -13 13 -27z m155 -161 c54 -30 57 -40 4 -13 -37 19 -125 100
-140 129 -6 11 11 -4 37 -33 26 -29 71 -66 99 -83z m-278 96 c-15 -14 -36 -44
-46 -67 -11 -24 -20 -37 -20 -29 0 21 48 99 68 110 27 16 27 13 -2 -14z m560
-187 c9 -17 13 -32 11 -34 -2 -3 -10 9 -17 26 -15 37 -111 124 -120 109 -6 -8
-30 31 -30 48 0 13 143 -123 156 -149z m-110 53 c-8 -13 -72 -13 -101 -1 -12
5 4 6 39 2 55 -5 59 -4 52 14 -5 14 -4 16 5 7 6 -6 8 -16 5 -22z m-519 -13
c-3 -7 -5 -2 -5 12 0 14 2 19 5 13 2 -7 2 -19 0 -25z m-5 -165 c2 -44 0 -79
-4 -76 -5 2 -7 55 -6 116 1 116 6 101 10 -40z m689 7 c-5 -56 -12 -105 -16
-108 -5 -6 -3 22 11 166 3 30 8 52 10 49 3 -2 0 -50 -5 -107z m-34 38 c-3 -7
-5 -2 -5 12 0 14 2 19 5 13 2 -7 2 -19 0 -25z m-637 -733 c19 -19 32 -35 29
-35 -3 0 -20 16 -39 35 -19 19 -32 35 -29 35 3 0 20 -16 39 -35z m680 22 c0
-2 -10 -12 -22 -23 l-23 -19 19 23 c18 21 26 27 26 19z m-60 -52 c-7 -9 -27
-25 -44 -37 -23 -15 -21 -11 9 16 43 38 55 45 35 21z m-520 -52 c0 -8 -38 17
-51 33 -9 11 -2 9 19 -6 17 -13 32 -25 32 -27z m50 -29 c0 -2 -9 0 -20 6 -11
6 -20 13 -20 16 0 2 9 0 20 -6 11 -6 20 -13 20 -16z m390 21 c0 -6 -97 -55
-107 -55 -4 1 17 14 47 30 61 32 60 32 60 25z m-330 -45 c8 -5 11 -10 5 -10
-5 0 -17 5 -25 10 -8 5 -10 10 -5 10 6 0 17 -5 25 -10z m138 -37 c-10 -2 -28
-2 -40 0 -13 2 -5 4 17 4 22 1 32 -1 23 -4z"/>
<path d="M3923 1595 c-136 -30 -247 -118 -304 -238 -48 -105 -51 -143 -17
-245 16 -48 41 -107 56 -132 l27 -45 6 65 c11 108 51 218 103 285 17 22 21 13
6 -14 -15 -30 -29 -131 -16 -124 48 29 147 101 176 126 19 18 28 24 21 15 -14
-18 -63 -168 -55 -168 14 0 131 66 200 112 l80 53 37 -46 c44 -56 70 -115 97
-217 11 -41 22 -77 24 -79 6 -6 45 100 57 156 27 130 -17 270 -110 353 -27 24
-56 55 -66 70 -43 68 -195 102 -322 73z"/>
<path d="M757 1576 c-62 -17 -70 -26 -21 -26 44 0 117 -37 122 -62 2 -12 -11
-18 -65 -27 -132 -22 -237 -93 -264 -178 -6 -21 -14 -90 -16 -154 -4 -100 -2
-127 18 -200 l24 -84 7 110 c3 61 15 139 26 175 l19 65 259 5 c172 4 264 2
273 -5 31 -22 53 -95 51 -164 -8 -205 10 -244 31 -68 8 71 8 122 -1 203 -13
122 -25 157 -68 198 -27 25 -29 31 -20 58 23 64 -39 128 -124 128 -18 0 -69 9
-113 20 -44 11 -82 20 -85 19 -3 0 -26 -6 -53 -13z"/>
<path d="M2353 1510 c-126 -18 -251 -111 -305 -225 -30 -66 -45 -165 -31 -204
9 -22 11 -20 37 32 60 123 197 183 396 174 174 -7 275 -59 329 -169 36 -72 46
-62 39 40 -16 223 -231 386 -465 352z"/>
<path d="M2017 982 c-21 -23 -21 -36 -1 -57 13 -12 17 -39 19 -108 1 -51 10
-121 19 -156 19 -71 72 -182 108 -227 54 -67 64 -57 -99 -109 -83 -26 -163
-58 -182 -72 -59 -45 -96 -117 -115 -220 l-5 -33 654 0 c360 0 655 2 655 5 0
26 -27 120 -46 156 -44 87 -86 112 -302 179 -132 41 -172 64 -172 98 0 15 -13
17 -134 17 l-133 0 -9 -29 c-5 -16 -17 -34 -27 -40 -16 -9 -25 -4 -58 34 -50
57 -104 167 -123 250 -18 73 -21 246 -6 255 14 9 13 48 -2 63 -16 16 -22 15
-41 -6z"/>
<path d="M2737 989 c-22 -13 -22 -52 -1 -70 14 -12 16 -29 11 -114 -8 -147
-46 -260 -122 -359 -20 -27 -34 -50 -31 -53 7 -7 64 74 98 141 43 85 68 194
68 297 0 68 3 88 15 93 8 3 15 17 15 30 0 30 -28 49 -53 35z"/>
<path d="M3586 334 c-93 -30 -184 -63 -202 -75 -72 -44 -127 -136 -136 -224
l-3 -30 763 -3 c419 -1 762 0 762 2 0 21 -25 117 -37 139 -20 40 -82 106 -115
123 -15 8 -98 37 -184 65 -87 28 -163 53 -170 56 -8 3 -35 -29 -70 -81 l-57
-85 -28 37 c-67 86 -91 112 -105 112 -8 0 -13 -3 -11 -8 1 -5 -69 -105 -103
-145 -4 -4 -33 33 -66 82 -32 50 -61 91 -64 90 -3 0 -81 -24 -174 -55z"/>
<path d="M460 317 c-85 -29 -171 -62 -191 -75 -63 -39 -109 -113 -124 -201
l-7 -41 727 0 728 0 -6 45 c-9 63 -49 137 -98 178 -33 29 -75 46 -213 90
l-171 55 -70 -18 c-97 -26 -239 -26 -340 0 -43 11 -79 20 -79 19 -1 0 -71 -24
-156 -52z"/>
</g>
</svg>
