<?xml version="1.0" encoding="UTF-8" standalone="no"?>
<svg
   xmlns:dc="http://purl.org/dc/elements/1.1/"
   xmlns:cc="http://creativecommons.org/ns#"
   xmlns:rdf="http://www.w3.org/1999/02/22-rdf-syntax-ns#"
   xmlns:svg="http://www.w3.org/2000/svg"
   xmlns="http://www.w3.org/2000/svg"
   viewBox="0 0 693.33331 693.33331"
   height="693.33331"
   width="693.33331"
   xml:space="preserve"
   id="svg2"
   version="1.1"><metadata
     id="metadata8"><rdf:RDF><cc:Work
         rdf:about=""><dc:format>image/svg+xml</dc:format><dc:type
           rdf:resource="http://purl.org/dc/dcmitype/StillImage" /></cc:Work></rdf:RDF></metadata><defs
     id="defs6"><clipPath
       id="clipPath18"
       clipPathUnits="userSpaceOnUse"><path
         id="path16"
         d="M 0,520 H 520 V 0 H 0 Z" /></clipPath></defs><g
     transform="matrix(1.3333333,0,0,-1.3333333,0,693.33333)"
     id="g10"><g
       id="g12"><g
         clip-path="url(#clipPath18)"
         id="g14"><g
           transform="translate(379.2697,224.4875)"
           id="g20"><path
             id="path22"
             style="fill:#f26521;fill-opacity:1;fill-rule:nonzero;stroke:none"
             d="m 0,0 -182.668,-0.189 c -10.01,-0.011 -18.208,8.171 -18.219,18.18 l -0.095,92.067 c -0.011,10.009 8.171,18.208 18.18,18.218 l 182.669,0.189 c 10.01,0.011 18.208,-8.17 18.218,-18.18 L 18.181,18.218 C 18.191,8.209 10.01,0.01 0,0" /></g><g
           transform="translate(397.3781,312.4037)"
           id="g24"><path
             id="path26"
             style="fill:#b64526;fill-opacity:1;fill-rule:nonzero;stroke:none"
             d="m 0,0 -219.067,-0.227 -0.02,18.932 219.067,0.227 z" /></g><g
           transform="translate(210.2519,288.159)"
           id="g28"><path
             id="path30"
             style="fill:#bcbec0;fill-opacity:1;fill-rule:nonzero;stroke:none"
             d="M 0,0 H -0.019 C -9.996,-0.011 -18.105,-8.137 -18.095,-18.114 -18.085,-28.085 -9.968,-36.19 0,-36.19 h 0.019 c 4.833,0.006 9.375,1.892 12.789,5.314 3.414,3.42 5.292,7.966 5.287,12.799 C 18.084,-8.106 9.968,0 0,0 m 0,-36.962 c -10.395,0 -18.856,8.45 -18.867,18.847 -0.011,10.404 8.444,18.877 18.847,18.887 H 0 c 10.395,0 18.856,-8.45 18.867,-18.847 0.006,-5.04 -1.952,-9.78 -5.512,-13.348 -3.56,-3.567 -8.296,-5.534 -13.335,-5.539 z" /></g><g
           transform="translate(231.8882,288.1809)"
           id="g32"><path
             id="path34"
             style="fill:#bcbec0;fill-opacity:1;fill-rule:nonzero;stroke:none"
             d="m 0,0 h -0.019 c -9.977,-0.011 -18.086,-8.136 -18.076,-18.113 0.01,-9.971 8.126,-18.076 18.094,-18.076 h 0.019 c 9.978,0.011 18.087,8.136 18.077,18.113 C 18.084,-8.105 9.968,0 0,0 m -0.001,-36.961 c -5.032,0 -9.764,1.956 -13.326,5.512 -3.568,3.56 -5.535,8.296 -5.54,13.334 -0.011,10.404 8.444,18.877 18.847,18.887 H 0 c 10.395,0 18.856,-8.45 18.867,-18.847 0.011,-10.403 -8.444,-18.876 -18.848,-18.886 z" /></g><g
           transform="translate(352.3244,291.1715)"
           id="g36"><path
             id="path38"
             style="fill:#d1d3d4;fill-opacity:1;fill-rule:nonzero;stroke:none"
             d="m 0,0 -14.875,-0.015 -0.009,8.564 14.875,0.015 z" /></g><g
           transform="translate(352.3348,281.1985)"
           id="g40"><path
             id="path42"
             style="fill:#d1d3d4;fill-opacity:1;fill-rule:nonzero;stroke:none"
             d="m 0,0 -14.875,-0.015 -0.009,8.564 14.875,0.015 z" /></g><g
           transform="translate(352.3451,271.2255)"
           id="g44"><path
             id="path46"
             style="fill:#d1d3d4;fill-opacity:1;fill-rule:nonzero;stroke:none"
             d="m 0,0 -14.875,-0.015 -0.009,8.564 14.875,0.015 z" /></g><g
           transform="translate(352.3555,261.2526)"
           id="g48"><path
             id="path50"
             style="fill:#d1d3d4;fill-opacity:1;fill-rule:nonzero;stroke:none"
             d="m 0,0 -14.875,-0.015 -0.009,8.564 14.875,0.015 z" /></g><g
           transform="translate(352.3658,251.2796)"
           id="g52"><path
             id="path54"
             style="fill:#d1d3d4;fill-opacity:1;fill-rule:nonzero;stroke:none"
             d="m 0,0 -14.875,-0.015 -0.009,8.564 14.875,0.015 z" /></g><g
           transform="translate(368.5517,291.1883)"
           id="g56"><path
             id="path58"
             style="fill:#d1d3d4;fill-opacity:1;fill-rule:nonzero;stroke:none"
             d="m 0,0 -14.875,-0.015 -0.009,8.564 14.875,0.015 z" /></g><g
           transform="translate(368.562,281.2153)"
           id="g60"><path
             id="path62"
             style="fill:#d1d3d4;fill-opacity:1;fill-rule:nonzero;stroke:none"
             d="m 0,0 -14.875,-0.015 -0.009,8.564 14.875,0.015 z" /></g><g
           transform="translate(368.5723,271.2424)"
           id="g64"><path
             id="path66"
             style="fill:#d1d3d4;fill-opacity:1;fill-rule:nonzero;stroke:none"
             d="m 0,0 -14.875,-0.015 -0.009,8.564 14.875,0.015 z" /></g><g
           transform="translate(368.5827,261.2694)"
           id="g68"><path
             id="path70"
             style="fill:#d1d3d4;fill-opacity:1;fill-rule:nonzero;stroke:none"
             d="m 0,0 -14.875,-0.015 -0.009,8.564 14.875,0.015 z" /></g><g
           transform="translate(368.593,251.2964)"
           id="g72"><path
             id="path74"
             style="fill:#d1d3d4;fill-opacity:1;fill-rule:nonzero;stroke:none"
             d="m 0,0 -14.875,-0.015 -0.009,8.564 14.875,0.015 z" /></g><g
           transform="translate(384.7789,291.2051)"
           id="g76"><path
             id="path78"
             style="fill:#d1d3d4;fill-opacity:1;fill-rule:nonzero;stroke:none"
             d="m 0,0 -14.875,-0.015 -0.009,8.564 14.875,0.015 z" /></g><g
           transform="translate(384.7892,281.2322)"
           id="g80"><path
             id="path82"
             style="fill:#d1d3d4;fill-opacity:1;fill-rule:nonzero;stroke:none"
             d="m 0,0 -14.875,-0.015 -0.009,8.564 14.875,0.015 z" /></g><g
           transform="translate(384.7996,271.2592)"
           id="g84"><path
             id="path86"
             style="fill:#d1d3d4;fill-opacity:1;fill-rule:nonzero;stroke:none"
             d="m 0,0 -14.875,-0.015 -0.009,8.564 14.875,0.015 z" /></g><g
           transform="translate(384.8099,261.2862)"
           id="g88"><path
             id="path90"
             style="fill:#d1d3d4;fill-opacity:1;fill-rule:nonzero;stroke:none"
             d="m 0,0 -14.875,-0.015 -0.009,8.564 14.875,0.015 z" /></g><g
           transform="translate(384.8202,251.3132)"
           id="g92"><path
             id="path94"
             style="fill:#d1d3d4;fill-opacity:1;fill-rule:nonzero;stroke:none"
             d="m 0,0 -14.875,-0.015 -0.009,8.564 14.875,0.015 z" /></g><g
           transform="translate(344.6683,167.2584)"
           id="g96"><path
             id="path98"
             style="fill:#0f8c7c;fill-opacity:1;fill-rule:nonzero;stroke:none"
             d="M 0,0 -203.792,-0.211 C -213.802,-0.222 -222,7.96 -222.01,17.969 l -0.109,104.454 c -0.01,10.01 8.171,18.208 18.181,18.218 l 203.792,0.212 c 10.01,0.01 18.208,-8.171 18.218,-18.181 L 18.181,18.218 C 18.191,8.209 10.01,0.01 0,0" /></g><g
           transform="translate(362.7679,263.6502)"
           id="g100"><path
             id="path102"
             style="fill:#414142;fill-opacity:1;fill-rule:nonzero;stroke:none"
             d="m 0,0 -240.191,-0.249 -0.021,20.757 240.19,0.249 z" /></g><g
           transform="translate(157.598,237.0676)"
           id="g104"><path
             id="path106"
             style="fill:#bcbec0;fill-opacity:1;fill-rule:nonzero;stroke:none"
             d="M 0,0 H -0.021 C -10.96,-0.012 -19.851,-8.921 -19.84,-19.86 -19.829,-30.793 -10.93,-39.679 0,-39.679 h 0.021 c 5.299,0.005 10.279,2.074 14.022,5.825 3.744,3.751 5.802,8.735 5.797,14.034 C 19.828,-8.887 10.929,0 0,0 m 0,-40.526 c -11.397,0 -20.675,9.265 -20.687,20.664 -0.012,11.407 9.259,20.697 20.666,20.709 H 0 c 11.397,0 20.674,-9.265 20.687,-20.665 0.005,-5.526 -2.141,-10.723 -6.044,-14.635 -3.904,-3.911 -9.096,-6.067 -14.622,-6.073 z" /></g><g
           transform="translate(181.3206,237.0916)"
           id="g108"><path
             id="path110"
             style="fill:#bcbec0;fill-opacity:1;fill-rule:nonzero;stroke:none"
             d="m 0,0 h -0.021 c -10.939,-0.012 -19.83,-8.92 -19.819,-19.86 0.011,-10.932 8.91,-19.819 19.839,-19.819 H 0.02 c 10.94,0.012 19.83,8.921 19.819,19.86 C 19.828,-8.886 10.93,0 0,0 m -0.001,-40.525 c -5.517,0 -10.705,2.145 -14.611,6.044 -3.912,3.902 -6.069,9.095 -6.075,14.62 -0.012,11.406 9.259,20.696 20.666,20.708 H 0 c 11.397,0 20.674,-9.265 20.686,-20.664 0.012,-11.407 -9.258,-20.697 -20.665,-20.708 z" /></g><g
           transform="translate(313.3699,240.3706)"
           id="g112"><path
             id="path114"
             style="fill:#d1d3d4;fill-opacity:1;fill-rule:nonzero;stroke:none"
             d="m 0,0 -16.309,-0.017 -0.01,9.39 16.309,0.017 z" /></g><g
           transform="translate(313.3813,229.436)"
           id="g116"><path
             id="path118"
             style="fill:#d1d3d4;fill-opacity:1;fill-rule:nonzero;stroke:none"
             d="m 0,0 -16.309,-0.017 -0.01,9.39 16.309,0.017 z" /></g><g
           transform="translate(313.3926,218.5013)"
           id="g120"><path
             id="path122"
             style="fill:#d1d3d4;fill-opacity:1;fill-rule:nonzero;stroke:none"
             d="m 0,0 -16.309,-0.017 -0.01,9.39 16.309,0.017 z" /></g><g
           transform="translate(313.404,207.5667)"
           id="g124"><path
             id="path126"
             style="fill:#d1d3d4;fill-opacity:1;fill-rule:nonzero;stroke:none"
             d="m 0,0 -16.309,-0.017 -0.01,9.39 16.309,0.017 z" /></g><g
           transform="translate(313.4153,196.6321)"
           id="g128"><path
             id="path130"
             style="fill:#d1d3d4;fill-opacity:1;fill-rule:nonzero;stroke:none"
             d="m 0,0 -16.309,-0.017 -0.01,9.39 16.309,0.017 z" /></g><g
           transform="translate(331.1619,240.389)"
           id="g132"><path
             id="path134"
             style="fill:#d1d3d4;fill-opacity:1;fill-rule:nonzero;stroke:none"
             d="m 0,0 -16.309,-0.017 -0.01,9.39 16.309,0.017 z" /></g><g
           transform="translate(331.1732,229.4544)"
           id="g136"><path
             id="path138"
             style="fill:#d1d3d4;fill-opacity:1;fill-rule:nonzero;stroke:none"
             d="m 0,0 -16.309,-0.017 -0.01,9.39 16.309,0.017 z" /></g><g
           transform="translate(331.1845,218.5198)"
           id="g140"><path
             id="path142"
             style="fill:#d1d3d4;fill-opacity:1;fill-rule:nonzero;stroke:none"
             d="m 0,0 -16.309,-0.017 -0.01,9.39 16.309,0.017 z" /></g><g
           transform="translate(331.1959,207.5852)"
           id="g144"><path
             id="path146"
             style="fill:#d1d3d4;fill-opacity:1;fill-rule:nonzero;stroke:none"
             d="m 0,0 -16.309,-0.017 -0.01,9.39 16.309,0.017 z" /></g><g
           transform="translate(331.2072,196.6506)"
           id="g148"><path
             id="path150"
             style="fill:#d1d3d4;fill-opacity:1;fill-rule:nonzero;stroke:none"
             d="m 0,0 -16.309,-0.017 -0.01,9.39 16.309,0.017 z" /></g><g
           transform="translate(348.9538,240.4075)"
           id="g152"><path
             id="path154"
             style="fill:#d1d3d4;fill-opacity:1;fill-rule:nonzero;stroke:none"
             d="m 0,0 -16.309,-0.017 -0.01,9.39 16.309,0.017 z" /></g><g
           transform="translate(348.9651,229.4729)"
           id="g156"><path
             id="path158"
             style="fill:#d1d3d4;fill-opacity:1;fill-rule:nonzero;stroke:none"
             d="m 0,0 -16.309,-0.017 -0.01,9.39 16.309,0.017 z" /></g><g
           transform="translate(348.9764,218.5382)"
           id="g160"><path
             id="path162"
             style="fill:#d1d3d4;fill-opacity:1;fill-rule:nonzero;stroke:none"
             d="m 0,0 -16.309,-0.017 -0.01,9.39 16.309,0.017 z" /></g><g
           transform="translate(348.9878,207.6036)"
           id="g164"><path
             id="path166"
             style="fill:#d1d3d4;fill-opacity:1;fill-rule:nonzero;stroke:none"
             d="m 0,0 -16.309,-0.017 -0.01,9.39 16.309,0.017 z" /></g><g
           transform="translate(348.9991,196.669)"
           id="g168"><path
             id="path170"
             style="fill:#d1d3d4;fill-opacity:1;fill-rule:nonzero;stroke:none"
             d="m 0,0 -16.309,-0.017 -0.01,9.39 16.309,0.017 z" /></g></g></g></g></svg>