<svg id="Ñëîé_1" data-name="Ñëîé 1" xmlns="http://www.w3.org/2000/svg" viewBox="0 0 911.02 399.19"><defs><style>.cls-1{fill:#e5a185;}.cls-2{fill:#712a96;}.cls-3{fill:#d3d3d3;}.cls-4{fill:#4c1c1c;}.cls-5{fill:#3f2422;}.cls-6{fill:#662384;}.cls-7{fill:#492a27;}.cls-8{fill:#d78c74;}.cls-9{fill:#562020;}.cls-10,.cls-11,.cls-32,.cls-34,.cls-48{fill:#fff;}.cls-10{opacity:0.08;}.cls-12{fill:#381911;}.cls-13,.cls-46{opacity:0.09;}.cls-14{fill:#e09178;}.cls-15{fill:#d8d8d8;}.cls-16{fill:#6e2893;}.cls-17{fill:#f7f7f7;}.cls-18{fill:#4a312f;}.cls-19{opacity:0.13;}.cls-20{fill:#fec200;}.cls-21{opacity:0.05;}.cls-22{fill:#442c2a;}.cls-23{opacity:0.06;}.cls-24{fill:#e7a387;}.cls-25{fill:#e2dcde;}.cls-26{fill:#3ab7c1;}.cls-27{fill:#31a5a8;}.cls-28{fill:#4dc8da;}.cls-29{fill:#56362e;}.cls-30,.cls-34{opacity:0.1;}.cls-31{fill:#603d31;}.cls-32{opacity:0.19;}.cls-33{fill:#ef6a6a;}.cls-35{opacity:0.11;}.cls-36{fill:#e79d84;}.cls-37{fill:#ddd;}.cls-38{opacity:0.07;}.cls-39{fill:#4c2518;}.cls-40{fill:#e86262;}.cls-41{fill:#d58a73;}.cls-42{fill:#d84848;}.cls-43{fill:#f76f6f;}.cls-44{fill:#23110d;}.cls-45{fill:#40c2cc;}.cls-47{fill:#c78575;}.cls-48{opacity:0.14;}.cls-49{fill:#ffaa85;opacity:0.12;}</style></defs><title>shutterstock_576550936 group dancing [Converted]</title><path class="cls-1" d="M763.15,476.77c2.11,1,17.22,2.05,28.36,1.29a63.66,63.66,0,0,0,11-1.64c2.83-.72,3.77-3.64,3.39-6.54-.35-2.74-.56-.49-.35-2.74.64-6.84-2.59-8.57-3.51-18.75l-10.82-1.07c-.46,10.82-4.93,13.82-6,15-2.79,3.18-17.38,6.82-21.42,7S761,475.73,763.15,476.77Z" transform="translate(-27.19 -81)"/><path class="cls-2" d="M763.15,476.77c2.11,1,17.22,2.05,28.36,1.29a63.66,63.66,0,0,0,11-1.64c2.83-.72,4.4-.66,4.69-3.77,0-.15-.47-6.93-.49-8.82,0-.45-.48-.88-.86-.64-3,1.86-5.88,3.33-11.25,2.21a17.82,17.82,0,0,1-8.91-4.68,1.51,1.51,0,0,0-1.77-.24c-5.45,2.87-17.24,6.89-20.18,8.26C758.62,471.15,761,475.73,763.15,476.77Z" transform="translate(-27.19 -81)"/><path class="cls-3" d="M760.64,472.18a53.11,53.11,0,0,0,24,4.4c20.43-.71,22.4-3.89,22.52-3.93h0c.7,2.24.31,4.57-1.93,5.29-4.48,1.44-13.22,1.73-20.41,2.11-8.23.43-16.66-.82-22.65-3.24a3.23,3.23,0,0,1-1.57-4.63Z" transform="translate(-27.19 -81)"/><path class="cls-3" d="M779.77,462.41c1.06,2,2.89,5.2,3.67,4.74s-.67-3.72-1.62-5.65C781.09,460.93,780.06,461.59,779.77,462.41Z" transform="translate(-27.19 -81)"/><path class="cls-3" d="M776.49,463.76c-.75-.7-1.79,0-2.34.93.19,2,.58,4.64,1.24,4.58S776.39,465.88,776.49,463.76Z" transform="translate(-27.19 -81)"/><path class="cls-3" d="M779.46,462.54c-1-.72-1.92-.66-2.57,1.06.49,2,1.45,5.22,2.56,4.57S780,464.5,779.46,462.54Z" transform="translate(-27.19 -81)"/><path class="cls-4" d="M781.72,296.72s-9.87,11.36-6.4,59.87,16.36,78.6,13.9,94.56a14.78,14.78,0,0,0,15,0s-.92-54-1.84-78.9,11.05-73.07,11.05-73.07Z" transform="translate(-27.19 -81)"/><path class="cls-5" d="M840,160.42s2-10.08,15.23-9.69,19.3,11.39,28.38,6.15c0,0-2.86,13.44-16.9,16.55s-21-.79-23.77-3.25S840,160.42,840,160.42Z" transform="translate(-27.19 -81)"/><path class="cls-1" d="M805.8,230.64c-4.15-.23-40.83-2.7-53.19-16.78-11.18-12.72-24.39-41.3-25-42.42l5.69-6c.14.27,17.3,29.38,27.58,41.1,7,8,31.65,12.25,45.51,13Z" transform="translate(-27.19 -81)"/><path class="cls-6" d="M779.88,213.79c-1,3.56-2.25,11.37-3,15,13.06,3.37,25.84,7.22,28.21,7.36l.85-17.95C801,219.75,787.6,216.71,779.88,213.79Z" transform="translate(-27.19 -81)"/><path class="cls-7" d="M824.75,143.77c-8.76-.62-30.15,2.52-30.78,35.69-.66,34.93,28.53,30.82,28.53,30.82s20.43-.85,24.66-30.42S834.62,144.47,824.75,143.77Z" transform="translate(-27.19 -81)"/><path class="cls-8" d="M817.72,223.75h0a5.38,5.38,0,0,1-5.09-6.14l1.94-13.3a6.44,6.44,0,0,1,6.76-5.31h0a5.38,5.38,0,0,1,5.1,6.14l-1.94,13.3A6.45,6.45,0,0,1,817.72,223.75Z" transform="translate(-27.19 -81)"/><path class="cls-8" d="M808.92,234.16l10.06-.48c2.34-4,4.69-8,7.15-11.93a100.75,100.75,0,0,1,5.83-8.51,149.36,149.36,0,0,0-26.94,5c.68,3.62,1.26,7.26,2.29,10.79Q808.06,231.63,808.92,234.16Z" transform="translate(-27.19 -81)"/><path class="cls-1" d="M890.94,381.28c-.74-2.24-10.63-13.7-19-21.1a62.15,62.15,0,0,0-8.88-6.68c-2.5-1.52-5.24-.14-7,2.17s-3.27,3.75-4.8,5.41a10.61,10.61,0,0,1-6.11,2.69c.25.53-.36.31-.12.83,2.1,4.61,4.39,8.33,6.3,13.16a101,101,0,0,1,13.9-2.08c4.22-.25,17.06,7.59,20,10.32S891.69,383.51,890.94,381.28Z" transform="translate(-27.19 -81)"/><path class="cls-9" d="M847.71,362.11c-6.75,1.68-24.32.76-31.36,2.26,0,0,18.84-22.22,22.62-34.56,4.33-14.1-1.38-34.12-7.18-44.66l-18.43.89s-39,80.57-34.81,94,14.42,17.82,33.57,10c13.7-5.58,32.74-10.09,44-12.29a.76.76,0,0,0,.6-.89c-1.07-5.6-3.32-11.09-8.11-14.6A1.16,1.16,0,0,0,847.71,362.11Z" transform="translate(-27.19 -81)"/><path class="cls-2" d="M890.94,381.28c-.74-2.24-10.63-13.7-19-21.1a62.15,62.15,0,0,0-8.88-6.68c-2.5-1.52-4.62-1.13-7,.85-.11.09-3.54,3.66-4.87,5a.66.66,0,0,0,.15,1.06,42.67,42.67,0,0,1,9.51,7.46c1.83,1.81,2.88,6,2.88,8.62a1.52,1.52,0,0,0,1.08,1.44c5.87,1.86,17,7.43,20,8.56C890.11,388.45,891.69,383.51,890.94,381.28Z" transform="translate(-27.19 -81)"/><path class="cls-6" d="M832.21,257.77c2.73-15.66,10.76-39.94,10.76-39.94s-6.69-5.16-15.06-4.15c-3.6,15.11-21.49,16-20.57,3.94-1.75.47-3.52,1-5.29,1.56,0,0-11.67,16.14-13.41,22.36s2.87,7.63,2.87,14.84S776.31,298,776.31,298s8.29,6.45,26.86,6.45a201.63,201.63,0,0,0,35.8-3.34S829.47,273.44,832.21,257.77Z" transform="translate(-27.19 -81)"/><path class="cls-3" d="M889.43,386.28c-1.48-5.92-6.9-14.16-13.75-20.2C862.9,354.82,856.12,354.4,856,354.35h0a4.27,4.27,0,0,1,5.76-1.78A81.24,81.24,0,0,1,878,363.51c6.11,5.58,11.15,12.49,13.62,18.48a3.2,3.2,0,0,1-2.22,4.29Z" transform="translate(-27.19 -81)"/><path class="cls-3" d="M869,379.52c.69-2.16,1.67-5.71.8-5.94s-2.18,3.09-2.89,5.12C867.63,379.52,868,379.88,869,379.52Z" transform="translate(-27.19 -81)"/><path class="cls-3" d="M872.31,380.91c.75,1,.94,1.53,2.3,1,1.29-1.55,2.9-3.68,2.39-4.1S873.89,379.49,872.31,380.91Z" transform="translate(-27.19 -81)"/><path class="cls-3" d="M869.35,379.65c.83,1.16,1.4,1.48,2.56,1.09,1.1-1.78,2.7-4.7,1.46-5S870.4,377.92,869.35,379.65Z" transform="translate(-27.19 -81)"/><path class="cls-1" d="M905.67,142.24c-.18.31-16.26,28.21-29.3,46.89-8.7,12.47-27.16,20.55-38,24.47.88,3.44,1.78,6.88,2.74,10.31,9.4-3.71,32.57-13.3,43.57-29.07,13.34-19.11,23.08-42.39,23.82-43.68Z" transform="translate(-27.19 -81)"/><path class="cls-6" d="M859.51,201.84c-8.55,5.28-23.23,10.35-31.6,11.84.89,3.44,7,15.75,8,19.18,5.78-2.28,21.68-11.65,32.11-18.7C865.23,210,862.43,205.89,859.51,201.84Z" transform="translate(-27.19 -81)"/><path class="cls-1" d="M938.21,142.38a2.74,2.74,0,0,0-2-2.2l-1.62-.34s1.44-.05,1.51-.8c.12-1.13-.46-1.28-3.12-2.3-5.41-2.07-14.14-1.37-14.14-1.37s-3.69.11-7.85.35a8.34,8.34,0,0,0,1.42-3.06,4.72,4.72,0,0,0-3.21-5.21c-1.86-.47-1.4,1.06-1.17,2.12s-.49,3.56-2.66,5.24c-1.07.83-4.43,3.86-4.07,6.91.31,2.67,1.18,4.72.93,6.45,1.83,1.05,3.72,3.76,5.48,4.77a46.35,46.35,0,0,1,5.3,0c2.25.15,4.25-.52,7.88-1.17,0,0,5.69-1.32,8.17-1.74,1.32-.22,2.86-.09,3.22-1.1.3-.84-.88-1.8-1.88-2a26.16,26.16,0,0,0,3.81-.25c1.47-.17,3.07-.21,3.05-1.26s-.93-1.53-1.9-1.68C935.33,143.74,938.25,143.52,938.21,142.38Z" transform="translate(-27.19 -81)"/><path class="cls-1" d="M701.11,183.29a2.73,2.73,0,0,1,.7-2.92l1.24-1.09s-1.28.66-1.71.05c-.66-.93-.23-1.34,1.6-3.54,3.71-4.45,11.67-8.1,11.67-8.1s3.27-1.71,7-3.53a8.48,8.48,0,0,1-2.73-2,4.73,4.73,0,0,1,.26-6.12c1.38-1.31,1.74.25,2.05,1.28s2.17,2.87,4.89,3.28c1.33.2,5.74,1.2,6.92,4,1,2.48,1.28,4.69,2.34,6.08-1.08,1.81-1.41,5.1-2.45,6.85a45.31,45.31,0,0,0-4.61,2.59c-1.9,1.22-4,1.62-7.46,2.82,0,0-5.6,1.63-8,2.48-1.26.45-2.54,1.32-3.35.62s-.11-2,.66-2.67a24.87,24.87,0,0,1-3.44,1.64c-1.37.57-2.79,1.32-3.28.39a1.93,1.93,0,0,1,.83-2.38S701.63,184.3,701.11,183.29Z" transform="translate(-27.19 -81)"/><path class="cls-1" d="M816.45,211a20.87,20.87,0,0,1-9.79-2.84c-13.93-8-15.82-29.51-8.85-43.07l.11-.21a30.54,30.54,0,0,1,2.77-4.38,27,27,0,0,1,14.12-10,23.25,23.25,0,0,1,7.91-.74c15.79,1.18,23.25,19.42,21.46,34.06C842.45,198,830,211.41,816.45,211Z" transform="translate(-27.19 -81)"/><path class="cls-1" d="M847,190.87c-1.4,3.51-4.45,5.54-6.83,4.53s-3.18-4.68-1.79-8.2,4.46-5.55,6.84-4.53S848.42,187.35,847,190.87Z" transform="translate(-27.19 -81)"/><path class="cls-8" d="M839.93,190.81c-4.68,9.4-13.61,23.74-36.33,15.23a22.23,22.23,0,0,0,3.06,2.13,20.87,20.87,0,0,0,9.79,2.84c9.69.28,18.81-6.49,23.86-15.57,2.36.9,5.34-1.11,6.72-4.57.11-.28.2-.55.28-.82C846.87,190.51,844,195.85,839.93,190.81Z" transform="translate(-27.19 -81)"/><path class="cls-7" d="M824.75,143.77c-8.76-.62-30.15,2.52-30.78,35.69,0,0,1.95-14.91,11.78-21.66,6.35-4.36,8.84,3.5,13.5,3.51,9.06,0,11-5.63,16.65-1.07,3.48,2.82,3.85,18.09,4.46,22.49.54,3.86,4-.31,4-.31C848.55,152.85,834.62,144.47,824.75,143.77Z" transform="translate(-27.19 -81)"/><path class="cls-10" d="M801.57,161.63a21.23,21.23,0,0,1,4.18-3.83l.35-.22a27.68,27.68,0,0,1,4.72-11.3,24.86,24.86,0,0,0-7.08,4.88A39.84,39.84,0,0,0,801.57,161.63Z" transform="translate(-27.19 -81)"/><path class="cls-10" d="M825.42,145.06q.72-.54,1.47-1a20.19,20.19,0,0,0-2.14-.27,28.9,28.9,0,0,0-5.81.2c-.28.25-.56.48-.83.75-2.84,2.79-6.12,7.38-7.29,12,1.74.53,3.19,1.93,4.69,3.05C816.73,153.93,821.21,148.22,825.42,145.06Z" transform="translate(-27.19 -81)"/><path class="cls-11" d="M823,192.18l-15.44-.86a1.47,1.47,0,0,0-1.29,2c1.41,4.58,4.6,7.86,8.46,8.07s7.4-2.69,9.33-7.09A1.47,1.47,0,0,0,823,192.18Z" transform="translate(-27.19 -81)"/><path class="cls-12" d="M830,177.27c-1.78-.57-3.92,1.08-4.77,3.67s-.1,5.14,1.68,5.71,3.92-1.08,4.77-3.67S831.81,177.83,830,177.27Z" transform="translate(-27.19 -81)"/><path class="cls-12" d="M806,175.54c-1.8-.51-3.89,1.19-4.67,3.8s0,5.15,1.83,5.66,3.89-1.18,4.67-3.79S807.79,176.06,806,175.54Z" transform="translate(-27.19 -81)"/><g class="cls-13"><path class="cls-11" d="M825.76,179.8a7.4,7.4,0,0,0-.5,1.14c-.85,2.59-.1,5.14,1.68,5.71,1.51.47,3.25-.62,4.28-2.53C829.42,182.66,827.6,181.21,825.76,179.8Z" transform="translate(-27.19 -81)"/><path class="cls-11" d="M802.77,176.76a6.6,6.6,0,0,0-1.44,2.58c-.78,2.61,0,5.15,1.83,5.66s3.89-1.18,4.67-3.79a.25.25,0,0,0,0-.07C806.13,179.71,804.43,178.26,802.77,176.76Z" transform="translate(-27.19 -81)"/></g><path class="cls-14" d="M102.43,447.25c0-1.38,0,0,1.09,8.37.79,6,7,2.32,7,2.32s1.69-1.78,1.23-11.61C111.48,439.59,102.43,447.25,102.43,447.25Z" transform="translate(-27.19 -81)"/><path class="cls-6" d="M66,462.11c.33-1.54.26-7,6.52-7.38s19.88,3.78,27.55-1.06l12.12,2.7s1,12.25-.44,17.29c0,0-17.62.76-28.72-4S66,462.11,66,462.11Z" transform="translate(-27.19 -81)"/><path class="cls-15" d="M112.87,476.81c-1.16,0-32.07,0-49.52-14l1.55-3.05s26,15.15,48.07,13Z" transform="translate(-27.19 -81)"/><path class="cls-15" d="M79.92,468.17c.21-.38,5-7.43,2.07-12.69,0,0-10.3-3.62-13.69.33s-2.27,6.3-2.27,6.3Z" transform="translate(-27.19 -81)"/><path class="cls-15" d="M85.7,455s-.06,8.69,2,8.4.2-8,.2-8,2.48,8.86,4.28,8.08-.71-6.8-.71-6.8,4.27,6.15,5.54,5.25-3.31-7.25-3.31-7.25Z" transform="translate(-27.19 -81)"/><polygon class="cls-15" points="85.51 376.94 71.55 373.41 73.78 370.56 85.79 374.35 85.51 376.94"/><path class="cls-16" d="M100.11,449.1c-9.37-27.73-18.07-52.64-17.17-64,.81-10.34,3.84-28,9.26-53.47.11-.5.18-.84.22-1a6,6,0,0,0-.11.73l22.55,1c-.06.58,1.89,2.95,1.59,4.37-5.18,24.32-10.28,40.36-11,50-.42,5.31.62,30.09,11,60.94Z" transform="translate(-27.19 -81)"/><path class="cls-15" d="M144.11,397.52a9.64,9.64,0,0,0-9.25,2.76c-3.26,3.5-3.42,8.6-1,18.57,2,8.23,9.53,19.91,16.28,22.7s11,.48,12.81-2.74,1-8.44-1.3-13.2-7.52-15.05-8.36-19.11S146.43,397.67,144.11,397.52Z" transform="translate(-27.19 -81)"/><path class="cls-6" d="M144.11,397.52s-6.29,1.15-9.25,5.29.84,23.36,11.1,33.62c8.29,8.29,16.8,5.31,17-.46.26-6.8-9.31-20-9.66-29.47C153.09,400.32,144.11,397.52,144.11,397.52Z" transform="translate(-27.19 -81)"/><path class="cls-15" d="M160.91,426.74c-5.46,1.62-12,3.91-16.56,8,.52.58,1.05,1.16,1.61,1.71,8.29,8.29,16.8,5.31,17-.46.09-2.44-.77-5.75-2-9.23Z" transform="translate(-27.19 -81)"/><path class="cls-17" d="M145,397.52s-5.33,1.15-7.3,5.58-.08,7.66,4.12,8.17,10.14-2.59,11.69-4.2S145,397.52,145,397.52Z" transform="translate(-27.19 -81)"/><path class="cls-14" d="M145.87,397.52s-11.43,5.52-7.29,10.82,15.66-3.46,15.66-3.46Z" transform="translate(-27.19 -81)"/><path class="cls-16" d="M155.62,323.37c-6.61,4.36-10.1,16.59-17.53,17.18-1.07.08-2.15.14-3.23.18,1.54,1.53,3.67,2.6,6,3.95,24.55,13.9,29.7,20.39,30.78,22.52-1.6,6.42-13.44,17-23.39,24A7.87,7.87,0,0,0,147,403h0a11.4,11.4,0,0,0,14.72,1.72c10.7-7.16,27-20.38,29.22-35.58C192.72,357.2,175.25,335.42,155.62,323.37Z" transform="translate(-27.19 -81)"/><path class="cls-16" d="M93.45,322.22l-3,17.66s7.82,4.52,36.68,3.91,24.38,2.22,27.44-4c3.76-7.63,2.15-19,2.15-19Z" transform="translate(-27.19 -81)"/><path class="cls-18" d="M91.92,179s-18.25-35.55,14.25-45.59c35.86-11.08,35.66,37.39,35.66,37.39Z" transform="translate(-27.19 -81)"/><path class="cls-19" d="M106.09,341.68a156.18,156.18,0,0,1,40.68-6.33,175.12,175.12,0,0,1,25.81,1.3,100.8,100.8,0,0,0-15.52-12.37c-.09-2.12-.29-3.5-.29-3.5l-63.32,1.44L90.63,339.1c-.64,3.13-1.25,6.11-1.81,9A154.15,154.15,0,0,1,106.09,341.68Z" transform="translate(-27.19 -81)"/><path class="cls-14" d="M100,243.89c1.49,20.62,1.23,56.26,3.06,76.89,10.2-.55,20.39-1.31,30.57-2.18q9.24-.8,18.45-1.7c-1.82-30.47-4.52-75.66-6-106.14-4-2.22-9.37-2.52-14.8-2.29l-1.63.08c-5.08.28-22.12.63-31.74,3.71.42,2.71.61,5.38.76,7.63C99.18,227.9,99.39,235.88,100,243.89Z" transform="translate(-27.19 -81)"/><path class="cls-20" d="M155.8,219.91c-1.22-10.71-12.42-11.43-21.2-11.5a14.32,14.32,0,0,1-17.89,11.92,15.79,15.79,0,0,1-10.84-9.86c-7.61,1.21-14.14,3.25-14.71,6.79,0,0-.52,24.51-3.41,60.82-1.69,21.25-2.4,48.53-2.4,48.53,49.9,14.26,76.31-3.48,76.31-3.48C163,305.48,155.89,220.72,155.8,219.91Z" transform="translate(-27.19 -81)"/><path class="cls-21" d="M159.52,272.31c-5.76,24.43-27.12,44.77-53.41,41.85A53.43,53.43,0,0,1,86,307.65c-.47,10.83-.68,19-.68,19,49.9,14.26,76.31-3.48,76.31-3.48C162.29,314.77,161,293,159.52,272.31Z" transform="translate(-27.19 -81)"/><path class="cls-14" d="M110.88,211.69h16.05l-3.47-15.24a6.21,6.21,0,0,0-7.08-5.14l-1.55.25a6.2,6.2,0,0,0-5.14,7.08Z" transform="translate(-27.19 -81)"/><path class="cls-14" d="M141.43,167c2.63-.09,4.86,2.7,5,6.24s-1.91,6.48-4.54,6.57-4.86-2.7-5-6.24S138.8,167.08,141.43,167Z" transform="translate(-27.19 -81)"/><path class="cls-1" d="M106.34,144.26l8.61-1.69c11.34-2.22,23,8.55,25.25,19.9l3,15.55a21.08,21.08,0,0,1-16.58,24.66L118,204.37a21.08,21.08,0,0,1-24.66-16.59l-3-15.56C88.12,160.88,95,146.48,106.34,144.26Z" transform="translate(-27.19 -81)"/><path class="cls-1" d="M88.06,176.44c2.33-1.2,5.52.36,7.14,3.49s1,6.65-1.29,7.85-5.52-.36-7.14-3.49S85.73,177.64,88.06,176.44Z" transform="translate(-27.19 -81)"/><path class="cls-14" d="M92.49,183.75a10,10,0,0,0,2.07-.41c4.34,12.42,14.14,19.92,28.15,17.56,15.82-2.65,18.51-11.18,20.89-19.61a21.08,21.08,0,0,1-16.94,21.39L118,204.37A21.07,21.07,0,0,1,93.43,188c-2.27.78-5.15-.74-6.66-3.66a7.91,7.91,0,0,1-.91-3.61A7.89,7.89,0,0,0,92.49,183.75Z" transform="translate(-27.19 -81)"/><path class="cls-11" d="M111.77,182.86l18.21-3a1.58,1.58,0,0,1,1.7,2c-1.27,5.23-4.75,9.26-9.3,10s-9-1.94-11.68-6.51A1.65,1.65,0,0,1,111.77,182.86Z" transform="translate(-27.19 -81)"/><path class="cls-18" d="M90.48,176.1s2.14,3.28,3.13,1.69c.69-1.11.57-2.77.59-4,.11-6.37.17-13.38,3.65-19,3.7-6,10.75-9.14,17.6-9.66a26.47,26.47,0,0,1,8.64.74,16.21,16.21,0,0,1,7.09,3.47,29.64,29.64,0,0,1,6.42,8.83,63.48,63.48,0,0,1,3.45,8.72,13.12,13.12,0,0,0-.26-4.67,32.76,32.76,0,0,0-1.26-5.17,37.56,37.56,0,0,0-4.77-9.25c-3.21-4.75-8.18-10.83-14.62-10.3-10.1.82-28.53,7.45-29.15,11.12s-2.13,13.22-2.27,15S90.48,176.1,90.48,176.1Z" transform="translate(-27.19 -81)"/><path class="cls-22" d="M130,164c1.6-.42,3.31,1.37,3.83,4s-.37,5.13-2,5.56-3.31-1.37-3.83-4S128.37,164.41,130,164Z" transform="translate(-27.19 -81)"/><path class="cls-22" d="M105.05,167.22c1.59-.47,3.33,1.33,3.89,4s-.29,5.26-1.88,5.73-3.33-1.33-3.89-4S103.46,167.69,105.05,167.22Z" transform="translate(-27.19 -81)"/><path class="cls-10" d="M133.8,168c.51,2.64-.37,5.13-2,5.56-1.4.37-2.89-1-3.58-3.09.68-.65,3.77-3.91,4.57-5A7,7,0,0,1,133.8,168Z" transform="translate(-27.19 -81)"/><path class="cls-10" d="M108.94,171.25c.55,2.7-.29,5.26-1.88,5.73-1.29.38-2.66-.75-3.44-2.62,1.49-1.76,3-3.52,4.51-5.23A7.2,7.2,0,0,1,108.94,171.25Z" transform="translate(-27.19 -81)"/><path class="cls-18" d="M92.8,140.45c-.32,0-4.59,2.19-7.76-1.25a5.11,5.11,0,0,1,4.16-1.13s-1.54-.41-1.64-4.16c0,0,2.68-.45,4,2.69,0,0-1.12-2,1.31-4.25,0,0,1.07.2,1.08,3,0,0,1.61-6.74,12.07-11.18,0,0,1.29,2.56-.78,6.35S92.8,140.45,92.8,140.45Z" transform="translate(-27.19 -81)"/><path class="cls-18" d="M87.25,163.92s-5.68-13-3.45-18.51S99.41,132.9,99.41,132.9s12.3-11.85,24.26-13.81a40.42,40.42,0,0,1,14,29.75s-8.92-9.9-16.54-10.88-22.08,4.73-24.42,8.65S87.25,163.92,87.25,163.92Z" transform="translate(-27.19 -81)"/><path class="cls-18" d="M138.78,151.71a44.21,44.21,0,0,0-3.14-18.05c-3.75-8.75-5.06-9.89-5.06-9.89a9.38,9.38,0,0,0-1.52,4.56C129.06,130.67,135.55,150.07,138.78,151.71Z" transform="translate(-27.19 -81)"/><g class="cls-23"><path class="cls-11" d="M96.86,145.15Z" transform="translate(-27.19 -81)"/><path class="cls-11" d="M91.63,148.88c.63-.56,1.25-1.14,1.94-1.65l.51-.4.55-.35a8.79,8.79,0,0,1,1.09-.7l1.15-.63h0l-.16.09h0l.05,0,.09,0,.18-.08.36-.16.74-.33.36-.17.3-.08.59-.17L100,144l.7-.17c.91-.25,1.93-.42,2.93-.61,2-.36,4.26-.62,6.55-1a50.37,50.37,0,0,0,7.1-1.46c.6-.2,1.2-.37,1.79-.59l1.79-.72c.58-.25,1.16-.6,1.73-.89a13,13,0,0,0,1.65-1,21.43,21.43,0,0,0,2.92-2.51c.41-.48.79-1,1.16-1.47l.28-.36.14-.18.06-.09.09-.11,0,0,.39-.64c.26-.42.49-.83.74-1.27l.74-1.39c.48-.92.83-1.8,1.19-2.66l.21-.58a11.22,11.22,0,0,0-1.58-2.48,10.82,10.82,0,0,0-.91,1.75c-.52-.72-1-1.36-1.54-2-.2.3-.41.6-.64.9-.46.64-1,1.33-1.5,2-.27.31-.53.63-.8,1l-1,1.08-.48.56,0,0c.09-.13,0,0,0-.05h0l-.06,0-.11.1-.23.2-.88.8a14.57,14.57,0,0,1-2.07,1.32,20.12,20.12,0,0,1-5.15,1.88c-1.94.48-4,.83-6.27,1.2s-4.54.76-6.89,1.3c-1.19.32-2.36.63-3.54,1.06l-.88.31-1,.42-.93.43-.45.22-.34.2-1.54.93L92,140.54c-.49.35-.88.79-1.32,1.17l-.61.6-.56.63A23.79,23.79,0,0,0,86,148a27.32,27.32,0,0,0-1.92,4.62c-.09.29-.17.56-.24.82.29,1.43.68,2.85,1.08,4.16l.32-.53c.52-.84,1.15-1.85,1.93-2.94a35.21,35.21,0,0,1,2.75-3.47C90.45,150,91.05,149.47,91.63,148.88Z" transform="translate(-27.19 -81)"/></g><path class="cls-17" d="M143.81,416.39h0a1.37,1.37,0,0,1-.2-2.2c1.35-1.16,3.92-2.6,8.2-2.34a1.39,1.39,0,0,1,1.27,1.58h0a1.39,1.39,0,0,1-1.47,1.18c-3.39-.19-5.31.91-6.21,1.68A1.35,1.35,0,0,1,143.81,416.39Z" transform="translate(-27.19 -81)"/><path class="cls-17" d="M145.65,421.71h0a1.37,1.37,0,0,1-.2-2.2c1.35-1.15,3.93-2.59,8.2-2.33a1.37,1.37,0,0,1,1.27,1.57h0a1.38,1.38,0,0,1-1.47,1.18,8.58,8.58,0,0,0-6.21,1.68A1.35,1.35,0,0,1,145.65,421.71Z" transform="translate(-27.19 -81)"/><path class="cls-17" d="M148,426.49h0a1.38,1.38,0,0,1-.2-2.21c1.35-1.15,3.93-2.59,8.21-2.33a1.37,1.37,0,0,1,1.26,1.57h0a1.38,1.38,0,0,1-1.46,1.18c-3.4-.2-5.32.91-6.22,1.67A1.37,1.37,0,0,1,148,426.49Z" transform="translate(-27.19 -81)"/><path class="cls-1" d="M147,224.66l-.11-14.74.06,7.37-.06-7.37c14.85-.13,45.51-4.87,45.5-18.68,0-14.42-12.55-39.57-19.2-51.46l8.91-7.23c2.64,4.72,25,37.86,25,58.68,0,9.94-5.52,23.18-32,29.81A133.68,133.68,0,0,1,147,224.66Z" transform="translate(-27.19 -81)"/><path class="cls-1" d="M63.47,230.83c-15,0-20.58-3-23.51-5.45C24.12,212,29.78,169.13,30.58,160.67L40,164c-1.64,17.34,2.2,43.95,9.51,50.12,0,0,4.19,3.19,25.31,1.46,11.71-1,22.44-2.91,22.54-2.93L100,227.14c-.47.09-11.54,2.11-24,3.13C71.2,230.66,67.06,230.83,63.47,230.83Z" transform="translate(-27.19 -81)"/><path class="cls-20" d="M173,204.4c-9.2,2.62-29.32,3.94-36.38,4l6,12,5,9.52c.57,0,13.4-2.51,27.3-6,1.3-.32,2.8-.87,4-1.23A32.33,32.33,0,0,0,173,204.4Z" transform="translate(-27.19 -81)"/><path class="cls-20" d="M75.33,223.92c.06,2.13.4,7.21.54,9.34,11.51,0,17.81.66,24.12-1.69l5.88-21.1c-.11,0-19.12,1.4-30.58,2.37C75.21,215.65,75.24,221.15,75.33,223.92Z" transform="translate(-27.19 -81)"/><path class="cls-24" d="M37.12,165.65a6.71,6.71,0,0,0,5.37,1.56,14.21,14.21,0,0,0,7-2.88c4.4-3.59,7.84-4.41,11.12-3.68s2.55-1.12,1.29-2.73a6,6,0,0,0-4.45-1.83c-4.86.06-8.19,2.1-8.75.91,0,0,4.83-8.82,3.9-12.49S50,134.38,50,130.62c0-2.41-3.46-.87-3.88,2.17s.94,7.06.64,9.23a15.49,15.49,0,0,0,.11,4.31s-8.51-4.74-13.13-1-7.08,11.48-6.46,13.52c.48,1.59,3.44,3.48,6.69,4.09Z" transform="translate(-27.19 -81)"/><path class="cls-24" d="M47.43,147.71l-.06-6.1s-.71-1.48-2.76-.11l-2.06,1.36s-.23-1.81-1.55-2.14c-1.8-.45-3.68,2-3.68,2a3.3,3.3,0,0,0-3-.24c-2.42,1.08-5.68,4.89-5,5.84,1.35,1.94,5.46-.79,5.46-.79Z" transform="translate(-27.19 -81)"/><path class="cls-24" d="M179.4,144.47A6.77,6.77,0,0,1,174,146a14.26,14.26,0,0,1-7-2.89c-4.41-3.58-7.84-4.4-11.13-3.68s-2.55-1.12-1.29-2.73a6,6,0,0,1,4.46-1.82c4.85.06,8.18,2.09,8.75.9,0,0-3.38-6.73-2.85-10.47s2.85-5.45,4.15-2.77c1,2,.52,2.57.52,2.57s8.51-4.74,13.12-1,7.08,11.48,6.47,13.52c-.48,1.58-3.45,3.47-6.7,4.09Z" transform="translate(-27.19 -81)"/><path class="cls-24" d="M169.1,126.53l.06-6.11s.7-1.48,2.76-.11l2.05,1.37s.23-1.81,1.55-2.15c1.8-.45,3.69,2,3.69,2a3.26,3.26,0,0,1,3-.25c2.42,1.09,5.68,4.89,5,5.85-1.35,1.94-5.46-.79-5.46-.79Z" transform="translate(-27.19 -81)"/><path class="cls-25" d="M217.26,396.8c3.14-10.26,5.3-9.88,5.92-16.05s4.66-11.68,9.38-11.27c3.23.28,5.07,2.5,6.19,4.92-5,3.17-7.37,9.34-9.27,13.48-2.09,4.55-3.63,9.19-2.27,14.24.91,3.39,2.75,3.87,5.56,4.55-.81,4.58-3.52,8.53-6.56,9.33C221.52,417.23,214.55,405.65,217.26,396.8Z" transform="translate(-27.19 -81)"/><path class="cls-1" d="M309.67,440.7c5.17-.26,9.55.65,14.73.45,0,.64,0,0,.09,1.87,1.34,27,21.64,25.73,21.66,30.66,0,4-12.47,4.77-17.71,4.58a7.5,7.5,0,0,1-4.17-1.47c-5.31-4-11.34-6.34-14.24-8.15-3.2-2-.61-7.45,3-14.42C313.49,453.32,310.87,445.13,309.67,440.7Z" transform="translate(-27.19 -81)"/><path class="cls-26" d="M340.3,468.65a.67.67,0,0,0-.79.1c-3.39,3.19-9.12,1.81-13.31-.93a33.67,33.67,0,0,1-5.95-4.94c-1.59-1.66-3-3.47-4.51-5.21-.67-.77-.77-.91-1.45-1.67a11.34,11.34,0,0,0-1.6-1.08.24.24,0,0,0-.32.08c-3.6,6.67-5.43,11.7-2.15,13.64,3,1.81,9.41,4.18,15,8.15a8.12,8.12,0,0,0,4.39,1.47c5.52.19,17.89.19,17.88-3.78C347.52,472.49,344.41,471.07,340.3,468.65Z" transform="translate(-27.19 -81)"/><path class="cls-25" d="M347.07,473.13c.45,1.35.08,2.64-1.15,3-13.95,4.64-18.81-.49-26-4.07-12.09-6-9.43-7.09-9.54-13.07h0c-3.34,6.43-5.2,8.55-1.91,10.5s10.36,4.6,16.53,9a8.93,8.93,0,0,0,4.84,1.62c6.07.22,18.94.3,18.92-4.06A3,3,0,0,0,347.07,473.13Z" transform="translate(-27.19 -81)"/><path class="cls-1" d="M218.94,396.92c2.8-9.33,4.88-9.36,5.44-15s4.3-12,8.6-11.58,5,4.71,8.36,5.83c.68.23,1.77-.28,3.15-1.24a21.18,21.18,0,0,0,2.29,7.95,22.89,22.89,0,0,0,3.87,5.6c-7.85,3.39-13.5,7.82-15.06,11.18-2.43,5.23-4.08,12.54-8.37,14.78S216.14,406.26,218.94,396.92Z" transform="translate(-27.19 -81)"/><path class="cls-27" d="M218.94,396.92c2.8-9.33,4.88-9.36,5.44-15s4.3-12,8.6-11.58c2.93.25,4.19,2.36,5.77,4-4.51,2.88-7.63,10.15-9.36,13.91-1.9,4.14-3.29,8.35-2.06,12.94a7.19,7.19,0,0,0,5.44,5.42c-1.4,3.39-3,6.49-5.55,7.81C222.92,416.72,216.14,406.26,218.94,396.92Z" transform="translate(-27.19 -81)"/><path class="cls-26" d="M294.42,280.54l31,3.55s6.79,36.41,2.8,83.67c0,0-4.45,53.38-3,75.41.13,1.93.1,3.06.2,4-4.6,1.34-10.13,1.13-14.77.22-1.4-6.7-5.85-21-8.1-33.6C300.1,400.27,303.77,372,303,369s-9.09-29.48-10.77-47.78S294.42,280.54,294.42,280.54Z" transform="translate(-27.19 -81)"/><path class="cls-28" d="M243.85,374.58c5.32-3.4,16-14.28,24.43-16,10.27-2.05,15.31-2.24,16.06-3.36s-19.56-30.8-22.6-40.72c-3.45-11.24-5.42-27.45,6.54-41.27l28.14,6.16s19.48,73,13.13,85.54-28.95,16.81-44.08,19.24c-6.08,1-11.17,3.46-15.87,5.67C244.5,387.09,243.35,379.14,243.85,374.58Z" transform="translate(-27.19 -81)"/><path class="cls-29" d="M262.87,144.49s6.51-29.11,28.85-26,37.38,29.94,42.5,61.57c3.41,21-24.54,25.78-24.54,25.78s-34.64,9.95-43.94-7C255.5,180.18,254.29,144.33,262.87,144.49Z" transform="translate(-27.19 -81)"/><path class="cls-30" d="M309.68,205.8a87,87,0,0,1-19.51,2.89c-7.24-4.76-13.48-10.76-17.48-17.69-4.84-8.39-5.46-17.42-5.51-26.88-.05-9.64.41-19.17,3.53-28.37a3.81,3.81,0,0,0-2.08-4.94c2.63-4.23,6.29-8.38,11.26-10.7a5,5,0,0,0,3.29-.36c4.05,1,7.51,5.23,10.48,7.84a104,104,0,0,1,13,13,56.28,56.28,0,0,1,11.83,31.48,61.06,61.06,0,0,1-7.76,33.47C310.06,205.74,309.68,205.8,309.68,205.8Z" transform="translate(-27.19 -81)"/><path class="cls-8" d="M299.66,202.47h0a6,6,0,0,0,5.31-6.62L303,182.57a6,6,0,0,0-7-4.82h0a6,6,0,0,0-5.32,6.62l1.94,13.29A6,6,0,0,0,299.66,202.47Z" transform="translate(-27.19 -81)"/><path class="cls-1" d="M300,188.76c21.21-3.78,20.37-34.12,12.16-46.85l-.13-.2a29.62,29.62,0,0,0-3.17-4.05,26.76,26.76,0,0,0-14.94-8.56,23,23,0,0,0-7.9,0c-15.52,2.69-19.28,21.11-16.1,35.41C273,178.41,287.42,191,300,188.76Z" transform="translate(-27.19 -81)"/><path class="cls-30" d="M286,129.14a23,23,0,0,1,7.9,0,26.76,26.76,0,0,1,14.94,8.56,29.62,29.62,0,0,1,3.17,4.05l.13.2a33.6,33.6,0,0,1,4.12,10.22c-11.41-8-27-1.64-39.49-6.67,3.61,4.21-.08,13-2.58,15.39a17.41,17.41,0,0,1-4.48,2.76C266.93,149.45,270.85,131.77,286,129.14Z" transform="translate(-27.19 -81)"/><path class="cls-31" d="M262.87,144.49s6.51-29.11,28.85-26c15,2.07,26.78,15,34.4,32.79-12.51-11.25-36.74-6.15-52.8-10.34,6,12.5-2.76,23.62-10.71,33.65a19.88,19.88,0,0,0-3.25,6.09C255.58,163.18,256.65,144.38,262.87,144.49Z" transform="translate(-27.19 -81)"/><path class="cls-32" d="M257.32,156.7c.09-1.41.24-2.74.44-4a29.19,29.19,0,0,0,17.51-4.26,21.92,21.92,0,0,1-1.49,8.68A47.7,47.7,0,0,1,257.32,156.7Z" transform="translate(-27.19 -81)"/><path class="cls-32" d="M299.21,143.31c-5.56-.32-11.21-.42-16.49-.9,5.77-6.18,11.06-15.75,9.26-23.92a33.62,33.62,0,0,1,16.27,7.36A36.59,36.59,0,0,1,299.21,143.31Z" transform="translate(-27.19 -81)"/><path class="cls-1" d="M265.76,171.19c1.72,3.34,4.94,5.05,7.2,3.82s2.69-4.94,1-8.28-4.94-5-7.19-3.82S264,167.85,265.76,171.19Z" transform="translate(-27.19 -81)"/><path class="cls-8" d="M269,173.06c2.27.26,3.52-.85,4.87-2.59,4.69,9.08,15,16.33,25,16.21a21,21,0,0,0,13.2-5.19,18.9,18.9,0,0,1-12.1,7.27c-9.56,1.7-20.15-5.14-26.05-14.6a3.26,3.26,0,0,1-1,.85c-2.15,1.17-5.17-.33-6.94-3.36A11.87,11.87,0,0,0,269,173.06Z" transform="translate(-27.19 -81)"/><path class="cls-1" d="M319,209.27c4.48-3.43,27-21.14,31.12-33.6,5.61-17.12-11.37-55.62-14.69-64.14l-10-1c7.55,19.34,15,51.69,12,61-2.07,6.31-16.78,19.69-26.56,27.17Z" transform="translate(-27.19 -81)"/><path class="cls-33" d="M326,183.49c3.48,2.69,12.68,10.21,12.75,10.26-7.64,7.81-16.95,14.23-16.49,19.58L308.14,195C310.93,194.31,320.85,188.56,326,183.49Z" transform="translate(-27.19 -81)"/><path class="cls-11" d="M290.32,170.1a1.5,1.5,0,0,0-.8,2.28c2.54,4.19,6.53,6.64,10.44,5.91s6.74-4.48,7.59-9.3a1.51,1.51,0,0,0-1.58-1.84Z" transform="translate(-27.19 -81)"/><path class="cls-12" d="M281.45,155.69c1.69-.68,3.76.68,4.63,3s.21,4.82-1.48,5.5-3.75-.68-4.62-3S279.77,156.37,281.45,155.69Z" transform="translate(-27.19 -81)"/><path class="cls-12" d="M306.37,151.24c1.69-.68,3.76.68,4.63,3s.21,4.82-1.48,5.5-3.75-.68-4.62-3S304.69,151.92,306.37,151.24Z" transform="translate(-27.19 -81)"/><path class="cls-34" d="M283.36,155.71q-1.41,3.43-2.59,6.94c1,1.41,2.54,2.09,3.83,1.57,1.69-.68,2.35-3.14,1.48-5.5A5,5,0,0,0,283.36,155.71Z" transform="translate(-27.19 -81)"/><path class="cls-34" d="M308.58,151.4l-.3.67c-.88,2.08-1.65,4.22-2.39,6.37a3.25,3.25,0,0,0,3.63,1.33c1.69-.68,2.35-3.14,1.48-5.5A5.17,5.17,0,0,0,308.58,151.4Z" transform="translate(-27.19 -81)"/><path class="cls-8" d="M313.65,206.3H276.76c0-.79.07-1.58.14-2.37.25-2.7,1-5.51,3-7.41,2.15-2.09,5.34-2.71,8.34-2.76,3.61-.07,7.24,0,10.86-.09A31.56,31.56,0,0,1,313,197c.21.1.4.23.61.34Z" transform="translate(-27.19 -81)"/><path class="cls-33" d="M277.49,255.61c1.87-8.42.69-19.29.3-27.88-.37-8-1.6-15.85-.89-23.8.25-2.7,1-5.51,3-7.41,2.23-2.16,5.57-2.75,8.66-2.77h0c1.81,4.8,5.41,10.3,13.58,10.46,5.39.11,6.3-3.18,6-9.19,8.8,2.21,11.23,7,12.31,11.22.81,3.15.94,6.69,4,11.12a18.52,18.52,0,0,1,2.59,15.4c-1.34,5.08-5.4,6-5,18.29.22,6.72,5.07,28.81,7.15,38a3.65,3.65,0,0,1-3.44,4.44c-5.28.18-15.2-.17-28.93-3.68-16.65-4.25-25.63-9-29.94-11.89a3.77,3.77,0,0,1-.74-5.6C269.91,268,276.57,259.79,277.49,255.61Z" transform="translate(-27.19 -81)"/><path class="cls-1" d="M350,88h0c0-.32-.23-.68-.13-1.11.68-2.74-1.67-2.9-2.5-2.41a1.75,1.75,0,0,0-.28.13,14.65,14.65,0,0,0,.69-1.54c1-2.32-2.12-2.7-3.54-.94-.19.22-.4.49-.6.76.09-1-.57-1.67-2.61-.46-2.4,1.42-8.8,10.64-8.8,10.64A57.61,57.61,0,0,1,329,98.27c-1,1.39-1-.84-.9-1.68.23-1.69.57-5-.12-6.55-1.4-3.08-3.4-2.12-3.36-1a22.49,22.49,0,0,1-.17,5.18c-1.48,4.2-1.33,10.38-1.12,13.11a14.36,14.36,0,0,0,5,9.55c1.82,1.46,2.23,1.09,4.54,1.33,4.67.48,7.81-1.8,10.3-5.19,2.34-3.21,7.48-18.15,8.05-20.11.47-1.66,1-2.79,1.11-3.32C352.51,88.26,351,86.6,350,88Z" transform="translate(-27.19 -81)"/><path class="cls-1" d="M286.55,204.28c-.73,5.6-4.79,34-13.55,43.76-12,13.41-44.64,18-53.68,19.33l-5.82-8.15c20.53-3.14,43.08-12.82,49.58-20.07,4.44-5,8.67-24.37,10.26-36.58Z" transform="translate(-27.19 -81)"/><path class="cls-33" d="M287.76,211c-1.59-5.9-.21-8.58.78-14.48,0-.13,0-2.62,0-2.76A16,16,0,0,0,274.77,200c-3.37,4.24-5.47,14.57-7.06,23.24,4.07,1.68,15.19,5.88,15.27,5.92a141.62,141.62,0,0,1,5.48-15.86C288.21,212.52,288,211.76,287.76,211Z" transform="translate(-27.19 -81)"/><path class="cls-1" d="M198,288.64h0c-1,.2-.85.42-1.22.67-2.32,1.58-3.36-.36-3.19-1.31,0-.07,0-.14,0-.21-.32.37-.74.78-1.22,1.23-1.84,1.73-3.27-1-2.12-3,.15-.25.31-.52.5-.81-.88.42-1.77,0-1.34-2.28.49-2.74,6.9-12,6.9-12a55.6,55.6,0,0,0,3.76-4.84c1-1.43-1.13-.66-1.88-.26-1.5.8-4.52,2.29-6.17,2.17-3.39-.24-3.18-2.45-2.14-2.79a22.72,22.72,0,0,0,4.8-2c3.42-2.85,9.26-4.86,11.89-5.62A14.33,14.33,0,0,1,217.24,259c2,1.19,1.8,1.71,2.83,3.79,2.08,4.2,1.05,7.95-1.27,11.46-2.19,3.32-14.39,13.34-16,14.56-1.39,1-2.12,1.53-2.59,1.81C199,291.28,197,290.37,198,288.64Z" transform="translate(-27.19 -81)"/><path class="cls-9" d="M432.15,301.64,431,321.25s7.13,5,32.69,3.65c23.46-1.27,37.08-7.14,37.08-7.14l-3.46-20.26Z" transform="translate(-27.19 -81)"/><path class="cls-35" d="M444.07,320.38a180,180,0,0,1,33.23-5.67,175.17,175.17,0,0,1,22.91-.21l-2.9-17-65.16,4.14L431,321.25c0,1.34.07,2.71.21,4.12A58.43,58.43,0,0,1,444.07,320.38Z" transform="translate(-27.19 -81)"/><path class="cls-36" d="M442.33,230c1.5,20.72,1.23,41.72,3.08,62.45,10.24-.56,20.48-1.31,30.72-2.19,6.18-.53,8.67-1.11,14.84-1.71-1.82-30.62-5.38-59.08-6.86-89.71-4-2.23-10,3.28-11.05-.62l-.93-3.73c-5.11.28-22.22.63-31.89,3.72.42,2.72.61,5.41.76,7.67C441.53,214,441.75,222,442.33,230Z" transform="translate(-27.19 -81)"/><path class="cls-37" d="M494.66,205.62c-1.23-10.77-13.82-11-22.64-11.1C470.13,201.77,461.7,209,461.7,209s-11.73-7.64-13.55-12.55c-7.57.47-16.35,3-16.93,6.57,0,0-1.84,15-1.84,51.65,0,20.22-1.15,50-1.15,50,50.14,14.34,73.69-4.32,73.69-4.32C498,233.34,494.75,206.42,494.66,205.62Z" transform="translate(-27.19 -81)"/><path class="cls-21" d="M498.31,246.14c-5,24.5-25.55,53.14-53.87,44A41,41,0,0,1,429,280.8c-.33,13-.75,23.82-.75,23.82,50.14,14.34,73.69-4.32,73.69-4.32C500.61,278,499.38,260.08,498.31,246.14Z" transform="translate(-27.19 -81)"/><path class="cls-36" d="M467.75,199.36l.1-17.25a6.23,6.23,0,0,0-5.75-6.65l-1.58-.11a6.23,6.23,0,0,0-6.65,5.75l-2.31,16.6a5,5,0,0,0,.06,1.09C457.07,198.86,462.4,199,467.75,199.36Z" transform="translate(-27.19 -81)"/><path class="cls-14" d="M460.52,175.35l1.58.11a6.23,6.23,0,0,1,5.75,6.65l-.06,10.15a26.94,26.94,0,0,1-8.13.68,13.47,13.47,0,0,1-7.06-2.7l1.27-9.14A6.23,6.23,0,0,1,460.52,175.35Z" transform="translate(-27.19 -81)"/><path class="cls-14" d="M482.87,152.22c2.64,0,4.78,2.86,4.8,6.4s-2.12,6.44-4.76,6.44-4.78-2.86-4.79-6.4S480.23,152.23,482.87,152.22Z" transform="translate(-27.19 -81)"/><path class="cls-1" d="M448.42,128.34l8.68-1.42c11.44-1.87,22.81,9.29,24.68,20.72l2.56,15.68a21.12,21.12,0,0,1-17.4,24.19l-8.68,1.42a21.13,21.13,0,0,1-24.19-17.39l-2.56-15.69C429.64,144.42,437,130.2,448.42,128.34Z" transform="translate(-27.19 -81)"/><path class="cls-31" d="M423,132.35a3.68,3.68,0,0,1,2.79,0,10.84,10.84,0,0,1-2.14-5.85,3.44,3.44,0,0,1,3.81,2.46,5.2,5.2,0,0,1,.17-4.11.71.71,0,0,1,.32-.38c.28-.14.6.09.83.31.59.57,1.22,3.18,1.22,3.18.72-.77,2-5.27,7.15-8.91,6.46-4.55,16.08-6.88,16.18-6.6a6.47,6.47,0,0,1,0,3.8c3.74-4.77,9.42-6.07,15.45-6.62a11,11,0,0,1,0,5.42s5.5-3.18,5.57-3.09c2.11,2.72,5.15,7.85,3.91,10.88a3.94,3.94,0,0,1,1.71-1.47,14.08,14.08,0,0,1,2.22,7.4,58.26,58.26,0,0,1-.59,13.88,45.84,45.84,0,0,1,1,10.11s-.05-.37-.15-.93l.15.93c-.22,0-5.11-14-11-16.6-7.5-3.34-5.8,2.79-15,3-6.11.12-15.34-3.1-18.69,7.38-1,3.14.69,8.71,0,11.71-.56,2.56-2.72,4-5.33,4.89a64,64,0,0,1-2.07-9.68h0C426.85,148,424.4,140,425,134.6c0-.28-.12-.27-.12-.27S422.79,133.07,423,132.35Z" transform="translate(-27.19 -81)"/><path class="cls-38" d="M435.26,142.12c2.36-3.71,5.14-8.14,9.9-8.45,3.78-.25,7,1.91,9.67,2,6.14.17,7.46-4.5,12.94-5.42,7.2-1.22,11.05,7.05,13.94,12.77a46.64,46.64,0,0,1,.89,9.71s-.05-.37-.15-.93l.15.93c-.22,0-5.11-14-11-16.6-7.5-3.34-5.8,2.79-15,3-6.11.12-15.34-3.1-18.69,7.38-1,3.14.69,8.71,0,11.71-.56,2.56-2.72,4-5.33,4.89l-.62-2.28a35.79,35.79,0,0,1-1.45-7.4S433.16,145.42,435.26,142.12Z" transform="translate(-27.19 -81)"/><path class="cls-1" d="M429.09,160c2.37-1.13,5.52.53,7.05,3.72s.83,6.69-1.54,7.82-5.52-.53-7.05-3.72S426.72,161.14,429.09,160Z" transform="translate(-27.19 -81)"/><path class="cls-14" d="M433.3,167.47a10.86,10.86,0,0,0,2.09-.34c4,12.58,13.54,20.4,27.65,18.48,15.94-2.17,18.9-10.63,21.55-19a21.13,21.13,0,0,1-17.65,20.9l-8.68,1.42a21.12,21.12,0,0,1-24.15-17.22c-2.3.71-5.14-.91-6.56-3.88a8,8,0,0,1-.8-3.64A8,8,0,0,0,433.3,167.47Z" transform="translate(-27.19 -81)"/><path class="cls-11" d="M453.33,168.25l17.21-2.78a1.59,1.59,0,0,1,1.63,2c-1.16,5.21-4.43,9.19-8.73,9.89s-8.53-2.08-11.1-6.69A1.65,1.65,0,0,1,453.33,168.25Z" transform="translate(-27.19 -81)"/><path class="cls-34" d="M478.29,122.79c.8-1.94-.17-4.74-1.51-7.22-24.94-1.35-47,21.58-51,26.89.18.67.37,1.35.59,2,30.45-27.5,49.25-20,56-12.64,0-1-.06-2-.13-3.13a14.08,14.08,0,0,0-2.22-7.4A3.94,3.94,0,0,0,478.29,122.79Z" transform="translate(-27.19 -81)"/><path class="cls-39" d="M472.35,150c1.69-.47,3.53,1.4,4.12,4.18s-.3,5.43-2,5.91-3.53-1.39-4.12-4.17S470.66,150.46,472.35,150Z" transform="translate(-27.19 -81)"/><path class="cls-39" d="M446,153.82c1.68-.52,3.55,1.36,4.18,4.21s-.21,5.57-1.89,6.1-3.55-1.36-4.18-4.21S444.35,154.35,446,153.82Z" transform="translate(-27.19 -81)"/><path class="cls-10" d="M476.47,154.16c.59,2.79-.3,5.43-2,5.91-1.48.42-3.08-1-3.85-3.2.72-.7,3.93-4.21,4.76-5.32A7.38,7.38,0,0,1,476.47,154.16Z" transform="translate(-27.19 -81)"/><path class="cls-10" d="M450.21,158c.64,2.84-.21,5.57-1.89,6.1-1.36.42-2.83-.75-3.68-2.73,1.55-1.88,3.09-3.77,4.68-5.6A7.48,7.48,0,0,1,450.21,158Z" transform="translate(-27.19 -81)"/><path class="cls-14" d="M415.69,426.44a110.92,110.92,0,0,1-13.1,7.36c-5.85,2.8-6.2-5-6.2-5s.6-2.55,9.7-7.88C412.33,417.29,415.69,426.44,415.69,426.44Z" transform="translate(-27.19 -81)"/><path class="cls-9" d="M418.66,471.26c1.19-1.2,6.1-4.3,2.83-10.16s-15-15.65-15.16-25.36l-9.5-9.3s-11.62,6.21-15.27,10.48c0,0,9.61,16.27,20.35,23.48S418.66,471.26,418.66,471.26Z" transform="translate(-27.19 -81)"/><path class="cls-15" d="M378.1,437.79c.69,1,18.75,28.79,41.5,36.29l1.84-3.18s-28.78-14.45-39.77-35.56Z" transform="translate(-27.19 -81)"/><path class="cls-15" d="M405.1,462.32c.23-.4,3.75-8.83,10.19-9.26,0,0,9.27,7.13,7.71,12.49s-4.34,5.71-4.34,5.71Z" transform="translate(-27.19 -81)"/><path class="cls-15" d="M413.54,449.44s-7.76,5.15-8.71,3.13,5.64-4.3,5.64-4.3-8,2.39-8.32.32,7-3.21,7-3.21-8.53-.37-8.47-2,8.45-1.27,8.45-1.27Z" transform="translate(-27.19 -81)"/><polygon class="cls-15" points="367.94 345.91 379.27 356.39 380.53 352.72 370.1 344.15 367.94 345.91"/><path class="cls-14" d="M497.38,441.25c.31-1.45-1.37,4.05-4.4,12.57-2.17,6.1-7.9.85-7.9.85s-1.37-2.24,1.33-12.43C488.25,435.24,497.38,441.25,497.38,441.25Z" transform="translate(-27.19 -81)"/><path class="cls-9" d="M530.79,469c0-1.68,1.29-7.34-5.16-9.19s-21.68-.51-28.62-7.3l-13.3.11s-3.86,12.59-3.44,18.2c0,0,18.29,4.76,31,2.3S530.79,469,530.79,469Z" transform="translate(-27.19 -81)"/><path class="cls-15" d="M478.43,473.91c1.22.25,33.6,7.2,55-3.52l-.93-3.55s-30.6,10-53.27,2.81Z" transform="translate(-27.19 -81)"/><path class="cls-15" d="M514.88,472.27c-.13-.45-3.58-8.91.69-13.75,0,0,11.6-1.48,14.27,3.42s.95,7.1.95,7.1Z" transform="translate(-27.19 -81)"/><path class="cls-15" d="M511.78,457.19s-1.88,9.12-4,8.35.93-7.23.93-7.23-3.94,7.53-5.65,6.3,2.35-6.65,2.35-6.65-5.93,5.17-7.05,4,5.09-6.85,5.09-6.85Z" transform="translate(-27.19 -81)"/><polygon class="cls-15" points="455.64 373.19 471.07 372.63 469.37 369.14 455.93 370.41 455.64 373.19"/><path class="cls-24" d="M554.39,160.34a6.76,6.76,0,0,1-5.49-1.13,14.2,14.2,0,0,1-4.83-5.81c-2.22-5.23-4.88-7.56-8.12-8.45s-1.73-2.18.13-3a6,6,0,0,1,4.79.47c4.27,2.32,6.26,5.67,7.32,4.88,0,0-.16-10.05,2.38-12.86s7-7.76,8.78-11.08c1.14-2.12,3.46.85,2.41,3.74s-4.13,5.8-4.88,7.86a15.49,15.49,0,0,1-2.1,3.76s9.74-.22,12.08,5.23.9,13.46-.6,15c-1.16,1.18-4.66,1.46-7.83.49Z" transform="translate(-27.19 -81)"/><path class="cls-24" d="M553.65,139.67l2.9-5.38s1.31-1,2.49,1.2l1.18,2.16s1-1.49,2.38-1.17c1.79.44,2.32,3.48,2.32,3.48a3.3,3.3,0,0,1,2.8,1.2c1.63,2.09,2.74,7,1.71,7.51-2.1,1.09-4.46-3.24-4.46-3.24Z" transform="translate(-27.19 -81)"/><path class="cls-1" d="M407.05,265.19c-11.21-6.61-30.16-26.22-26.48-44,.92-4.48,3.9-10.52,12.85-13.86,23.5-8.77,50-9.18,51.14-9.19l.17,14.74-.09-7.37.09,7.37c-.25,0-25.12.4-46.16,8.26-3.19,1.19-3.46,2.48-3.57,3-1.45,7,9,23.71,17.46,36.41Z" transform="translate(-27.19 -81)"/><path class="cls-1" d="M514.33,214.31c-15,0-32.51-3.54-35.11-4.08l3-14.43c12,2.51,34.13,5.45,42.45,2.68.73-.24,7.47-3.13,20.11-29.35,7-14.43,10.61-19.08,10.66-19.22l7,6.84c-.22.6-1.26,2.23-7.47,19.95-10.77,30.68-20.06,33.89-25.65,35.76C525.3,213.81,520,214.31,514.33,214.31Z" transform="translate(-27.19 -81)"/><path class="cls-37" d="M410.58,221.89c19-2.91,34.33-5.75,34.54-5.75l-.48-10.67,3.51-9c-5.18-.19-15.93-1.67-42.64,4.87C406.26,209.34,407.51,215.83,410.58,221.89Z" transform="translate(-27.19 -81)"/><path class="cls-37" d="M521.57,195.64c-9.27,2-32.24-.86-42.35-.86L479,214.31a281.44,281.44,0,0,0,35.69,2.52,55.7,55.7,0,0,0,14.12-1.69C528.78,210.84,527.17,202,521.57,195.64Z" transform="translate(-27.19 -81)"/><path class="cls-1" d="M404.67,254l4.07.5a5.57,5.57,0,0,1,2.63,1.05c4.07,3,17.25,13,16.67,14.44-.69,1.73-3.22,2.82-3.34,3.85s1,3.89-1.15,4.46-4.15.33-4.26,1.6-.12,2.64-2.3,2.87a15.89,15.89,0,0,1-3.69,0s-.46-.61-1.26.1-2.31.35-4.38.81-3.68,1.39-4.37,0-.69-4-1.16-5.64,3.61-3.11,3.61-3.11-3.66-4.14-3.63-6.67,0-1.61,0-1.61Z" transform="translate(-27.19 -81)"/><path class="cls-9" d="M499.85,445l-17-1.61c0-.33.66-34,1.1-56.1.44-21.74-10-48.83-11.65-64.95l28.48-4.53c1.92,8.06,8.51,46.11,8,70C508.34,411.26,500,443.54,499.85,445Z" transform="translate(-27.19 -81)"/><path class="cls-9" d="M414.42,432.15l-13-14c16.81-17.74,32.42-40,33.07-49.51,1.62-23.74-3.5-36.53-3.5-47.4,0-6.52,30.24-4.64,30.24-4.64.2,1.54-.14,27.55-1.93,53.73-.75,10.92-6.58,23.09-22.79,40.57A262,262,0,0,1,414.42,432.15Z" transform="translate(-27.19 -81)"/><path class="cls-35" d="M494.54,380.22c-5.34-1.33-9-4.93-11.88-9.2a94.38,94.38,0,0,1,1.28,16.22c-.44,22.07-1.06,55.77-1.1,56.1l17,1.61c.19-1.41,8.49-33.69,9-57.21.08-4.12-.05-8.68-.33-13.42C505.91,379,501.46,381.94,494.54,380.22Z" transform="translate(-27.19 -81)"/><path class="cls-35" d="M440.62,368.7c-3.54-3.91-5.21-9.32-5.93-14.7a130.64,130.64,0,0,1-.19,14.65c-.65,9.53-16.26,31.77-33.07,49.51l13,14a262,262,0,0,0,22.1-21.24c16.21-17.48,22-29.65,22.79-40.57l0-.46C454.1,375.22,445.69,374.29,440.62,368.7Z" transform="translate(-27.19 -81)"/><path class="cls-40" d="M621.58,296s-22,43.12-27.75,63.61,10.48,51.18,13,69.6H619.5s2.17-29.19-2.91-51.87a16.27,16.27,0,0,1,4.27-15c9.79-9.95,27.48-29.37,32.72-44.59C661,296.32,621.58,296,621.58,296Z" transform="translate(-27.19 -81)"/><path class="cls-41" d="M667.65,427c-.25,11.59-.41,22.3-.3,28.42,0,2,6.07.08,6.07.08s4.64-12.24,8.94-28.42H681.1Q674.38,427,667.65,427Z" transform="translate(-27.19 -81)"/><path class="cls-33" d="M683.13,290.26l-9.28-13.51L649.3,290.34s-2.78,41.08,11.16,89.53c0,0,7.14,29.71,6.66,54.24,4,1.42,9.12,1,13.32,1.79,4.84-16.32,8.37-36.93,6.16-54.31-1.33-10.39-7-20.9-5.57-31.29l6.62-39.65A27.91,27.91,0,0,0,683.13,290.26Z" transform="translate(-27.19 -81)"/><path class="cls-41" d="M668.06,445.45l-11.78,25.21-1.33.07c-.49,1.19-4.92,2.34-5.5,3.48a2.2,2.2,0,0,1-.15.26h19l7.78-13.2-4,13.2h3.81l8.08-21-5.86-15.71Z" transform="translate(-27.19 -81)"/><path class="cls-42" d="M679.89,443c-10.59,27.48-23.61,27.71-23.61,27.71l-6.34.14a2.28,2.28,0,0,0-1.64,3.67h20l7.78-13.2-4,13.2h3.81l8.08-21L680.47,443A.31.31,0,0,0,679.89,443Z" transform="translate(-27.19 -81)"/><polygon class="cls-43" points="639.52 355.83 653.82 357.07 656.8 344.87 638.35 343.56 639.52 355.83"/><path class="cls-41" d="M606.86,427c-.25,11.59-.41,22.3-.3,28.42,0,2,6.07.08,6.07.08s4.64-12.24,8.94-28.42h-1.26Q613.59,427,606.86,427Z" transform="translate(-27.19 -81)"/><path class="cls-41" d="M607.27,445.45l-11.78,25.21-1.33.07c-.49,1.19-4.93,2.34-5.5,3.48a2.2,2.2,0,0,1-.15.26h19l7.78-13.2-4,13.2h3.81l8.08-21-5.86-15.71Z" transform="translate(-27.19 -81)"/><path class="cls-42" d="M619.1,443c-10.59,27.48-23.61,27.71-23.61,27.71l-6.34.14a2.27,2.27,0,0,0-1.64,3.67h20l7.78-13.2-4,13.2h3.81l8.08-21L619.68,443A.31.31,0,0,0,619.1,443Z" transform="translate(-27.19 -81)"/><polygon class="cls-43" points="578.64 355.83 591.92 357.07 594.68 344.87 577.56 343.56 578.64 355.83"/><path class="cls-24" d="M600.91,233.06a16.29,16.29,0,0,1-6.67-1.21,9.7,9.7,0,0,1-5.62-6.76c-2-8.33,1.83-17.42,4.86-26.63,2.4-7.29,5.9-14.89,4.38-18.6l6.27-3.1c2.82,6.85.46,14.86-2.6,24.16-2.63,8-5.34,16.24-3.95,22,.06.24.08.35.48.53,5.41,2.46,25.41-4.68,40.83-12.71l4.26,8.17C638,221.59,615.19,233.06,600.91,233.06Z" transform="translate(-27.19 -81)"/><path class="cls-44" d="M670.67,144.27s-3.79-5.48-9.08-4.34c-7.65,1.65-40.41,11.42-37.58,45.42,3,35.82,29.2,30.59,29.2,30.59S683,222,687.84,188.55,677.12,142.58,670.67,144.27Z" transform="translate(-27.19 -81)"/><path class="cls-1" d="M654.23,219.93h0c-2.83-.14-5-2.85-4.87-6l.65-13.37c.16-3.17,2.6-5.64,5.43-5.5h0c2.83.14,5,2.84,4.87,6l-.65,13.37C659.51,217.59,657.06,220.07,654.23,219.93Z" transform="translate(-27.19 -81)"/><path class="cls-14" d="M660,207.34l.31-6.28c.15-3.17-2-5.87-4.87-6s-5.27,2.33-5.43,5.5l-.3,6.25A24.64,24.64,0,0,0,660,207.34Z" transform="translate(-27.19 -81)"/><path class="cls-1" d="M633,243.43c8.7.86,17.38,1.91,26,3.23,1.09-3.54,2.49-7,3.62-10.45,1.57-4.78,2.84-9.65,4.23-14.48,1-3.4,2.61-7.14,3.18-10.76a157.15,157.15,0,0,0-28.83-.06c-1.1,7.88-4.39,15.55-8,23.08A76,76,0,0,1,633,243.43Z" transform="translate(-27.19 -81)"/><path class="cls-45" d="M619.91,231.73c10.75-3.6,21-6.55,24.24-8.23l-1-12.92c-10.12,1.18-20.29,5.95-27.58,8.43A49.55,49.55,0,0,0,619.91,231.73Z" transform="translate(-27.19 -81)"/><path class="cls-28" d="M689.2,300.24c-6.6-26.25-23.27-37.46-24.16-44s9.21-44.71,9.21-44.71c-2.77-.41-7.94-1-10.69-1.23A16,16,0,0,1,651,216.61c-4.31,0-5.51-4.11-5.13-6.31-1.92.15-6.1.79-6.1.79s-12.68,18-12.06,23,4.89,8,4.89,8S621,286,615.2,305.61C611,320,693.66,318,689.2,300.24Z" transform="translate(-27.19 -81)"/><path class="cls-24" d="M740.91,294.5a31.43,31.43,0,0,0,5.17,3.1c3.09,1.44,4,1.22,3.93,2.06-.47,3.61-10.94-2.82-14.56-4.43s-6.57-.52-2.33,3.95c1.73,1.82,1.49,4.18.21,4.8-1.63.8-3.89-3.9-6.36-6.37-3.71-3.71-4.22-1.49-6.08-6.16-1-2.4-.63-7.84-.63-7.84s1.4-3.37,13.7-.77a53.35,53.35,0,0,0,10.57.74c4.35-.16,7.47-1,7,.51-.57,2-10.14,3.17-10.14,3.17a38.73,38.73,0,0,0,6.29.56c3.55,0,7.42-.54,7.54-.06.4,1.63-4.27,4.22-12.23,3.35-.75-.08-.58-.06,0,.13a34.05,34.05,0,0,0,5.78,1.4c3.65.5,7,.45,7.17,1.1.23,1.23-1.93,1.92-4.82,2.05A39.55,39.55,0,0,1,740.91,294.5Z" transform="translate(-27.19 -81)"/><path class="cls-24" d="M584,169.06a31.87,31.87,0,0,1-5.59-2.25c-3-1.6-3.42-2.49-4-1.89-2.59,2.56,8.86,7,12.33,8.92s4.38,4.93-1.74,4.25c-2.5-.28-4.23,1.33-4,2.73.35,1.78,5.46.75,8.92,1.22,5.2.72,4.87,2.23,10.56,1.74,2.57-.22,4.67-3.2,4.67-3.2s1.83-4.8-7.68-13a53.6,53.6,0,0,1-7-8c-2.51-3.56-3.69-6.57-4.65-5.28-1.24,1.64,3.6,10,3.6,10a37.84,37.84,0,0,1-4.25-4.67c-2.14-2.82-4.05-6.24-4.51-6-1.54.66-.78,5.94,4.72,11.77.52.55.4.42-.07.11a32.84,32.84,0,0,1-4.61-3.76c-2.6-2.61-4.61-5.34-5.2-5.05-1.12.56-.37,2.7,1.28,5.08A39.64,39.64,0,0,0,584,169.06Z" transform="translate(-27.19 -81)"/><path class="cls-1" d="M667.27,145.41a24.85,24.85,0,0,0-8.15-.73,27.56,27.56,0,0,0-16,7.17,29.36,29.36,0,0,0-3.56,3.75l-.15.18C630,167.71,628.23,189,641,199.37a22.11,22.11,0,0,0,9.45,4.57c13.68,2.88,28.6-7.89,32.79-21.4C687.55,168.6,683.09,149.47,667.27,145.41Z" transform="translate(-27.19 -81)"/><path class="cls-46" d="M667.27,145.41a24.85,24.85,0,0,0-8.15-.73,27.56,27.56,0,0,0-16,7.17,29.36,29.36,0,0,0-3.56,3.75l-.15.18a37.29,37.29,0,0,0-7.15,27.31,16,16,0,0,1,5.31-8.08c12-7,22.75-5,30.12-14.88,1.49,10.14,12.49,19.91,15.59,22.41C687.55,168.6,683.09,149.47,667.27,145.41Z" transform="translate(-27.19 -81)"/><path class="cls-47" d="M683.24,182.54c-.18.57.21-.57,0,0Z" transform="translate(-27.19 -81)"/><path class="cls-11" d="M661.12,189.07l-16.3-3.72a1.44,1.44,0,0,0-1.69,1.66c.79,4.67,3.67,8.41,7.74,9.34s8.29-1.19,11-5.06A1.42,1.42,0,0,0,661.12,189.07Z" transform="translate(-27.19 -81)"/><path class="cls-12" d="M644.8,171.24c-1.72-.84-4,.43-5.21,2.84s-.72,5,1,5.89,4-.44,5.21-2.85S646.51,172.07,644.8,171.24Z" transform="translate(-27.19 -81)"/><path class="cls-48" d="M640.7,172.46a6.54,6.54,0,0,0-1.11,1.62c-1.17,2.41-.72,5,1,5.89,1.28.62,2.9.07,4.13-1.25Q642.71,175.58,640.7,172.46Z" transform="translate(-27.19 -81)"/><path class="cls-12" d="M670,176.59c-1.74-.84-4.09.45-5.27,2.88s-.72,5.09,1,5.94,4.09-.44,5.26-2.88S671.75,177.44,670,176.59Z" transform="translate(-27.19 -81)"/><path class="cls-48" d="M666.06,177.66a6.34,6.34,0,0,0-1.31,1.81c-1.17,2.43-.72,5.09,1,5.94,1.36.67,3.1,0,4.35-1.49Q668,180.83,666.06,177.66Z" transform="translate(-27.19 -81)"/><path class="cls-12" d="M674.14,143.3s-6.4-5.51-11.79-4.7c-11.24,1.7-43.24,10.91-40.73,46.19.8,11.21,5.26,16.88,9,21.63-4.51-8.51-2.79-18.62.85-26.78,7.58-18.42,28.94-6.34,37.18-24.13.7,14.62,12.2,16.12,16.65,29.44,1.09,3.25.89,7.5.91,10.74a51.15,51.15,0,0,0,1.94-8.37C693.34,152.54,683.3,142.9,674.14,143.3Zm-31.22,21.95c5.12-4.81,13.88-4,18.32-10C659.31,162.86,648.71,161.63,642.92,165.25Z" transform="translate(-27.19 -81)"/><path class="cls-49" d="M651.82,166.91c4.51-1,8.93-2.15,12.47-5.35-.85-.36-1.7-.73-2.52-1.12s-1.89-.93-2.8-1.44c-3,2.72-8.13,3.27-12.42,4.65C648.26,164.8,650,165.9,651.82,166.91Z" transform="translate(-27.19 -81)"/><path class="cls-49" d="M641.3,159.86c1.48,1.15,3,2.26,4.56,3.33,3.73-2,8.29-2.69,11.9-4.89-5.94-3.58-10.46-8.34-12.79-14.2a47.75,47.75,0,0,0-11.47,7.82C635.41,155.16,638.36,157.59,641.3,159.86Z" transform="translate(-27.19 -81)"/><path class="cls-49" d="M678.42,173.82a48.17,48.17,0,0,0,11.12-1.76c.05-2.54,0-4.88-.16-7a43.28,43.28,0,0,1-6.65.44,49.34,49.34,0,0,1-12.17-1.79C672.46,167.73,675.48,170.56,678.42,173.82Z" transform="translate(-27.19 -81)"/><path class="cls-1" d="M685.69,181.53c-2.23-1.41-5.66,0-7.66,3.14s-1.82,6.85.41,8.27,5.65,0,7.66-3.14S687.92,183,685.69,181.53Z" transform="translate(-27.19 -81)"/><path class="cls-8" d="M679.71,190.18a6,6,0,0,1-2.07-1.84c-5.08,7.22-13.18,13.37-21.73,14.33a24.67,24.67,0,0,1-13.47-2.23,21.73,21.73,0,0,0,8,3.5c10.06,2.12,20.79-3.15,27.43-11.46a3.12,3.12,0,0,0,.56.46c2.19,1.4,5.55,0,7.57-3A6.41,6.41,0,0,1,679.71,190.18Z" transform="translate(-27.19 -81)"/><path class="cls-24" d="M721.74,288.19c-1-.86-26.15-21.29-37.68-38.15-9.15-13.37-16.82-32.44-17.25-33.33l8.31-4c.11.21,10.21,21.33,18.94,34.1,10.87,15.9,31.25,35.88,31.48,36.09Z" transform="translate(-27.19 -81)"/><path class="cls-28" d="M688,231.85c-5.82-10.39-10.49-19.55-13.77-20.35-2.21-.54-7.44,5.21-7.44,5.21.3.63,2.56,12.27,8.71,23.14C681.39,237.78,685.19,235.7,688,231.85Z" transform="translate(-27.19 -81)"/></svg>