<svg xmlns="http://www.w3.org/2000/svg" xmlns:xlink="http://www.w3.org/1999/xlink" viewBox="0 0 1857.51 846.87"><defs><style>.cls-3{fill:#e87950}.cls-7{opacity:.72;mix-blend-mode:multiply}.cls-5{fill:#e289a9}.cls-6{fill:#de4e31}.cls-9{fill:#46acc3}.cls-11{fill:#1b4e61}.cls-12{fill:#fff}.cls-13{fill:#fcc14a}.cls-19{fill:#fffef1}</style><linearGradient id="linear-gradient" x1="799.68" y1="831.37" x2="800.41" y2="909.65" gradientUnits="userSpaceOnUse"><stop offset="0" stop-color="#f5d0ba"/><stop offset="1" stop-color="#fff"/></linearGradient><linearGradient id="linear-gradient-2" x1="803.3" y1="984.8" x2="637.93" y2="964.96" xlink:href="#linear-gradient"/><linearGradient id="linear-gradient-3" x1="392.2" y1="329.13" x2="323.44" y2="352.51" xlink:href="#linear-gradient"/><linearGradient id="linear-gradient-4" x1="823.63" y1="333.88" x2="823.07" y2="397.49" xlink:href="#linear-gradient"/><linearGradient id="linear-gradient-5" x1="1217.16" y1="763.79" x2="1218.64" y2="820.57" xlink:href="#linear-gradient"/><linearGradient id="linear-gradient-6" x1="1333.12" y1="1071.77" x2="1332.57" y2="981.06" xlink:href="#linear-gradient"/><linearGradient id="linear-gradient-7" x1="1080.81" y1="1073.31" x2="1080.26" y2="982.6" xlink:href="#linear-gradient"/><linearGradient id="linear-gradient-8" x1="1718.37" y1="762.86" x2="1711.74" y2="837.53" xlink:href="#linear-gradient"/><linearGradient id="linear-gradient-9" x1="366.59" y1="804.88" x2="362.16" y2="874.2" xlink:href="#linear-gradient"/><linearGradient id="linear-gradient-10" x1="224.89" y1="998.49" x2="512.79" y2="998.49" xlink:href="#linear-gradient"/><linearGradient id="linear-gradient-11" x1="1182.41" y1="380.34" x2="1470.32" y2="380.34" gradientTransform="translate(-82.56 186.14)" xlink:href="#linear-gradient"/><linearGradient id="linear-gradient-12" x1="811.43" y1="1149.91" x2="741.29" y2="1173.76" gradientTransform="rotate(-3.89 -10728.21 -5896.956)" xlink:href="#linear-gradient"/><linearGradient id="linear-gradient-13" x1="1643.49" y1="344.63" x2="1644.97" y2="401.42" xlink:href="#linear-gradient"/></defs><g style="isolation:isolate"><g id="Layer_2" data-name="Layer 2"><path d="M692.58 1019.33h179.19c15.26-37.44 41.5-86.88 41.5-86.88s-2.94-17.64-25.73-22.79-38.22-8.82-38.22-8.82l-102.17-14.7c-23.52 1.47-59.53 3.68-72.76 33.81l30.13 42.64s-6.39 26.61-11.94 56.74z" transform="translate(-119.74 -172.46)" fill="#faf8dc"/><path class="cls-3" d="M771 832.49c1.47 13.6 2.57 35.65-1.1 42.63s-22.79 11-22.79 11 6.25 44.1 55.5 44.1 50.71-29.76 50.71-29.76-21.68-9.93-23.52-25.36-1.47-70.56-1.47-70.56z" transform="translate(-119.74 -172.46)"/><path d="M771 832.49c1.47 13.6 2.57 35.65-1.1 42.63s-22.79 11-22.79 11 6.25 44.1 55.5 44.1 50.71-29.76 50.71-29.76-21.68-9.93-23.52-25.36-1.47-70.56-1.47-70.56z" transform="translate(-119.74 -172.46)" style="mix-blend-mode:multiply" fill="url(#linear-gradient)" opacity=".72"/><path class="cls-5" d="M738 775.89c-9.93-14-26-9.16-25.36-25 .55-14.51 14-15.25 17.64-23.7s-8.09-17.55 0-32.25 27.29-10.11 30.59-19.29-3.3-19.57 9.93-29.22c11.42-8.33 20.49 1.56 28.57-5.42s8.09-13.6 24.26-11.39 15.03 13.6 25.37 7.38 4.78-20.58 18.38-23.52 25.36 5.88 23.52 21.31-9.56 20.21-20.58 23.52-15.44 5.79-15.44 13.51S869.35 680 873 694.67s-4.19 20.1-8.55 28.39c-5.79 11 2.57 17.18 0 30.05s-17.73 33.07-35 28.3-91.45-5.52-91.45-5.52z" transform="translate(-119.74 -172.46)"/><path class="cls-6" d="M826.72 760.82s11.3-7.16 14.06 5.24-9.65 18.74-9.65 18.74z" transform="translate(-119.74 -172.46)"/><path class="cls-3" d="M743.85 791c13.59 35.28 36.12 60.87 60.36 51.66s32.11-38 26.41-70.92c-6.31-36.53-29.55-66.28-62.51-55.34-37.11 12.29-36.36 43.18-24.26 74.6z" transform="translate(-119.74 -172.46)"/><path class="cls-7" d="M801.75 772.3a3.13 3.13 0 1 0 2.66-3.55 3.13 3.13 0 0 0-2.66 3.55zM757.29 785.16a3.13 3.13 0 1 0 2.65-3.55 3.12 3.12 0 0 0-2.65 3.55z" transform="translate(-119.74 -172.46)"/><path class="cls-6" d="M783.51 775.64l-4.76 19.68a3.23 3.23 0 0 0 3.85 3.91l10.65-2.4zM804.14 793a10.11 10.11 0 1 0 8.56-11.45 10.12 10.12 0 0 0-8.56 11.45z" transform="translate(-119.74 -172.46)"/><circle class="cls-6" cx="763.52" cy="805.41" r="10.11" transform="rotate(-5.64 -1046.79 1934.748)"/><path class="cls-5" d="M738.79 780.12c1.47-7.72 1.28-21.93 9.1-35.56a41.59 41.59 0 0 1 9-10.78 15.9 15.9 0 0 1 20.8.24 19.14 19.14 0 0 0 11.59 4.75c15.71 1.11 35.38 8.73 39.42 21.78l7.81-47.5-67.67-19.85-41.53 48.88z" transform="translate(-119.74 -172.46)"/><path class="cls-3" d="M697.74 1019.33a667.25 667.25 0 0 1 20.38-69.42s4.41-20.95-18.19-29.22-25.54-.74-25.54-.74c-8.63 19.18-22.7 59.61-30.79 99.38z" transform="translate(-119.74 -172.46)"/><path d="M697.74 1019.33a667.25 667.25 0 0 1 20.38-69.42s4.41-20.95-18.19-29.22-25.54-.74-25.54-.74c-8.63 19.18-22.7 59.61-30.79 99.38z" transform="translate(-119.74 -172.46)" style="mix-blend-mode:multiply" fill="url(#linear-gradient-2)" opacity=".72"/><path class="cls-3" d="M890.63 1019.33H944a824.59 824.59 0 0 0-30.76-86.88c-2.76-6.43-18.19-7.9-30.87.37s-12.13 25.91-7.72 36.93c1.85 4.55 8.64 25.97 15.98 49.58z" transform="translate(-119.74 -172.46)"/><path class="cls-9" d="M206.05 521a305.08 305.08 0 0 1 23.68-20.4s-.35 7.45-.59 20.4h317.38c-18.87-48.66-42.58-87.57-56.83-98.57-25.82-19.91-63.43-53.83-125-55.68-69.67-2.08-139.38 19.92-174.78 56.42-20.18 20.81-50 59.22-70.17 97.83z" transform="translate(-119.74 -172.46)"/><path class="cls-3" d="M312.86 377.05s4-75.19 3.84-119.72c-.18-45.38 35.25-63.18 68.06-59s51.66 34.9 44 81-25.83 57.94-25.83 57.94l2.8 44S394.54 398 356.84 396.6s-43.98-19.55-43.98-19.55z" transform="translate(-119.74 -172.46)"/><path d="M341.48 337.26c-14.66-12.22-20.94-34.91-24.43-44.68-1.15 31.58-4.19 84.47-4.19 84.47s6.28 18.15 44 19.55 48.87-15.36 48.87-15.36l-2.8-44s-10.82 11.17-24.78 11.87c-11.71.6-27.68-4.36-36.67-11.85z" transform="translate(-119.74 -172.46)" style="mix-blend-mode:multiply" fill="url(#linear-gradient-3)"/><path class="cls-7" d="M366.61 269.19a3.14 3.14 0 1 1-3.14-3.14 3.14 3.14 0 0 1 3.14 3.14zM421.06 275.13a3.14 3.14 0 1 1-3.14-3.14 3.14 3.14 0 0 1 3.14 3.14z" transform="translate(-119.74 -172.46)"/><path class="cls-6" d="M391.47 264.92l12 30a5.16 5.16 0 0 1-5.19 7.06l-17.38-1.37z" transform="translate(-119.74 -172.46)"/><path class="cls-11" d="M332.06 277.92s0-17.45 1-23.74c4.19-2.79 20.25-9.77 24.09-30 0 0 54.8 15 79.23-1.75s-7-31.76-21.29-21.29c0 0 6.28-14.31-5.93-18.85s-23 11.52-23 11.52-14.31-7-29-2.44-26.88 15.7-34.21 33.5-7.33 40.84-7.33 40.84z" transform="translate(-119.74 -172.46)"/><path class="cls-6" d="M324.9 265.18s-12.56-4.89-15.36 12.22 13.27 16.75 13.27 16.75z" transform="translate(-119.74 -172.46)"/><path class="cls-12" d="M381.63 312.54c-1.2 3.67-6.62 5.18-12.12 3.39s-9-6.22-7.79-9.88 4.12 1.34 9.62 3.14 11.48-.32 10.29 3.35z" transform="translate(-119.74 -172.46)"/><circle class="cls-6" cx="351.23" cy="288" r="10.14" transform="rotate(-31.29 -16.596 415.534)"/><path class="cls-6" d="M421.1 287.63a10.14 10.14 0 0 0 0 20.28h.34a145.72 145.72 0 0 0 5.34-18.51 10.06 10.06 0 0 0-5.68-1.77z" transform="translate(-119.74 -172.46)"/><path class="cls-11" d="M910 521l2.63-42.54-196.13 10.29c1 8.18 1.81 19.35 2.39 32.22z" transform="translate(-119.74 -172.46)"/><path class="cls-13" d="M806.29 201.14s-16-5.53-29.87 18.81-25.42 95.13-27.1 132.74a408 408 0 0 0 3.87 72.45l120.57-35.95S892 205 859.38 201.14s-53.09 0-53.09 0z" transform="translate(-119.74 -172.46)"/><path class="cls-3" d="M719.4 521c1.27-12.79 2.26-21.16 2.26-21.16L906 486.54s-1.92 14.11-4.41 34.43h51.81c5.75-37.64 10.2-88.93-10.53-109.65-26.55-26.55-54.2-14-72.45-23.23s-94.58 0-94.58 0c-29.13 14.38-54.21 10.69-73.38 31.34C686.19 437 673.62 470.53 668 521z" transform="translate(-119.74 -172.46)"/><path class="cls-11" d="M942.9 411.32c-26.55-26.55-54.2-14-72.45-23.23s-94.58 0-94.58 0c-29.13 14.38-54.21 10.69-73.38 31.34-12.54 13.51-22.88 36.48-29.55 69.33 12.46 4.39 27.09 11 35.45 12.16 5.59.76 9.88 1.52 12.9 2.12.24-2.08.37-3.23.37-3.23L906 486.54a76.84 76.84 0 0 1 38.53-8.3 61.34 61.34 0 0 0 13.45-.87c1.16-26.82-1.77-52.74-15.08-66.05z" transform="translate(-119.74 -172.46)"/><path class="cls-3" d="M796.33 328.35c1.11 19.36-3.32 44.8-20.46 59.74 0 0 19.35 11.61 43.69 11.61s50.89-11.61 50.89-11.61-13.28-23.23-16-48.12-3.92-14.97-3.92-14.97z" transform="translate(-119.74 -172.46)"/><path d="M796.33 328.35c1.11 19.36-3.32 44.8-20.46 59.74 0 0 19.35 11.61 43.69 11.61s50.89-11.61 50.89-11.61-13.28-23.23-16-48.12-3.92-14.97-3.92-14.97z" transform="translate(-119.74 -172.46)" style="mix-blend-mode:multiply" fill="url(#linear-gradient-4)"/><path class="cls-3" d="M779.18 275.25c.64 38.72 17.15 68 43.15 66.93s42.57-26 47.56-59.18c5.53-36.78-7.19-72.46-42-72.46-39.3 0-49.26 30.98-48.71 64.71z" transform="translate(-119.74 -172.46)"/><path class="cls-13" d="M879.29 198.93c16.6 16.59 34.3 68 32.64 123.89s-22.13 110.62-42 111.73-12.72-78-8.85-104 10.51-64.15 3.87-90.7-21-28.76-21-28.76z" transform="translate(-119.74 -172.46)"/><path class="cls-13" d="M792.5 205c.88-13.62 23.66-21.37 46.73-23.21s47.33 3.67 46.15 17.72-13.61 24.43-42 26.87-52.06-3.03-50.88-21.38z" transform="translate(-119.74 -172.46)"/><path class="cls-7" d="M839.86 269.58a3.14 3.14 0 1 0 3.64-2.58 3.14 3.14 0 0 0-3.64 2.58zM789.64 268.34a3.14 3.14 0 1 0 3.65-2.54 3.15 3.15 0 0 0-3.65 2.54z" transform="translate(-119.74 -172.46)"/><path class="cls-6" d="M817.92 270.21l-10.75 17.23a3.24 3.24 0 0 0 2.43 4.94l10.9 1.08z" transform="translate(-119.74 -172.46)"/><path class="cls-12" d="M804.72 305.32c0 3.85 4.65 7 10.43 7s10.49-3.07 10.51-6.92-4.34 0-10.12-.06-10.8-3.88-10.82-.02z" transform="translate(-119.74 -172.46)"/><circle class="cls-6" cx="844.22" cy="289.42" r="10.14" transform="rotate(-22.3 346.854 506.94)"/><path class="cls-6" d="M785.46 276.75a10.14 10.14 0 0 1-3.57 20c-.12 0-.22-.07-.33-.09a147.13 147.13 0 0 1-2-19.16 10.15 10.15 0 0 1 5.9-.75z" transform="translate(-119.74 -172.46)"/><path class="cls-5" d="M1096 994h209.12c.74-12.61 1.41-21.72 1.41-21.72l58.07-30c3.69-46.46-25.81-74.48-55.31-87s-51.62-39.09-51.62-39.09l-89.24 2.81c-3 14.75-49.41 32.45-82.6 55.31s-33.18 70.06-33.18 70.06l48.61 21.77z" transform="translate(-119.74 -172.46)"/><path class="cls-11" d="M1255.45 633.57a65.22 65.22 0 0 1 23.23 40.93c2.58 16.22-2.58 38.72-2.58 38.72l-47.94-62.69z" transform="translate(-119.74 -172.46)"/><ellipse class="cls-6" cx="1154.33" cy="536.42" rx="10.88" ry="14.47"/><path class="cls-3" d="M1254 749.72a341.16 341.16 0 0 0 3.69 66.37s-10.32 8.11-37.61 7.38-40.56-3-40.56-3 5.16-50.15 4.43-68.59z" transform="translate(-119.74 -172.46)"/><path d="M1254 749.72a341.16 341.16 0 0 0 3.69 66.37s-10.32 8.11-37.61 7.38-40.56-3-40.56-3 5.16-50.15 4.43-68.59z" transform="translate(-119.74 -172.46)" style="mix-blend-mode:multiply" fill="url(#linear-gradient-5)" opacity=".72"/><path class="cls-3" d="M1273.89 707c0 40.93-28 73-54.94 72.27s-57.16-33.55-57.16-74.48 18.44-74.54 57.21-73.79c41.66.78 54.89 35 54.89 76z" transform="translate(-119.74 -172.46)"/><ellipse cx="1073.03" cy="527.11" rx="3.32" ry="3.61"/><ellipse cx="1133.13" cy="524.9" rx="3.32" ry="3.61"/><path class="cls-12" d="M1245.24 732.7c0 7-9.71 12.6-21.69 12.6s-21.68-5.64-21.68-12.6 9.86-1.76 21.84-1.76 21.53-5.2 21.53 1.76z" transform="translate(-119.74 -172.46)"/><path class="cls-6" d="M1247.91 715.38a10.14 10.14 0 1 0 11.77-8.2 10.13 10.13 0 0 0-11.77 8.2zM1176.74 719.8a10.14 10.14 0 1 0 11.77-8.2 10.16 10.16 0 0 0-11.77 8.2z" transform="translate(-119.74 -172.46)"/><path class="cls-11" d="M1142.25 870.48c-2.37 32.84-14.48 86.81-15.78 123.49h44.85c11.12-36.71 15.47-90.45 16.84-121.28 2.21-49.78-1.59-106.42-4.24-131.45-2.59-24.34-3.32-45.72-3.32-45.72a240.53 240.53 0 0 0 43.88-26.18c29-21.66 40.19-30.24 36.5-40.93-4.3-12.48-39.45-17.7-64.16-8.85s-54.57 31.71-55.68 82.59 4.98 114.68 1.11 168.33z" transform="translate(-119.74 -172.46)"/><path class="cls-3" d="M1356.21 994l8.38-51.77s-8.85 7.37-27.65 9.59-28.76-2.22-28.76-2.22-3.66 18.78-7.8 44.4zM1108 994c-.79-24.16-1.65-42.18-1.65-42.18s-7.19 1.65-23.79.55a85 85 0 0 1-29.86-7.93s-.28 24.73.15 49.56z" transform="translate(-119.74 -172.46)"/><path d="M1356.21 994l8.38-51.77s-8.85 7.37-27.65 9.59-28.76-2.22-28.76-2.22-3.66 18.78-7.8 44.4z" transform="translate(-119.74 -172.46)" style="mix-blend-mode:multiply" fill="url(#linear-gradient-6)" opacity=".72"/><path d="M1108 994c-.79-24.16-1.65-42.18-1.65-42.18s-7.19 1.65-23.79.55a85 85 0 0 1-29.86-7.93s-.28 24.73.15 49.56z" transform="translate(-119.74 -172.46)" style="mix-blend-mode:multiply" fill="url(#linear-gradient-7)" opacity=".72"/><path class="cls-6" d="M1225.23 694.52l-10.75 17.24a3.24 3.24 0 0 0 2.43 4.94l10.9 1.08z" transform="translate(-119.74 -172.46)"/><path class="cls-13" d="M1571.22 976.83c4.79-4.17 10.35-8.32 15.75-10.69 3.11-.26 6.06 3.66 8.87 10.69h233.54c.45-15.51 1-26.18 1-26.18l11.79 14.75 50.83-54.57s-7.38-14-42-46.46-87.75-50.89-87.75-50.89l-99.56 9.59a330.54 330.54 0 0 0-70.06 31.71c-36.87 22.12-85.55 78.17-85.55 78.17l38.63 43.88z" transform="translate(-119.74 -172.46)"/><path class="cls-3" d="M1682.47 753.38c-2.21 21.75-18.8 69.69-18.8 69.69s19.54 15.48 50.15 14.38 49.41-24 49.41-24-5.54-28.76-1.48-51.62z" transform="translate(-119.74 -172.46)"/><path d="M1682.47 753.38c-2.21 21.75-18.8 69.69-18.8 69.69s19.54 15.48 50.15 14.38 49.41-24 49.41-24-5.54-28.76-1.48-51.62z" transform="translate(-119.74 -172.46)" style="mix-blend-mode:multiply" fill="url(#linear-gradient-8)" opacity=".72"/><circle class="cls-6" cx="1559.78" cy="541.83" r="14.38"/><circle class="cls-6" cx="1661.55" cy="561" r="14.38"/><path class="cls-3" d="M1680.26 708c6.69-48.46 23.23-67.84 71.17-61.94s39.08 60.47 29.86 82.59c-8.4 20.16-18.43 66.74-66 59-41.08-6.65-39.45-47.55-35.03-79.65z" transform="translate(-119.74 -172.46)"/><path d="M1708.06 695.43a3.33 3.33 0 1 1-2.38-4.28 3.47 3.47 0 0 1 2.38 4.28zM1767 707.35a3.33 3.33 0 1 1-2.38-4.28 3.47 3.47 0 0 1 2.38 4.28z" transform="translate(-119.74 -172.46)"/><path class="cls-12" d="M1728.27 741.51c-2.39 3.74-9.54 3.45-16-.65s-9.73-10.46-7.35-14.21 5.91 2.43 12.36 6.54 13.37 4.57 10.99 8.32z" transform="translate(-119.74 -172.46)"/><circle class="cls-6" cx="1764.03" cy="727" r="10.14" transform="rotate(-21.52 1250.534 955.835)"/><circle class="cls-6" cx="1693.17" cy="712.08" r="10.14" transform="rotate(-47.68 1437.982 761.339)"/><path class="cls-6" d="M1736.15 694.28l-19.75 19.42a4.42 4.42 0 0 0 1.65 7.33l14.1 4.91z" transform="translate(-119.74 -172.46)"/><path class="cls-9" d="M1701.09 656.77s-.73-19.91 21-26.55c17.37-5.3 29-1.22 43.14-8.48 15.12-7.74 26.92-23.6 32.45-22.86s4.43 29.87-7 43.51c0 0 7.74-4.79 7.37 1.47s-3 27.29-13.27 27.29-9.22-9.22-17-11.43-13.27 3.69-28 1.11-13.27-7.75-22.86-8.12a27.67 27.67 0 0 0-15.83 4.06z" transform="translate(-119.74 -172.46)"/><path class="cls-3" d="M1555.17 976.83c-2.35-5.65-7.07-13.41-16.5-22.49-19.91-19.18-30.61-21.39-30.61-21.39a301.31 301.31 0 0 0-34.62 43.88zM1943.77 976.83c-11.88-18.52-29.17-39.05-50.75-66a104.91 104.91 0 0 0-30 20.46 69.7 69.7 0 0 0-18.81 31s6.82 6 15.8 14.57z" transform="translate(-119.74 -172.46)"/><path class="cls-19" d="M1653.19 967.84c.12 3 .24 6 .35 9h109.51c4.56-.63 9.12-1.31 13.66-2.07l-.46-11.79a491.46 491.46 0 0 1-123.06 4.86zM1775.64 947.5q-.24-5.89-.47-11.79a491.45 491.45 0 0 1-123.06 4.86q.24 5.89.47 11.79a491.47 491.47 0 0 0 123.06-4.86z" transform="translate(-119.74 -172.46)"/><path class="cls-13" d="M508.07 1007.87c2-8 3.14-14.38 3.14-18.53 0-22.68-10.51-50.89-21-66.37s-55.31-28.21-86.47-45.73-67.29-16.22-83-8.48-69.49 28.24-88.3 40.38-27.65 23.78-42.58 69.13c0 0 3.93 12 9.18 29.6z" transform="translate(-119.74 -172.46)"/><path class="cls-3" d="M333.66 795.75c-1.47 21.39-10 62.69-12.9 73 0 0 15.11 26.55 42.77 26.55s40.19-18.07 40.19-18.07-2.58-18.07-1.84-34.66 1.84-23.23 1.84-23.23z" transform="translate(-119.74 -172.46)"/><path d="M333.66 795.75c-1.47 21.39-10 62.69-12.9 73 0 0 15.11 26.55 42.77 26.55s40.19-18.07 40.19-18.07-2.58-18.07-1.84-34.66 1.84-23.23 1.84-23.23z" transform="translate(-119.74 -172.46)" style="mix-blend-mode:multiply" fill="url(#linear-gradient-9)"/><path class="cls-3" d="M404.46 712.24c28.06 8.76 39.27 54.2 19.91 87.38s-41.48 52.55-59.18 48.12-34.85-37-38.17-85.17 42.04-61.4 77.44-50.33z" transform="translate(-119.74 -172.46)"/><path class="cls-11" d="M334.4 764s3.69 14.75 5.9 14.75 8.36-28.68 19.91-34.75c10.51-5.53 13.84 4.64 25.44-5.53 6-5.23 12.18-6.27 17.72-4.49 1.36 5.32 6.61 12.79 9.94 16.66 27.65 32.07.41 64.39.37 64.62 0 0 35.76 7.37 42.77-10 3.21-7.94 2.7-14.26 1.21-18.77a18.31 18.31 0 0 1 2.34-16.41c5.23-7.29 10.18-18 2.72-26.32-12.54-14-24.06-10-30.33-16.59s-.37-11.43-5.53-16.59-16-.1-18.25-3.05 4.7-14.65-1.94-20.18-14 2.95-19.91-1.48 4.42-20.74-8.85-24.8-15.86 4.52-21 5.63-6.64-2.58-12.17.37-3 9.49-7.74 11.7-21.57-9.49-34.85.83-.27 31.53-5.8 39.27-25 5.07-26.83 23.51 8.85 29 21 31.62 11.06 5.16 18.81 13.27 22.86 3.32 22.86 3.32z" transform="translate(-119.74 -172.46)"/><path class="cls-6" d="M334.86 764.55c-2.93-4.2-13.19-3-14.72 10.07s13 14.85 13 14.85z" transform="translate(-119.74 -172.46)"/><path class="cls-11" d="M348.32 832.93s10-3.57 23.06 0 14.27 10.22 14.27 10.22-14.27 18.31-22.35 16.41-14.98-26.63-14.98-26.63z" transform="translate(-119.74 -172.46)"/><path d="M367 770.81a3.33 3.33 0 1 1-2.38-4.28 3.47 3.47 0 0 1 2.38 4.28zM415.15 784.36a3.33 3.33 0 1 1-2.38-4.28 3.47 3.47 0 0 1 2.38 4.28z" transform="translate(-119.74 -172.46)"/><circle class="cls-6" cx="406.92" cy="805.97" r="10.14" transform="rotate(-22.08 -95.008 1026.5)"/><circle class="cls-6" cx="230.7" cy="615.82" r="10.14"/><path class="cls-6" d="M386.7 772.44l3.73 27.45a4.42 4.42 0 0 1-5.79 4.79l-14.16-4.75z" transform="translate(-119.74 -172.46)"/><path class="cls-3" d="M240.82 1007.87c1-3.32 1.58-5.26 1.58-5.26s-13.27-12.72-26-17.7a123.76 123.76 0 0 0-26.54-6.64s-4 12.74-8.54 29.6zM512.35 1007.87c-.47-11.33-1.14-18.53-1.14-18.53s-7.75-1.11-25.45 1.66a130.28 130.28 0 0 0-31 8.85q-.1 4.06-.24 8z" transform="translate(-119.74 -172.46)"/><path d="M512.35 1007.87c-.47-11.33-1.14-18.53-1.14-18.53s-7.75-1.11-25.45 1.66a130.28 130.28 0 0 0-31 8.85q-.1 4.06-.24 8z" transform="translate(-119.74 -172.46)" style="mix-blend-mode:multiply" fill="url(#linear-gradient-10)" opacity=".72"/><path d="M1397.36 521a48.68 48.68 0 0 0 .58-7.94c-.76-22.66-12.21-50.5-23.23-65.62s-56.23-26.34-88-42.8-67.8-13.95-83.2-5.69-68.52 30.53-86.9 43.32-26.84 24.7-40.25 70.53c0 0 1.1 3 2.94 8.2z" transform="translate(-119.74 -172.46)" fill="#37bc9b"/><path class="cls-3" d="M1108.87 521a51.19 51.19 0 0 0-5.71-2.46 123.62 123.62 0 0 0-26.76-5.74s-.85 3.08-2.19 8.2zM1398.8 521c-.49-5-.86-7.94-.86-7.94s-7.77-.84-25.37 2.52a135.3 135.3 0 0 0-19.8 5.42z" transform="translate(-119.74 -172.46)"/><path d="M1398.8 521c-.49-5-.86-7.94-.86-7.94s-7.77-.84-25.37 2.52a135.3 135.3 0 0 0-19.8 5.42z" transform="translate(-119.74 -172.46)" style="mix-blend-mode:multiply" fill="url(#linear-gradient-11)" opacity=".72"/><path class="cls-3" d="M1187.72 410.58s-1.16-79.22-4.52-125.94c-3.42-47.62 32.5-68.83 67.23-66.78s48.91 32.81 52 81.86c3.9 63.15-22.28 71.46-22.28 71.46l5.37 37.17s-10.53 18.38-50.2 19.6-47.6-17.37-47.6-17.37z" transform="translate(-119.74 -172.46)"/><path d="M1224.17 366c-10.17-7.37-19.39-33.22-20.76-44.67-2.2-18.43-19-17.79-18.12-.4 1 33.22 2.43 89.67 2.43 89.67s7.89 18.6 47.55 17.37 50.2-19.6 50.2-19.6l-5.7-36.92s-8.47 4.81-23.17 5.15c-12.34.27-22.46-3.4-32.43-10.6z" transform="translate(-119.74 -172.46)" style="mix-blend-mode:multiply" fill="url(#linear-gradient-12)" opacity=".72"/><path class="cls-7" d="M1252.25 293.79a3.3 3.3 0 1 1-3.52-3.07 3.31 3.31 0 0 1 3.52 3.07zM1298.73 293.86a3.3 3.3 0 1 1-3.52-3.07 3.31 3.31 0 0 1 3.52 3.07z" transform="translate(-119.74 -172.46)"/><path class="cls-6" d="M1282 287.19l18.76 28.37a5.43 5.43 0 0 1-3.85 8.38l-18.2 2.29z" transform="translate(-119.74 -172.46)"/><path class="cls-11" d="M1218.77 305.56s-.45-21.45.12-28.11c3.88-3.21 18.79-7.92 21.09-29.43 0 0 49.08 11.8 71.69-7.41s-9.07-32.87-22.26-20.93c0 0 5.1-15.44-7.13-19.39s-21.62 13.61-21.62 13.61a53.43 53.43 0 0 0-30.62-.47c-14.52 4.14-33.7 14.74-44.33 35.16-9.27 17.78-5.69 40.34-5.69 40.34l3.77 27.4 10.39-6.08z" transform="translate(-119.74 -172.46)"/><path class="cls-6" d="M1208.73 292.68s-13.54-4.23-15.25 13.92 15.12 16.64 15.12 16.64z" transform="translate(-119.74 -172.46)"/><path class="cls-12" d="M1295 334.77c0 4.06-4.93 7.35-11 7.35s-11-3.29-11-7.34 4.56 0 10.65 0 11.35-4.06 11.35-.01z" transform="translate(-119.74 -172.46)"/><path class="cls-6" d="M1257.33 314.87A10.67 10.67 0 1 1 1246 305a10.67 10.67 0 0 1 11.33 9.87z" transform="translate(-119.74 -172.46)"/><path d="M1791.16 512c-1.42-39.87-28.47-64.43-55.54-75.94-29.5-12.54-51.63-39.08-51.63-39.08l-89.23 2.95c-3 14.74-49.41 32.44-82.59 55.31-22 15.17-29.43 41.06-31.92 56.76z" transform="translate(-119.74 -172.46)" fill="#e85f5b"/><path class="cls-3" d="M1680.31 330.56a340.89 340.89 0 0 0 3.68 66.38s-10.32 8.11-37.61 7.37-40.56-2.95-40.56-2.95 5.17-50.15 4.43-68.58z" transform="translate(-119.74 -172.46)"/><path d="M1680.31 330.56a340.89 340.89 0 0 0 3.68 66.38s-10.32 8.11-37.61 7.37-40.56-2.95-40.56-2.95 5.17-50.15 4.43-68.58z" transform="translate(-119.74 -172.46)" style="mix-blend-mode:multiply" fill="url(#linear-gradient-13)" opacity=".72"/><path class="cls-3" d="M1581.35 273.65c-4.42 40.49-2.33 73.32 32.38 76.71 27.24 2.66 64.73-19.45 74.3-53.44 10.6-37.66-14.45-81.93-50.82-86.51-40.99-5.15-52.01 27.95-55.86 63.24z" transform="translate(-119.74 -172.46)"/><path class="cls-7" d="M1610.39 270.72a3.31 3.31 0 1 0 4.14-2.17 3.31 3.31 0 0 0-4.14 2.17z" transform="translate(-119.74 -172.46)"/><path class="cls-6" d="M1588.39 267.23l-15.21 18.7a3.85 3.85 0 0 0 2.13 6.18L1588 295z" transform="translate(-119.74 -172.46)"/><path class="cls-12" d="M1596.53 306.62c.53-4-4.52-.6-10.55-1.39a24.47 24.47 0 0 1-6.29-2c0 2.7.19 5.33.42 7.87a15.27 15.27 0 0 0 4.55 1.32c6.03.84 11.34-1.78 11.87-5.8z" transform="translate(-119.74 -172.46)"/><path class="cls-6" d="M1611.61 289.27a10.66 10.66 0 1 0 13.36-7 10.67 10.67 0 0 0-13.36 7z" transform="translate(-119.74 -172.46)"/><path class="cls-11" d="M1977.13 306.62c-2.71-39.18-55.86-15.9-65.56-19.4s-3.49-33.75-27.93-39.18-24.92 12.42-42.38 9.7-1.55-38-19.78-47.71c-9.5-5.05-19.4-.39-27.16 3.1-12.73 5.73-19.13-11.56-19.39-11.64-8.64-6.82-16.69-1.94-24.44 1.94s-17.37 2.43-19-4.27-.38-16.29-10.86-20.17-18.43 5.63-28 10.28S1679 191.86 1667 180c-16.37-16.17-28-2.23-32.29 4.95s-10.28-3.3-20.37-5.24-15.8 9.41-13.48 19.88c-4.72 2.63-14-2.32-16.29 7.37-5 20.8 21.4 18.28 41.7 17.56 16.3-.58 17 30.94 17.17 39.27.37 15.87 17.56 17.21 17.56 17.21s4.66 7.76.78 26 11.64 27.15 11.64 27.15 22.11 1.56 27.54 8.15-15.52 39.57 4.27 52.76 28.7-13.58 46.55-4.66 12.8 32.2 50 26.38 21.34-40.34 40.73-46.16 35.69 20.95 55.48 7.76 7.75-29.1 22.11-40 59.75 7.42 57.03-31.76z" transform="translate(-119.74 -172.46)"/><path class="cls-6" d="M1655.06 279.17l-3.06 24.44s14.74-2.32 15.91-12.8-12.85-11.64-12.85-11.64z" transform="translate(-119.74 -172.46)"/></g></g></svg>