<?xml version="1.0" standalone="no"?>
<!DOCTYPE svg PUBLIC "-//W3C//DTD SVG 20010904//EN"
 "http://www.w3.org/TR/2001/REC-SVG-20010904/DTD/svg10.dtd">
<svg version="1.0" xmlns="http://www.w3.org/2000/svg"
 width="640.000000pt" height="360.000000pt" viewBox="0 0 640.000000 360.000000"
 preserveAspectRatio="xMidYMid meet">

<g transform="translate(0.000000,360.000000) scale(0.100000,-0.100000)"
fill="#000000" stroke="none">
<path d="M0 1800 l0 -1800 3200 0 3200 0 0 1800 0 1800 -3200 0 -3200 0 0
-1800z m5524 1412 c0 -59 -2 -743 -2 -1519 l-2 -1413 -2319 0 -2320 0 -3 1518
c-2 834 -2 1519 -1 1522 0 3 1047 4 2325 2 l2323 -2 -1 -108z"/>
<path d="M966 3246 c3 -8 -2 -16 -13 -19 -14 -4 -14 -5 5 -6 16 -1 22 5 22 19
0 11 -4 20 -10 20 -5 0 -7 -6 -4 -14z"/>
<path d="M1105 3250 c-4 -7 -3 -16 3 -22 14 -14 45 -2 40 15 -6 16 -34 21 -43
7z"/>
<path d="M1880 2685 c-135 -44 -269 -141 -348 -253 l-42 -61 67 -40 c172 -101
538 -310 540 -308 1 2 -21 157 -49 345 -60 392 -41 358 -168 317z"/>
<path d="M2061 2683 c1 -23 2 -24 6 -6 4 20 11 22 86 26 l82 3 -87 2 -88 2 1
-27z"/>
<path d="M2253 2693 c9 -2 23 -2 30 0 6 3 -1 5 -18 5 -16 0 -22 -2 -12 -5z"/>
<path d="M2315 2680 c11 -5 27 -9 35 -9 9 0 8 4 -5 9 -11 5 -27 9 -35 9 -9 0
-8 -4 5 -9z"/>
<path d="M2380 2660 c8 -5 20 -10 25 -10 6 0 3 5 -5 10 -8 5 -19 10 -25 10 -5
0 -3 -5 5 -10z"/>
<path d="M2073 2615 c0 -22 2 -30 4 -17 2 12 2 30 0 40 -3 9 -5 -1 -4 -23z"/>
<path d="M2421 2646 c10 -9 69 -36 69 -32 0 6 -55 36 -66 36 -4 0 -5 -2 -3 -4z"/>
<path d="M2500 2607 c0 -3 12 -12 26 -22 15 -9 23 -12 20 -6 -7 11 -46 35 -46
28z"/>
<path d="M2560 2567 c0 -3 23 -24 50 -47 28 -23 50 -40 50 -37 0 3 -22 24 -50
47 -27 23 -50 40 -50 37z"/>
<path d="M2083 2525 c0 -22 2 -30 4 -17 2 12 2 30 0 40 -3 9 -5 -1 -4 -23z"/>
<path d="M2093 2435 c0 -22 2 -30 4 -17 2 12 2 30 0 40 -3 9 -5 -1 -4 -23z"/>
<path d="M2689 2435 c17 -23 47 -70 66 -105 19 -36 35 -61 35 -56 0 18 -65
128 -97 163 l-34 38 30 -40z"/>
<path d="M2103 2345 c0 -22 2 -30 4 -17 2 12 2 30 0 40 -3 9 -5 -1 -4 -23z"/>
<path d="M2113 2255 c0 -22 2 -30 4 -17 2 12 2 30 0 40 -3 9 -5 -1 -4 -23z"/>
<path d="M2791 2255 c1 -19 18 -51 18 -35 0 8 -4 22 -9 30 -5 8 -9 11 -9 5z"/>
<path d="M2123 2175 c0 -22 2 -30 4 -17 2 12 2 30 0 40 -3 9 -5 -1 -4 -23z"/>
<path d="M2822 2150 c0 -14 2 -19 5 -12 2 6 2 18 0 25 -3 6 -5 1 -5 -13z"/>
<path d="M2133 2085 c0 -22 2 -30 4 -17 2 12 2 30 0 40 -3 9 -5 -1 -4 -23z"/>
<path d="M2833 2080 c0 -25 2 -35 4 -22 2 12 2 32 0 45 -2 12 -4 2 -4 -23z"/>
<path d="M2638 2033 c29 -2 74 -2 100 0 26 2 2 3 -53 3 -55 0 -76 -1 -47 -3z"/>
<path d="M2388 2023 c28 -2 76 -2 105 0 28 2 5 3 -53 3 -58 0 -81 -1 -52 -3z"/>
<path d="M2178 2013 c23 -2 59 -2 80 0 20 2 1 4 -43 4 -44 0 -61 -2 -37 -4z"/>
<path d="M4160 1495 l0 -225 123 2 122 2 -117 3 -118 4 0 214 0 215 110 0 110
0 3 -212 2 -213 3 218 2 217 -120 0 -120 0 0 -225z"/>
<path d="M3820 1420 l0 -150 120 0 120 0 0 149 0 149 -120 1 -120 2 0 -151z"/>
<path d="M5049 904 c-10 -13 -10 -17 2 -25 8 -5 23 -8 34 -8 20 1 18 2 -24 15
-11 3 -11 7 -1 19 7 8 10 15 7 15 -2 0 -10 -7 -18 -16z"/>
<path d="M5096 907 c3 -10 9 -15 12 -12 3 3 0 11 -7 18 -10 9 -11 8 -5 -6z"/>
<path d="M3443 886 c-4 -7 -26 -22 -47 -33 -24 -12 -35 -23 -27 -27 6 -4 11
-2 11 4 0 6 5 8 10 5 6 -3 10 -1 10 5 0 6 4 9 9 6 5 -4 20 -2 33 3 12 6 18 10
11 10 -20 1 -3 29 20 34 l22 4 -22 2 c-12 0 -26 -5 -30 -13z"/>
<path d="M5005 880 c3 -5 10 -10 16 -10 5 0 9 5 9 10 0 6 -7 10 -16 10 -8 0
-12 -4 -9 -10z"/>
<path d="M1836 864 c-9 -8 -16 -19 -16 -24 0 -9 25 -20 43 -19 7 0 1 5 -12 10
-23 9 -23 10 -6 29 21 24 13 27 -9 4z"/>
<path d="M3486 864 c-11 -8 -16 -14 -10 -14 13 0 39 18 34 24 -3 2 -14 -2 -24
-10z"/>
<path d="M4960 871 c0 -5 -10 -7 -22 -4 -17 4 -20 3 -12 -6 12 -13 77 -4 68
10 -7 12 -34 12 -34 0z"/>
<path d="M3520 860 c0 -5 9 -10 20 -10 11 0 20 5 20 10 0 6 -9 10 -20 10 -11
0 -20 -4 -20 -10z"/>
<path d="M3570 851 c0 -5 14 -11 31 -15 43 -8 49 -8 49 5 0 6 -9 9 -20 6 -11
-3 -23 -1 -26 4 -7 12 -34 12 -34 0z"/>
<path d="M4890 850 c0 -5 7 -10 16 -10 8 0 12 5 9 10 -3 6 -10 10 -16 10 -5 0
-9 -4 -9 -10z"/>
<path d="M1885 840 c-3 -5 -2 -10 4 -10 5 0 13 5 16 10 3 6 2 10 -4 10 -5 0
-13 -4 -16 -10z"/>
<path d="M4850 840 c0 -5 7 -10 15 -10 8 0 15 5 15 10 0 6 -7 10 -15 10 -8 0
-15 -4 -15 -10z"/>
<path d="M1785 830 c3 -5 10 -10 16 -10 5 0 9 5 9 10 0 6 -7 10 -16 10 -8 0
-12 -4 -9 -10z"/>
<path d="M1915 830 c-3 -5 3 -10 14 -10 12 0 21 5 21 10 0 6 -6 10 -14 10 -8
0 -18 -4 -21 -10z"/>
<path d="M3660 830 c0 -5 9 -10 20 -10 11 0 20 5 20 10 0 6 -9 10 -20 10 -11
0 -20 -4 -20 -10z"/>
<path d="M4810 830 c0 -5 7 -10 15 -10 8 0 15 5 15 10 0 6 -7 10 -15 10 -8 0
-15 -4 -15 -10z"/>
<path d="M1750 820 c0 -5 7 -10 16 -10 8 0 12 5 9 10 -3 6 -10 10 -16 10 -5 0
-9 -4 -9 -10z"/>
<path d="M1960 820 c0 -5 7 -10 15 -10 8 0 15 5 15 10 0 6 -7 10 -15 10 -8 0
-15 -4 -15 -10z"/>
<path d="M3710 820 c0 -5 9 -10 20 -10 11 0 20 5 20 10 0 6 -9 10 -20 10 -11
0 -20 -4 -20 -10z"/>
<path d="M4770 820 c0 -5 7 -10 15 -10 8 0 15 5 15 10 0 6 -7 10 -15 10 -8 0
-15 -4 -15 -10z"/>
<path d="M1715 810 c3 -5 10 -10 16 -10 5 0 9 5 9 10 0 6 -7 10 -16 10 -8 0
-12 -4 -9 -10z"/>
<path d="M2000 810 c0 -5 7 -10 15 -10 8 0 15 5 15 10 0 6 -7 10 -15 10 -8 0
-15 -4 -15 -10z"/>
<path d="M3320 810 c0 -6 -4 -8 -10 -5 -5 3 -22 0 -36 -8 -17 -9 -23 -17 -15
-21 6 -4 11 -2 11 4 0 6 4 8 10 5 5 -3 22 0 36 8 17 9 23 17 15 21 -6 4 -11 2
-11 -4z"/>
<path d="M3760 810 c0 -5 6 -10 14 -10 8 0 18 5 21 10 3 6 -3 10 -14 10 -12 0
-21 -4 -21 -10z"/>
<path d="M4735 810 c3 -5 10 -10 16 -10 5 0 9 5 9 10 0 6 -7 10 -16 10 -8 0
-12 -4 -9 -10z"/>
<path d="M1680 800 c0 -5 7 -10 16 -10 8 0 12 5 9 10 -3 6 -10 10 -16 10 -5 0
-9 -4 -9 -10z"/>
<path d="M2040 800 c0 -5 6 -10 14 -10 8 0 18 5 21 10 3 6 -3 10 -14 10 -12 0
-21 -4 -21 -10z"/>
<path d="M3805 800 c-3 -5 3 -10 14 -10 12 0 21 5 21 10 0 6 -6 10 -14 10 -8
0 -18 -4 -21 -10z"/>
<path d="M4695 800 c3 -5 13 -10 21 -10 8 0 12 5 9 10 -3 6 -13 10 -21 10 -8
0 -12 -4 -9 -10z"/>
<path d="M1645 790 c3 -5 10 -10 16 -10 5 0 9 5 9 10 0 6 -7 10 -16 10 -8 0
-12 -4 -9 -10z"/>
<path d="M2085 790 c-3 -5 1 -10 9 -10 8 0 18 5 21 10 3 6 -1 10 -9 10 -8 0
-18 -4 -21 -10z"/>
<path d="M3855 790 c-3 -5 3 -10 14 -10 12 0 21 5 21 10 0 6 -6 10 -14 10 -8
0 -18 -4 -21 -10z"/>
<path d="M4655 790 c3 -5 13 -10 21 -10 8 0 12 5 9 10 -3 6 -13 10 -21 10 -8
0 -12 -4 -9 -10z"/>
<path d="M1610 783 c0 -5 -14 -9 -32 -9 -18 -1 -34 -6 -36 -12 -2 -6 -10 -8
-18 -5 -8 3 -14 0 -14 -7 0 -14 53 -4 58 11 2 5 8 7 12 4 14 -8 61 6 54 16 -6
11 -24 12 -24 2z"/>
<path d="M2125 780 c-3 -5 1 -10 9 -10 8 0 18 5 21 10 3 6 -1 10 -9 10 -8 0
-18 -4 -21 -10z"/>
<path d="M3900 780 c0 -5 9 -10 20 -10 11 0 20 5 20 10 0 6 -9 10 -20 10 -11
0 -20 -4 -20 -10z"/>
<path d="M3973 783 c-13 -2 -23 -9 -23 -15 0 -6 7 -7 18 -2 9 4 27 8 39 8 11
1 19 4 16 9 -4 7 -12 7 -50 0z"/>
<path d="M4620 780 c0 -5 7 -10 16 -10 8 0 12 5 9 10 -3 6 -10 10 -16 10 -5 0
-9 -4 -9 -10z"/>
<path d="M2165 770 c-3 -5 3 -10 14 -10 12 0 21 5 21 10 0 6 -6 10 -14 10 -8
0 -18 -4 -21 -10z"/>
<path d="M4284 773 c-177 -3 -245 -7 -252 -16 -8 -9 41 -11 233 -9 199 2 245
5 255 17 7 8 11 14 9 13 -2 -2 -113 -4 -245 -5z"/>
<path d="M4580 770 c0 -5 7 -10 15 -10 8 0 15 5 15 10 0 6 -7 10 -15 10 -8 0
-15 -4 -15 -10z"/>
<path d="M2210 760 c0 -5 7 -10 15 -10 8 0 15 5 15 10 0 6 -7 10 -15 10 -8 0
-15 -4 -15 -10z"/>
<path d="M2250 750 c0 -5 7 -10 15 -10 8 0 15 5 15 10 0 6 -7 10 -15 10 -8 0
-15 -4 -15 -10z"/>
<path d="M3190 750 c0 -6 -4 -8 -10 -5 -5 3 -22 0 -36 -8 -17 -9 -23 -17 -15
-21 6 -4 11 -2 11 4 0 6 4 8 10 5 5 -3 22 0 36 8 17 9 23 17 15 21 -6 4 -11 2
-11 -4z"/>
<path d="M1475 740 c3 -5 10 -10 16 -10 5 0 9 5 9 10 0 6 -7 10 -16 10 -8 0
-12 -4 -9 -10z"/>
<path d="M2290 739 c0 -6 9 -9 20 -6 11 3 20 1 20 -4 0 -5 7 -9 15 -9 23 0 18
17 -7 24 -34 9 -48 7 -48 -5z"/>
<path d="M2377 743 c-3 -5 5 -8 18 -8 13 0 21 3 18 8 -2 4 -10 7 -18 7 -8 0
-16 -3 -18 -7z"/>
<path d="M4540 740 c-23 -7 -23 -8 -3 -9 12 -1 25 4 28 9 3 6 5 10 3 9 -2 -1
-14 -5 -28 -9z"/>
<path d="M1440 730 c0 -5 7 -10 16 -10 8 0 12 5 9 10 -3 6 -10 10 -16 10 -5 0
-9 -4 -9 -10z"/>
<path d="M1405 720 c3 -5 10 -10 16 -10 5 0 9 5 9 10 0 6 -7 10 -16 10 -8 0
-12 -4 -9 -10z"/>
<path d="M1293 704 c-3 -8 2 -23 11 -32 15 -15 18 -15 39 6 19 19 20 24 7 32
-23 15 -50 12 -57 -6z m51 -3 c8 -12 -21 -34 -34 -26 -17 11 -11 35 9 35 11 0
22 -4 25 -9z"/>
<path d="M1370 710 c0 -5 7 -10 16 -10 8 0 12 5 9 10 -3 6 -10 10 -16 10 -5 0
-9 -4 -9 -10z"/>
<path d="M2417 709 c-10 -6 -25 -8 -33 -5 -9 3 -12 2 -9 -4 4 -6 21 -8 38 -5
18 4 100 -5 183 -19 168 -29 174 -29 174 -18 0 4 -64 18 -142 31 -79 12 -154
25 -168 27 -14 2 -33 -1 -43 -7z"/>
<path d="M3080 700 c0 -6 -4 -8 -10 -5 -5 3 -26 -3 -46 -13 -23 -12 -33 -22
-25 -26 6 -4 11 -2 11 4 0 6 5 8 10 5 6 -3 10 -1 10 5 0 6 4 8 10 5 5 -3 22 0
36 8 17 9 23 17 15 21 -6 4 -11 2 -11 -4z"/>
<path d="M2780 652 c0 -8 70 -22 109 -22 14 1 14 2 1 9 -23 13 -110 23 -110
13z"/>
<path d="M2942 647 c19 -15 12 -32 -17 -40 -18 -4 -18 -5 2 -6 13 -1 27 7 33
19 8 16 6 21 -12 30 -20 10 -21 9 -6 -3z"/>
</g>
</svg>
