<svg id="Layer_1" data-name="Layer 1" xmlns="http://www.w3.org/2000/svg" viewBox="0 0 340.54 232.67"><defs><style>.cls-1{fill:#f2f2f2}.cls-2{fill:#b9955d}.cls-3{fill:#664624}.cls-4{fill:#fff}</style></defs><ellipse class="cls-1" cx="275.42" cy="221.78" rx="51.66" ry="10.89"/><g id="money"><path class="cls-2" d="M372.43 122.81c-10.42-35-42.2-48.31-42.2-48.31l2.21-5s20.1-34 19.46-37.08-11.7-2.8-16.56.7a20.14 20.14 0 0 1-6.72 3.25s-6.43-7.52-15.5-9.44c-12.65-2.68-27.95.83-30.26 4.95 15.21 15.35 17.84 35.08 17.84 35.08l3.73 5.64s-29.12 12.75-40.46 48c-12.81 39.73-25.09 112.22 55.63 112.77s64.8-70.28 52.83-110.56z" transform="translate(-41.73 -25.95)"/><path class="cls-3" d="M291.86 42.57l1.22 7.85-37.08-.81 2.34-8.52 33.52 1.48z"/><path class="cls-4" d="M314.4 211.67l.06-11.33c-6.91-.17-13.93-2.2-18.49-5.07a1.53 1.53 0 0 1-.62-1.82l2.07-5.71a1.53 1.53 0 0 1 2.21-.79 34.66 34.66 0 0 0 16.81 4.65c9.13.05 15.32-5.2 15.36-12.53 0-7.07-5-11.47-14.46-15.38-13.08-5.21-21.16-11.3-21.1-22.48.05-10.69 7.67-18.74 19.39-20.62l.06-11.34a1.51 1.51 0 0 1 1.53-1.51h5.06a1.52 1.52 0 0 1 1.51 1.53l-.05 11a35.49 35.49 0 0 1 15.5 3.93 1.52 1.52 0 0 1 .71 1.9l-2.14 5.58a1.53 1.53 0 0 1-2.16.79 30.43 30.43 0 0 0-14.65-3.75c-9.9-.05-13.66 5.85-13.69 11.13 0 6.55 4.71 9.92 15.88 14.74 13.22 5.46 19.87 12.06 19.81 23.51-.05 10.28-7.17 19.77-20.43 21.76l-.06 11.85a1.53 1.53 0 0 1-1.53 1.52h-5.05a1.52 1.52 0 0 1-1.53-1.56z" transform="translate(-41.73 -25.95)"/><path class="cls-3" d="M286.89 46.49l27.1 36.67-4.62 2.22-25.23-37.72 2.75-1.17z"/><path class="cls-3" d="M281.39 47.74l1.11 28.28 4.39.94-2.05-29.25-3.45.03z"/></g><ellipse class="cls-1" cx="140.87" cy="224.18" rx="40.26" ry="8.48"/><g id="money-2" data-name="money"><path class="cls-2" d="M225.67 152.8c-8.11-27.3-32.88-37.65-32.88-37.65l1.72-3.93s15.66-26.52 15.17-28.89-9.12-2.19-12.91.55a15.66 15.66 0 0 1-5.23 2.52s-5-5.85-12.09-7.35c-9.85-2.09-21.77.65-23.57 3.86a52.89 52.89 0 0 1 13.9 27.33l2.9 4.39S150 123.57 141.16 151c-10 31-19.56 87.45 43.34 87.87s50.5-54.69 41.17-86.07z" transform="translate(-41.73 -25.95)"/><path class="cls-3" d="M153.68 84.54l.95 6.11-28.9-.62 1.83-6.64 26.12 1.15z"/><path class="cls-4" d="M180.45 222l.05-8.84a29.73 29.73 0 0 1-14.4-3.95 1.18 1.18 0 0 1-.49-1.41l1.62-4.45a1.19 1.19 0 0 1 1.72-.62A27 27 0 0 0 182 206.4c7.12 0 12-4.06 12-9.77 0-5.51-3.86-8.94-11.26-12-10.2-4.07-16.49-8.81-16.45-17.52 0-8.33 6-14.6 15.11-16.07l.05-8.83a1.18 1.18 0 0 1 1.19-1.18h3.94a1.19 1.19 0 0 1 1.19 1.19l-.05 8.54a27.58 27.58 0 0 1 12.08 3.06 1.2 1.2 0 0 1 .56 1.48l-1.68 4.35a1.18 1.18 0 0 1-1.67.62 23.63 23.63 0 0 0-11.43-2.91c-7.72 0-10.64 4.56-10.67 8.67 0 5.11 3.67 7.73 12.38 11.49 10.3 4.25 15.48 9.4 15.43 18.31 0 8-5.58 15.41-15.91 17v9.24a1.19 1.19 0 0 1-1.19 1.18h-3.94a1.19 1.19 0 0 1-1.23-1.25z" transform="translate(-41.73 -25.95)"/><path class="cls-3" d="M149.81 87.59l21.11 28.57-3.6 1.74-19.66-29.39 2.15-.92z"/><path class="cls-3" d="M145.52 88.57l.86 22.03 3.43.74-1.6-22.79-2.69.02z"/></g><path class="cls-1" d="M104.83 252.6c0 3.32-12.78 6-28.55 6s-28.56-2.7-28.56-6 12.79-6 28.56-6 28.55 2.68 28.55 6z" transform="translate(-41.73 -25.95)"/><g id="money-3" data-name="money"><path class="cls-2" d="M106.83 183.55c-5.76-19.36-23.33-26.7-23.33-26.7l1.23-2.79s11.11-18.81 10.76-20.49S89 132 86.33 134a11.25 11.25 0 0 1-3.71 1.79 17.57 17.57 0 0 0-8.57-5.22c-7-1.48-15.45.46-16.73 2.74a37.47 37.47 0 0 1 9.86 19.39l2.06 3.11a45.11 45.11 0 0 0-22.36 26.51c-7.08 22-13.87 62 30.75 62.33s35.82-38.83 29.2-61.1z" transform="translate(-41.73 -25.95)"/><path class="cls-3" d="M43.63 127.59l.68 4.34-20.5-.44 1.29-4.71 18.53.81z"/><path class="cls-4" d="M74.76 232.67v-6.27a21.17 21.17 0 0 1-10.22-2.8.83.83 0 0 1-.34-1l1.14-3.16a.84.84 0 0 1 1.22-.44 19.11 19.11 0 0 0 9.29 2.57c5.05 0 8.47-2.87 8.49-6.92s-2.74-6.34-8-8.5c-7.23-2.88-11.7-6.25-11.66-12.43 0-5.9 4.24-10.36 10.72-11.4v-6.26a.84.84 0 0 1 .84-.84h2.8a.85.85 0 0 1 .84.85v6.06a19.46 19.46 0 0 1 8.56 2.17.85.85 0 0 1 .4 1.05l-1.19 3.08a.84.84 0 0 1-1.19.44 16.76 16.76 0 0 0-8.1-2.06c-5.48 0-7.55 3.23-7.57 6.15 0 3.62 2.6 5.48 8.78 8.15 7.31 3 11 6.66 11 13 0 5.69-4 10.93-11.29 12v6.55a.85.85 0 0 1-.85.84h-2.8a.85.85 0 0 1-.87-.83z" transform="translate(-41.73 -25.95)"/><path class="cls-3" d="M40.89 129.76l14.97 20.27-2.55 1.23-13.94-20.85 1.52-.65z"/><path class="cls-3" d="M37.84 130.45l.62 15.63 2.43.52-1.14-16.16-1.91.01z"/></g></svg>