<svg id="Layer_1" data-name="Layer 1" xmlns="http://www.w3.org/2000/svg" viewBox="0 0 400 231.5"><defs><style>.cls-1{fill:#97bd00;}.cls-2{fill:#690;}</style></defs><title>shutterstock_1228690807 money [Converted]</title><path class="cls-1" d="M127,289.5a17.05,17.05,0,1,0-19.12-19.14A17.07,17.07,0,0,0,127,289.5Z" transform="translate(-55 -139.25)"/><path class="cls-1" d="M350.72,289.66a17.06,17.06,0,1,0-19.11-19.15A17.1,17.1,0,0,0,350.72,289.66Z" transform="translate(-55 -139.25)"/><path class="cls-1" d="M257.32,322.11a49.81,49.81,0,0,0,29.92-29.88c15.89-44.05-24.84-84.84-68.91-69a49.77,49.77,0,0,0-29.92,29.87C172.51,297.16,213.25,338,257.32,322.11Zm-37.44-38.05h10.85a7.28,7.28,0,0,0,2.15,5.14,6.89,6.89,0,0,0,5.06,2.07,6.77,6.77,0,0,0,5.05-2.11,7,7,0,0,0,2.07-5.11,6.12,6.12,0,0,0-.57-2.57,8.9,8.9,0,0,0-2.44-3.14,13.84,13.84,0,0,0-2.86-1.27c-.22-.05-.46-.12-.71-.2a5.47,5.47,0,0,0-.7-.21,31.24,31.24,0,0,1-11.05-5.58q-4.51-3.65-4.51-11.29a16.72,16.72,0,0,1,1-5.85,14.61,14.61,0,0,1,3.15-5,2.06,2.06,0,0,1,.21-.21,1,1,0,0,0,.2-.29,17.14,17.14,0,0,1,2.94-2.43,7.12,7.12,0,0,1,3.53-1.19V233.87h10.36v10.85a16.39,16.39,0,0,1,7.29,5.52,15.87,15.87,0,0,1,3.05,8.57l-10.35-.09a6.47,6.47,0,0,0-1.86-3.43,5.24,5.24,0,0,0-3.77-1.38,5.61,5.61,0,0,0-3.24,10,19.52,19.52,0,0,0,4.72,2.24l.5.17.5.16a8.84,8.84,0,0,0,.87.3,8.07,8.07,0,0,1,.87.29c1.43.44,2.83.94,4.18,1.49a14.28,14.28,0,0,1,3.85,2.41,15.13,15.13,0,0,1,4.26,5.9,19.19,19.19,0,0,1,1.36,7.22,18.73,18.73,0,0,1-1,6.31,17,17,0,0,1-3.31,5.47A18.79,18.79,0,0,1,248,299a12.35,12.35,0,0,1-4.39,1.82v10.94H233.2v-11a15.37,15.37,0,0,1-9.4-5.43,15.07,15.07,0,0,1-4-10.15Z" transform="translate(-55 -139.25)"/><path class="cls-1" d="M64.87,360.65l345.79.23.12-176.19L65,184.46Zm7.37-139a31.15,31.15,0,0,0,31.17-31.13l268.94.19a31.15,31.15,0,0,0,31.13,31.17l-.07,101.73a31.13,31.13,0,0,0-31.17,31.12l-268.94-.18a31.15,31.15,0,0,0-31.13-31.17Z" transform="translate(-55 -139.25)"/><path class="cls-2" d="M420.65,174.84l-365.52-.25L55,370.5l365.51.25h0l.13-195.91Zm-10,186-345.79-.23L65,184.46l345.79.23Z" transform="translate(-55 -139.25)"/><path class="cls-2" d="M103.3,354.59l268.94.18a31.13,31.13,0,0,1,31.17-31.12l.07-101.73a31.15,31.15,0,0,1-31.13-31.17l-268.94-.19a31.15,31.15,0,0,1-31.17,31.13l-.07,101.73A31.15,31.15,0,0,1,103.3,354.59Zm228.31-84.08a17.06,17.06,0,1,1,19.11,19.15A17.08,17.08,0,0,1,331.61,270.51ZM188.41,253.1a49.77,49.77,0,0,1,29.92-29.87c44.07-15.84,84.8,25,68.91,69a49.81,49.81,0,0,1-29.92,29.88C213.25,338,172.51,297.16,188.41,253.1Zm-80.56,17.26A17.06,17.06,0,1,1,127,289.5,17.09,17.09,0,0,1,107.85,270.36Z" transform="translate(-55 -139.25)"/><path class="cls-2" d="M233.21,300.71v11h10.35V300.8A12.35,12.35,0,0,0,248,299a18.79,18.79,0,0,0,3.57-3.07,17,17,0,0,0,3.31-5.47,18.73,18.73,0,0,0,1-6.31,19.19,19.19,0,0,0-1.36-7.22,15.13,15.13,0,0,0-4.26-5.9,14.28,14.28,0,0,0-3.85-2.41c-1.35-.55-2.75-1.05-4.18-1.49a8.07,8.07,0,0,0-.87-.29,8.84,8.84,0,0,1-.87-.3l-.5-.16-.5-.17a19.52,19.52,0,0,1-4.72-2.24,5.6,5.6,0,0,1,3.24-10,5.24,5.24,0,0,1,3.77,1.38,6.47,6.47,0,0,1,1.86,3.43l10.35.09a15.87,15.87,0,0,0-3.05-8.57,16.39,16.39,0,0,0-7.29-5.52V233.88H233.25V244.8a7.12,7.12,0,0,0-3.53,1.19,17.14,17.14,0,0,0-2.94,2.43,1,1,0,0,1-.2.29,2.06,2.06,0,0,0-.21.21,14.61,14.61,0,0,0-3.15,5,16.72,16.72,0,0,0-1,5.85q0,7.63,4.51,11.29a31.24,31.24,0,0,0,11.05,5.58,5.47,5.47,0,0,1,.7.21c.25.08.49.15.71.2a13.84,13.84,0,0,1,2.86,1.27,8.9,8.9,0,0,1,2.44,3.14,6.12,6.12,0,0,1,.57,2.57,7,7,0,0,1-2.07,5.11,6.77,6.77,0,0,1-5.05,2.11,6.89,6.89,0,0,1-5.06-2.07,7.28,7.28,0,0,1-2.15-5.14H219.88l-.08,1.07a15.07,15.07,0,0,0,4,10.15A15.37,15.37,0,0,0,233.21,300.71Z" transform="translate(-55 -139.25)"/><polygon class="cls-2" points="17.72 18.37 17.72 28.23 374.07 28.46 373.95 201.32 383.82 201.32 383.94 18.61 383.94 18.61 17.72 18.37"/><polygon class="cls-2" points="400 0.24 33.78 0 33.78 9.86 390.13 10.1 390.01 182.95 399.88 182.95 400 0.24 400 0.24"/></svg>