<svg id="Layer_1" data-name="Layer 1" xmlns="http://www.w3.org/2000/svg" viewBox="0 0 340.54 232.67"><defs><style>.cls-1{fill:#f2f2f2;}.cls-2{fill:#b9955d;}.cls-3{fill:#664624;}.cls-4{fill:#fff;}</style></defs><title>shutterstock_432613189 bags money [Converted]</title><ellipse class="cls-1" cx="275.42" cy="221.78" rx="51.66" ry="10.89"/><g id="money"><path class="cls-2" d="M372.43,122.81c-10.42-35-42.2-48.31-42.2-48.31l2.21-5s20.1-34,19.46-37.08-11.7-2.8-16.56.7a20.14,20.14,0,0,1-6.72,3.25s-6.43-7.52-15.5-9.44c-12.65-2.68-27.95.83-30.26,4.95,15.21,15.35,17.84,35.08,17.84,35.08l3.73,5.64s-29.12,12.75-40.46,48c-12.81,39.73-25.09,112.22,55.63,112.77S384.4,163.09,372.43,122.81Z" transform="translate(-41.73 -25.95)"/><polygon class="cls-3" points="291.86 42.57 293.08 50.42 256 49.61 258.34 41.09 291.86 42.57"/><path class="cls-4" d="M314.4,211.67l.06-11.33c-6.91-.17-13.93-2.2-18.49-5.07a1.53,1.53,0,0,1-.62-1.82l2.07-5.71a1.53,1.53,0,0,1,2.21-.79,34.66,34.66,0,0,0,16.81,4.65c9.13.05,15.32-5.2,15.36-12.53,0-7.07-5-11.47-14.46-15.38-13.08-5.21-21.16-11.3-21.1-22.48.05-10.69,7.67-18.74,19.39-20.62l.06-11.34a1.51,1.51,0,0,1,1.53-1.51l5.06,0a1.52,1.52,0,0,1,1.51,1.53l-.05,11a35.49,35.49,0,0,1,15.5,3.93,1.52,1.52,0,0,1,.71,1.9l-2.14,5.58a1.53,1.53,0,0,1-2.16.79A30.43,30.43,0,0,0,321,128.72c-9.9-.05-13.66,5.85-13.69,11.13,0,6.55,4.71,9.92,15.88,14.74,13.22,5.46,19.87,12.06,19.81,23.51-.05,10.28-7.17,19.77-20.43,21.76l-.06,11.85a1.53,1.53,0,0,1-1.53,1.52l-5.05,0A1.52,1.52,0,0,1,314.4,211.67Z" transform="translate(-41.73 -25.95)"/><polygon class="cls-3" points="286.89 46.49 313.99 83.16 309.37 85.38 284.14 47.66 286.89 46.49"/><polygon class="cls-3" points="281.39 47.74 282.5 76.02 286.89 76.96 284.84 47.71 281.39 47.74"/></g><ellipse class="cls-1" cx="140.87" cy="224.18" rx="40.26" ry="8.48"/><g id="money-2" data-name="money"><path class="cls-2" d="M225.67,152.8c-8.11-27.3-32.88-37.65-32.88-37.65l1.72-3.93s15.66-26.52,15.17-28.89-9.12-2.19-12.91.55a15.66,15.66,0,0,1-5.23,2.52s-5-5.85-12.09-7.35c-9.85-2.09-21.77.65-23.57,3.86a52.89,52.89,0,0,1,13.9,27.33l2.9,4.39S150,123.57,141.16,151c-10,31-19.56,87.45,43.34,87.87S235,184.18,225.67,152.8Z" transform="translate(-41.73 -25.95)"/><polygon class="cls-3" points="153.68 84.54 154.63 90.65 125.73 90.03 127.56 83.39 153.68 84.54"/><path class="cls-4" d="M180.45,222l.05-8.84a29.73,29.73,0,0,1-14.4-3.95,1.18,1.18,0,0,1-.49-1.41l1.62-4.45a1.19,1.19,0,0,1,1.72-.62A27,27,0,0,0,182,206.4c7.12,0,12-4.06,12-9.77,0-5.51-3.86-8.94-11.26-12-10.2-4.07-16.49-8.81-16.45-17.52,0-8.33,6-14.6,15.11-16.07l.05-8.83a1.18,1.18,0,0,1,1.19-1.18l3.94,0a1.19,1.19,0,0,1,1.19,1.19l-.05,8.54a27.58,27.58,0,0,1,12.08,3.06,1.2,1.2,0,0,1,.56,1.48l-1.68,4.35a1.18,1.18,0,0,1-1.67.62,23.63,23.63,0,0,0-11.43-2.91c-7.72,0-10.64,4.56-10.67,8.67,0,5.11,3.67,7.73,12.38,11.49,10.3,4.25,15.48,9.4,15.43,18.31,0,8-5.58,15.41-15.91,17l0,9.24a1.19,1.19,0,0,1-1.19,1.18l-3.94,0A1.19,1.19,0,0,1,180.45,222Z" transform="translate(-41.73 -25.95)"/><polygon class="cls-3" points="149.81 87.59 170.92 116.16 167.32 117.9 147.66 88.51 149.81 87.59"/><polygon class="cls-3" points="145.52 88.57 146.38 110.6 149.81 111.34 148.21 88.55 145.52 88.57"/></g><path class="cls-1" d="M104.83,252.6c0,3.32-12.78,6-28.55,6s-28.56-2.7-28.56-6,12.79-6,28.56-6S104.83,249.28,104.83,252.6Z" transform="translate(-41.73 -25.95)"/><g id="money-3" data-name="money"><path class="cls-2" d="M106.83,183.55c-5.76-19.36-23.33-26.7-23.33-26.7l1.23-2.79s11.11-18.81,10.76-20.49S89,132,86.33,134a11.25,11.25,0,0,1-3.71,1.79,17.57,17.57,0,0,0-8.57-5.22c-7-1.48-15.45.46-16.73,2.74a37.47,37.47,0,0,1,9.86,19.39l2.06,3.11a45.11,45.11,0,0,0-22.36,26.51c-7.08,22-13.87,62,30.75,62.33S113.45,205.82,106.83,183.55Z" transform="translate(-41.73 -25.95)"/><polygon class="cls-3" points="43.63 127.59 44.31 131.93 23.81 131.49 25.1 126.78 43.63 127.59"/><path class="cls-4" d="M74.76,232.67l0-6.27a21.17,21.17,0,0,1-10.22-2.8.83.83,0,0,1-.34-1l1.14-3.16a.84.84,0,0,1,1.22-.44,19.11,19.11,0,0,0,9.29,2.57c5.05,0,8.47-2.87,8.49-6.92s-2.74-6.34-8-8.5c-7.23-2.88-11.7-6.25-11.66-12.43,0-5.9,4.24-10.36,10.72-11.4l0-6.26a.84.84,0,0,1,.84-.84h2.8a.85.85,0,0,1,.84.85l0,6.06a19.46,19.46,0,0,1,8.56,2.17.85.85,0,0,1,.4,1.05l-1.19,3.08a.84.84,0,0,1-1.19.44,16.76,16.76,0,0,0-8.1-2.06c-5.48,0-7.55,3.23-7.57,6.15,0,3.62,2.6,5.48,8.78,8.15,7.31,3,11,6.66,11,13,0,5.69-4,10.93-11.29,12l0,6.55a.85.85,0,0,1-.85.84h-2.8A.85.85,0,0,1,74.76,232.67Z" transform="translate(-41.73 -25.95)"/><polygon class="cls-3" points="40.89 129.76 55.86 150.03 53.31 151.26 39.37 130.41 40.89 129.76"/><polygon class="cls-3" points="37.84 130.45 38.46 146.08 40.89 146.6 39.75 130.44 37.84 130.45"/></g></svg>