<?xml version="1.0" standalone="no"?>
<!DOCTYPE svg PUBLIC "-//W3C//DTD SVG 20010904//EN"
 "http://www.w3.org/TR/2001/REC-SVG-20010904/DTD/svg10.dtd">
<svg version="1.0" xmlns="http://www.w3.org/2000/svg"
 width="640.000000pt" height="360.000000pt" viewBox="0 0 640.000000 360.000000"
 preserveAspectRatio="xMidYMid meet">

<g transform="translate(0.000000,360.000000) scale(0.100000,-0.100000)"
fill="#000000" stroke="none">
<path d="M426 2759 c-3 -8 -100 -301 -216 -652 l-210 -638 0 -734 0 -735 878
0 877 1 359 562 c198 309 361 567 363 573 2 7 -4 15 -14 18 -10 4 -246 129
-525 278 l-508 271 141 275 c78 151 137 277 132 282 -6 5 -881 357 -1260 507
-7 3 -15 -1 -17 -8z"/>
<path d="M4190 2129 c-332 -170 -607 -313 -611 -317 -4 -4 232 -412 525 -907
l533 -900 881 -3 882 -2 0 709 0 709 -124 427 c-68 235 -127 429 -129 432 -4
4 -642 -234 -1088 -405 l-26 -10 -113 281 c-62 155 -116 285 -119 289 -3 4
-278 -133 -611 -303z"/>
</g>
</svg>
