<svg id="Layer_1" data-name="Layer 1" xmlns="http://www.w3.org/2000/svg" viewBox="0 0 567.14 486.23"><defs><style>.cls-1{fill:#f8f7fc;}.cls-2{fill:#91c887;}.cls-10,.cls-11,.cls-12,.cls-13,.cls-14,.cls-15,.cls-16,.cls-17,.cls-18,.cls-19,.cls-2,.cls-20,.cls-21,.cls-22,.cls-23,.cls-24,.cls-25,.cls-26,.cls-27,.cls-28,.cls-29,.cls-3,.cls-30,.cls-31,.cls-32,.cls-33,.cls-34,.cls-4,.cls-5,.cls-6,.cls-7,.cls-8,.cls-9{fill-rule:evenodd;}.cls-3{fill:#6cb45c;}.cls-4{fill:#557c84;}.cls-5{fill:#61929b;}.cls-6{fill:#8f0049;}.cls-7{fill:#c63a25;}.cls-8{fill:#da4b32;}.cls-9{fill:#87bda6;}.cls-10{fill:#afd4c3;}.cls-11{fill:#b8c7c6;}.cls-12{fill:#a0aa64;}.cls-13{fill:#b9c18d;}.cls-14{fill:#91205a;}.cls-15{fill:#a72668;}.cls-16{fill:#f8891b;}.cls-17{fill:#f99a3b;}.cls-18{fill:#ab3220;}.cls-19{fill:#faa857;}.cls-20{fill:#fadfbb;}.cls-21{fill:#87adb3;}.cls-22{fill:#f84b76;}.cls-23{fill:#f9688e;}.cls-24{fill:#f5b7bb;}.cls-25{fill:#df3c65;}.cls-26{fill:#5a8c25;}.cls-27{fill:#71aa36;}.cls-28{fill:#80bd41;}.cls-29{fill:#51851b;}.cls-30{fill:#659e2a;}.cls-31{fill:#74b135;}.cls-32{fill:#bbdbaf;}.cls-33{fill:#0d723f;}.cls-34{fill:#0d8835;}</style></defs><title>shutterstock_194627552 town [Converted]</title><rect class="cls-1" width="567.14" height="486.23"/><path class="cls-2" d="M114.63,130.43h314c47.05,0,50.49,29.83,1.14,29.83H282.17c-32.58,0-32.59,41.87,0,41.87H473.38c18.57,0,28.69,9.59,29.19,19.69,1.05,21,17.61,22.86,35.76,22.7,39-.35,39,42.3,0,42.45-21,.08-35.76,6.24-35.83,18.46-.07,11.4-8.23,23.47-29.12,23.47H224.82c-50,0-47.13,41.42-.39,41.73l239.78,1.62c141.92,1,118.49,95.91,24,96.63h21.54c39,0,39,42.34,0,42.45L62.43,512.51c-39,.1-39-42.26,0-42.45L304,468.88c61.51-.31,63.83-55.91-.16-55.88l-199.51.13c-70.92,0-75.94-84.21-2.85-84.56l47.64-.22c-40.55.12-48.41-40.75,1.7-41l196-.92c29.53-.14,29.52-41.87,0-41.87H220.18c-37.14,0-38.93-38.45-5.38-42.16h-99c-82.64,0-80.76-72-1.14-72Z" transform="translate(-13.63 -54.29)"/><path class="cls-2" d="M77,214.75h71.66c32.58,0,36,29.83,1.15,29.83H76c-33.5,0-33.76-29.83,1-29.83Z" transform="translate(-13.63 -54.29)"/><path class="cls-3" d="M128.44,138.41H229.19c32.58,0,36,29.83,1.15,29.83H127.44c-33.5,0-33.76-29.83,1-29.83Z" transform="translate(-13.63 -54.29)"/><path class="cls-3" d="M384.24,295.13l138.71-.4c32.58-.1,36,22.13,1.15,22.23l-140.86.4c-33.5.1-33.76-22.13,1-22.23Z" transform="translate(-13.63 -54.29)"/><path class="cls-3" d="M282.43,208.58l131.69-.38c32.57-.09,36,22.14,1.14,22.24l-133.83.38c-33.5.09-33.76-22.14,1-22.24Z" transform="translate(-13.63 -54.29)"/><path class="cls-3" d="M436.44,470.36H508.1c32.58,0,36,29.83,1.15,29.83H435.44c-33.5,0-33.76-29.83,1-29.83Z" transform="translate(-13.63 -54.29)"/><path class="cls-3" d="M76.53,480.26l173.76-.33c35.75-.07,39.19,22.16,1.15,22.23l-175.92.34c-25.24.05-24.4-22.19,1-22.24Z" transform="translate(-13.63 -54.29)"/><path class="cls-3" d="M64.34,291.11l101.74-.22c32.57-.07,36,29.76,1.14,29.83l-103.88.22c-33.5.07-33.76-29.76,1-29.83Z" transform="translate(-13.63 -54.29)"/><path class="cls-3" d="M383.27,415.57l138.7-.4c32.58-.09,36,22.14,1.15,22.24l-140.86.39c-33.5.1-33.76-22.13,1-22.23Z" transform="translate(-13.63 -54.29)"/><path class="cls-3" d="M350.07,385.63l102.48-.3c32.58-.09,36,22.14,1.15,22.24l-104.63.3c-33.5.09-33.76-22.14,1-22.24Z" transform="translate(-13.63 -54.29)"/><path class="cls-3" d="M107,136.09l173.92,1.33c35.25.28,35.78,13.31.91,13.05l-176.07-1.34c-33.5-.25-33.53-13.31,1.24-13Z" transform="translate(-13.63 -54.29)"/><path class="cls-3" d="M170,313.18l31.09.26c24.4.2,24.93,13.22.91,13l-33.24-.25c-22-.17-18.77-13.21,1.24-13.05Z" transform="translate(-13.63 -54.29)"/><path class="cls-3" d="M531.86,252.29l12.35.13c17.94.18,16.84,13.14-.72,13l-11.89-.09c-18.39-.14-16.12-13.25.26-13Z" transform="translate(-13.63 -54.29)"/><path class="cls-3" d="M408.57,143.68l8.87.09c12.89.13,12.09,9.44-.52,9.35l-8.54-.07c-13.21-.1-11.58-9.51.19-9.37Z" transform="translate(-13.63 -54.29)"/><path class="cls-3" d="M90.93,384.5l44,.34c18,.14,16.84,13.13-.72,13l-43.52-.3c-18.38-.13-16.11-13.17.26-13.05Z" transform="translate(-13.63 -54.29)"/><polygon class="cls-4" points="379.57 315.01 427.88 315.01 427.88 372.28 379.57 372.28 379.57 315.01 379.57 315.01"/><path class="cls-5" d="M393.2,375.15l46.5-4.75c.5,37.21-21.1,49.32-46.5,56.17V375.15Z" transform="translate(-13.63 -54.29)"/><polygon class="cls-6" points="398.86 352.97 408.59 352.97 408.59 372.28 398.86 372.28 398.86 352.97 398.86 352.97"/><polygon class="cls-7" points="381.97 302.08 425.48 302.08 427.88 315.01 379.57 315.01 381.97 302.08 381.97 302.08"/><path class="cls-8" d="M395.6,356.37h43.51c-13.59,6.53-29,10.7-45.91,12.92l2.4-12.92Z" transform="translate(-13.63 -54.29)"/><polygon class="cls-9" points="384.86 297.14 389.86 297.14 389.86 308.87 384.86 308.87 384.86 297.14 384.86 297.14"/><polygon class="cls-10" points="384.86 297.14 386.11 297.14 386.11 308.87 384.86 308.87 384.86 297.14 384.86 297.14"/><polygon class="cls-11" points="382.69 321.66 388.22 321.66 388.22 331.82 382.69 331.82 382.69 321.66 382.69 321.66"/><polygon class="cls-11" points="390.62 321.66 396.14 321.66 396.14 331.82 390.62 331.82 390.62 321.66 390.62 321.66"/><polygon class="cls-11" points="400.96 321.66 406.49 321.66 406.49 331.82 400.96 331.82 400.96 321.66 400.96 321.66"/><polygon class="cls-11" points="411.3 321.66 416.82 321.66 416.82 331.82 411.3 331.82 411.3 321.66 411.3 321.66"/><polygon class="cls-11" points="419.23 321.66 424.76 321.66 424.76 331.82 419.23 331.82 419.23 321.66 419.23 321.66"/><polygon class="cls-11" points="382.69 337.37 388.22 337.37 388.22 347.53 382.69 347.53 382.69 337.37 382.69 337.37"/><polygon class="cls-11" points="390.62 337.37 396.14 337.37 396.14 347.53 390.62 347.53 390.62 337.37 390.62 337.37"/><polygon class="cls-11" points="400.96 337.37 406.49 337.37 406.49 347.53 400.96 347.53 400.96 337.37 400.96 337.37"/><polygon class="cls-11" points="411.3 337.37 416.82 337.37 416.82 347.53 411.3 347.53 411.3 337.37 411.3 337.37"/><polygon class="cls-11" points="419.23 337.37 424.76 337.37 424.76 347.53 419.23 347.53 419.23 337.37 419.23 337.37"/><polygon class="cls-11" points="382.69 353.07 388.22 353.07 388.22 363.24 382.69 363.24 382.69 353.07 382.69 353.07"/><polygon class="cls-11" points="390.62 353.07 396.14 353.07 396.14 363.24 390.62 363.24 390.62 353.07 390.62 353.07"/><polygon class="cls-11" points="411.3 353.07 416.82 353.07 416.82 363.24 411.3 363.24 411.3 353.07 411.3 353.07"/><polygon class="cls-11" points="419.23 353.07 424.76 353.07 424.76 363.24 419.23 363.24 419.23 353.07 419.23 353.07"/><polygon class="cls-12" points="365.67 281.95 362.14 281.95 362.14 288.41 365.67 290.24 365.67 281.95 365.67 281.95"/><polygon class="cls-13" points="363.02 281.95 362.14 281.95 362.14 288.41 363.02 288.87 363.02 281.95 363.02 281.95"/><polygon class="cls-9" points="333.71 278.23 337.97 278.23 337.97 288.24 333.71 290.4 333.71 278.23 333.71 278.23"/><polygon class="cls-10" points="333.71 278.23 334.77 278.23 334.77 289.79 333.71 290.4 333.71 278.23 333.71 278.23"/><polygon class="cls-5" points="326.98 293.46 349.79 281.01 372.57 293.46 370.38 293.47 329.2 293.47 326.98 293.46 326.98 293.46"/><polygon class="cls-14" points="329.2 293.46 349.79 282.45 370.38 293.46 370.38 342.29 329.2 342.29 329.2 293.46 329.2 293.46"/><path class="cls-15" d="M342.83,353.77l20.59-16.07L384,348.48c-6.63,21.79-19.91,37.69-41.18,48.1V353.77Z" transform="translate(-13.63 -54.29)"/><polygon class="cls-11" points="331.86 299.14 336.57 299.14 336.57 307.8 331.86 307.8 331.86 299.14 331.86 299.14"/><polygon class="cls-11" points="338.62 299.14 343.33 299.14 343.33 307.8 338.62 307.8 338.62 299.14 338.62 299.14"/><polygon class="cls-11" points="356.25 299.14 360.96 299.14 360.96 307.8 356.25 307.8 356.25 299.14 356.25 299.14"/><polygon class="cls-11" points="363.01 299.14 367.72 299.14 367.72 307.8 363.01 307.8 363.01 299.14 363.01 299.14"/><polygon class="cls-11" points="331.86 312.53 336.57 312.53 336.57 321.19 331.86 321.19 331.86 312.53 331.86 312.53"/><polygon class="cls-11" points="338.62 312.53 343.33 312.53 343.33 321.19 338.62 321.19 338.62 312.53 338.62 312.53"/><polygon class="cls-11" points="356.25 312.53 360.96 312.53 360.96 321.19 356.25 321.19 356.25 312.53 356.25 312.53"/><polygon class="cls-11" points="363.01 312.53 367.72 312.53 367.72 321.19 363.01 321.19 363.01 312.53 363.01 312.53"/><polygon class="cls-11" points="331.86 325.92 336.57 325.92 336.57 334.58 331.86 334.58 331.86 325.92 331.86 325.92"/><polygon class="cls-11" points="338.62 325.92 343.33 325.92 343.33 334.58 338.62 334.58 338.62 325.92 338.62 325.92"/><polygon class="cls-11" points="356.25 325.92 360.96 325.92 360.96 334.58 356.25 334.58 356.25 325.92 356.25 325.92"/><polygon class="cls-11" points="363.01 325.92 367.72 325.92 367.72 334.58 363.01 334.58 363.01 325.92 363.01 325.92"/><polygon class="cls-16" points="82.26 204.5 76.5 204.5 76.5 219.08 82.26 222.1 82.26 204.5 82.26 204.5"/><polygon class="cls-16" points="74.25 209.02 70.12 209.02 70.12 219.35 74.25 221.5 74.25 209.02 74.25 209.02"/><polygon class="cls-17" points="77.94 204.5 76.5 204.5 76.5 219.08 77.94 219.83 77.94 204.5 77.94 204.5"/><polygon class="cls-17" points="71.16 209.02 70.12 209.02 70.12 219.35 71.16 219.89 71.16 209.02 71.16 209.02"/><polygon class="cls-18" points="59.45 217.86 116.29 217.86 116.31 228.89 51.32 228.89 59.45 217.86 59.45 217.86"/><polygon class="cls-8" points="113.69 216.59 140.45 201.98 167.17 216.59 164.6 216.59 116.29 216.59 113.69 216.59 113.69 216.59"/><path class="cls-8" d="M73.09,272.14h54.2c-19.12,5.62-40.19,9-62.34,11l8.14-11Z" transform="translate(-13.63 -54.29)"/><polygon class="cls-8" points="125.07 221.54 140.59 212.19 156.09 221.54 154.6 221.54 126.58 221.54 125.07 221.54 125.07 221.54"/><polygon class="cls-16" points="51.32 228.89 116.31 228.89 116.31 257.52 51.32 257.52 51.32 228.89 51.32 228.89"/><path class="cls-17" d="M65,287.61l62.48-3.21C114.19,297.68,86.2,308,65,311.81v-24.2Z" transform="translate(-13.63 -54.29)"/><polygon class="cls-17" points="116.29 216.59 140.44 203.66 164.6 216.59 164.6 257.52 116.29 257.52 116.29 216.59 116.29 216.59"/><polygon class="cls-19" points="116.29 217.42 140.44 204.5 164.6 217.42 164.6 238.21 154.6 221.54 126.44 257.52 116.29 228.89 116.29 217.42 116.29 217.42"/><polygon class="cls-16" points="126.58 221.54 140.59 213.27 154.6 221.54 154.46 257.52 126.44 257.52 126.58 221.54 126.58 221.54"/><path class="cls-17" d="M154.4,298.83l-.18-30.27,14,8.27c0,10.46-8.87,31.63-28.16,35l.14-36,14.19,23Z" transform="translate(-13.63 -54.29)"/><polygon class="cls-20" points="54.16 238.32 60.83 238.32 60.83 248.48 54.16 248.48 54.16 238.32 54.16 238.32"/><polygon class="cls-20" points="63.74 238.32 70.41 238.32 70.41 248.48 63.74 248.48 63.74 238.32 63.74 238.32"/><polygon class="cls-20" points="97.22 238.32 103.89 238.32 103.89 248.48 97.22 248.48 97.22 238.32 97.22 238.32"/><polygon class="cls-20" points="106.8 238.32 113.47 238.32 113.47 248.48 106.8 248.48 106.8 238.32 106.8 238.32"/><polygon class="cls-20" points="119.06 223.24 123.52 223.24 123.52 233.4 119.06 233.4 119.06 223.24 119.06 223.24"/><polygon class="cls-20" points="157.37 223.24 161.83 223.24 161.83 233.4 157.37 233.4 157.37 223.24 157.37 223.24"/><polygon class="cls-20" points="119.06 238.95 123.52 238.95 123.52 249.11 119.06 249.11 119.06 238.95 119.06 238.95"/><polygon class="cls-20" points="157.37 238.95 161.83 238.95 161.83 249.11 157.37 249.11 157.37 238.95 157.37 238.95"/><polygon class="cls-20" points="129.59 223.24 133.48 223.24 133.48 233.4 129.59 233.4 129.59 223.24 129.59 223.24"/><polygon class="cls-20" points="147.56 223.24 151.45 223.24 151.45 233.4 147.56 233.4 147.56 223.24 147.56 223.24"/><polygon class="cls-20" points="129.59 238.95 133.48 238.95 133.48 249.11 129.59 249.11 129.59 238.95 129.59 238.95"/><polygon class="cls-20" points="147.56 238.95 151.45 238.95 151.45 249.11 147.56 249.11 147.56 238.95 147.56 238.95"/><polygon class="cls-14" points="64.59 118.1 81.35 105.17 98.1 118.1 98.1 175.38 64.59 175.38 64.59 118.1 64.59 118.1"/><path class="cls-15" d="M78.22,175.61l18.41-13.8,14.42,10.91c-2.94,24.48-13.11,50.43-32.83,54.38V175.61Z" transform="translate(-13.63 -54.29)"/><polygon class="cls-4" points="98.09 137.77 114.85 129.29 131.6 137.77 131.6 175.38 98.09 175.38 98.09 137.77 98.09 137.77"/><path class="cls-5" d="M116,194.46l12.17-6.08,17.1,4.24v37c-30,0-30-18.86-29.27-35.2Z" transform="translate(-13.63 -54.29)"/><polygon class="cls-7" points="131.54 128.55 114.85 119.44 114.84 129.3 131.61 137.77 131.54 128.55 131.54 128.55"/><polygon class="cls-7" points="97.9 109.1 81.35 96.17 81.35 105.17 98.11 118.1 97.9 109.1 97.9 109.1"/><polygon class="cls-18" points="97.9 109.1 81.35 96.17 98.11 118.1 97.9 109.1 97.9 109.1"/><polygon class="cls-18" points="98.1 128.72 114.85 119.44 114.84 129.3 98.09 137.77 98.1 128.72 98.1 128.72"/><polygon class="cls-8" points="114.85 119.44 114.84 129.3 99.74 136.94 114.85 119.44 114.85 119.44"/><polygon class="cls-8" points="64.8 109.1 81.35 96.17 81.35 105.17 64.59 118.1 64.8 109.1 64.8 109.1"/><polygon class="cls-11" points="67.53 124.75 72.63 124.75 72.63 133.88 67.53 133.88 67.53 124.75 67.53 124.75"/><polygon class="cls-11" points="82.73 124.75 87.84 124.75 87.84 133.88 82.73 133.88 82.73 124.75 82.73 124.75"/><polygon class="cls-11" points="74.86 124.75 79.96 124.75 79.96 133.88 74.86 133.88 74.86 124.75 74.86 124.75"/><polygon class="cls-11" points="90.06 124.75 95.17 124.75 95.17 133.88 90.06 133.88 90.06 124.75 90.06 124.75"/><polygon class="cls-11" points="67.53 138.86 72.63 138.86 72.63 147.99 67.53 147.99 67.53 138.86 67.53 138.86"/><polygon class="cls-11" points="82.73 138.86 87.84 138.86 87.84 147.99 82.73 147.99 82.73 138.86 82.73 138.86"/><polygon class="cls-11" points="74.86 138.86 79.96 138.86 79.96 147.99 74.86 147.99 74.86 138.86 74.86 138.86"/><polygon class="cls-11" points="90.06 138.86 95.17 138.86 95.17 147.99 90.06 147.99 90.06 138.86 90.06 138.86"/><polygon class="cls-11" points="102.33 140.17 108.62 140.17 108.62 148.13 102.33 148.13 102.33 140.17 102.33 140.17"/><polygon class="cls-11" points="121.08 140.17 127.37 140.17 127.37 148.13 121.08 148.13 121.08 140.17 121.08 140.17"/><polygon class="cls-11" points="111.36 140.17 117.66 140.17 117.66 148.13 111.36 148.13 111.36 140.17 111.36 140.17"/><polygon class="cls-17" points="142.64 55.47 190.95 55.47 190.95 99.04 142.64 99.04 142.64 55.47 142.64 55.47"/><polygon class="cls-17" points="190.95 55.47 213.83 55.47 213.83 99.04 190.95 99.04 190.95 55.47 190.95 55.47"/><polygon class="cls-17" points="131.2 77.19 154.07 77.19 154.07 99.04 131.2 99.04 131.2 77.19 131.2 77.19"/><polygon class="cls-16" points="206.79 55.47 213.83 55.47 213.83 99.04 206.79 99.04 206.79 55.47 206.79 55.47"/><polygon class="cls-16" points="146.83 77.19 154.07 77.19 154.07 99.04 146.83 99.04 146.83 77.19 146.83 77.19"/><path class="cls-19" d="M156.27,110.5h48.31v42.83c-20.18-9.68-36.82-23.34-48.31-42.83Z" transform="translate(-13.63 -54.29)"/><path class="cls-19" d="M144.83,132.13h15.63c-1.16,7.34-4.87,14.51-15.63,21.2v-21.2Z" transform="translate(-13.63 -54.29)"/><polygon class="cls-15" points="161.93 79.73 171.66 79.73 171.66 99.04 161.93 99.04 161.93 79.73 161.93 79.73"/><polygon class="cls-14" points="162.89 83.55 170.7 83.55 170.7 99.04 162.89 99.04 162.89 83.55 162.89 83.55"/><polygon class="cls-5" points="131.2 77.19 154.07 77.19 142.66 55.47 131.2 77.19 131.2 77.19"/><polygon class="cls-5" points="190.95 55.47 213.83 55.47 202.41 39.68 190.95 55.47 190.95 55.47"/><polygon class="cls-5" points="145.04 45.57 198.13 45.57 190.95 55.47 142.64 55.47 145.04 45.57 145.04 45.57"/><path class="cls-21" d="M158.67,99.86h53.09c-13.58,6.53-38.58,7.67-55.49,9.89l2.4-9.89Z" transform="translate(-13.63 -54.29)"/><polygon class="cls-21" points="131.2 77.19 146.82 77.19 142.66 55.47 131.2 77.19 131.2 77.19"/><polygon class="cls-21" points="190.95 55.47 206.79 55.47 202.41 39.68 190.95 55.47 190.95 55.47"/><polygon class="cls-20" points="210.89 58.37 213.46 58.37 213.46 60.93 210.89 60.93 210.89 58.37 210.89 58.37"/><polygon class="cls-20" points="156.48 80.27 159.25 80.27 159.25 92.06 156.48 92.06 156.48 80.27 156.48 80.27"/><polygon class="cls-20" points="207.18 58.37 209.74 58.37 209.74 60.93 207.18 60.93 207.18 58.37 207.18 58.37"/><polygon class="cls-20" points="178.67 59.14 184.19 59.14 184.19 70.93 178.67 70.93 178.67 59.14 178.67 59.14"/><polygon class="cls-20" points="170.38 59.14 175.9 59.14 175.9 70.93 170.38 70.93 170.38 59.14 170.38 59.14"/><polygon class="cls-20" points="162.08 59.14 167.6 59.14 167.6 70.93 162.08 70.93 162.08 59.14 162.08 59.14"/><polygon class="cls-20" points="153.79 59.14 159.31 59.14 159.31 70.93 153.79 70.93 153.79 59.14 153.79 59.14"/><polygon class="cls-20" points="181.43 80.27 184.19 80.27 184.19 92.06 181.43 92.06 181.43 80.27 181.43 80.27"/><polygon class="cls-20" points="175.9 80.27 178.66 80.27 178.66 92.06 175.9 92.06 175.9 80.27 175.9 80.27"/><polygon class="cls-20" points="203.46 58.37 206.03 58.37 206.03 60.93 203.46 60.93 203.46 58.37 203.46 58.37"/><polygon class="cls-20" points="199.75 58.37 202.31 58.37 202.31 60.93 199.75 60.93 199.75 58.37 199.75 58.37"/><polygon class="cls-20" points="196.03 58.37 198.59 58.37 198.59 60.93 196.03 60.93 196.03 58.37 196.03 58.37"/><polygon class="cls-20" points="192.32 58.37 194.88 58.37 194.88 60.93 192.32 60.93 192.32 58.37 192.32 58.37"/><polygon class="cls-22" points="281.73 127.13 328.07 127.13 328.07 165.21 281.73 165.21 281.73 127.13 281.73 127.13"/><polygon class="cls-22" points="328.07 127.13 343.46 109.91 356.63 109.92 371.95 127.3 371.95 165.21 328.07 165.21 328.07 127.13 328.07 127.13"/><polygon class="cls-23" points="350.1 63.79 351.32 86.12 348.73 86.11 350.1 63.79 350.1 63.79"/><polygon class="cls-23" points="343.46 96.72 356.57 96.72 356.63 109.92 343.46 109.91 343.46 96.72 343.46 96.72"/><path class="cls-23" d="M295.36,182.15H341.7c-9.13,17.91-24.82,30.12-46.34,37.35V182.15Z" transform="translate(-13.63 -54.29)"/><path class="cls-23" d="M343.81,182.16l41.77.16c-7.41,20.06-33.73,19.81-41.77,37.19V182.16Z" transform="translate(-13.63 -54.29)"/><path class="cls-23" d="M344.06,181.54,357,166.69l5.86,7.47c2.5,3.17-4.09,7.49-18.78,7.38Z" transform="translate(-13.63 -54.29)"/><polygon class="cls-22" points="350.04 96.72 356.57 96.72 356.63 109.92 350.04 109.91 350.04 96.72 350.04 96.72"/><polygon class="cls-22" points="350.1 63.79 351.32 86.12 350.04 86.12 350.1 63.79 350.1 63.79"/><polygon class="cls-14" points="289.65 118.48 335.94 118.48 328.07 127.13 281.73 127.13 289.65 118.48 289.65 118.48"/><polygon class="cls-15" points="343.46 96.72 356.57 96.72 351.32 86.12 348.73 86.11 343.46 96.72 343.46 96.72"/><polygon class="cls-15" points="357.55 127.3 371.95 127.3 356.63 109.92 343.46 109.91 357.55 127.3 357.55 127.3"/><path class="cls-15" d="M303.28,172.76h46.29c-13.6,4.21-29.33,7.16-52.24,6.5l5.95-6.5Z" transform="translate(-13.63 -54.29)"/><path class="cls-14" d="M385.58,181.58l-15.32-17.37h-6.59c2.18,7.9,9.33,14.42,21.91,17.37Z" transform="translate(-13.63 -54.29)"/><polygon class="cls-14" points="350.04 96.72 356.57 96.72 351.32 86.12 350.02 86.12 350.04 96.72 350.04 96.72"/><polygon class="cls-15" points="339.3 143.06 350.02 143.06 350.02 165.21 339.3 165.21 339.3 143.06 339.3 143.06"/><polygon class="cls-14" points="340.36 147.45 348.96 147.45 348.96 165.21 340.36 165.21 340.36 147.45 340.36 147.45"/><polygon class="cls-24" points="318.6 133.08 323.89 133.08 323.89 141.77 318.6 141.77 318.6 133.08 318.6 133.08"/><polygon class="cls-24" points="318.6 147.63 323.89 147.63 323.89 156.31 318.6 156.31 318.6 147.63 318.6 147.63"/><polygon class="cls-24" points="310.64 133.08 315.94 133.08 315.94 141.77 310.64 141.77 310.64 133.08 310.64 133.08"/><polygon class="cls-24" points="310.64 147.63 315.94 147.63 315.94 156.31 310.64 156.31 310.64 147.63 310.64 147.63"/><polygon class="cls-24" points="293.86 133.08 299.16 133.08 299.16 141.77 293.86 141.77 293.86 133.08 293.86 133.08"/><polygon class="cls-24" points="293.86 147.63 299.16 147.63 299.16 156.31 293.86 156.31 293.86 147.63 293.86 147.63"/><polygon class="cls-24" points="285.91 133.08 291.2 133.08 291.2 141.77 285.91 141.77 285.91 133.08 285.91 133.08"/><polygon class="cls-24" points="285.91 147.63 291.2 147.63 291.2 156.31 285.91 156.31 285.91 147.63 285.91 147.63"/><polygon class="cls-24" points="332.44 143.69 335.49 143.69 335.49 157.2 332.44 157.2 332.44 143.69 332.44 143.69"/><polygon class="cls-24" points="353.84 143.69 356.88 143.69 356.88 157.2 353.84 157.2 353.84 143.69 353.84 143.69"/><path class="cls-24" d="M359.34,181.33H354c0-11.24,5.3-11.24,5.3,0Z" transform="translate(-13.63 -54.29)"/><polygon class="cls-17" points="438.51 377.27 455.26 364.34 472.02 377.27 472.02 434.54 438.51 434.54 438.51 377.27 438.51 377.27"/><path class="cls-19" d="M452.14,437.61l16.75-17.84,16.76,12.63c-2.94,24.48-28.89,32.67-33.51,56.43V437.61Z" transform="translate(-13.63 -54.29)"/><polygon class="cls-4" points="472.01 396.94 488.76 388.46 505.52 396.94 505.52 434.54 472.01 434.54 472.01 396.94 472.01 396.94"/><path class="cls-5" d="M489.87,453.62,502,447.55l17.11,4.24v37c-28,0-30.53-15.94-29.28-35.21Z" transform="translate(-13.63 -54.29)"/><polygon class="cls-7" points="471.81 368.27 455.26 355.33 455.26 364.34 472.02 377.27 471.81 368.27 471.81 368.27"/><polygon class="cls-7" points="505.45 387.72 488.77 378.61 488.76 388.46 505.52 396.94 505.45 387.72 505.45 387.72"/><polygon class="cls-18" points="471.81 368.27 455.26 355.33 472.02 377.27 471.81 368.27 471.81 368.27"/><polygon class="cls-18" points="472.02 387.89 488.76 378.61 488.76 388.46 472.01 396.94 472.02 387.89 472.02 387.89"/><polygon class="cls-8" points="438.71 368.27 455.26 355.33 455.26 364.34 438.51 377.27 438.71 368.27 438.71 368.27"/><polygon class="cls-8" points="488.76 378.61 488.76 388.46 473.66 396.11 488.76 378.61 488.76 378.61"/><polygon class="cls-20" points="441.44 383.92 446.55 383.92 446.55 393.05 441.44 393.05 441.44 383.92 441.44 383.92"/><polygon class="cls-20" points="456.65 383.92 461.75 383.92 461.75 393.05 456.65 393.05 456.65 383.92 456.65 383.92"/><polygon class="cls-20" points="448.77 383.92 453.88 383.92 453.88 393.05 448.77 393.05 448.77 383.92 448.77 383.92"/><polygon class="cls-20" points="463.98 383.92 469.08 383.92 469.08 393.05 463.98 393.05 463.98 383.92 463.98 383.92"/><polygon class="cls-20" points="441.44 398.03 446.55 398.03 446.55 407.16 441.44 407.16 441.44 398.03 441.44 398.03"/><polygon class="cls-20" points="456.65 398.03 461.75 398.03 461.75 407.16 456.65 407.16 456.65 398.03 456.65 398.03"/><polygon class="cls-20" points="448.77 398.03 453.88 398.03 453.88 407.16 448.77 407.16 448.77 398.03 448.77 398.03"/><polygon class="cls-20" points="463.98 398.03 469.08 398.03 469.08 407.16 463.98 407.16 463.98 398.03 463.98 398.03"/><polygon class="cls-20" points="476.24 399.34 482.53 399.34 482.53 407.3 476.24 407.3 476.24 399.34 476.24 399.34"/><polygon class="cls-20" points="494.99 399.34 501.28 399.34 501.28 407.3 494.99 407.3 494.99 399.34 494.99 399.34"/><polygon class="cls-20" points="485.28 399.34 491.57 399.34 491.57 407.3 485.28 407.3 485.28 399.34 485.28 399.34"/><polygon class="cls-14" points="368.94 195.62 385.69 182.69 402.45 195.62 402.45 252.9 368.94 252.9 368.94 195.62 368.94 195.62"/><polygon class="cls-14" points="435.84 195.62 452.6 182.69 469.35 195.62 469.35 252.9 435.84 252.9 435.84 195.62 435.84 195.62"/><path class="cls-15" d="M382.57,251l16.75-12.92,16.76,12.64c-2.94,24.47-28.89,32.66-33.51,56.42V251Z" transform="translate(-13.63 -54.29)"/><path class="cls-15" d="M451.57,249.43l14.66-11.31L483,250.76c-2.93,24.47-6.26,49.5-31.41,51.95V249.43Z" transform="translate(-13.63 -54.29)"/><polygon class="cls-4" points="402.44 215.29 419.19 206.81 435.95 215.29 435.95 252.9 402.44 252.9 402.44 215.29 402.44 215.29"/><polygon class="cls-4" points="469.34 215.29 486.1 206.81 502.85 215.29 502.85 252.9 469.34 252.9 469.34 215.29 469.34 215.29"/><path class="cls-5" d="M420.3,272l12.17-6.07,17.11,4.23v37c-24.8,0-29.61-12.16-29.28-35.2Z" transform="translate(-13.63 -54.29)"/><path class="cls-5" d="M487.21,272l12.17-6.07,17.1,4.23v37c-28.18,0-29.35-12.35-29.27-35.2Z" transform="translate(-13.63 -54.29)"/><polygon class="cls-7" points="402.25 186.62 385.69 173.69 385.69 182.69 402.45 195.62 402.25 186.62 402.25 186.62"/><polygon class="cls-7" points="435.88 206.07 419.19 196.96 419.19 206.82 435.95 215.29 435.88 206.07 435.88 206.07"/><polygon class="cls-7" points="469.15 186.62 452.6 173.69 452.6 182.69 469.36 195.62 469.15 186.62 469.15 186.62"/><polygon class="cls-7" points="502.79 206.07 486.1 196.96 486.09 206.82 502.86 215.29 502.79 206.07 502.79 206.07"/><polygon class="cls-18" points="402.25 186.62 385.69 173.69 402.45 195.62 402.25 186.62 402.25 186.62"/><polygon class="cls-18" points="402.45 206.24 419.19 196.96 419.19 206.82 402.44 215.29 402.45 206.24 402.45 206.24"/><polygon class="cls-18" points="469.15 186.62 452.6 173.69 469.36 195.62 469.15 186.62 469.15 186.62"/><polygon class="cls-18" points="469.35 206.24 486.1 196.96 486.09 206.82 469.34 215.29 469.35 206.24 469.35 206.24"/><polygon class="cls-8" points="369.14 186.62 385.69 173.69 385.69 182.69 368.94 195.62 369.14 186.62 369.14 186.62"/><polygon class="cls-8" points="419.19 196.96 419.19 206.82 404.09 214.46 419.19 196.96 419.19 196.96"/><polygon class="cls-8" points="436.05 186.62 452.6 173.69 452.6 182.69 435.84 195.62 436.05 186.62 436.05 186.62"/><polygon class="cls-8" points="486.1 196.96 486.09 206.82 470.99 214.46 486.1 196.96 486.1 196.96"/><polygon class="cls-11" points="371.87 202.27 376.98 202.27 376.98 211.4 371.87 211.4 371.87 202.27 371.87 202.27"/><polygon class="cls-11" points="387.08 202.27 392.18 202.27 392.18 211.4 387.08 211.4 387.08 202.27 387.08 202.27"/><polygon class="cls-11" points="379.2 202.27 384.31 202.27 384.31 211.4 379.2 211.4 379.2 202.27 379.2 202.27"/><polygon class="cls-11" points="394.41 202.27 399.51 202.27 399.51 211.4 394.41 211.4 394.41 202.27 394.41 202.27"/><polygon class="cls-11" points="371.87 216.38 376.98 216.38 376.98 225.51 371.87 225.51 371.87 216.38 371.87 216.38"/><polygon class="cls-11" points="387.08 216.38 392.18 216.38 392.18 225.51 387.08 225.51 387.08 216.38 387.08 216.38"/><polygon class="cls-11" points="379.2 216.38 384.31 216.38 384.31 225.51 379.2 225.51 379.2 216.38 379.2 216.38"/><polygon class="cls-11" points="394.41 216.38 399.51 216.38 399.51 225.51 394.41 225.51 394.41 216.38 394.41 216.38"/><polygon class="cls-11" points="406.67 217.69 412.96 217.69 412.96 225.66 406.67 225.66 406.67 217.69 406.67 217.69"/><polygon class="cls-11" points="425.42 217.69 431.71 217.69 431.71 225.66 425.42 225.66 425.42 217.69 425.42 217.69"/><polygon class="cls-11" points="415.71 217.69 422 217.69 422 225.66 415.71 225.66 415.71 217.69 415.71 217.69"/><polygon class="cls-11" points="438.78 202.27 443.88 202.27 443.88 211.4 438.78 211.4 438.78 202.27 438.78 202.27"/><polygon class="cls-11" points="453.98 202.27 459.09 202.27 459.09 211.4 453.98 211.4 453.98 202.27 453.98 202.27"/><polygon class="cls-11" points="446.11 202.27 451.21 202.27 451.21 211.4 446.11 211.4 446.11 202.27 446.11 202.27"/><polygon class="cls-11" points="461.31 202.27 466.42 202.27 466.42 211.4 461.31 211.4 461.31 202.27 461.31 202.27"/><polygon class="cls-11" points="438.78 216.38 443.88 216.38 443.88 225.51 438.78 225.51 438.78 216.38 438.78 216.38"/><polygon class="cls-11" points="453.98 216.38 459.09 216.38 459.09 225.51 453.98 225.51 453.98 216.38 453.98 216.38"/><polygon class="cls-11" points="446.11 216.38 451.21 216.38 451.21 225.51 446.11 225.51 446.11 216.38 446.11 216.38"/><polygon class="cls-11" points="461.31 216.38 466.42 216.38 466.42 225.51 461.31 225.51 461.31 216.38 461.31 216.38"/><polygon class="cls-11" points="473.58 217.69 479.87 217.69 479.87 225.66 473.58 225.66 473.58 217.69 473.58 217.69"/><polygon class="cls-11" points="492.33 217.69 498.62 217.69 498.62 225.66 492.33 225.66 492.33 217.69 492.33 217.69"/><polygon class="cls-11" points="482.62 217.69 488.91 217.69 488.91 225.66 482.62 225.66 482.62 217.69 482.62 217.69"/><polygon class="cls-22" points="167.66 397.71 121.31 397.71 121.31 435.8 167.66 435.8 167.66 397.71 167.66 397.71"/><polygon class="cls-22" points="121.31 397.71 105.93 380.5 92.76 380.51 77.44 397.88 77.44 435.8 121.31 435.8 121.31 397.71 121.31 397.71"/><polygon class="cls-14" points="159.73 389.06 113.44 389.06 121.31 397.71 167.66 397.71 159.73 389.06 159.73 389.06"/><polygon class="cls-14" points="91.84 397.88 77.44 397.88 92.76 380.51 105.93 380.5 91.84 397.88 91.84 397.88"/><polygon class="cls-25" points="121.31 397.71 105.93 380.5 105.81 435.8 121.31 435.8 121.31 397.71 121.31 397.71"/><path class="cls-23" d="M179.18,453.83l-44.24,0V488c29.48-1.44,44.59-13.13,44.24-34.15Z" transform="translate(-13.63 -54.29)"/><path class="cls-23" d="M92.65,453.79c0,13.86-.1,34,13,34l-.38-34Z" transform="translate(-13.63 -54.29)"/><polygon class="cls-15" points="77.44 397.88 92.76 380.51 105.93 380.5 90.54 393.59 77.44 397.88 77.44 397.88"/><path class="cls-15" d="M173.36,443.35H127.07c13.61,4.21,29.34,7.16,52.25,6.5l-6-6.5Z" transform="translate(-13.63 -54.29)"/><polygon class="cls-6" points="148.45 414.93 140.35 414.93 140.35 435.8 148.45 435.8 148.45 414.93 148.45 414.93"/><polygon class="cls-6" points="109.75 413.65 101.54 413.65 101.54 435.8 109.75 435.8 109.75 413.65 109.75 413.65"/><polygon class="cls-6" points="147.65 419.06 141.15 419.06 141.15 435.8 147.65 435.8 147.65 419.06 147.65 419.06"/><polygon class="cls-6" points="109.12 418.04 102.54 418.04 102.54 435.8 109.12 435.8 109.12 418.04 109.12 418.04"/><polygon class="cls-24" points="130.8 404.49 125.48 404.49 125.48 414.48 130.8 414.48 130.8 404.49 130.8 404.49"/><polygon class="cls-24" points="130.8 421.21 125.48 421.21 125.48 431.19 130.8 431.19 130.8 421.21 130.8 421.21"/><polygon class="cls-24" points="138.79 404.49 133.47 404.49 133.47 414.48 138.79 414.48 138.79 404.49 138.79 404.49"/><polygon class="cls-24" points="138.79 421.21 133.47 421.21 133.47 431.19 138.79 431.19 138.79 421.21 138.79 421.21"/><polygon class="cls-24" points="155.63 404.49 150.31 404.49 150.31 414.48 155.63 414.48 155.63 404.49 155.63 404.49"/><polygon class="cls-24" points="155.63 421.21 150.31 421.21 150.31 431.19 155.63 431.19 155.63 421.21 155.63 421.21"/><polygon class="cls-24" points="163.62 404.49 158.3 404.49 158.3 414.48 163.62 414.48 163.62 404.49 163.62 404.49"/><polygon class="cls-24" points="163.62 421.21 158.3 421.21 158.3 431.19 163.62 431.19 163.62 421.21 163.62 421.21"/><polygon class="cls-24" points="117.81 407.68 114.76 407.68 114.76 423.21 117.81 423.21 117.81 407.68 117.81 407.68"/><polygon class="cls-24" points="98.47 406.73 95.41 406.73 95.41 422.26 98.47 422.26 98.47 406.73 98.47 406.73"/><path class="cls-26" d="M131.85,140.73a13.13,13.13,0,0,1,13,13.23,13.46,13.46,0,0,1-.49,3.62H119.31a13.25,13.25,0,0,1,12.54-16.85Z" transform="translate(-13.63 -54.29)"/><path class="cls-26" d="M120.88,382c4.89,0,8.86,3.71,8.86,8.29a7.75,7.75,0,0,1-.34,2.27h-17a8.09,8.09,0,0,1-.33-2.27,8.58,8.58,0,0,1,8.85-8.29Z" transform="translate(-13.63 -54.29)"/><path class="cls-26" d="M133.33,386.6a4.81,4.81,0,0,1,5,4.65,4.5,4.5,0,0,1-.18,1.28h-9.57a4.5,4.5,0,0,1-.19-1.28,4.82,4.82,0,0,1,5-4.65Z" transform="translate(-13.63 -54.29)"/><path class="cls-26" d="M75.55,479.39c6.1,0,11,4.64,11,10.36a9.83,9.83,0,0,1-.41,2.83H64.91a9.83,9.83,0,0,1-.41-2.83c0-5.72,5-10.36,11-10.36Z" transform="translate(-13.63 -54.29)"/><path class="cls-26" d="M234.93,472.8c5.66,0,10.26,4.3,10.26,9.61a9.2,9.2,0,0,1-.39,2.63H225.05a9.2,9.2,0,0,1-.39-2.63c0-5.31,4.6-9.61,10.27-9.61Z" transform="translate(-13.63 -54.29)"/><path class="cls-26" d="M249.36,478.17a5.58,5.58,0,0,1,5.76,5.39,5.2,5.2,0,0,1-.22,1.48H243.81a5.2,5.2,0,0,1-.22-1.48,5.59,5.59,0,0,1,5.77-5.39Z" transform="translate(-13.63 -54.29)"/><path class="cls-26" d="M404.89,206.37c6.5,0,11.77,4.93,11.77,11a10.29,10.29,0,0,1-.45,3H393.57a10.29,10.29,0,0,1-.45-3c0-6.09,5.27-11,11.77-11Z" transform="translate(-13.63 -54.29)"/><path class="cls-26" d="M421.44,212.52a6.41,6.41,0,0,1,6.61,6.19,5.85,5.85,0,0,1-.25,1.69H415.08a5.85,5.85,0,0,1-.25-1.69,6.41,6.41,0,0,1,6.61-6.19Z" transform="translate(-13.63 -54.29)"/><path class="cls-26" d="M281.76,211a6.41,6.41,0,0,1,6.6,6.19,5.58,5.58,0,0,1-.25,1.69H275.4a5.58,5.58,0,0,1-.25-1.69,6.41,6.41,0,0,1,6.61-6.19Z" transform="translate(-13.63 -54.29)"/><path class="cls-26" d="M267.22,212.87a4.9,4.9,0,0,1,5,4.74,4.29,4.29,0,0,1-.19,1.29h-9.73a4.29,4.29,0,0,1-.19-1.29,4.9,4.9,0,0,1,5.06-4.74Z" transform="translate(-13.63 -54.29)"/><path class="cls-26" d="M150.26,147a8.29,8.29,0,0,1,8.22,8.35,8.59,8.59,0,0,1-.31,2.28H142.34a8.59,8.59,0,0,1-.31-2.28,8.3,8.3,0,0,1,8.23-8.35Z" transform="translate(-13.63 -54.29)"/><path class="cls-26" d="M241.44,146.63a7.43,7.43,0,0,1,7.37,7.48,7.69,7.69,0,0,1-.28,2H234.34a7.69,7.69,0,0,1-.28-2,7.43,7.43,0,0,1,7.38-7.48Z" transform="translate(-13.63 -54.29)"/><path class="cls-26" d="M99.11,301.63c6.5,0,11.77,4.93,11.77,11a10.39,10.39,0,0,1-.45,3H87.79a10.39,10.39,0,0,1-.45-3c0-6.09,5.27-11,11.77-11Z" transform="translate(-13.63 -54.29)"/><path class="cls-26" d="M115.66,307.78a6.41,6.41,0,0,1,6.61,6.19,5.91,5.91,0,0,1-.25,1.69H109.3a5.91,5.91,0,0,1-.25-1.69,6.41,6.41,0,0,1,6.61-6.19Z" transform="translate(-13.63 -54.29)"/><path class="cls-27" d="M131.85,146.92a9.09,9.09,0,0,1,9,9.16,9.29,9.29,0,0,1-.12,1.5H122.94a10.59,10.59,0,0,1-.12-1.5,9.1,9.1,0,0,1,9-9.16Z" transform="translate(-13.63 -54.29)"/><path class="cls-27" d="M120.88,385.85a5.94,5.94,0,0,1,6.13,5.74,5.86,5.86,0,0,1-.08.94h-12.1a5.86,5.86,0,0,1-.08-.94,6,6,0,0,1,6.13-5.74Z" transform="translate(-13.63 -54.29)"/><path class="cls-27" d="M133.33,388.78a3.33,3.33,0,0,1,3.44,3.22,3.15,3.15,0,0,1,0,.53h-6.79a3.17,3.17,0,0,1-.05-.53,3.33,3.33,0,0,1,3.44-3.22Z" transform="translate(-13.63 -54.29)"/><path class="cls-27" d="M75.55,484.24a7.42,7.42,0,0,1,7.65,7.17,6.52,6.52,0,0,1-.1,1.17H68a6.52,6.52,0,0,1-.1-1.17,7.42,7.42,0,0,1,7.65-7.17Z" transform="translate(-13.63 -54.29)"/><path class="cls-27" d="M234.93,477.29A6.9,6.9,0,0,1,242,484a6.59,6.59,0,0,1-.09,1.09h-14a6.59,6.59,0,0,1-.1-1.09,6.9,6.9,0,0,1,7.11-6.66Z" transform="translate(-13.63 -54.29)"/><path class="cls-27" d="M249.36,480.69a3.87,3.87,0,0,1,4,3.74,3.15,3.15,0,0,1-.06.61h-7.87a4.18,4.18,0,0,1,0-.61,3.86,3.86,0,0,1,4-3.74Z" transform="translate(-13.63 -54.29)"/><path class="cls-27" d="M404.89,211.52a7.91,7.91,0,0,1,8.15,7.64,7.24,7.24,0,0,1-.11,1.24H396.85a7.24,7.24,0,0,1-.11-1.24,7.91,7.91,0,0,1,8.15-7.64Z" transform="translate(-13.63 -54.29)"/><path class="cls-27" d="M421.44,215.42A4.44,4.44,0,0,1,426,219.7a4,4,0,0,1-.06.7h-9a4,4,0,0,1-.06-.7,4.44,4.44,0,0,1,4.58-4.28Z" transform="translate(-13.63 -54.29)"/><path class="cls-27" d="M281.76,213.92a4.43,4.43,0,0,1,4.57,4.28,4,4,0,0,1-.06.7h-9a4,4,0,0,1-.06-.7,4.43,4.43,0,0,1,4.58-4.28Z" transform="translate(-13.63 -54.29)"/><path class="cls-27" d="M267.22,215.08a3.4,3.4,0,0,1,3.5,3.28,3.1,3.1,0,0,1-.05.54h-6.91a3.1,3.1,0,0,1-.05-.54,3.4,3.4,0,0,1,3.51-3.28Z" transform="translate(-13.63 -54.29)"/><path class="cls-27" d="M150.26,150.85a5.74,5.74,0,0,1,5.69,5.78,5.89,5.89,0,0,1-.08,1H144.64a5.89,5.89,0,0,1-.08-1,5.74,5.74,0,0,1,5.7-5.78Z" transform="translate(-13.63 -54.29)"/><path class="cls-27" d="M241.44,150.13a5.15,5.15,0,0,1,5.1,5.18,6,6,0,0,1-.07.85H236.4a6,6,0,0,1-.07-.85,5.15,5.15,0,0,1,5.11-5.18Z" transform="translate(-13.63 -54.29)"/><path class="cls-27" d="M99.11,306.78a7.91,7.91,0,0,1,8.15,7.63,7.36,7.36,0,0,1-.11,1.25H91.07a7.36,7.36,0,0,1-.11-1.25,7.91,7.91,0,0,1,8.15-7.63Z" transform="translate(-13.63 -54.29)"/><path class="cls-27" d="M115.66,310.67a4.44,4.44,0,0,1,4.57,4.29,4,4,0,0,1-.06.7h-9a4,4,0,0,1-.06-.7,4.44,4.44,0,0,1,4.58-4.29Z" transform="translate(-13.63 -54.29)"/><path class="cls-28" d="M131.85,151.9a6.45,6.45,0,0,1,6.68,5.68H125.16a6.46,6.46,0,0,1,6.69-5.68Z" transform="translate(-13.63 -54.29)"/><path class="cls-28" d="M120.88,389c2.42,0,4.39,1.58,4.54,3.57h-9.08c.15-2,2.13-3.57,4.54-3.57Z" transform="translate(-13.63 -54.29)"/><path class="cls-28" d="M133.33,390.53a2.4,2.4,0,0,1,2.55,2h-5.1a2.41,2.41,0,0,1,2.55-2Z" transform="translate(-13.63 -54.29)"/><path class="cls-28" d="M75.55,488.13c3,0,5.48,2,5.67,4.45H69.88c.19-2.48,2.65-4.45,5.67-4.45Z" transform="translate(-13.63 -54.29)"/><path class="cls-28" d="M234.93,480.91c2.8,0,5.09,1.82,5.26,4.13H229.66c.18-2.31,2.47-4.13,5.27-4.13Z" transform="translate(-13.63 -54.29)"/><path class="cls-28" d="M249.36,482.72a2.78,2.78,0,0,1,2.95,2.32H246.4a2.79,2.79,0,0,1,3-2.32Z" transform="translate(-13.63 -54.29)"/><path class="cls-28" d="M404.89,215.67c3.21,0,5.84,2.09,6,4.73H398.85c.2-2.64,2.83-4.73,6-4.73Z" transform="translate(-13.63 -54.29)"/><path class="cls-28" d="M421.44,217.75a3.21,3.21,0,0,1,3.39,2.65h-6.78a3.19,3.19,0,0,1,3.39-2.65Z" transform="translate(-13.63 -54.29)"/><path class="cls-28" d="M281.76,216.24a3.2,3.2,0,0,1,3.38,2.66h-6.77a3.2,3.2,0,0,1,3.39-2.66Z" transform="translate(-13.63 -54.29)"/><path class="cls-28" d="M267.22,216.87a2.44,2.44,0,0,1,2.59,2h-5.19a2.45,2.45,0,0,1,2.6-2Z" transform="translate(-13.63 -54.29)"/><path class="cls-28" d="M150.26,154a4.07,4.07,0,0,1,4.21,3.59H146a4.08,4.08,0,0,1,4.22-3.59Z" transform="translate(-13.63 -54.29)"/><path class="cls-28" d="M241.44,152.94a3.64,3.64,0,0,1,3.77,3.22h-7.55a3.64,3.64,0,0,1,3.78-3.22Z" transform="translate(-13.63 -54.29)"/><path class="cls-28" d="M99.11,310.92c3.21,0,5.84,2.1,6,4.74H93.08c.19-2.64,2.82-4.74,6-4.74Z" transform="translate(-13.63 -54.29)"/><path class="cls-28" d="M115.66,313a3.21,3.21,0,0,1,3.39,2.66h-6.78a3.21,3.21,0,0,1,3.39-2.66Z" transform="translate(-13.63 -54.29)"/><path class="cls-29" d="M95.5,332.23A23.67,23.67,0,1,1,72.07,355.9,23.55,23.55,0,0,1,95.5,332.23Z" transform="translate(-13.63 -54.29)"/><path class="cls-29" d="M525.22,364.21c8.89,0,16.1,11.16,16.1,24.93s-7.21,24.93-16.1,24.93-16.1-11.17-16.1-24.93,7.21-24.93,16.1-24.93Z" transform="translate(-13.63 -54.29)"/><path class="cls-29" d="M459.88,363.12a13.73,13.73,0,1,1-13.38,13.73,13.56,13.56,0,0,1,13.38-13.73Z" transform="translate(-13.63 -54.29)"/><path class="cls-29" d="M537.89,190.75c11.93,0,21.61,12.24,21.61,27.35s-9.68,27.34-21.61,27.34-21.62-12.24-21.62-27.34,9.68-27.35,21.62-27.35Z" transform="translate(-13.63 -54.29)"/><path class="cls-29" d="M418.47,99.81c11.55,0,20.92,8.71,20.92,19.45s-9.37,19.45-20.92,19.45-20.91-8.71-20.91-19.45,9.37-19.45,20.91-19.45Z" transform="translate(-13.63 -54.29)"/><path class="cls-30" d="M95.5,343.3a16.39,16.39,0,1,1-16.22,16.39A16.31,16.31,0,0,1,95.5,343.3Z" transform="translate(-13.63 -54.29)"/><path class="cls-30" d="M525.22,375.87c6.15,0,11.14,7.73,11.14,17.26s-5,17.26-11.14,17.26-11.14-7.73-11.14-17.26,5-17.26,11.14-17.26Z" transform="translate(-13.63 -54.29)"/><path class="cls-30" d="M459.88,369.54a9.51,9.51,0,1,1-9.26,9.5,9.38,9.38,0,0,1,9.26-9.5Z" transform="translate(-13.63 -54.29)"/><path class="cls-30" d="M537.89,203.54c8.26,0,15,8.48,15,18.93s-6.7,18.93-15,18.93-15-8.47-15-18.93,6.7-18.93,15-18.93Z" transform="translate(-13.63 -54.29)"/><path class="cls-30" d="M418.47,108.91c8,0,14.48,6,14.48,13.46s-6.48,13.46-14.48,13.46S404,129.8,404,122.37s6.48-13.46,14.47-13.46Z" transform="translate(-13.63 -54.29)"/><path class="cls-31" d="M95.5,352.2c6.65,0,12,4.86,12,10.85s-5.39,10.85-12,10.85-12-4.85-12-10.85,5.39-10.85,12-10.85Z" transform="translate(-13.63 -54.29)"/><path class="cls-31" d="M525.22,385.24c4.57,0,8.27,5.12,8.27,11.43s-3.7,11.43-8.27,11.43S517,403,517,396.67s3.7-11.43,8.27-11.43Z" transform="translate(-13.63 -54.29)"/><path class="cls-31" d="M459.88,374.7c3.8,0,6.88,2.82,6.88,6.29s-3.08,6.3-6.88,6.3a6.32,6.32,0,1,1,0-12.59Z" transform="translate(-13.63 -54.29)"/><path class="cls-31" d="M537.89,213.82c6.13,0,11.1,5.61,11.1,12.54s-5,12.54-11.1,12.54-11.11-5.62-11.11-12.54,5-12.54,11.11-12.54Z" transform="translate(-13.63 -54.29)"/><path class="cls-31" d="M418.47,116.22c5.94,0,10.75,4,10.75,8.91s-4.81,8.92-10.75,8.92-10.74-4-10.74-8.92,4.81-8.91,10.74-8.91Z" transform="translate(-13.63 -54.29)"/><polygon class="cls-2" points="81.66 278.49 82.08 278.49 82.08 288.31 81.66 288.31 81.66 278.49 81.66 278.49"/><polygon class="cls-2" points="75.33 279.38 75.72 279.28 78.24 288.76 77.84 288.87 75.33 279.38 75.33 279.38"/><polygon class="cls-2" points="69.43 281.91 69.79 281.7 74.65 290.21 74.3 290.42 69.43 281.91 69.43 281.91"/><polygon class="cls-2" points="64.39 285.89 64.68 285.59 71.56 292.54 71.27 292.83 64.39 285.89 64.39 285.89"/><path class="cls-2" d="M74.63,345.12l8,4.64-.25.34-7.89-4.6.18-.38Z" transform="translate(-13.63 -54.29)"/><path class="cls-2" d="M72.55,351.11l8,2.17-.15.39-7.94-2.15c0-.14,0-.28.08-.41Z" transform="translate(-13.63 -54.29)"/><path class="cls-2" d="M72.11,357.33h7.33c0,.14,0,.28,0,.41H72.14l0-.41Z" transform="translate(-13.63 -54.29)"/><path class="cls-2" d="M73.25,363.34l6.15-1.66c0,.14,0,.28,0,.42l-6.07,1.64c0-.13-.09-.26-.13-.4Z" transform="translate(-13.63 -54.29)"/><path class="cls-2" d="M75.83,368.77l4.7-2.75.17.39-4.64,2.71c-.08-.12-.16-.23-.23-.35Z" transform="translate(-13.63 -54.29)"/><path class="cls-2" d="M79.61,373.29l3.27-3.3.27.32-3.24,3.26-.3-.28Z" transform="translate(-13.63 -54.29)"/><path class="cls-2" d="M84.31,376.7l2-3.51.35.24-2,3.47-.36-.2Z" transform="translate(-13.63 -54.29)"/><path class="cls-2" d="M89.64,378.83l.93-3.52.4.12-.93,3.5-.4-.1Z" transform="translate(-13.63 -54.29)"/><path class="cls-2" d="M95.71,379.57v-3.5h-.42v3.5h.42Z" transform="translate(-13.63 -54.29)"/><path class="cls-2" d="M101.36,378.83l-.93-3.52-.4.12.93,3.5.4-.1Z" transform="translate(-13.63 -54.29)"/><path class="cls-2" d="M106.69,376.7l-2-3.51-.35.24,2,3.47.37-.2Z" transform="translate(-13.63 -54.29)"/><path class="cls-2" d="M111.39,373.3,108.12,370l-.27.32,3.23,3.27.31-.28Z" transform="translate(-13.63 -54.29)"/><path class="cls-2" d="M115.17,368.77,110.46,366l-.16.39,4.64,2.71.23-.35Z" transform="translate(-13.63 -54.29)"/><path class="cls-2" d="M117.75,363.34l-6.15-1.66c0,.14,0,.28,0,.42l6.06,1.64c0-.13.09-.26.14-.4Z" transform="translate(-13.63 -54.29)"/><path class="cls-2" d="M118.89,357.33h-7.34l.06.41h7.25l0-.41Z" transform="translate(-13.63 -54.29)"/><path class="cls-2" d="M118.45,351.11l-8,2.17c.06.13.11.26.16.39l7.94-2.15c0-.14,0-.28-.08-.41Z" transform="translate(-13.63 -54.29)"/><path class="cls-2" d="M116.37,345.12l-8,4.64c.08.12.17.23.25.34l7.89-4.6-.18-.38Z" transform="translate(-13.63 -54.29)"/><polygon class="cls-2" points="99.35 285.89 99.05 285.59 92.18 292.54 92.47 292.83 99.35 285.89 99.35 285.89"/><polygon class="cls-2" points="94.3 281.91 93.94 281.7 89.08 290.21 89.44 290.42 94.3 281.91 94.3 281.91"/><polygon class="cls-2" points="88.41 279.38 88.01 279.28 85.5 288.76 85.9 288.87 88.41 279.38 88.41 279.38"/><path class="cls-2" d="M92.63,343.55l.82,6.33-.31,0-.82-6.31.31-.06Z" transform="translate(-13.63 -54.29)"/><path class="cls-2" d="M88.32,345l2.3,5.61-.29.13L88,345.13l.28-.14Z" transform="translate(-13.63 -54.29)"/><path class="cls-2" d="M84.63,347.52,88.07,352l-.25.2-3.42-4.51.23-.21Z" transform="translate(-13.63 -54.29)"/><path class="cls-2" d="M81.82,350.88,86,354.1l-.2.25-4.13-3.2.17-.27Z" transform="translate(-13.63 -54.29)"/><path class="cls-2" d="M80,354.77l4.46,1.87-.12.29-4.43-1.86.09-.3Z" transform="translate(-13.63 -54.29)"/><path class="cls-2" d="M79.3,358.89l4.38.59,0,.31-4.36-.58c0-.1,0-.21,0-.32Z" transform="translate(-13.63 -54.29)"/><path class="cls-2" d="M79.6,363l3.88-.52c0,.11,0,.21,0,.32l-3.79.51c0-.11,0-.21-.07-.31Z" transform="translate(-13.63 -54.29)"/><path class="cls-2" d="M80.86,366.76l2.92-1.22c0,.1,0,.2.08.3L81,367l-.14-.28Z" transform="translate(-13.63 -54.29)"/><path class="cls-2" d="M83,370.07l2.1-1.63c0,.09.11.18.17.27l-2.07,1.6-.2-.24Z" transform="translate(-13.63 -54.29)"/><path class="cls-2" d="M85.71,372.76l1.44-1.89.24.2L86,373l-.26-.19Z" transform="translate(-13.63 -54.29)"/><path class="cls-2" d="M89,374.71l.85-2.07.29.14-.85,2.06-.29-.13Z" transform="translate(-13.63 -54.29)"/><path class="cls-2" d="M92.68,375.83l.28-2.17.31.06L93,375.88l-.31-.05Z" transform="translate(-13.63 -54.29)"/><path class="cls-2" d="M96.86,376l-.28-2.16-.31,0,.28,2.16.31,0Z" transform="translate(-13.63 -54.29)"/><path class="cls-2" d="M100.71,375.21l-.84-2-.3.1.84,2,.3-.1Z" transform="translate(-13.63 -54.29)"/><path class="cls-2" d="M104.32,373.44l-1.4-1.84-.26.18,1.4,1.83.26-.17Z" transform="translate(-13.63 -54.29)"/><path class="cls-2" d="M107.46,370.76l-2-1.58c-.06.09-.13.17-.19.25l2,1.56.21-.23Z" transform="translate(-13.63 -54.29)"/><path class="cls-2" d="M109.88,367.27l-2.82-1.18c0,.1-.06.2-.1.3l2.78,1.16c.05-.09.1-.19.14-.28Z" transform="translate(-13.63 -54.29)"/><path class="cls-2" d="M111.36,363.16l-3.83-.51c0,.11,0,.21,0,.32l3.75.5c0-.1,0-.21.07-.31Z" transform="translate(-13.63 -54.29)"/><path class="cls-2" d="M111.69,358.7l-4.87.65.12.3,4.77-.63c0-.11,0-.22,0-.32Z" transform="translate(-13.63 -54.29)"/><path class="cls-2" d="M110.8,354.23l-5.63,2.35c.07.09.14.17.2.26l5.53-2.31-.1-.3Z" transform="translate(-13.63 -54.29)"/><path class="cls-2" d="M108.67,350.12l-5.13,4,.19.25,5.12-4-.18-.26Z" transform="translate(-13.63 -54.29)"/><path class="cls-2" d="M105.46,346.75l-4,5.29.25.2,4-5.29-.25-.2Z" transform="translate(-13.63 -54.29)"/><path class="cls-2" d="M101.43,344.43,98.9,350.6l.29.13,2.53-6.18-.29-.12Z" transform="translate(-13.63 -54.29)"/><path class="cls-2" d="M96.91,343.36l-.85,6.52.31,0,.86-6.53-.32,0Z" transform="translate(-13.63 -54.29)"/><polygon class="cls-2" points="511.45 310.5 511.73 310.5 511.73 320.84 511.45 320.84 511.45 310.5 511.45 310.5"/><polygon class="cls-2" points="507.1 311.45 507.37 311.33 509.1 321.32 508.82 321.44 507.1 311.45 507.1 311.45"/><polygon class="cls-2" points="503.05 314.1 503.29 313.88 506.63 322.84 506.39 323.06 503.05 314.1 503.05 314.1"/><polygon class="cls-2" points="499.58 318.29 499.78 317.98 504.51 325.3 504.31 325.61 499.58 318.29 499.58 318.29"/><path class="cls-2" d="M510.88,377.79l5.47,4.89-.17.35-5.42-4.85.12-.39Z" transform="translate(-13.63 -54.29)"/><path class="cls-2" d="M509.45,384.09l5.51,2.29c0,.13-.07.27-.11.41l-5.45-2.27c0-.14,0-.29.05-.43Z" transform="translate(-13.63 -54.29)"/><path class="cls-2" d="M509.15,390.64h5c0,.15,0,.29,0,.44h-5c0-.14,0-.29,0-.44Z" transform="translate(-13.63 -54.29)"/><path class="cls-2" d="M509.94,397l4.22-1.76c0,.15,0,.3,0,.44L510,397.39l-.09-.41Z" transform="translate(-13.63 -54.29)"/><path class="cls-2" d="M511.71,402.69l3.23-2.89c0,.13.07.27.11.41l-3.19,2.85-.15-.37Z" transform="translate(-13.63 -54.29)"/><path class="cls-2" d="M514.3,407.45l2.25-3.48.18.34-2.22,3.44-.21-.3Z" transform="translate(-13.63 -54.29)"/><path class="cls-2" d="M517.53,411l1.38-3.69.23.24-1.36,3.66-.25-.21Z" transform="translate(-13.63 -54.29)"/><path class="cls-2" d="M521.19,413.28l.64-3.71.28.13-.64,3.69-.28-.11Z" transform="translate(-13.63 -54.29)"/><path class="cls-2" d="M525.36,414.06v-3.68h-.28v3.68h.28Z" transform="translate(-13.63 -54.29)"/><path class="cls-2" d="M529.25,413.28l-.64-3.71-.28.13.64,3.69.28-.11Z" transform="translate(-13.63 -54.29)"/><path class="cls-2" d="M532.91,411l-1.38-3.69-.24.25,1.37,3.65.25-.21Z" transform="translate(-13.63 -54.29)"/><path class="cls-2" d="M536.14,407.46,533.89,404l-.18.34,2.21,3.44.22-.29Z" transform="translate(-13.63 -54.29)"/><path class="cls-2" d="M538.73,402.69l-3.23-2.89c0,.13-.07.27-.11.41l3.19,2.85.15-.37Z" transform="translate(-13.63 -54.29)"/><path class="cls-2" d="M540.5,397l-4.22-1.76c0,.15,0,.3,0,.44l4.17,1.73.09-.41Z" transform="translate(-13.63 -54.29)"/><path class="cls-2" d="M541.29,390.64h-5c0,.15,0,.29,0,.44h5c0-.14,0-.29,0-.44Z" transform="translate(-13.63 -54.29)"/><path class="cls-2" d="M541,384.09l-5.51,2.29c0,.13.07.27.11.41l5.45-2.27c0-.14,0-.29,0-.43Z" transform="translate(-13.63 -54.29)"/><path class="cls-2" d="M539.56,377.79l-5.47,4.89c.06.11.11.23.17.35l5.42-4.85-.12-.39Z" transform="translate(-13.63 -54.29)"/><polygon class="cls-2" points="523.6 318.29 523.39 317.98 518.67 325.3 518.87 325.61 523.6 318.29 523.6 318.29"/><polygon class="cls-2" points="520.13 314.1 519.88 313.88 516.55 322.84 516.79 323.06 520.13 314.1 520.13 314.1"/><polygon class="cls-2" points="516.09 311.44 515.81 311.33 514.08 321.32 514.36 321.43 516.09 311.44 516.09 311.44"/><path class="cls-2" d="M523.25,376.14l.57,6.66-.22,0L523,376.2l.21-.06Z" transform="translate(-13.63 -54.29)"/><path class="cls-2" d="M520.29,377.65l1.58,5.91-.2.13-1.58-5.89.2-.15Z" transform="translate(-13.63 -54.29)"/><path class="cls-2" d="M517.76,380.31l2.36,4.77-.17.2-2.35-4.74.16-.23Z" transform="translate(-13.63 -54.29)"/><path class="cls-2" d="M515.82,383.85l2.86,3.39-.13.27-2.84-3.38c0-.09.07-.19.11-.28Z" transform="translate(-13.63 -54.29)"/><path class="cls-2" d="M514.59,388l3.06,2-.08.31-3.05-2c0-.11,0-.21.07-.32Z" transform="translate(-13.63 -54.29)"/><path class="cls-2" d="M514.09,392.29l3,.61,0,.34-3-.61c0-.12,0-.23,0-.34Z" transform="translate(-13.63 -54.29)"/><path class="cls-2" d="M514.3,396.58,517,396c0,.11,0,.22,0,.34l-2.61.53c0-.11,0-.22,0-.33Z" transform="translate(-13.63 -54.29)"/><path class="cls-2" d="M515.16,400.57l2-1.29c0,.11,0,.22.06.33l-2,1.26c0-.1-.07-.2-.1-.3Z" transform="translate(-13.63 -54.29)"/><path class="cls-2" d="M516.6,404.06l1.44-1.72.12.28-1.42,1.69-.14-.25Z" transform="translate(-13.63 -54.29)"/><path class="cls-2" d="M518.5,406.89l1-2,.17.22-1,2-.17-.2Z" transform="translate(-13.63 -54.29)"/><path class="cls-2" d="M520.76,409l.59-2.18.19.14-.58,2.17-.2-.13Z" transform="translate(-13.63 -54.29)"/><path class="cls-2" d="M523.29,410.13l.19-2.29.21.06-.19,2.28-.21-.05Z" transform="translate(-13.63 -54.29)"/><path class="cls-2" d="M526.16,410.32l-.2-2.27-.21,0,.19,2.28.22,0Z" transform="translate(-13.63 -54.29)"/><path class="cls-2" d="M528.8,409.48l-.58-2.16-.2.11.57,2.15.21-.1Z" transform="translate(-13.63 -54.29)"/><path class="cls-2" d="M531.28,407.61l-1-1.94-.18.19,1,1.93.18-.18Z" transform="translate(-13.63 -54.29)"/><path class="cls-2" d="M533.44,404.78l-1.4-1.65c0,.09-.08.17-.13.26l1.38,1.64.15-.25Z" transform="translate(-13.63 -54.29)"/><path class="cls-2" d="M535.1,401.11l-1.94-1.24c0,.1,0,.21-.07.31L535,401.4a2.47,2.47,0,0,0,.1-.29Z" transform="translate(-13.63 -54.29)"/><path class="cls-2" d="M536.11,396.78l-2.62-.54v.34l2.58.53c0-.11,0-.22,0-.33Z" transform="translate(-13.63 -54.29)"/><path class="cls-2" d="M536.34,392.08l-3.34.69c0,.1,0,.21.08.32l3.27-.67c0-.11,0-.22,0-.34Z" transform="translate(-13.63 -54.29)"/><path class="cls-2" d="M535.73,387.38l-3.87,2.48c0,.09.1.18.14.27l3.8-2.44c0-.1,0-.21-.07-.31Z" transform="translate(-13.63 -54.29)"/><path class="cls-2" d="M534.27,383.06l-3.52,4.18.13.27,3.51-4.18-.12-.27Z" transform="translate(-13.63 -54.29)"/><path class="cls-2" d="M532.07,379.51l-2.76,5.57.17.2,2.75-5.56-.16-.21Z" transform="translate(-13.63 -54.29)"/><path class="cls-2" d="M529.29,377.06l-1.74,6.5.2.13,1.74-6.51-.2-.12Z" transform="translate(-13.63 -54.29)"/><path class="cls-2" d="M526.19,375.93l-.58,6.87.21,0,.59-6.87-.22,0Z" transform="translate(-13.63 -54.29)"/><polygon class="cls-2" points="446.13 309.15 446.37 309.15 446.37 314.85 446.13 314.85 446.13 309.15 446.13 309.15"/><polygon class="cls-2" points="442.51 309.67 442.74 309.61 444.18 315.11 443.95 315.17 442.51 309.67 442.51 309.67"/><polygon class="cls-2" points="439.15 311.13 439.36 311.01 442.13 315.95 441.93 316.07 439.15 311.13 439.15 311.13"/><polygon class="cls-2" points="436.27 313.44 436.44 313.27 440.36 317.3 440.2 317.47 436.27 313.44 436.27 313.44"/><path class="cls-2" d="M448,370.6l4.54,2.69-.14.19-4.51-2.67a2.12,2.12,0,0,1,.11-.21Z" transform="translate(-13.63 -54.29)"/><path class="cls-2" d="M446.78,374.07l4.57,1.26-.09.22-4.53-1.24c0-.08,0-.16,0-.24Z" transform="translate(-13.63 -54.29)"/><path class="cls-2" d="M446.53,377.67h4.18l0,.25h-4.14c0-.08,0-.16,0-.25Z" transform="translate(-13.63 -54.29)"/><path class="cls-2" d="M447.18,381.16l3.51-1,0,.24-3.47.95c0-.07-.05-.15-.07-.23Z" transform="translate(-13.63 -54.29)"/><path class="cls-2" d="M448.65,384.31l2.69-1.59.09.22-2.65,1.57-.13-.2Z" transform="translate(-13.63 -54.29)"/><path class="cls-2" d="M450.81,386.93l1.87-1.91.15.18L451,387.1l-.17-.17Z" transform="translate(-13.63 -54.29)"/><path class="cls-2" d="M453.49,388.91l1.14-2,.2.13-1.13,2-.21-.11Z" transform="translate(-13.63 -54.29)"/><path class="cls-2" d="M456.53,390.14l.54-2,.22.07-.53,2-.23-.06Z" transform="translate(-13.63 -54.29)"/><path class="cls-2" d="M460,390.57v-2h-.24v2H460Z" transform="translate(-13.63 -54.29)"/><path class="cls-2" d="M463.23,390.14l-.54-2-.22.07.53,2,.23-.06Z" transform="translate(-13.63 -54.29)"/><path class="cls-2" d="M466.27,388.91l-1.14-2-.2.13,1.13,2,.21-.11Z" transform="translate(-13.63 -54.29)"/><path class="cls-2" d="M469,386.93,467.08,385l-.15.18,1.85,1.9.17-.17Z" transform="translate(-13.63 -54.29)"/><path class="cls-2" d="M471.11,384.31l-2.69-1.59-.09.22,2.65,1.57a1.37,1.37,0,0,0,.13-.2Z" transform="translate(-13.63 -54.29)"/><path class="cls-2" d="M472.58,381.16l-3.5-1c0,.08,0,.16,0,.24l3.47.95c0-.07.05-.15.07-.23Z" transform="translate(-13.63 -54.29)"/><path class="cls-2" d="M473.23,377.67h-4.18l0,.25h4.14a2,2,0,0,0,0-.25Z" transform="translate(-13.63 -54.29)"/><path class="cls-2" d="M473,374.07l-4.58,1.25.09.23,4.53-1.24c0-.08,0-.16,0-.24Z" transform="translate(-13.63 -54.29)"/><path class="cls-2" d="M471.8,370.6l-4.55,2.69.14.19,4.51-2.67-.1-.21Z" transform="translate(-13.63 -54.29)"/><polygon class="cls-2" points="456.23 313.44 456.06 313.27 452.14 317.3 452.31 317.47 456.23 313.44 456.23 313.44"/><polygon class="cls-2" points="453.35 311.13 453.14 311.01 450.37 315.95 450.57 316.07 453.35 311.13 453.35 311.13"/><polygon class="cls-2" points="449.99 309.67 449.76 309.61 448.32 315.11 448.55 315.17 449.99 309.67 449.99 309.67"/><path class="cls-2" d="M458.24,369.69l.47,3.67-.17,0-.47-3.66.17,0Z" transform="translate(-13.63 -54.29)"/><path class="cls-2" d="M455.78,370.52l1.32,3.26-.17.07-1.31-3.25.16-.08Z" transform="translate(-13.63 -54.29)"/><path class="cls-2" d="M453.68,372l2,2.62-.14.11-2-2.61.14-.12Z" transform="translate(-13.63 -54.29)"/><path class="cls-2" d="M452.07,373.93l2.37,1.87-.11.15L452,374.09s.07-.1.1-.16Z" transform="translate(-13.63 -54.29)"/><path class="cls-2" d="M451,376.19l2.55,1.08-.07.17L451,376.37c0-.06,0-.12.05-.18Z" transform="translate(-13.63 -54.29)"/><path class="cls-2" d="M450.63,378.58l2.5.34,0,.18-2.49-.33c0-.06,0-.12,0-.19Z" transform="translate(-13.63 -54.29)"/><path class="cls-2" d="M450.8,381l2.22-.3a1.09,1.09,0,0,0,0,.18l-2.17.3a1,1,0,0,0,0-.18Z" transform="translate(-13.63 -54.29)"/><path class="cls-2" d="M451.52,383.14l1.67-.71a1.21,1.21,0,0,0,.05.18l-1.64.7-.08-.17Z" transform="translate(-13.63 -54.29)"/><path class="cls-2" d="M452.71,385.06l1.2-.94.1.15-1.18.93-.12-.14Z" transform="translate(-13.63 -54.29)"/><path class="cls-2" d="M454.29,386.62l.82-1.09.14.12-.81,1.08-.15-.11Z" transform="translate(-13.63 -54.29)"/><path class="cls-2" d="M456.18,387.76l.48-1.2.16.07-.48,1.2-.16-.07Z" transform="translate(-13.63 -54.29)"/><path class="cls-2" d="M458.27,388.4l.16-1.25.18,0-.16,1.25-.18,0Z" transform="translate(-13.63 -54.29)"/><path class="cls-2" d="M460.66,388.51l-.16-1.25-.18,0,.16,1.25.18,0Z" transform="translate(-13.63 -54.29)"/><path class="cls-2" d="M462.86,388.05l-.48-1.19-.17.06.48,1.18.17-.05Z" transform="translate(-13.63 -54.29)"/><path class="cls-2" d="M464.92,387l-.8-1.07-.15.1.8,1.07.15-.1Z" transform="translate(-13.63 -54.29)"/><path class="cls-2" d="M466.71,385.46l-1.16-.91-.11.15,1.15.9.12-.14Z" transform="translate(-13.63 -54.29)"/><path class="cls-2" d="M468.09,383.44l-1.61-.69-.06.18,1.59.67a1.19,1.19,0,0,0,.08-.16Z" transform="translate(-13.63 -54.29)"/><path class="cls-2" d="M468.93,381.06l-2.18-.3V381l2.14.29a1.16,1.16,0,0,0,0-.18Z" transform="translate(-13.63 -54.29)"/><path class="cls-2" d="M469.13,378.47l-2.79.38a.87.87,0,0,1,.07.17l2.72-.37v-.18Z" transform="translate(-13.63 -54.29)"/><path class="cls-2" d="M468.62,375.88l-3.22,1.36.12.15,3.15-1.34a.84.84,0,0,0-.05-.17Z" transform="translate(-13.63 -54.29)"/><path class="cls-2" d="M467.4,373.5l-2.93,2.3.11.15,2.93-2.3-.11-.15Z" transform="translate(-13.63 -54.29)"/><path class="cls-2" d="M465.57,371.54l-2.29,3.07.14.11,2.29-3.06-.14-.12Z" transform="translate(-13.63 -54.29)"/><path class="cls-2" d="M463.27,370.19l-1.45,3.59.17.07,1.44-3.59-.16-.07Z" transform="translate(-13.63 -54.29)"/><path class="cls-2" d="M460.69,369.57l-.49,3.79.18,0,.49-3.79-.18,0Z" transform="translate(-13.63 -54.29)"/><polygon class="cls-2" points="524.06 137.09 524.45 137.09 524.45 148.44 524.06 148.44 524.06 137.09 524.06 137.09"/><polygon class="cls-2" points="518.22 138.13 518.59 138.01 520.91 148.97 520.54 149.09 518.22 138.13 518.22 138.13"/><polygon class="cls-2" points="512.78 141.05 513.12 140.81 517.6 150.63 517.27 150.87 512.78 141.05 512.78 141.05"/><polygon class="cls-2" points="508.13 145.64 508.4 145.3 514.74 153.32 514.47 153.67 508.13 145.64 508.13 145.64"/><path class="cls-2" d="M518.63,205.64,526,211c-.08.13-.16.26-.23.39l-7.29-5.32c.06-.15.12-.29.17-.44Z" transform="translate(-13.63 -54.29)"/><path class="cls-2" d="M516.71,212.56l7.4,2.51c-.05.14-.1.3-.15.45L516.64,213c0-.15.05-.31.07-.47Z" transform="translate(-13.63 -54.29)"/><path class="cls-2" d="M516.31,219.74h6.77c0,.16,0,.33-.05.49h-6.7c0-.16,0-.32,0-.49Z" transform="translate(-13.63 -54.29)"/><path class="cls-2" d="M517.36,226.69l5.67-1.92c0,.16,0,.32.05.48l-5.59,1.9c0-.15-.09-.3-.13-.46Z" transform="translate(-13.63 -54.29)"/><path class="cls-2" d="M519.74,233l4.34-3.17.15.45L520,233.36l-.21-.4Z" transform="translate(-13.63 -54.29)"/><path class="cls-2" d="M523.23,238.19l3-3.82.24.37-3,3.77c-.1-.1-.19-.21-.28-.32Z" transform="translate(-13.63 -54.29)"/><path class="cls-2" d="M527.56,242.13l1.85-4.06a2.69,2.69,0,0,0,.32.27l-1.83,4-.34-.22Z" transform="translate(-13.63 -54.29)"/><path class="cls-2" d="M532.48,244.58l.86-4.07.37.14-.86,4-.37-.12Z" transform="translate(-13.63 -54.29)"/><path class="cls-2" d="M538.08,245.44v-4h-.39v4h.39Z" transform="translate(-13.63 -54.29)"/><path class="cls-2" d="M543.29,244.58l-.86-4.07-.36.14.85,4,.37-.12Z" transform="translate(-13.63 -54.29)"/><path class="cls-2" d="M548.21,242.13l-1.85-4-.32.26,1.83,4,.34-.22Z" transform="translate(-13.63 -54.29)"/><path class="cls-2" d="M552.54,238.19l-3-3.82-.24.37,3,3.78.28-.33Z" transform="translate(-13.63 -54.29)"/><path class="cls-2" d="M556,233l-4.34-3.17-.15.45,4.28,3.13L556,233Z" transform="translate(-13.63 -54.29)"/><path class="cls-2" d="M558.41,226.69l-5.67-1.92c0,.16,0,.32,0,.48l5.6,1.9.12-.46Z" transform="translate(-13.63 -54.29)"/><path class="cls-2" d="M559.46,219.74H552.7c0,.16,0,.33,0,.49h6.69c0-.16,0-.32,0-.49Z" transform="translate(-13.63 -54.29)"/><path class="cls-2" d="M559.06,212.56l-7.4,2.51c.05.14.1.3.15.45l7.32-2.49c0-.15,0-.31-.07-.47Z" transform="translate(-13.63 -54.29)"/><path class="cls-2" d="M557.14,205.64,549.79,211c.08.13.16.26.23.39l7.29-5.32c-.06-.15-.12-.29-.17-.44Z" transform="translate(-13.63 -54.29)"/><polygon class="cls-2" points="540.38 145.64 540.11 145.3 533.77 153.32 534.04 153.67 540.38 145.64 540.38 145.64"/><polygon class="cls-2" points="535.73 141.05 535.39 140.81 530.91 150.63 531.24 150.87 535.73 141.05 535.73 141.05"/><polygon class="cls-2" points="530.29 138.13 529.92 138 527.6 148.97 527.97 149.09 530.29 138.13 530.29 138.13"/><path class="cls-2" d="M535.24,203.83l.76,7.31-.29.05L535,203.9l.29-.07Z" transform="translate(-13.63 -54.29)"/><path class="cls-2" d="M531.26,205.49l2.13,6.49-.27.14L531,205.66l.26-.17Z" transform="translate(-13.63 -54.29)"/><path class="cls-2" d="M527.86,208.41l3.17,5.23-.23.22-3.15-5.2.21-.25Z" transform="translate(-13.63 -54.29)"/><path class="cls-2" d="M525.26,212.29,529.1,216l-.18.29-3.81-3.7.15-.32Z" transform="translate(-13.63 -54.29)"/><path class="cls-2" d="M523.61,216.79l4.11,2.16-.11.34-4.09-2.15.09-.35Z" transform="translate(-13.63 -54.29)"/><path class="cls-2" d="M522.94,221.55l4,.68,0,.36-4-.67c0-.12,0-.24,0-.37Z" transform="translate(-13.63 -54.29)"/><path class="cls-2" d="M523.22,226.26l3.57-.6c0,.13,0,.25,0,.38l-3.5.58-.06-.36Z" transform="translate(-13.63 -54.29)"/><path class="cls-2" d="M524.38,230.64l2.69-1.41c0,.12,0,.23.08.35L524.51,231l-.13-.33Z" transform="translate(-13.63 -54.29)"/><path class="cls-2" d="M526.31,234.46l1.93-1.88c0,.11.11.21.16.31l-1.91,1.85-.18-.28Z" transform="translate(-13.63 -54.29)"/><path class="cls-2" d="M528.86,237.57l1.32-2.18.22.23-1.31,2.17-.23-.22Z" transform="translate(-13.63 -54.29)"/><path class="cls-2" d="M531.9,239.83l.78-2.39.27.15-.78,2.38-.27-.14Z" transform="translate(-13.63 -54.29)"/><path class="cls-2" d="M535.29,241.12l.26-2.5.28.06-.26,2.5-.28-.06Z" transform="translate(-13.63 -54.29)"/><path class="cls-2" d="M539.14,241.34l-.26-2.5-.29,0,.26,2.49.29,0Z" transform="translate(-13.63 -54.29)"/><path class="cls-2" d="M542.69,240.41l-.77-2.37-.28.12.78,2.36.27-.11Z" transform="translate(-13.63 -54.29)"/><path class="cls-2" d="M546,238.36l-1.3-2.13-.24.21,1.29,2.12.25-.2Z" transform="translate(-13.63 -54.29)"/><path class="cls-2" d="M548.92,235.26l-1.87-1.82-.18.29,1.85,1.8.2-.27Z" transform="translate(-13.63 -54.29)"/><path class="cls-2" d="M551.16,231.23l-2.61-1.37-.09.35,2.56,1.34c.05-.1.09-.21.14-.32Z" transform="translate(-13.63 -54.29)"/><path class="cls-2" d="M552.51,226.48l-3.53-.59c0,.13,0,.25,0,.37l3.46.58.06-.36Z" transform="translate(-13.63 -54.29)"/><path class="cls-2" d="M552.82,221.33l-4.49.75c0,.11.07.23.11.35l4.4-.73c0-.13,0-.25,0-.37Z" transform="translate(-13.63 -54.29)"/><path class="cls-2" d="M552,216.16l-5.2,2.72c.07.1.13.2.19.3l5.1-2.67-.09-.35Z" transform="translate(-13.63 -54.29)"/><path class="cls-2" d="M550,211.42l-4.73,4.6.17.29,4.73-4.59c-.06-.1-.12-.2-.17-.3Z" transform="translate(-13.63 -54.29)"/><path class="cls-2" d="M547.08,207.53l-3.71,6.11.23.22,3.7-6.1-.22-.23Z" transform="translate(-13.63 -54.29)"/><path class="cls-2" d="M543.36,204.84,541,212l.27.14,2.33-7.14-.26-.14Z" transform="translate(-13.63 -54.29)"/><path class="cls-2" d="M539.19,203.61l-.78,7.53.28.05.79-7.55-.29,0Z" transform="translate(-13.63 -54.29)"/><polygon class="cls-2" points="404.66 45.98 405.03 45.98 405.03 54.04 404.66 54.04 404.66 45.98 404.66 45.98"/><polygon class="cls-2" points="399 46.71 399.36 46.62 401.61 54.42 401.25 54.51 399 46.71 399 46.71"/><polygon class="cls-2" points="393.75 48.79 394.07 48.61 398.4 55.6 398.08 55.77 393.75 48.79 393.75 48.79"/><polygon class="cls-2" points="389.24 52.05 389.51 51.81 395.64 57.52 395.38 57.76 389.24 52.05 389.24 52.05"/><path class="cls-2" d="M399.85,110.41l7.1,3.81c-.07.09-.15.18-.22.28l-7.05-3.79.17-.3Z" transform="translate(-13.63 -54.29)"/><path class="cls-2" d="M398,115.32l7.16,1.78-.15.32-7.08-1.76c0-.11,0-.23.07-.34Z" transform="translate(-13.63 -54.29)"/><path class="cls-2" d="M397.6,120.43h6.55c0,.11,0,.23,0,.35h-6.48c0-.12,0-.23,0-.35Z" transform="translate(-13.63 -54.29)"/><path class="cls-2" d="M398.62,125.37,404.1,124c0,.11,0,.23,0,.34l-5.41,1.35-.12-.33Z" transform="translate(-13.63 -54.29)"/><path class="cls-2" d="M400.92,129.83l4.2-2.25c.05.1.09.21.15.31l-4.15,2.23-.2-.29Z" transform="translate(-13.63 -54.29)"/><path class="cls-2" d="M404.29,133.55l2.92-2.72.24.27-2.88,2.68-.28-.23Z" transform="translate(-13.63 -54.29)"/><path class="cls-2" d="M408.48,136.35l1.79-2.88.31.19-1.77,2.85-.33-.16Z" transform="translate(-13.63 -54.29)"/><path class="cls-2" d="M413.24,138.09l.84-2.89.35.1-.83,2.87-.36-.08Z" transform="translate(-13.63 -54.29)"/><path class="cls-2" d="M418.66,138.7v-2.87h-.37v2.87h.37Z" transform="translate(-13.63 -54.29)"/><path class="cls-2" d="M423.71,138.09l-.84-2.89-.35.1.83,2.87.36-.08Z" transform="translate(-13.63 -54.29)"/><path class="cls-2" d="M428.46,136.35l-1.79-2.88-.3.19,1.77,2.85.32-.16Z" transform="translate(-13.63 -54.29)"/><path class="cls-2" d="M432.66,133.55l-2.92-2.72-.24.27,2.88,2.68.28-.23Z" transform="translate(-13.63 -54.29)"/><path class="cls-2" d="M436,129.83l-4.2-2.25-.15.31,4.15,2.23c.06-.1.13-.19.2-.29Z" transform="translate(-13.63 -54.29)"/><path class="cls-2" d="M438.33,125.37,432.85,124c0,.11,0,.23-.05.34l5.41,1.35.12-.33Z" transform="translate(-13.63 -54.29)"/><path class="cls-2" d="M439.35,120.43H432.8c0,.11,0,.23.05.35h6.48c0-.12,0-.23,0-.35Z" transform="translate(-13.63 -54.29)"/><path class="cls-2" d="M439,115.32l-7.16,1.78.14.32,7.09-1.76c0-.11,0-.23-.07-.34Z" transform="translate(-13.63 -54.29)"/><path class="cls-2" d="M437.1,110.4l-7.1,3.82c.07.09.15.18.22.28l7-3.79-.16-.31Z" transform="translate(-13.63 -54.29)"/><polygon class="cls-2" points="420.44 52.05 420.18 51.81 414.05 57.52 414.31 57.76 420.44 52.05 420.44 52.05"/><polygon class="cls-2" points="415.94 48.79 415.62 48.61 411.28 55.6 411.6 55.77 415.94 48.79 415.94 48.79"/><polygon class="cls-2" points="410.68 46.71 410.33 46.62 408.08 54.42 408.44 54.51 410.68 46.71 410.68 46.71"/><path class="cls-2" d="M415.91,109.12l.74,5.19-.28,0-.73-5.18.27,0Z" transform="translate(-13.63 -54.29)"/><path class="cls-2" d="M412.07,110.29l2.05,4.62-.26.1-2-4.6.25-.12Z" transform="translate(-13.63 -54.29)"/><path class="cls-2" d="M408.78,112.37l3.06,3.72-.22.16-3.05-3.7.21-.18Z" transform="translate(-13.63 -54.29)"/><path class="cls-2" d="M406.26,115.13l3.71,2.65-.17.21-3.69-2.63.15-.23Z" transform="translate(-13.63 -54.29)"/><path class="cls-2" d="M404.66,118.33l4,1.53-.11.24-3.95-1.52a2.41,2.41,0,0,1,.08-.25Z" transform="translate(-13.63 -54.29)"/><path class="cls-2" d="M404,121.72l3.92.48,0,.26L404,122c0-.09,0-.17,0-.26Z" transform="translate(-13.63 -54.29)"/><path class="cls-2" d="M404.29,125.06l3.45-.42c0,.09,0,.18,0,.27l-3.39.41a2.38,2.38,0,0,1,0-.26Z" transform="translate(-13.63 -54.29)"/><path class="cls-2" d="M405.41,128.18l2.6-1a2.58,2.58,0,0,0,.08.26l-2.56,1-.12-.23Z" transform="translate(-13.63 -54.29)"/><path class="cls-2" d="M407.27,130.9l1.87-1.34c.06.07.11.15.16.22l-1.85,1.32-.18-.2Z" transform="translate(-13.63 -54.29)"/><path class="cls-2" d="M409.74,133.11l1.28-1.55.22.16L410,133.26l-.23-.15Z" transform="translate(-13.63 -54.29)"/><path class="cls-2" d="M412.68,134.71l.76-1.7.26.11-.76,1.7-.26-.11Z" transform="translate(-13.63 -54.29)"/><path class="cls-2" d="M416,135.63l.25-1.78.28.05-.25,1.77-.28,0Z" transform="translate(-13.63 -54.29)"/><path class="cls-2" d="M419.69,135.79l-.25-1.78-.28,0,.25,1.78.28,0Z" transform="translate(-13.63 -54.29)"/><path class="cls-2" d="M423.13,135.12l-.75-1.68-.27.09.75,1.68.27-.09Z" transform="translate(-13.63 -54.29)"/><path class="cls-2" d="M426.35,133.67l-1.25-1.52-.23.15,1.24,1.51.24-.14Z" transform="translate(-13.63 -54.29)"/><path class="cls-2" d="M429.15,131.46l-1.81-1.29-.17.21,1.79,1.28.19-.2Z" transform="translate(-13.63 -54.29)"/><path class="cls-2" d="M431.31,128.6l-2.52-1a2.34,2.34,0,0,1-.09.24l2.48,1,.13-.23Z" transform="translate(-13.63 -54.29)"/><path class="cls-2" d="M432.63,125.22l-3.42-.42a2.44,2.44,0,0,1,0,.27l3.35.41.06-.26Z" transform="translate(-13.63 -54.29)"/><path class="cls-2" d="M432.93,121.56l-4.35.53.1.25,4.26-.52c0-.09,0-.18,0-.26Z" transform="translate(-13.63 -54.29)"/><path class="cls-2" d="M432.13,117.88l-5,1.94.19.21,4.93-1.9-.09-.25Z" transform="translate(-13.63 -54.29)"/><path class="cls-2" d="M430.23,114.51l-4.58,3.27.17.21,4.57-3.26c-.05-.07-.1-.15-.16-.22Z" transform="translate(-13.63 -54.29)"/><path class="cls-2" d="M427.37,111.75l-3.59,4.34.22.16,3.59-4.34-.22-.16Z" transform="translate(-13.63 -54.29)"/><path class="cls-2" d="M423.77,109.83l-2.26,5.08.26.1,2.26-5.08-.26-.1Z" transform="translate(-13.63 -54.29)"/><path class="cls-2" d="M419.74,109l-.76,5.35.28,0L420,109l-.28,0Z" transform="translate(-13.63 -54.29)"/><path class="cls-32" d="M96.32,355.9h-1l-.2,4.17s-1.19.56-3.47-.75l-.27.58s2.14,1.68,3.59,1.2c.07,1.46,0,6.22,0,6.22a9.61,9.61,0,0,1-6.93-3l-.39.88a12.27,12.27,0,0,0,7.24,3.54c.31,1.21-1.24,22.58-1.24,22.58l4.78,0s-1.17-21.73-1.16-22.57c4.16-.35,5.64-1.93,6.47-2.93l-.39-.6s-3.06,2.65-6.19,2.08l-.33-6a5,5,0,0,0,3-1.15l-.28-.76a4.68,4.68,0,0,1-2.88.92c-.17-1.57-.33-4.37-.33-4.37Z" transform="translate(-13.63 -54.29)"/><path class="cls-32" d="M525.79,389.14h-.67l-.14,4.39s-.81.59-2.39-.79l-.18.61s1.47,1.77,2.47,1.27c0,1.53,0,6.55,0,6.55s-2.63.23-4.76-3.17l-.27.92c.67.84,2.19,3.32,5,3.73.21,1.27-.86,23.78-.86,23.78l3.29,0s-.81-22.89-.8-23.77a5.4,5.4,0,0,0,4.45-3.09l-.27-.63s-2.1,2.79-4.25,2.19l-.23-6.32a2.78,2.78,0,0,0,2-1.21l-.19-.8a2.66,2.66,0,0,1-2,1c-.11-1.65-.22-4.6-.22-4.6Z" transform="translate(-13.63 -54.29)"/><path class="cls-32" d="M460.35,376.85h-.55l-.12,2.42s-.68.32-2-.44l-.16.33s1.23,1,2,.71c.05.84,0,3.6,0,3.6a5.43,5.43,0,0,1-3.95-1.74l-.22.5a6.87,6.87,0,0,0,4.13,2.06c.17.7-.71,13.09-.71,13.09h2.73s-.67-12.61-.66-13.09c2.37-.21,3.22-1.12,3.69-1.7l-.22-.35a4.86,4.86,0,0,1-3.53,1.2l-.19-3.48a2.81,2.81,0,0,0,1.7-.66l-.16-.44a2.61,2.61,0,0,1-1.64.53c-.1-.91-.19-2.53-.19-2.53Z" transform="translate(-13.63 -54.29)"/><path class="cls-32" d="M538.64,218.09h-.89l-.19,4.81s-1.09.65-3.2-.86l-.25.66s2,1.95,3.31,1.4c.07,1.68,0,7.18,0,7.18s-3.53.25-6.39-3.48l-.36,1c.89.92,2.94,3.64,6.68,4.09.28,1.39-1.15,26.08-1.15,26.08l4.41,0s-1.08-25.11-1.07-26.07c3.84-.41,5.2-2.23,6-3.39l-.36-.69s-2.82,3.06-5.71,2.4l-.3-6.93a4.05,4.05,0,0,0,2.75-1.33l-.26-.88a3.79,3.79,0,0,1-2.66,1.06c-.15-1.8-.3-5-.3-5Z" transform="translate(-13.63 -54.29)"/><path class="cls-32" d="M419.21,119.26h-.87l-.18,3.43s-1.06.46-3.1-.62l-.24.47s1.92,1.39,3.21,1c.06,1.2,0,5.11,0,5.11a9,9,0,0,1-6.18-2.47l-.35.72a11.3,11.3,0,0,0,6.46,2.91c.28,1-1.1,18.55-1.1,18.55l4.26,0s-1-17.86-1-18.54c3.71-.29,5-1.59,5.77-2.41l-.34-.49s-2.74,2.17-5.53,1.7l-.29-4.93a4.66,4.66,0,0,0,2.66-.94l-.25-.63a4.35,4.35,0,0,1-2.57.76c-.15-1.29-.29-3.59-.29-3.59Z" transform="translate(-13.63 -54.29)"/><polygon class="cls-33" points="236.3 45.32 239.15 53.32 237.41 53.32 240.64 59.79 238.16 59.79 242.08 66.17 239.18 66.19 244.75 76.19 241.44 76.19 247.2 88.43 236.14 88.43 236.3 45.32 236.3 45.32"/><polygon class="cls-33" points="172.21 179.59 177.95 195.71 174.44 195.71 180.96 208.77 175.96 208.77 183.87 221.63 178.01 221.67 189.25 241.84 182.57 241.84 194.18 266.53 171.89 266.53 172.21 179.59 172.21 179.59"/><polygon class="cls-33" points="263.77 32.63 267.45 42.98 265.2 42.98 269.38 51.36 266.18 51.36 271.25 59.62 267.49 59.64 274.71 72.58 270.42 72.58 277.87 88.43 263.56 88.43 263.77 32.63 263.77 32.63"/><polygon class="cls-33" points="91.32 33.22 95 43.57 92.75 43.57 96.93 51.95 93.73 51.95 98.8 60.2 95.04 60.23 102.26 73.17 97.97 73.17 105.42 89.02 91.11 89.02 91.32 33.22 91.32 33.22"/><polygon class="cls-33" points="420.09 389.38 423.1 397.85 421.26 397.85 424.68 404.71 422.06 404.71 426.21 411.46 423.13 411.48 429.04 422.07 425.53 422.07 431.62 435.04 419.92 435.04 420.09 389.38 420.09 389.38"/><polygon class="cls-33" points="190.8 380.75 194.49 391.09 192.24 391.09 196.42 399.48 193.21 399.48 198.28 407.73 194.53 407.75 201.74 420.69 197.46 420.69 204.9 436.55 190.6 436.55 190.8 380.75 190.8 380.75"/><polygon class="cls-34" points="236.3 45.32 233.49 53.32 235.22 53.32 232 59.79 234.47 59.79 230.55 66.17 233.45 66.19 227.88 76.19 231.19 76.19 225.44 88.43 236.14 88.43 236.3 45.32 236.3 45.32"/><polygon class="cls-34" points="172.21 179.59 166.53 195.71 170.03 195.71 163.52 208.77 168.51 208.77 160.61 221.63 166.46 221.67 155.22 241.84 161.9 241.84 150.3 266.53 171.89 266.53 172.21 179.59 172.21 179.59"/><polygon class="cls-34" points="263.77 32.63 260.12 42.98 262.37 42.98 258.19 51.36 261.4 51.36 256.33 59.62 260.08 59.64 252.87 72.58 257.15 72.58 249.71 88.43 263.56 88.43 263.77 32.63 263.77 32.63"/><polygon class="cls-34" points="91.32 33.22 87.67 43.57 89.92 43.57 85.74 51.95 88.94 51.95 83.87 60.2 87.63 60.23 80.42 73.17 84.7 73.17 77.25 89.02 91.11 89.02 91.32 33.22 91.32 33.22"/><polygon class="cls-34" points="420.09 389.38 417.1 397.85 418.94 397.85 415.52 404.71 418.14 404.71 414 411.46 417.07 411.48 411.17 422.07 414.67 422.07 408.58 435.04 419.92 435.04 420.09 389.38 420.09 389.38"/><polygon class="cls-34" points="190.8 380.75 187.16 391.09 189.41 391.09 185.23 399.48 188.43 399.48 183.36 407.73 187.12 407.75 179.9 420.69 184.19 420.69 176.74 436.55 190.6 436.55 190.8 380.75 190.8 380.75"/></svg>