<svg id="Layer_1" data-name="Layer 1" xmlns="http://www.w3.org/2000/svg" viewBox="0 0 321.89 121.03"><defs><style>.cls-1,.cls-6{fill:#5c667f;}.cls-1{opacity:0.07;}.cls-10,.cls-2,.cls-3,.cls-4,.cls-5,.cls-7,.cls-9{fill:#fff;}.cls-10,.cls-11,.cls-2,.cls-3,.cls-4,.cls-7,.cls-8,.cls-9{stroke:#5c667f;}.cls-2{stroke-miterlimit:6;}.cls-2,.cls-3,.cls-4,.cls-8{stroke-width:0.95px;}.cls-10,.cls-11,.cls-3,.cls-9{stroke-linecap:round;}.cls-10,.cls-11,.cls-3{stroke-linejoin:round;}.cls-4,.cls-7,.cls-8,.cls-9{stroke-miterlimit:10;}.cls-11,.cls-8{fill:none;}.cls-11{stroke-width:1.5px;}</style></defs><title>shutterstock_1040674000 city [Converted]</title><polygon class="cls-1" points="92.01 56.68 84.4 56.68 84.4 53.7 75.42 53.7 75.42 56.68 67.81 56.68 67.81 61.36 64.16 61.36 64.16 67.57 60.13 67.57 60.13 61.49 57.32 61.49 57.32 55.32 52.4 38.94 47.5 55.32 47.5 61.49 44.92 61.49 44.92 67.57 43.03 67.57 43.03 65.95 25.96 65.95 25.96 74.59 23.38 74.59 23.38 96.38 5.88 104.46 5.88 119.78 42.92 119.78 45.6 119.78 64.16 119.78 95.66 119.78 95.66 61.36 92.01 61.36 92.01 56.68"/><polygon class="cls-1" points="115.58 42.14 108.73 39.68 108.73 33.43 107.71 33.43 107.71 39.32 101.19 36.97 101.19 45.06 98.4 44.06 98.4 106.88 118.15 106.88 118.15 51.16 115.58 50.23 115.58 42.14"/><polygon class="cls-1" points="142.09 55.92 139.18 55.92 139.18 51.68 137.04 51.68 137.04 48.12 135.66 48.12 135.66 44.31 132.57 44.31 132.57 36.27 131.62 36.27 131.62 44.31 128.53 44.31 128.53 48.12 127.15 48.12 127.15 51.68 125.01 51.68 125.01 55.92 122.1 55.92 122.1 60.52 119.08 60.52 119.08 119.78 145.1 119.78 145.1 60.52 142.09 60.52 142.09 55.92"/><polygon class="cls-1" points="213.89 47.05 207.47 44.75 207.47 38.89 206.52 38.89 206.52 44.41 200.41 42.21 200.41 49.79 197.8 48.85 197.8 69.25 195.23 69.25 195.23 65.05 191.81 65.05 191.81 60.67 184.68 60.67 184.68 57.88 176.27 57.88 176.27 60.67 169.14 60.67 169.14 65.05 165.72 65.05 165.72 70.87 164.64 70.87 164.64 52.32 149.93 44.31 149.93 119.78 162.8 119.78 164.64 119.78 195.23 119.78 213.35 119.78 213.35 107.69 216.3 107.69 216.3 55.5 213.89 54.63 213.89 47.05"/><polygon class="cls-1" points="238.72 59.96 236 59.96 236 55.99 234 55.99 234 52.66 232.7 52.66 232.7 49.08 229.81 49.08 229.81 41.56 228.92 41.56 228.92 49.08 226.02 49.08 226.02 52.66 224.73 52.66 224.73 55.99 222.72 55.99 222.72 59.96 220 59.96 220 64.27 217.17 64.27 217.17 119.78 241.55 119.78 241.55 64.27 238.72 64.27 238.72 59.96"/><polygon class="cls-1" points="313.8 104.39 305.48 104.39 305.48 95.73 299.32 95.73 292.93 90.92 292.93 76.96 291.13 76.96 291.13 72.45 286.58 72.45 286.58 69.58 281.21 69.58 281.21 72.45 276.67 72.45 276.67 76.96 274.49 76.96 274.49 87.86 272.23 87.86 272.23 64.45 261.34 70.95 261.34 90.92 259.85 90.92 259.85 56.58 246.07 49.08 246.07 119.78 259.85 119.78 305.48 119.78 305.48 119.39 313.8 119.39 313.8 104.39"/><path class="cls-2" d="M122.93,70c0-3.84-3.82-4.19-6.12-2.95a2.8,2.8,0,0,0-4.58-3.09c.36-2.6-2-5.51-5.91-4.75s-4.45,4.07-3.86,7.22c-3-3-9.45-2.29-9.3,3.57Z" transform="translate(-7.81 -25.32)"/><path class="cls-2" d="M230.18,43.46c0-3.84-3.82-4.19-6.13-3a2.79,2.79,0,0,0-4.57-3.09c.36-2.6-2-5.51-5.91-4.75s-4.45,4.07-3.86,7.22c-3-3-9.46-2.29-9.3,3.57Z" transform="translate(-7.81 -25.32)"/><path class="cls-2" d="M169,45.9c0-2.67-2.66-2.92-4.26-2a1.94,1.94,0,0,0-3.18-2.15c.25-1.81-1.37-3.84-4.11-3.31s-3.09,2.83-2.68,5c-2.06-2.1-6.58-1.59-6.47,2.49Z" transform="translate(-7.81 -25.32)"/><path class="cls-2" d="M277,51.65c0-2.67-2.66-2.92-4.26-2a1.94,1.94,0,0,0-3.18-2.15c.25-1.81-1.37-3.84-4.11-3.31s-3.09,2.83-2.68,5c-2.06-2.1-6.58-1.59-6.47,2.49Z" transform="translate(-7.81 -25.32)"/><path class="cls-2" d="M72.36,40.85c0-2.13,3.29-2.85,4.76-1.64a2.59,2.59,0,0,1,4.62-1.72c.36-5.11,9.26-4.28,8.61,1.34,2.3-1.69,5.35.14,5.13,2Z" transform="translate(-7.81 -25.32)"/><path class="cls-2" d="M41.1,71.48c0-1.58,2.44-2.11,3.52-1.21A1.91,1.91,0,0,1,48,69c.28-3.78,6.84-3.16,6.36,1,1.7-1.24,3.95.11,3.79,1.5Z" transform="translate(-7.81 -25.32)"/><path class="cls-2" d="M263.35,77.48c0-1.58,2.44-2.11,3.52-1.21a1.91,1.91,0,0,1,3.4-1.27c.28-3.78,6.84-3.16,6.36,1,1.7-1.24,3.94.11,3.79,1.5Z" transform="translate(-7.81 -25.32)"/><path class="cls-2" d="M184.51,74.15c0-1.69-2.6-2.26-3.76-1.3a2,2,0,0,0-3.64-1.36c-.29-4-7.31-3.38-6.81,1.06-1.81-1.33-4.21.11-4,1.6Z" transform="translate(-7.81 -25.32)"/><path class="cls-3" d="M137.49,82.11A4.16,4.16,0,0,1,139.91,84a6.43,6.43,0,0,1,2.51-1.89" transform="translate(-7.81 -25.32)"/><path class="cls-3" d="M63,52.28a4.16,4.16,0,0,1,2.42,1.93,6.43,6.43,0,0,1,2.51-1.89" transform="translate(-7.81 -25.32)"/><path class="cls-3" d="M237.26,58A4.16,4.16,0,0,1,239.68,60a6.43,6.43,0,0,1,2.51-1.89" transform="translate(-7.81 -25.32)"/><path class="cls-3" d="M70.76,56.84a3.37,3.37,0,0,1,1.63,1.07,3.74,3.74,0,0,1,1.48-1.31" transform="translate(-7.81 -25.32)"/><path class="cls-3" d="M296.05,87.89A3.29,3.29,0,0,1,297.68,89a3.74,3.74,0,0,1,1.48-1.31" transform="translate(-7.81 -25.32)"/><path class="cls-3" d="M212.3,78.39a3.29,3.29,0,0,1,1.63,1.07,3.74,3.74,0,0,1,1.48-1.31" transform="translate(-7.81 -25.32)"/><path class="cls-3" d="M115.45,26a3.31,3.31,0,0,1,1.63,1.06,3.84,3.84,0,0,1,1.48-1.31" transform="translate(-7.81 -25.32)"/><path class="cls-3" d="M28.45,85.79a3.31,3.31,0,0,1,1.63,1.06,3.84,3.84,0,0,1,1.48-1.31" transform="translate(-7.81 -25.32)"/><polygon class="cls-4" points="119.33 71.96 115.89 71.96 115.89 67.66 113.61 67.66 113.61 63.3 109.62 51.72 105.64 63.3 105.64 67.66 103.55 67.66 103.55 71.96 100.05 71.96 100.05 119.28 119.33 119.28 119.33 71.96"/><rect class="cls-5" x="105.23" y="74.84" width="0.08" height="43.96"/><polygon class="cls-6" points="105.79 74.36 104.76 74.36 104.76 119.28 105.79 119.28 105.79 74.36 105.79 74.36"/><rect class="cls-5" x="108.18" y="74.84" width="0.08" height="43.96"/><polygon class="cls-6" points="108.74 74.36 107.7 74.36 107.7 119.28 108.74 119.28 108.74 74.36 108.74 74.36"/><rect class="cls-5" x="111.13" y="74.84" width="0.08" height="43.96"/><polygon class="cls-6" points="111.69 74.36 110.65 74.36 110.65 119.28 111.69 119.28 111.69 74.36 111.69 74.36"/><rect class="cls-5" x="114.07" y="74.84" width="0.08" height="43.96"/><polygon class="cls-6" points="114.63 74.36 113.6 74.36 113.6 119.28 114.63 119.28 114.63 74.36 114.63 74.36"/><polygon class="cls-4" points="186.38 79.03 186.38 73.73 187.78 73.73 187.78 71.5 188.81 71.5 188.81 70.86 191.02 70.86 191.02 71.5 191.74 71.5 191.74 70.86 193.96 70.86 193.96 71.5 194.49 71.5 194.49 70.86 196.82 70.86 196.82 71.5 197.73 71.5 197.73 73.73 201.23 73.73 201.23 71.5 203.91 71.5 203.91 66.75 204.8 66.75 204.8 71.5 206.9 71.5 206.9 66.75 207.78 66.75 207.78 71.5 211.18 71.5 211.18 73.73 212.94 73.73 212.94 79.03 217.83 79.03 217.83 119.28 181.94 119.28 181.94 79.03 186.38 79.03"/><polygon class="cls-4" points="236.17 71.96 233.42 71.96 233.42 62.76 231.6 62.76 231.6 58.4 228.42 46.81 225.24 58.4 225.24 62.76 223.57 62.76 223.57 71.96 220.78 71.96 220.78 119.28 236.17 119.28 236.17 71.96"/><line class="cls-4" x1="224.72" y1="76.64" x2="224.72" y2="103.81"/><line class="cls-4" x1="228.64" y1="76.64" x2="228.64" y2="100.64"/><line class="cls-4" x1="232.55" y1="76.64" x2="232.55" y2="104.47"/><polygon class="cls-4" points="174.96 81.31 174.96 75.09 169.69 73.2 169.69 68.39 168.91 68.39 168.91 72.92 163.89 71.12 163.89 77.33 161.76 76.57 161.76 119.28 176.93 119.28 176.93 82.02 174.96 81.31"/><polygon class="cls-7" points="63.06 86.08 63.06 84.22 54.85 84.22 54.85 86.08 51.35 86.08 51.35 119.28 66.57 119.28 66.57 86.08 63.06 86.08"/><rect class="cls-5" x="55.35" y="90.42" width="0.67" height="0.8"/><polygon class="cls-6" points="56.52 89.92 54.85 89.92 54.85 91.72 56.52 91.72 56.52 89.92 56.52 89.92"/><rect class="cls-5" x="58.62" y="90.42" width="0.67" height="0.8"/><polygon class="cls-6" points="59.79 89.92 58.12 89.92 58.12 91.72 59.79 91.72 59.79 89.92 59.79 89.92"/><rect class="cls-5" x="61.89" y="90.42" width="0.67" height="0.8"/><polygon class="cls-6" points="63.06 89.92 61.39 89.92 61.39 91.72 63.06 91.72 63.06 89.92 63.06 89.92"/><rect class="cls-5" x="55.35" y="93.72" width="0.67" height="0.8"/><polygon class="cls-6" points="56.52 93.22 54.85 93.22 54.85 95.02 56.52 95.02 56.52 93.22 56.52 93.22"/><rect class="cls-5" x="58.62" y="93.72" width="0.67" height="0.8"/><polygon class="cls-6" points="59.79 93.22 58.12 93.22 58.12 95.02 59.79 95.02 59.79 93.22 59.79 93.22"/><rect class="cls-5" x="61.89" y="93.72" width="0.67" height="0.8"/><polygon class="cls-6" points="63.06 93.22 61.39 93.22 61.39 95.02 63.06 95.02 63.06 93.22 63.06 93.22"/><rect class="cls-5" x="55.35" y="97.02" width="0.67" height="0.8"/><polygon class="cls-6" points="56.52 96.52 54.85 96.52 54.85 98.32 56.52 98.32 56.52 96.52 56.52 96.52"/><rect class="cls-5" x="58.62" y="97.02" width="0.67" height="0.8"/><polygon class="cls-6" points="59.79 96.52 58.12 96.52 58.12 98.32 59.79 98.32 59.79 96.52 59.79 96.52"/><rect class="cls-5" x="61.89" y="97.02" width="0.67" height="0.8"/><polygon class="cls-6" points="63.06 96.52 61.39 96.52 61.39 98.32 63.06 98.32 63.06 96.52 63.06 96.52"/><rect class="cls-5" x="55.35" y="100.31" width="0.67" height="0.8"/><polygon class="cls-6" points="56.52 99.81 54.85 99.81 54.85 101.61 56.52 101.61 56.52 99.81 56.52 99.81"/><rect class="cls-5" x="58.62" y="100.31" width="0.67" height="0.8"/><polygon class="cls-6" points="59.79 99.81 58.12 99.81 58.12 101.61 59.79 101.61 59.79 99.81 59.79 99.81"/><rect class="cls-5" x="61.89" y="100.31" width="0.67" height="0.8"/><polygon class="cls-6" points="63.06 99.81 61.39 99.81 61.39 101.61 63.06 101.61 63.06 99.81 63.06 99.81"/><rect class="cls-5" x="55.35" y="103.61" width="0.67" height="0.8"/><polygon class="cls-6" points="56.52 103.11 54.85 103.11 54.85 104.91 56.52 104.91 56.52 103.11 56.52 103.11"/><rect class="cls-5" x="58.62" y="103.61" width="0.67" height="0.8"/><polygon class="cls-6" points="59.79 103.11 58.12 103.11 58.12 104.91 59.79 104.91 59.79 103.11 59.79 103.11"/><rect class="cls-5" x="61.89" y="103.61" width="0.67" height="0.8"/><polygon class="cls-6" points="63.06 103.11 61.39 103.11 61.39 104.91 63.06 104.91 63.06 103.11 63.06 103.11"/><rect class="cls-5" x="55.35" y="106.91" width="0.67" height="0.8"/><polygon class="cls-6" points="56.52 106.41 54.85 106.41 54.85 108.21 56.52 108.21 56.52 106.41 56.52 106.41"/><rect class="cls-5" x="58.62" y="106.91" width="0.67" height="0.8"/><polygon class="cls-6" points="59.79 106.41 58.12 106.41 58.12 108.21 59.79 108.21 59.79 106.41 59.79 106.41"/><rect class="cls-5" x="61.89" y="106.91" width="0.67" height="0.8"/><polygon class="cls-6" points="63.06 106.41 61.39 106.41 61.39 108.21 63.06 108.21 63.06 106.41 63.06 106.41"/><polygon class="cls-7" points="270.64 86.08 270.64 84.22 262.43 84.22 262.43 86.08 258.92 86.08 258.92 119.28 274.14 119.28 274.14 86.08 270.64 86.08"/><rect class="cls-5" x="262.93" y="90.42" width="0.67" height="0.8"/><polygon class="cls-6" points="264.1 89.92 262.43 89.92 262.43 91.72 264.1 91.72 264.1 89.92 264.1 89.92"/><rect class="cls-5" x="266.2" y="90.42" width="0.67" height="0.8"/><polygon class="cls-6" points="267.37 89.92 265.7 89.92 265.7 91.72 267.37 91.72 267.37 89.92 267.37 89.92"/><rect class="cls-5" x="269.47" y="90.42" width="0.67" height="0.8"/><polygon class="cls-6" points="270.64 89.92 268.97 89.92 268.97 91.72 270.64 91.72 270.64 89.92 270.64 89.92"/><rect class="cls-5" x="262.93" y="93.72" width="0.67" height="0.8"/><polygon class="cls-6" points="264.1 93.22 262.43 93.22 262.43 95.02 264.1 95.02 264.1 93.22 264.1 93.22"/><rect class="cls-5" x="266.2" y="93.72" width="0.67" height="0.8"/><polygon class="cls-6" points="267.37 93.22 265.7 93.22 265.7 95.02 267.37 95.02 267.37 93.22 267.37 93.22"/><rect class="cls-5" x="269.47" y="93.72" width="0.67" height="0.8"/><polygon class="cls-6" points="270.64 93.22 268.97 93.22 268.97 95.02 270.64 95.02 270.64 93.22 270.64 93.22"/><rect class="cls-5" x="262.93" y="97.02" width="0.67" height="0.8"/><polygon class="cls-6" points="264.1 96.52 262.43 96.52 262.43 98.32 264.1 98.32 264.1 96.52 264.1 96.52"/><rect class="cls-5" x="266.2" y="97.02" width="0.67" height="0.8"/><polygon class="cls-6" points="267.37 96.52 265.7 96.52 265.7 98.32 267.37 98.32 267.37 96.52 267.37 96.52"/><rect class="cls-5" x="269.47" y="97.02" width="0.67" height="0.8"/><polygon class="cls-6" points="270.64 96.52 268.97 96.52 268.97 98.32 270.64 98.32 270.64 96.52 270.64 96.52"/><rect class="cls-5" x="262.93" y="100.31" width="0.67" height="0.8"/><polygon class="cls-6" points="264.1 99.81 262.43 99.81 262.43 101.61 264.1 101.61 264.1 99.81 264.1 99.81"/><rect class="cls-5" x="266.2" y="100.31" width="0.67" height="0.8"/><polygon class="cls-6" points="267.37 99.81 265.7 99.81 265.7 101.61 267.37 101.61 267.37 99.81 267.37 99.81"/><rect class="cls-5" x="269.47" y="100.31" width="0.67" height="0.8"/><polygon class="cls-6" points="270.64 99.81 268.97 99.81 268.97 101.61 270.64 101.61 270.64 99.81 270.64 99.81"/><rect class="cls-5" x="262.93" y="103.61" width="0.67" height="0.8"/><polygon class="cls-6" points="264.1 103.11 262.43 103.11 262.43 104.91 264.1 104.91 264.1 103.11 264.1 103.11"/><rect class="cls-5" x="266.2" y="103.61" width="0.67" height="0.8"/><polygon class="cls-6" points="267.37 103.11 265.7 103.11 265.7 104.91 267.37 104.91 267.37 103.11 267.37 103.11"/><rect class="cls-5" x="269.47" y="103.61" width="0.67" height="0.8"/><polygon class="cls-6" points="270.64 103.11 268.97 103.11 268.97 104.91 270.64 104.91 270.64 103.11 270.64 103.11"/><rect class="cls-5" x="262.93" y="106.91" width="0.67" height="0.8"/><polygon class="cls-6" points="264.1 106.41 262.43 106.41 262.43 108.21 264.1 108.21 264.1 106.41 264.1 106.41"/><rect class="cls-5" x="266.2" y="106.91" width="0.67" height="0.8"/><polygon class="cls-6" points="267.37 106.41 265.7 106.41 265.7 108.21 267.37 108.21 267.37 106.41 267.37 106.41"/><rect class="cls-5" x="269.47" y="106.91" width="0.67" height="0.8"/><polygon class="cls-6" points="270.64 106.41 268.97 106.41 268.97 108.21 270.64 108.21 270.64 106.41 270.64 106.41"/><polygon class="cls-4" points="28.73 89.76 28.73 87.11 25.34 87.11 25.34 85.43 23.44 85.43 23.44 83.47 22.59 83.47 22.59 85.43 21 85.43 21 83.47 20.16 83.47 20.16 85.43 18.61 85.43 18.61 87.11 15.22 87.11 15.22 89.76 13.18 89.76 13.18 119.28 30.77 119.28 30.77 89.76 28.73 89.76"/><rect class="cls-5" x="17.46" y="91.67" width="9.03" height="0.27"/><polygon class="cls-6" points="26.96 91.2 16.98 91.2 16.98 92.42 26.96 92.42 26.96 91.2 26.96 91.2"/><rect class="cls-5" x="17.46" y="94.88" width="9.03" height="0.27"/><polygon class="cls-6" points="26.96 94.4 16.98 94.4 16.98 95.62 26.96 95.62 26.96 94.4 26.96 94.4"/><rect class="cls-5" x="17.46" y="98.08" width="9.03" height="0.27"/><polygon class="cls-6" points="26.96 97.61 16.98 97.61 16.98 98.83 26.96 98.83 26.96 97.61 26.96 97.61"/><rect class="cls-5" x="17.46" y="101.29" width="9.03" height="0.27"/><polygon class="cls-6" points="26.96 100.81 16.98 100.81 16.98 102.03 26.96 102.03 26.96 100.81 26.96 100.81"/><rect class="cls-5" x="17.46" y="104.49" width="9.03" height="0.27"/><polygon class="cls-6" points="26.96 104.02 16.98 104.02 16.98 105.23 26.96 105.23 26.96 104.02 26.96 104.02"/><rect class="cls-5" x="17.46" y="107.7" width="9.03" height="0.27"/><polygon class="cls-6" points="26.96 107.22 16.98 107.22 16.98 108.44 26.96 108.44 26.96 107.22 26.96 107.22"/><rect class="cls-5" x="17.46" y="110.9" width="9.03" height="0.27"/><polygon class="cls-6" points="26.96 110.42 16.98 110.42 16.98 111.64 26.96 111.64 26.96 110.42 26.96 110.42"/><rect class="cls-5" x="17.46" y="114.1" width="9.03" height="0.27"/><polygon class="cls-6" points="26.96 113.63 16.98 113.63 16.98 114.85 26.96 114.85 26.96 113.63 26.96 113.63"/><polygon class="cls-4" points="254.97 81.6 254.97 78.22 251.58 78.22 251.58 76.07 249.68 76.07 249.68 73.58 248.83 73.58 248.83 76.07 247.24 76.07 247.24 73.58 246.4 73.58 246.4 76.07 244.85 76.07 244.85 78.22 241.46 78.22 241.46 81.6 239.42 81.6 239.42 119.28 257.01 119.28 257.01 81.6 254.97 81.6"/><rect class="cls-4" x="243.23" y="83.44" width="9.98" height="1.56"/><rect class="cls-4" x="243.23" y="87.53" width="9.98" height="1.56"/><rect class="cls-4" x="243.23" y="91.62" width="9.98" height="1.56"/><rect class="cls-4" x="243.23" y="95.71" width="9.98" height="1.56"/><rect class="cls-4" x="243.23" y="99.8" width="9.98" height="1.56"/><rect class="cls-4" x="243.23" y="103.89" width="9.98" height="1.56"/><rect class="cls-4" x="243.23" y="107.98" width="9.98" height="1.56"/><rect class="cls-4" x="243.23" y="112.07" width="9.98" height="1.56"/><polygon class="cls-4" points="52.44 75.18 52.44 71.43 50.06 71.43 50.06 67.97 48.32 67.97 48.32 65.07 47.19 65.07 47.19 61.96 44.67 61.96 44.67 55.41 43.9 55.41 43.9 61.96 41.38 61.96 41.38 65.07 40.25 65.07 40.25 67.97 38.5 67.97 38.5 71.43 36.13 71.43 36.13 75.18 33.67 75.18 33.67 119.28 54.9 119.28 54.9 75.18 52.44 75.18"/><rect class="cls-5" x="39.22" y="75.77" width="0.35" height="34.68"/><polygon class="cls-6" points="40.02 75.33 38.78 75.33 38.78 110.9 40.02 110.9 40.02 75.33 40.02 75.33"/><rect class="cls-5" x="42.41" y="75.77" width="0.35" height="34.68"/><polygon class="cls-6" points="43.2 75.33 41.96 75.33 41.96 110.9 43.2 110.9 43.2 75.33 43.2 75.33"/><rect class="cls-5" x="45.59" y="75.77" width="0.35" height="34.68"/><polygon class="cls-6" points="46.38 75.33 45.15 75.33 45.15 110.9 46.38 110.9 46.38 75.33 46.38 75.33"/><rect class="cls-5" x="48.78" y="75.77" width="0.35" height="34.68"/><polygon class="cls-6" points="49.57 75.33 48.33 75.33 48.33 110.9 49.57 110.9 49.57 75.33 49.57 75.33"/><polygon class="cls-7" points="200.44 81.49 200.44 77.76 197.19 77.76 197.19 75.39 193.36 75.39 193.36 77.76 190.11 77.76 190.11 81.49 188.55 81.49 188.55 119.28 202 119.28 202 81.49 200.44 81.49"/><rect class="cls-5" x="191.65" y="83.69" width="0.51" height="0.65"/><polygon class="cls-6" points="192.66 83.19 191.15 83.19 191.15 84.84 192.66 84.84 192.66 83.19 192.66 83.19"/><rect class="cls-5" x="195.01" y="83.69" width="0.51" height="0.65"/><polygon class="cls-6" points="196.02 83.19 194.51 83.19 194.51 84.84 196.02 84.84 196.02 83.19 196.02 83.19"/><rect class="cls-5" x="198.37" y="83.69" width="0.51" height="0.65"/><polygon class="cls-6" points="199.39 83.19 197.88 83.19 197.88 84.84 199.39 84.84 199.39 83.19 199.39 83.19"/><rect class="cls-5" x="191.65" y="86.7" width="0.51" height="0.65"/><polygon class="cls-6" points="192.66 86.2 191.15 86.2 191.15 87.86 192.66 87.86 192.66 86.2 192.66 86.2"/><rect class="cls-5" x="195.01" y="86.7" width="0.51" height="0.65"/><polygon class="cls-6" points="196.02 86.2 194.51 86.2 194.51 87.86 196.02 87.86 196.02 86.2 196.02 86.2"/><rect class="cls-5" x="198.37" y="86.7" width="0.51" height="0.65"/><polygon class="cls-6" points="199.39 86.2 197.88 86.2 197.88 87.86 199.39 87.86 199.39 86.2 199.39 86.2"/><rect class="cls-5" x="191.65" y="89.72" width="0.51" height="0.65"/><polygon class="cls-6" points="192.66 89.22 191.15 89.22 191.15 90.87 192.66 90.87 192.66 89.22 192.66 89.22"/><rect class="cls-5" x="195.01" y="89.72" width="0.51" height="0.65"/><polygon class="cls-6" points="196.02 89.22 194.51 89.22 194.51 90.87 196.02 90.87 196.02 89.22 196.02 89.22"/><rect class="cls-5" x="198.37" y="89.72" width="0.51" height="0.65"/><polygon class="cls-6" points="199.39 89.22 197.88 89.22 197.88 90.87 199.39 90.87 199.39 89.22 199.39 89.22"/><rect class="cls-5" x="191.65" y="92.73" width="0.51" height="0.65"/><polygon class="cls-6" points="192.66 92.23 191.15 92.23 191.15 93.89 192.66 93.89 192.66 92.23 192.66 92.23"/><rect class="cls-5" x="195.01" y="92.73" width="0.51" height="0.65"/><polygon class="cls-6" points="196.02 92.23 194.51 92.23 194.51 93.89 196.02 93.89 196.02 92.23 196.02 92.23"/><rect class="cls-5" x="198.37" y="92.73" width="0.51" height="0.65"/><polygon class="cls-6" points="199.39 92.23 197.88 92.23 197.88 93.89 199.39 93.89 199.39 92.23 199.39 92.23"/><rect class="cls-5" x="191.65" y="95.75" width="0.51" height="0.65"/><polygon class="cls-6" points="192.66 95.25 191.15 95.25 191.15 96.9 192.66 96.9 192.66 95.25 192.66 95.25"/><rect class="cls-5" x="195.01" y="95.75" width="0.51" height="0.65"/><polygon class="cls-6" points="196.02 95.25 194.51 95.25 194.51 96.9 196.02 96.9 196.02 95.25 196.02 95.25"/><rect class="cls-5" x="198.37" y="95.75" width="0.51" height="0.65"/><polygon class="cls-6" points="199.39 95.25 197.88 95.25 197.88 96.9 199.39 96.9 199.39 95.25 199.39 95.25"/><rect class="cls-5" x="191.65" y="98.76" width="0.51" height="0.65"/><polygon class="cls-6" points="192.66 98.26 191.15 98.26 191.15 99.92 192.66 99.92 192.66 98.26 192.66 98.26"/><rect class="cls-5" x="195.01" y="98.76" width="0.51" height="0.65"/><polygon class="cls-6" points="196.02 98.26 194.51 98.26 194.51 99.92 196.02 99.92 196.02 98.26 196.02 98.26"/><rect class="cls-5" x="198.37" y="98.76" width="0.51" height="0.65"/><polygon class="cls-6" points="199.39 98.26 197.88 98.26 197.88 99.92 199.39 99.92 199.39 98.26 199.39 98.26"/><rect class="cls-5" x="191.65" y="101.78" width="0.51" height="0.65"/><polygon class="cls-6" points="192.66 101.28 191.15 101.28 191.15 102.93 192.66 102.93 192.66 101.28 192.66 101.28"/><rect class="cls-5" x="195.01" y="101.78" width="0.51" height="0.65"/><polygon class="cls-6" points="196.02 101.28 194.51 101.28 194.51 102.93 196.02 102.93 196.02 101.28 196.02 101.28"/><rect class="cls-5" x="198.37" y="101.78" width="0.51" height="0.65"/><polygon class="cls-6" points="199.39 101.28 197.88 101.28 197.88 102.93 199.39 102.93 199.39 101.28 199.39 101.28"/><rect class="cls-5" x="191.65" y="104.79" width="0.51" height="0.65"/><polygon class="cls-6" points="192.66 104.29 191.15 104.29 191.15 105.95 192.66 105.95 192.66 104.29 192.66 104.29"/><rect class="cls-5" x="195.01" y="104.79" width="0.51" height="0.65"/><polygon class="cls-6" points="196.02 104.29 194.51 104.29 194.51 105.95 196.02 105.95 196.02 104.29 196.02 104.29"/><rect class="cls-5" x="198.37" y="104.79" width="0.51" height="0.65"/><polygon class="cls-6" points="199.39 104.29 197.88 104.29 197.88 105.95 199.39 105.95 199.39 104.29 199.39 104.29"/><rect class="cls-5" x="191.65" y="107.81" width="0.51" height="0.65"/><polygon class="cls-6" points="192.66 107.31 191.15 107.31 191.15 108.96 192.66 108.96 192.66 107.31 192.66 107.31"/><rect class="cls-5" x="195.01" y="107.81" width="0.51" height="0.65"/><polygon class="cls-6" points="196.02 107.31 194.51 107.31 194.51 108.96 196.02 108.96 196.02 107.31 196.02 107.31"/><rect class="cls-5" x="198.37" y="107.81" width="0.51" height="0.65"/><polygon class="cls-6" points="199.39 107.31 197.88 107.31 197.88 108.96 199.39 108.96 199.39 107.31 199.39 107.31"/><rect class="cls-5" x="191.65" y="110.83" width="0.51" height="0.65"/><polygon class="cls-6" points="192.66 110.33 191.15 110.33 191.15 111.98 192.66 111.98 192.66 110.33 192.66 110.33"/><rect class="cls-5" x="195.01" y="110.83" width="0.51" height="0.65"/><polygon class="cls-6" points="196.02 110.33 194.51 110.33 194.51 111.98 196.02 111.98 196.02 110.33 196.02 110.33"/><rect class="cls-5" x="198.37" y="110.83" width="0.51" height="0.65"/><polygon class="cls-6" points="199.39 110.33 197.88 110.33 197.88 111.98 199.39 111.98 199.39 110.33 199.39 110.33"/><polygon class="cls-7" points="147.38 119.28 137.76 119.28 137.76 60.59 147.38 66.68 147.38 119.28"/><rect class="cls-5" x="139.98" y="70.01" width="5.43" height="0.37"/><polygon class="cls-6" points="145.9 69.51 139.48 69.51 139.48 70.88 145.9 70.88 145.9 69.51 145.9 69.51"/><rect class="cls-5" x="139.98" y="73.41" width="5.43" height="0.37"/><polygon class="cls-6" points="145.9 72.91 139.48 72.91 139.48 74.28 145.9 74.28 145.9 72.91 145.9 72.91"/><rect class="cls-5" x="139.98" y="76.81" width="5.43" height="0.37"/><polygon class="cls-6" points="145.9 76.31 139.48 76.31 139.48 77.68 145.9 77.68 145.9 76.31 145.9 76.31"/><rect class="cls-5" x="139.98" y="80.22" width="5.43" height="0.37"/><polygon class="cls-6" points="145.9 79.72 139.48 79.72 139.48 81.08 145.9 81.08 145.9 79.72 145.9 79.72"/><rect class="cls-5" x="139.98" y="83.62" width="5.43" height="0.37"/><polygon class="cls-6" points="145.9 83.12 139.48 83.12 139.48 84.49 145.9 84.49 145.9 83.12 145.9 83.12"/><rect class="cls-5" x="139.98" y="87.02" width="5.43" height="0.37"/><polygon class="cls-6" points="145.9 86.52 139.48 86.52 139.48 87.89 145.9 87.89 145.9 86.52 145.9 86.52"/><rect class="cls-5" x="139.98" y="90.2" width="5.43" height="0.37"/><polygon class="cls-6" points="145.9 89.7 139.48 89.7 139.48 91.07 145.9 91.07 145.9 89.7 145.9 89.7"/><rect class="cls-5" x="139.98" y="93.6" width="5.43" height="0.37"/><polygon class="cls-6" points="145.9 93.1 139.48 93.1 139.48 94.47 145.9 94.47 145.9 93.1 145.9 93.1"/><rect class="cls-5" x="139.98" y="97" width="5.43" height="0.37"/><polygon class="cls-6" points="145.9 96.5 139.48 96.5 139.48 97.87 145.9 97.87 145.9 96.5 145.9 96.5"/><rect class="cls-5" x="139.98" y="100.41" width="5.43" height="0.37"/><polygon class="cls-6" points="145.9 99.91 139.48 99.91 139.48 101.28 145.9 101.28 145.9 99.91 145.9 99.91"/><rect class="cls-5" x="139.98" y="103.81" width="5.43" height="0.37"/><polygon class="cls-6" points="145.9 103.31 139.48 103.31 139.48 104.68 145.9 104.68 145.9 103.31 145.9 103.31"/><rect class="cls-5" x="139.98" y="107.21" width="5.43" height="0.37"/><polygon class="cls-6" points="145.9 106.71 139.48 106.71 139.48 108.08 145.9 108.08 145.9 106.71 145.9 106.71"/><polygon class="cls-7" points="144.62 119.28 153.46 119.28 153.46 71.87 144.62 77.15 144.62 119.28"/><polygon class="cls-4" points="93.23 79.03 93.23 73.73 92.15 73.73 92.15 71.5 91.34 71.5 91.34 70.86 89.62 70.86 89.62 71.5 89.05 71.5 89.05 70.86 87.32 70.86 87.32 71.5 86.91 71.5 86.91 70.86 85.09 70.86 85.09 71.5 84.38 71.5 84.38 73.73 81.65 73.73 81.65 71.5 79.55 71.5 79.55 66.75 78.86 66.75 78.86 71.5 77.22 71.5 77.22 66.75 76.53 66.75 76.53 71.5 73.88 71.5 73.88 73.73 72.51 73.73 72.51 79.03 68.69 79.03 68.69 119.28 96.71 119.28 96.71 79.03 93.23 79.03"/><rect class="cls-5" x="73.01" y="84.18" width="8.57" height="0.54"/><polygon class="cls-6" points="82.05 83.7 72.53 83.7 72.53 85.19 82.05 85.19 82.05 83.7 82.05 83.7"/><rect class="cls-5" x="84.1" y="84.18" width="8.57" height="0.54"/><polygon class="cls-6" points="93.15 83.7 83.63 83.7 83.63 85.19 93.15 85.19 93.15 83.7 93.15 83.7"/><rect class="cls-5" x="73.01" y="88.1" width="8.57" height="0.54"/><polygon class="cls-6" points="82.05 87.62 72.53 87.62 72.53 89.11 82.05 89.11 82.05 87.62 82.05 87.62"/><rect class="cls-5" x="84.1" y="88.1" width="8.57" height="0.54"/><polygon class="cls-6" points="93.15 87.62 83.63 87.62 83.63 89.11 93.15 89.11 93.15 87.62 93.15 87.62"/><rect class="cls-5" x="73.01" y="92.01" width="8.57" height="0.55"/><polygon class="cls-6" points="82.05 91.53 72.53 91.53 72.53 93.03 82.05 93.03 82.05 91.53 82.05 91.53"/><rect class="cls-5" x="84.1" y="92.01" width="8.57" height="0.55"/><polygon class="cls-6" points="93.15 91.53 83.63 91.53 83.63 93.03 93.15 93.03 93.15 91.53 93.15 91.53"/><rect class="cls-5" x="73.01" y="95.93" width="8.57" height="0.54"/><polygon class="cls-6" points="82.05 95.45 72.53 95.45 72.53 96.94 82.05 96.94 82.05 95.45 82.05 95.45"/><rect class="cls-5" x="84.1" y="95.93" width="8.57" height="0.54"/><polygon class="cls-6" points="93.15 95.45 83.63 95.45 83.63 96.94 93.15 96.94 93.15 95.45 93.15 95.45"/><rect class="cls-5" x="73.01" y="99.85" width="8.57" height="0.54"/><polygon class="cls-6" points="82.05 99.37 72.53 99.37 72.53 100.86 82.05 100.86 82.05 99.37 82.05 99.37"/><rect class="cls-5" x="84.1" y="99.85" width="8.57" height="0.54"/><polygon class="cls-6" points="93.15 99.37 83.63 99.37 83.63 100.86 93.15 100.86 93.15 99.37 93.15 99.37"/><rect class="cls-5" x="73.01" y="103.77" width="8.57" height="0.54"/><polygon class="cls-6" points="82.05 103.29 72.53 103.29 72.53 104.78 82.05 104.78 82.05 103.29 82.05 103.29"/><rect class="cls-5" x="84.1" y="103.77" width="8.57" height="0.54"/><polygon class="cls-6" points="93.15 103.29 83.63 103.29 83.63 104.78 93.15 104.78 93.15 103.29 93.15 103.29"/><rect class="cls-5" x="73.01" y="107.68" width="8.57" height="0.55"/><polygon class="cls-6" points="82.05 107.2 72.53 107.2 72.53 108.7 82.05 108.7 82.05 107.2 82.05 107.2"/><rect class="cls-5" x="84.1" y="107.68" width="8.57" height="0.55"/><polygon class="cls-6" points="93.15 107.2 83.63 107.2 83.63 108.7 93.15 108.7 93.15 107.2 93.15 107.2"/><polygon class="cls-4" points="232.3 97.1 232.3 93.39 228.3 93.39 228.3 91.93 227.41 91.93 227.41 93.39 223.67 93.39 223.67 97.1 218.07 97.1 218.07 93.39 213.96 93.39 213.96 91.93 213.07 91.93 213.07 93.39 209.26 93.39 209.26 97.1 204.25 97.1 204.25 119.2 237.52 119.28 237.52 97.1 232.3 97.1"/><rect class="cls-4" x="209.37" y="100.03" width="2.94" height="2.27"/><rect class="cls-4" x="215.12" y="100.03" width="2.94" height="2.27"/><rect class="cls-4" x="209.37" y="104.2" width="2.94" height="2.27"/><rect class="cls-4" x="215.12" y="104.2" width="2.94" height="2.27"/><rect class="cls-4" x="209.37" y="108.36" width="2.94" height="2.27"/><rect class="cls-4" x="215.12" y="108.36" width="2.94" height="2.27"/><rect class="cls-4" x="209.37" y="112.52" width="2.94" height="2.27"/><rect class="cls-4" x="215.12" y="112.52" width="2.94" height="2.27"/><rect class="cls-4" x="223.67" y="100.03" width="2.94" height="2.27"/><rect class="cls-4" x="229.42" y="100.03" width="2.94" height="2.27"/><rect class="cls-4" x="223.67" y="104.2" width="2.94" height="2.27"/><rect class="cls-4" x="229.42" y="104.2" width="2.94" height="2.27"/><rect class="cls-4" x="223.67" y="108.36" width="2.94" height="2.27"/><rect class="cls-4" x="229.42" y="108.36" width="2.94" height="2.27"/><rect class="cls-4" x="223.67" y="112.52" width="2.94" height="2.27"/><rect class="cls-4" x="229.42" y="112.52" width="2.94" height="2.27"/><polygon class="cls-4" points="212.53 119.38 212.53 110.27 205.8 106 199.56 110.27 199.56 119.38 212.53 119.38"/><rect class="cls-5" x="203.28" y="113.16" width="1.93" height="3.65"/><path class="cls-6" d="M212.55,139v2.7h-1V139h1m.95-1h-2.88v4.6h2.88V138Z" transform="translate(-7.81 -25.32)"/><rect class="cls-5" x="206.88" y="113.16" width="1.93" height="3.65"/><path class="cls-6" d="M216.15,139v2.7h-1V139h1m.95-1h-2.88v4.6h2.88V138Z" transform="translate(-7.81 -25.32)"/><polygon class="cls-4" points="186.17 91.66 171.17 91.66 171.17 94.52 172.13 94.52 172.13 119.28 185.46 119.28 185.46 94.52 186.17 94.52 186.17 91.66"/><rect class="cls-5" x="175.43" y="96.4" width="0.65" height="0.65"/><polygon class="cls-6" points="176.55 95.92 174.95 95.92 174.95 97.52 176.55 97.52 176.55 95.92 176.55 95.92"/><rect class="cls-5" x="178.56" y="96.4" width="0.65" height="0.65"/><polygon class="cls-6" points="179.69 95.92 178.09 95.92 178.09 97.52 179.69 97.52 179.69 95.92 179.69 95.92"/><rect class="cls-5" x="181.69" y="96.4" width="0.65" height="0.65"/><polygon class="cls-6" points="182.82 95.92 181.22 95.92 181.22 97.52 182.82 97.52 182.82 95.92 182.82 95.92"/><rect class="cls-5" x="175.43" y="99.33" width="0.65" height="0.65"/><polygon class="cls-6" points="176.55 98.86 174.95 98.86 174.95 100.46 176.55 100.46 176.55 98.86 176.55 98.86"/><rect class="cls-5" x="178.56" y="99.33" width="0.65" height="0.65"/><polygon class="cls-6" points="179.69 98.86 178.09 98.86 178.09 100.46 179.69 100.46 179.69 98.86 179.69 98.86"/><rect class="cls-5" x="181.69" y="99.33" width="0.65" height="0.65"/><polygon class="cls-6" points="182.82 98.86 181.22 98.86 181.22 100.46 182.82 100.46 182.82 98.86 182.82 98.86"/><rect class="cls-5" x="175.43" y="102.27" width="0.65" height="0.65"/><polygon class="cls-6" points="176.55 101.79 174.95 101.79 174.95 103.39 176.55 103.39 176.55 101.79 176.55 101.79"/><rect class="cls-5" x="178.56" y="102.27" width="0.65" height="0.65"/><polygon class="cls-6" points="179.69 101.79 178.09 101.79 178.09 103.39 179.69 103.39 179.69 101.79 179.69 101.79"/><rect class="cls-5" x="181.69" y="102.27" width="0.65" height="0.65"/><polygon class="cls-6" points="182.82 101.79 181.22 101.79 181.22 103.39 182.82 103.39 182.82 101.79 182.82 101.79"/><rect class="cls-5" x="175.43" y="105.2" width="0.65" height="0.65"/><polygon class="cls-6" points="176.55 104.73 174.95 104.73 174.95 106.33 176.55 106.33 176.55 104.73 176.55 104.73"/><rect class="cls-5" x="178.56" y="105.2" width="0.65" height="0.65"/><polygon class="cls-6" points="179.69 104.73 178.09 104.73 178.09 106.33 179.69 106.33 179.69 104.73 179.69 104.73"/><rect class="cls-5" x="181.69" y="105.2" width="0.65" height="0.65"/><polygon class="cls-6" points="182.82 104.73 181.22 104.73 181.22 106.33 182.82 106.33 182.82 104.73 182.82 104.73"/><rect class="cls-5" x="175.43" y="108.14" width="0.65" height="0.65"/><polygon class="cls-6" points="176.55 107.66 174.95 107.66 174.95 109.26 176.55 109.26 176.55 107.66 176.55 107.66"/><rect class="cls-5" x="178.56" y="108.14" width="0.65" height="0.65"/><polygon class="cls-6" points="179.69 107.66 178.09 107.66 178.09 109.26 179.69 109.26 179.69 107.66 179.69 107.66"/><rect class="cls-5" x="181.69" y="108.14" width="0.65" height="0.65"/><polygon class="cls-6" points="182.82 107.66 181.22 107.66 181.22 109.26 182.82 109.26 182.82 107.66 182.82 107.66"/><rect class="cls-5" x="175.43" y="111.07" width="0.65" height="0.65"/><polygon class="cls-6" points="176.55 110.6 174.95 110.6 174.95 112.2 176.55 112.2 176.55 110.6 176.55 110.6"/><rect class="cls-5" x="178.56" y="111.07" width="0.65" height="0.65"/><polygon class="cls-6" points="179.69 110.6 178.09 110.6 178.09 112.2 179.69 112.2 179.69 110.6 179.69 110.6"/><rect class="cls-5" x="181.69" y="111.07" width="0.65" height="0.65"/><polygon class="cls-6" points="182.82 110.6 181.22 110.6 181.22 112.2 182.82 112.2 182.82 110.6 182.82 110.6"/><polygon class="cls-4" points="118.22 88.66 124.92 88.66 124.92 84.55 134.67 84.55 134.67 88.66 140.87 88.66 140.87 84.55 150.48 84.55 150.43 88.66 157.26 88.66 157.26 119.28 118.22 119.19 118.22 88.66"/><rect class="cls-5" x="125.51" y="91.69" width="2.3" height="1.57"/><path class="cls-6" d="M135.16,117.48v.62H133.8v-.62h1.36m1-1h-3.26v2.52h3.26v-2.52Z" transform="translate(-7.81 -25.32)"/><rect class="cls-5" x="131.88" y="91.69" width="2.3" height="1.57"/><path class="cls-6" d="M141.52,117.48v.62h-1.35v-.62h1.35m.95-1h-3.25v2.52h3.25v-2.52Z" transform="translate(-7.81 -25.32)"/><rect class="cls-5" x="125.51" y="96.3" width="2.3" height="1.57"/><path class="cls-6" d="M135.16,122.09v.62H133.8v-.62h1.36m1-1h-3.26v2.52h3.26v-2.52Z" transform="translate(-7.81 -25.32)"/><rect class="cls-5" x="131.88" y="96.3" width="2.3" height="1.57"/><path class="cls-6" d="M141.52,122.09v.62h-1.35v-.62h1.35m.95-1h-3.25v2.52h3.25v-2.52Z" transform="translate(-7.81 -25.32)"/><rect class="cls-5" x="125.51" y="100.91" width="2.3" height="1.57"/><path class="cls-6" d="M135.16,126.7v.62H133.8v-.62h1.36m1-1h-3.26v2.52h3.26v-2.52Z" transform="translate(-7.81 -25.32)"/><rect class="cls-5" x="131.88" y="100.91" width="2.3" height="1.57"/><path class="cls-6" d="M141.52,126.7v.62h-1.35v-.62h1.35m.95-1h-3.25v2.52h3.25v-2.52Z" transform="translate(-7.81 -25.32)"/><rect class="cls-5" x="125.51" y="105.52" width="2.3" height="1.57"/><path class="cls-6" d="M135.16,131.31v.62H133.8v-.62h1.36m1-.95h-3.26v2.52h3.26v-2.52Z" transform="translate(-7.81 -25.32)"/><rect class="cls-5" x="131.88" y="105.52" width="2.3" height="1.57"/><path class="cls-6" d="M141.52,131.31v.62h-1.35v-.62h1.35m.95-.95h-3.25v2.52h3.25v-2.52Z" transform="translate(-7.81 -25.32)"/><rect class="cls-5" x="125.51" y="110.13" width="2.3" height="1.57"/><path class="cls-6" d="M135.16,135.92v.62H133.8v-.62h1.36m1-.95h-3.26v2.52h3.26V135Z" transform="translate(-7.81 -25.32)"/><rect class="cls-5" x="131.88" y="110.13" width="2.3" height="1.57"/><path class="cls-6" d="M141.52,135.92v.62h-1.35v-.62h1.35m.95-.95h-3.25v2.52h3.25V135Z" transform="translate(-7.81 -25.32)"/><rect class="cls-5" x="125.51" y="114.74" width="2.3" height="1.57"/><path class="cls-6" d="M135.16,140.53v.62H133.8v-.62h1.36m1-.95h-3.26v2.52h3.26v-2.52Z" transform="translate(-7.81 -25.32)"/><rect class="cls-5" x="131.88" y="114.74" width="2.3" height="1.57"/><path class="cls-6" d="M141.52,140.53v.62h-1.35v-.62h1.35m.95-.95h-3.25v2.52h3.25v-2.52Z" transform="translate(-7.81 -25.32)"/><rect class="cls-5" x="141.35" y="91.69" width="2.3" height="1.57"/><path class="cls-6" d="M151,117.48v.62h-1.35v-.62H151m.95-1h-3.25v2.52h3.25v-2.52Z" transform="translate(-7.81 -25.32)"/><rect class="cls-5" x="147.71" y="91.69" width="2.3" height="1.57"/><path class="cls-6" d="M157.36,117.48v.62H156v-.62h1.36m.94-1h-3.25v2.52h3.25v-2.52Z" transform="translate(-7.81 -25.32)"/><rect class="cls-5" x="141.35" y="96.3" width="2.3" height="1.57"/><path class="cls-6" d="M151,122.09v.62h-1.35v-.62H151m.95-1h-3.25v2.52h3.25v-2.52Z" transform="translate(-7.81 -25.32)"/><rect class="cls-5" x="147.71" y="96.3" width="2.3" height="1.57"/><path class="cls-6" d="M157.36,122.09v.62H156v-.62h1.36m.94-1h-3.25v2.52h3.25v-2.52Z" transform="translate(-7.81 -25.32)"/><rect class="cls-5" x="141.35" y="100.91" width="2.3" height="1.57"/><path class="cls-6" d="M151,126.7v.62h-1.35v-.62H151m.95-1h-3.25v2.52h3.25v-2.52Z" transform="translate(-7.81 -25.32)"/><rect class="cls-5" x="147.71" y="100.91" width="2.3" height="1.57"/><path class="cls-6" d="M157.36,126.7v.62H156v-.62h1.36m.94-1h-3.25v2.52h3.25v-2.52Z" transform="translate(-7.81 -25.32)"/><rect class="cls-5" x="141.35" y="105.52" width="2.3" height="1.57"/><path class="cls-6" d="M151,131.31v.62h-1.35v-.62H151m.95-.95h-3.25v2.52h3.25v-2.52Z" transform="translate(-7.81 -25.32)"/><rect class="cls-5" x="147.71" y="105.52" width="2.3" height="1.57"/><path class="cls-6" d="M157.36,131.31v.62H156v-.62h1.36m.94-.95h-3.25v2.52h3.25v-2.52Z" transform="translate(-7.81 -25.32)"/><rect class="cls-5" x="141.35" y="110.13" width="2.3" height="1.57"/><path class="cls-6" d="M151,135.92v.62h-1.35v-.62H151m.95-.95h-3.25v2.52h3.25V135Z" transform="translate(-7.81 -25.32)"/><rect class="cls-5" x="147.71" y="110.13" width="2.3" height="1.57"/><path class="cls-6" d="M157.36,135.92v.62H156v-.62h1.36m.94-.95h-3.25v2.52h3.25V135Z" transform="translate(-7.81 -25.32)"/><rect class="cls-5" x="141.35" y="114.74" width="2.3" height="1.57"/><path class="cls-6" d="M151,140.53v.62h-1.35v-.62H151m.95-.95h-3.25v2.52h3.25v-2.52Z" transform="translate(-7.81 -25.32)"/><rect class="cls-5" x="147.71" y="114.74" width="2.3" height="1.57"/><path class="cls-6" d="M157.36,140.53v.62H156v-.62h1.36m.94-.95h-3.25v2.52h3.25v-2.52Z" transform="translate(-7.81 -25.32)"/><polygon class="cls-7" points="266.87 97.15 271.71 97.15 271.71 94.18 278.76 94.18 278.76 97.15 283.24 97.15 283.24 94.18 290.19 94.18 290.15 97.15 295.08 97.15 295.08 119.28 266.87 119.22 266.87 97.15"/><rect class="cls-5" x="272.3" y="99.5" width="1.35" height="0.82"/><polygon class="cls-6" points="274.15 99 271.8 99 271.8 100.81 274.15 100.81 274.15 99 274.15 99"/><rect class="cls-5" x="276.9" y="99.5" width="1.35" height="0.82"/><polygon class="cls-6" points="278.75 99 276.4 99 276.4 100.81 278.75 100.81 278.75 99 278.75 99"/><rect class="cls-5" x="272.3" y="102.83" width="1.35" height="0.82"/><polygon class="cls-6" points="274.15 102.33 271.8 102.33 271.8 104.15 274.15 104.15 274.15 102.33 274.15 102.33"/><rect class="cls-5" x="276.9" y="102.83" width="1.35" height="0.82"/><polygon class="cls-6" points="278.75 102.33 276.4 102.33 276.4 104.15 278.75 104.15 278.75 102.33 278.75 102.33"/><rect class="cls-5" x="272.3" y="106.16" width="1.35" height="0.82"/><polygon class="cls-6" points="274.15 105.66 271.8 105.66 271.8 107.48 274.15 107.48 274.15 105.66 274.15 105.66"/><rect class="cls-5" x="276.9" y="106.16" width="1.35" height="0.82"/><polygon class="cls-6" points="278.75 105.66 276.4 105.66 276.4 107.48 278.75 107.48 278.75 105.66 278.75 105.66"/><rect class="cls-5" x="272.3" y="109.49" width="1.35" height="0.82"/><polygon class="cls-6" points="274.15 108.99 271.8 108.99 271.8 110.81 274.15 110.81 274.15 108.99 274.15 108.99"/><rect class="cls-5" x="276.9" y="109.49" width="1.35" height="0.82"/><polygon class="cls-6" points="278.75 108.99 276.4 108.99 276.4 110.81 278.75 110.81 278.75 108.99 278.75 108.99"/><rect class="cls-5" x="272.3" y="112.82" width="1.35" height="0.82"/><polygon class="cls-6" points="274.15 112.32 271.8 112.32 271.8 114.14 274.15 114.14 274.15 112.32 274.15 112.32"/><rect class="cls-5" x="276.9" y="112.82" width="1.35" height="0.82"/><polygon class="cls-6" points="278.75 112.32 276.4 112.32 276.4 114.14 278.75 114.14 278.75 112.32 278.75 112.32"/><rect class="cls-5" x="272.3" y="116.15" width="1.35" height="0.82"/><polygon class="cls-6" points="274.15 115.66 271.8 115.66 271.8 117.47 274.15 117.47 274.15 115.66 274.15 115.66"/><rect class="cls-5" x="276.9" y="116.15" width="1.35" height="0.82"/><polygon class="cls-6" points="278.75 115.66 276.4 115.66 276.4 117.47 278.75 117.47 278.75 115.66 278.75 115.66"/><rect class="cls-5" x="283.74" y="99.5" width="1.35" height="0.82"/><polygon class="cls-6" points="285.59 99 283.24 99 283.24 100.81 285.59 100.81 285.59 99 285.59 99"/><rect class="cls-5" x="288.34" y="99.5" width="1.35" height="0.82"/><polygon class="cls-6" points="290.19 99 287.84 99 287.84 100.81 290.19 100.81 290.19 99 290.19 99"/><rect class="cls-5" x="283.74" y="102.83" width="1.35" height="0.82"/><polygon class="cls-6" points="285.59 102.33 283.24 102.33 283.24 104.15 285.59 104.15 285.59 102.33 285.59 102.33"/><rect class="cls-5" x="288.34" y="102.83" width="1.35" height="0.82"/><polygon class="cls-6" points="290.19 102.33 287.84 102.33 287.84 104.15 290.19 104.15 290.19 102.33 290.19 102.33"/><rect class="cls-5" x="283.74" y="106.16" width="1.35" height="0.82"/><polygon class="cls-6" points="285.59 105.66 283.24 105.66 283.24 107.48 285.59 107.48 285.59 105.66 285.59 105.66"/><rect class="cls-5" x="288.34" y="106.16" width="1.35" height="0.82"/><polygon class="cls-6" points="290.19 105.66 287.84 105.66 287.84 107.48 290.19 107.48 290.19 105.66 290.19 105.66"/><rect class="cls-5" x="283.74" y="109.49" width="1.35" height="0.82"/><polygon class="cls-6" points="285.59 108.99 283.24 108.99 283.24 110.81 285.59 110.81 285.59 108.99 285.59 108.99"/><rect class="cls-5" x="288.34" y="109.49" width="1.35" height="0.82"/><polygon class="cls-6" points="290.19 108.99 287.84 108.99 287.84 110.81 290.19 110.81 290.19 108.99 290.19 108.99"/><rect class="cls-5" x="283.74" y="112.82" width="1.35" height="0.82"/><polygon class="cls-6" points="285.59 112.32 283.24 112.32 283.24 114.14 285.59 114.14 285.59 112.32 285.59 112.32"/><rect class="cls-5" x="288.34" y="112.82" width="1.35" height="0.82"/><polygon class="cls-6" points="290.19 112.32 287.84 112.32 287.84 114.14 290.19 114.14 290.19 112.32 290.19 112.32"/><rect class="cls-5" x="283.74" y="116.15" width="1.35" height="0.82"/><polygon class="cls-6" points="285.59 115.66 283.24 115.66 283.24 117.47 285.59 117.47 285.59 115.66 285.59 115.66"/><rect class="cls-5" x="288.34" y="116.15" width="1.35" height="0.82"/><polygon class="cls-6" points="290.19 115.66 287.84 115.66 287.84 117.47 290.19 117.47 290.19 115.66 290.19 115.66"/><polygon class="cls-4" points="71.25 108.81 71.25 105.86 70.01 105.86 70.01 108.28 65.5 106.35 56.58 110.47 56.58 119.28 75.13 119.28 75.13 110.47 71.25 108.81"/><rect class="cls-4" x="64.54" y="112.95" width="2.62" height="4.18"/><rect class="cls-4" x="68.76" y="112.95" width="4.26" height="4.18"/><rect class="cls-4" x="58.68" y="112.95" width="4.26" height="4.18"/><polygon class="cls-4" points="118.05 108.38 118.05 106.13 107.13 106.13 107.13 108.38 95.35 108.38 95.35 110.68 97.15 110.68 97.15 119.28 128.03 119.28 128.03 110.68 129.82 110.68 129.82 108.38 118.05 108.38"/><rect class="cls-5" x="101.32" y="113.79" width="1.87" height="3.5"/><path class="cls-6" d="M110.52,139.58v2.55h-.92v-2.55h.92m1-1h-2.82v4.45h2.82v-4.45Z" transform="translate(-7.81 -25.32)"/><rect class="cls-5" x="104.83" y="113.79" width="1.87" height="3.5"/><path class="cls-6" d="M114,139.58v2.55h-.92v-2.55H114m.95-1h-2.82v4.45H115v-4.45Z" transform="translate(-7.81 -25.32)"/><rect class="cls-5" x="118.72" y="113.79" width="1.87" height="3.5"/><path class="cls-6" d="M127.93,139.58v2.55H127v-2.55h.92m.95-1h-2.82v4.45h2.82v-4.45Z" transform="translate(-7.81 -25.32)"/><rect class="cls-5" x="122.24" y="113.79" width="1.87" height="3.5"/><path class="cls-6" d="M131.44,139.58v2.55h-.92v-2.55h.92m.95-1h-2.82v4.45h2.82v-4.45Z" transform="translate(-7.81 -25.32)"/><rect class="cls-5" x="110.05" y="113.79" width="1.84" height="3.5"/><path class="cls-6" d="M119.23,139.58v2.55h-.89v-2.55h.89m1-1h-2.79v4.45h2.79v-4.45Z" transform="translate(-7.81 -25.32)"/><rect class="cls-5" x="113.53" y="113.79" width="1.83" height="3.5"/><path class="cls-6" d="M122.7,139.58v2.55h-.88v-2.55h.88m1-1h-2.78v4.45h2.78v-4.45Z" transform="translate(-7.81 -25.32)"/><polygon class="cls-7" points="297.14 111.03 297.14 109.3 288.77 109.3 288.77 111.03 279.75 111.03 279.75 112.79 281.13 112.79 281.13 119.38 304.79 119.38 304.79 112.79 306.16 112.79 306.16 111.03 297.14 111.03"/><rect class="cls-7" x="290.65" y="113.51" width="2.13" height="3.41"/><rect class="cls-7" x="293.31" y="113.51" width="2.13" height="3.41"/><polygon class="cls-4" points="157.23 101.35 157.23 98.94 153.16 98.94 153.16 95.04 152.65 95.04 152.65 98.94 148.69 98.94 148.69 101.35 135.75 101.35 135.75 104.42 136.77 104.42 136.77 119.28 169.19 119.28 169.19 104.42 170.17 104.42 170.17 101.35 157.23 101.35"/><rect class="cls-8" x="140.44" y="106.74" width="1.97" height="1.97"/><rect class="cls-8" x="140.44" y="110.35" width="1.97" height="1.97"/><rect class="cls-8" x="140.44" y="113.97" width="1.97" height="1.97"/><rect class="cls-8" x="145.05" y="106.74" width="1.97" height="1.97"/><rect class="cls-8" x="145.05" y="110.35" width="1.97" height="1.97"/><rect class="cls-8" x="145.05" y="113.97" width="1.97" height="1.97"/><rect class="cls-8" x="158.89" y="106.74" width="1.97" height="1.97"/><rect class="cls-8" x="158.89" y="110.35" width="1.97" height="1.97"/><rect class="cls-8" x="158.89" y="113.97" width="1.97" height="1.97"/><rect class="cls-8" x="149.66" y="106.74" width="1.97" height="1.97"/><rect class="cls-8" x="149.66" y="110.35" width="1.97" height="1.97"/><rect class="cls-8" x="149.66" y="113.97" width="1.97" height="1.97"/><rect class="cls-8" x="154.28" y="106.74" width="1.97" height="1.97"/><rect class="cls-8" x="154.28" y="110.35" width="1.97" height="1.97"/><rect class="cls-8" x="154.28" y="113.97" width="1.97" height="1.97"/><rect class="cls-8" x="163.5" y="106.74" width="1.97" height="1.97"/><rect class="cls-8" x="163.5" y="110.35" width="1.97" height="1.97"/><rect class="cls-8" x="163.5" y="113.97" width="1.97" height="1.97"/><polygon class="cls-4" points="53.81 97.1 53.81 93.39 49.8 93.39 49.8 91.93 48.91 91.93 48.91 93.39 45.17 93.39 45.17 97.1 39.57 97.1 39.57 93.39 35.46 93.39 35.46 91.93 34.57 91.93 34.57 93.39 30.76 93.39 30.76 97.1 25.75 97.1 25.75 119.2 59.02 119.28 59.02 97.1 53.81 97.1"/><rect class="cls-4" x="30.87" y="100.03" width="2.94" height="2.27"/><rect class="cls-4" x="36.62" y="100.03" width="2.94" height="2.27"/><rect class="cls-4" x="30.87" y="104.2" width="2.94" height="2.27"/><rect class="cls-4" x="36.62" y="104.2" width="2.94" height="2.27"/><rect class="cls-4" x="30.87" y="108.36" width="2.94" height="2.27"/><rect class="cls-4" x="36.62" y="108.36" width="2.94" height="2.27"/><rect class="cls-4" x="30.87" y="112.52" width="2.94" height="2.27"/><rect class="cls-4" x="36.62" y="112.52" width="2.94" height="2.27"/><rect class="cls-4" x="45.17" y="100.03" width="2.94" height="2.27"/><rect class="cls-4" x="50.92" y="100.03" width="2.94" height="2.27"/><rect class="cls-4" x="45.17" y="104.2" width="2.94" height="2.27"/><rect class="cls-4" x="50.92" y="104.2" width="2.94" height="2.27"/><rect class="cls-4" x="45.17" y="108.36" width="2.94" height="2.27"/><rect class="cls-4" x="50.92" y="108.36" width="2.94" height="2.27"/><rect class="cls-4" x="45.17" y="112.52" width="2.94" height="2.27"/><rect class="cls-4" x="50.92" y="112.52" width="2.94" height="2.27"/><polygon class="cls-4" points="89.95 114.22 88.48 110.84 81.11 110.84 80.03 114.22 78.11 114.22 78.11 117.03 92.82 117.03 92.82 114.22 89.95 114.22"/><rect class="cls-6" x="77.64" y="116.61" width="15.66" height="1.28"/><circle class="cls-4" cx="90.32" cy="117.7" r="1.09"/><path class="cls-4" d="M89.71,143a1.09,1.09,0,1,1-1.09-1.1A1.09,1.09,0,0,1,89.71,143Z" transform="translate(-7.81 -25.32)"/><polygon class="cls-6" points="85.35 112.09 87.59 112.09 88.54 114.53 85.35 114.53 85.35 112.09"/><polygon class="cls-6" points="82.19 112.09 84.37 112.09 84.37 114.53 81.43 114.53 82.19 112.09"/><polygon class="cls-4" points="161.8 113.86 160.28 110.37 149.55 110.37 149.55 116.77 164.76 116.77 164.76 113.86 161.8 113.86"/><rect class="cls-6" x="149.06" y="116.33" width="16.2" height="1.32"/><path class="cls-4" d="M171.12,142.78a1.13,1.13,0,1,1-1.13-1.13A1.14,1.14,0,0,1,171.12,142.78Z" transform="translate(-7.81 -25.32)"/><circle class="cls-4" cx="152.34" cy="117.46" r="1.13"/><polygon class="cls-6" points="157.46 111.66 159.47 111.66 160.54 114.38 157.46 114.38 157.46 111.66"/><rect class="cls-6" x="153.04" y="111.66" width="3.58" height="2.73"/><rect class="cls-6" x="150.84" y="111.66" width="1.52" height="2.73"/><path class="cls-4" d="M19.53,144.6v0a1.31,1.31,0,0,0-1.3-1.31h-.07a2.09,2.09,0,0,0-1.95-1.36,2.14,2.14,0,0,0-.76.14,2.09,2.09,0,0,0-1.48-.62,2.12,2.12,0,0,0-2,1.45h0a1.36,1.36,0,0,0-1.36,1.36,1.27,1.27,0,0,0,.07.38Z" transform="translate(-7.81 -25.32)"/><path class="cls-4" d="M318.15,144.6s0,0,0,0a1.31,1.31,0,0,0-1.31-1.31h-.07a2.08,2.08,0,0,0-1.95-1.36,2.14,2.14,0,0,0-.76.14,2.08,2.08,0,0,0-1.47-.62,2.13,2.13,0,0,0-2,1.45h0a1.35,1.35,0,0,0-1.35,1.36,1.26,1.26,0,0,0,.06.38Z" transform="translate(-7.81 -25.32)"/><path class="cls-4" d="M294.74,144.6a.09.09,0,0,0,0,0,1.31,1.31,0,0,0-1.31-1.31h-.06a2.1,2.1,0,0,0-2-1.36,2.14,2.14,0,0,0-.76.14,2.08,2.08,0,0,0-1.47-.62,2.11,2.11,0,0,0-2,1.45h0a1.36,1.36,0,0,0-1.35,1.36,1.26,1.26,0,0,0,.06.38Z" transform="translate(-7.81 -25.32)"/><path class="cls-4" d="M254.88,144.6s0,0,0,0a1.31,1.31,0,0,0-1.31-1.31h-.07a2.08,2.08,0,0,0-1.95-1.36,2.14,2.14,0,0,0-.76.14,2.08,2.08,0,0,0-1.47-.62,2.13,2.13,0,0,0-2,1.45h0a1.35,1.35,0,0,0-1.35,1.36,1.26,1.26,0,0,0,.06.38Z" transform="translate(-7.81 -25.32)"/><path class="cls-7" d="M37,137.31a2.6,2.6,0,0,0-1.5-2.38,3.66,3.66,0,0,0-7.12-.05,2.6,2.6,0,0,0-1.58,2.39c0,2.4,2.24,3.8,5,3.8S37,139.78,37,137.31Z" transform="translate(-7.81 -25.32)"/><line class="cls-9" x1="24.12" y1="110.73" x2="24.12" y2="119.28"/><line class="cls-9" x1="21.94" y1="113.3" x2="23.99" y2="114.49"/><line class="cls-9" x1="24.32" y1="113.26" x2="26.17" y2="111.74"/><path class="cls-7" d="M250.43,137.31a2.59,2.59,0,0,0-1.51-2.38,3.66,3.66,0,0,0-7.12-.05,2.6,2.6,0,0,0-1.57,2.39c0,2.4,2.24,3.8,5,3.8C248.2,141.08,250.43,139.78,250.43,137.31Z" transform="translate(-7.81 -25.32)"/><line class="cls-9" x1="237.53" y1="110.73" x2="237.53" y2="119.28"/><line class="cls-9" x1="235.35" y1="113.3" x2="237.4" y2="114.49"/><line class="cls-9" x1="237.73" y1="113.26" x2="239.58" y2="111.74"/><path class="cls-7" d="M26.36,140a1.74,1.74,0,0,0-1-1.59,2.44,2.44,0,0,0-4.76,0,1.73,1.73,0,0,0-1.06,1.6c0,1.6,1.5,2.54,3.37,2.54S26.36,141.7,26.36,140Z" transform="translate(-7.81 -25.32)"/><line class="cls-9" x1="15.15" y1="113.55" x2="15.15" y2="119.28"/><line class="cls-9" x1="13.68" y1="115.27" x2="15.06" y2="116.07"/><line class="cls-9" x1="15.28" y1="115.25" x2="16.52" y2="114.23"/><path class="cls-7" d="M285.84,140a1.75,1.75,0,0,0-1-1.59,2.45,2.45,0,0,0-4.77,0A1.72,1.72,0,0,0,279,140c0,1.6,1.5,2.54,3.37,2.54S285.84,141.7,285.84,140Z" transform="translate(-7.81 -25.32)"/><line class="cls-9" x1="274.62" y1="113.55" x2="274.62" y2="119.28"/><line class="cls-9" x1="273.16" y1="115.27" x2="274.53" y2="116.07"/><line class="cls-9" x1="274.75" y1="115.25" x2="275.99" y2="114.23"/><path class="cls-7" d="M207.75,144.6s0-.37,0-.38a1,1,0,0,0-1-1h-.06a1.62,1.62,0,0,0-2.11-.95,1.62,1.62,0,0,0-2.7.65h0a1.05,1.05,0,0,0-1.05,1.06c0,.1,0,.54,0,.64Z" transform="translate(-7.81 -25.32)"/><path class="cls-7" d="M187.66,144.6s0,0,0-.06a1.5,1.5,0,0,0-1.5-1.49h-.07a2.39,2.39,0,0,0-2.24-1.56,2.27,2.27,0,0,0-.86.17,2.37,2.37,0,0,0-1.69-.71,2.42,2.42,0,0,0-2.27,1.65h0a1.55,1.55,0,0,0-1.55,1.55,1.62,1.62,0,0,0,.07.44Z" transform="translate(-7.81 -25.32)"/><path class="cls-3" d="M132.57,89.72a3.31,3.31,0,0,1,1.63,1.06,3.84,3.84,0,0,1,1.48-1.31" transform="translate(-7.81 -25.32)"/><path class="cls-7" d="M195.58,138.26c0,1.9-1.06,3.22-2.37,3.22s-2.37-1.32-2.37-3.22,1.06-6.61,2.37-6.61S195.58,136.37,195.58,138.26Z" transform="translate(-7.81 -25.32)"/><line class="cls-10" x1="185.38" y1="110.41" x2="185.38" y2="119.28"/><path class="cls-7" d="M200.66,139.5c0,1.49-.83,2.52-1.86,2.52S197,141,197,139.5s.83-5.18,1.85-5.18S200.66,138,200.66,139.5Z" transform="translate(-7.81 -25.32)"/><line class="cls-10" x1="190.98" y1="112.2" x2="190.98" y2="119.28"/><line class="cls-11" x1="0.75" y1="119.58" x2="321.14" y2="120.28"/><polygon class="cls-7" points="262.55 116.96 262.55 110.94 266.75 110.94 268.74 114.95 268.74 116.96 262.55 116.96"/><polygon class="cls-6" points="265.91 111.95 264.06 111.95 264.06 114.64 267.21 114.64 265.91 111.95"/><polygon class="cls-7" points="262.55 108.86 253.74 108.86 250.6 108.86 249.69 108.86 249.69 116.96 250.6 116.96 253.74 116.96 262.55 116.96 262.55 108.86"/><rect class="cls-6" x="249.19" y="116.74" width="20.06" height="1.25"/><path class="cls-7" d="M274.42,143.27a1.35,1.35,0,1,1-1.35-1.35A1.34,1.34,0,0,1,274.42,143.27Z" transform="translate(-7.81 -25.32)"/><path class="cls-7" d="M262.71,143.26a1.35,1.35,0,1,1-1.35-1.34A1.34,1.34,0,0,1,262.71,143.26Z" transform="translate(-7.81 -25.32)"/><rect class="cls-6" x="267.22" y="115.1" width="1.27" height="0.83"/><rect class="cls-6" x="249.85" y="115.1" width="1.27" height="0.83"/></svg>