<svg id="Layer_1" data-name="Layer 1" xmlns="http://www.w3.org/2000/svg" viewBox="0 0 567.14 486.23"><defs><style>.cls-2{fill:#91c887}.cls-10,.cls-11,.cls-14,.cls-15,.cls-16,.cls-17,.cls-18,.cls-19,.cls-2,.cls-20,.cls-21,.cls-22,.cls-23,.cls-24,.cls-26,.cls-27,.cls-28,.cls-29,.cls-3,.cls-30,.cls-31,.cls-32,.cls-33,.cls-34,.cls-4,.cls-5,.cls-6,.cls-7,.cls-8,.cls-9{fill-rule:evenodd}.cls-3{fill:#6cb45c}.cls-4{fill:#557c84}.cls-5{fill:#61929b}.cls-6{fill:#8f0049}.cls-7{fill:#c63a25}.cls-8{fill:#da4b32}.cls-9{fill:#87bda6}.cls-10{fill:#afd4c3}.cls-11{fill:#b8c7c6}.cls-14{fill:#91205a}.cls-15{fill:#a72668}.cls-16{fill:#f8891b}.cls-17{fill:#f99a3b}.cls-18{fill:#ab3220}.cls-19{fill:#faa857}.cls-20{fill:#fadfbb}.cls-21{fill:#87adb3}.cls-22{fill:#f84b76}.cls-23{fill:#f9688e}.cls-24{fill:#f5b7bb}.cls-26{fill:#5a8c25}.cls-27{fill:#71aa36}.cls-28{fill:#80bd41}.cls-29{fill:#51851b}.cls-30{fill:#659e2a}.cls-31{fill:#74b135}.cls-32{fill:#bbdbaf}.cls-33{fill:#0d723f}.cls-34{fill:#0d8835}</style></defs><path fill="#f8f7fc" d="M0 0h567.14v486.23H0z"/><path class="cls-2" d="M114.63 130.43h314c47.05 0 50.49 29.83 1.14 29.83h-147.6c-32.58 0-32.59 41.87 0 41.87h191.21c18.57 0 28.69 9.59 29.19 19.69 1.05 21 17.61 22.86 35.76 22.7 39-.35 39 42.3 0 42.45-21 .08-35.76 6.24-35.83 18.46-.07 11.4-8.23 23.47-29.12 23.47H224.82c-50 0-47.13 41.42-.39 41.73l239.78 1.62c141.92 1 118.49 95.91 24 96.63h21.54c39 0 39 42.34 0 42.45l-447.32 1.18c-39 .1-39-42.26 0-42.45L304 468.88c61.51-.31 63.83-55.91-.16-55.88l-199.51.13c-70.92 0-75.94-84.21-2.85-84.56l47.64-.22c-40.55.12-48.41-40.75 1.7-41l196-.92c29.53-.14 29.52-41.87 0-41.87H220.18c-37.14 0-38.93-38.45-5.38-42.16h-99c-82.64 0-80.76-72-1.14-72z" transform="translate(-13.63 -54.29)"/><path class="cls-2" d="M77 214.75h71.66c32.58 0 36 29.83 1.15 29.83H76c-33.5 0-33.76-29.83 1-29.83z" transform="translate(-13.63 -54.29)"/><path class="cls-3" d="M128.44 138.41h100.75c32.58 0 36 29.83 1.15 29.83h-102.9c-33.5 0-33.76-29.83 1-29.83zM384.24 295.13l138.71-.4c32.58-.1 36 22.13 1.15 22.23l-140.86.4c-33.5.1-33.76-22.13 1-22.23zM282.43 208.58l131.69-.38c32.57-.09 36 22.14 1.14 22.24l-133.83.38c-33.5.09-33.76-22.14 1-22.24zM436.44 470.36h71.66c32.58 0 36 29.83 1.15 29.83h-73.81c-33.5 0-33.76-29.83 1-29.83zM76.53 480.26l173.76-.33c35.75-.07 39.19 22.16 1.15 22.23l-175.92.34c-25.24.05-24.4-22.19 1-22.24zM64.34 291.11l101.74-.22c32.57-.07 36 29.76 1.14 29.83l-103.88.22c-33.5.07-33.76-29.76 1-29.83zM383.27 415.57l138.7-.4c32.58-.09 36 22.14 1.15 22.24l-140.86.39c-33.5.1-33.76-22.13 1-22.23zM350.07 385.63l102.48-.3c32.58-.09 36 22.14 1.15 22.24l-104.63.3c-33.5.09-33.76-22.14 1-22.24z" transform="translate(-13.63 -54.29)"/><path class="cls-3" d="M107 136.09l173.92 1.33c35.25.28 35.78 13.31.91 13.05l-176.07-1.34c-33.5-.25-33.53-13.31 1.24-13zM170 313.18l31.09.26c24.4.2 24.93 13.22.91 13l-33.24-.25c-22-.17-18.77-13.21 1.24-13.05zM531.86 252.29l12.35.13c17.94.18 16.84 13.14-.72 13l-11.89-.09c-18.39-.14-16.12-13.25.26-13zM408.57 143.68l8.87.09c12.89.13 12.09 9.44-.52 9.35l-8.54-.07c-13.21-.1-11.58-9.51.19-9.37zM90.93 384.5l44 .34c18 .14 16.84 13.13-.72 13l-43.52-.3c-18.38-.13-16.11-13.17.26-13.05z" transform="translate(-13.63 -54.29)"/><path class="cls-4" d="M379.57 315.01h48.31v57.27h-48.31v-57.27z"/><path class="cls-5" d="M393.2 375.15l46.5-4.75c.5 37.21-21.1 49.32-46.5 56.17v-51.42z" transform="translate(-13.63 -54.29)"/><path class="cls-6" d="M398.86 352.97h9.73v19.31h-9.73v-19.31z"/><path class="cls-7" d="M381.97 302.08h43.51l2.4 12.93h-48.31l2.4-12.93z"/><path class="cls-8" d="M395.6 356.37h43.51c-13.59 6.53-29 10.7-45.91 12.92l2.4-12.92z" transform="translate(-13.63 -54.29)"/><path class="cls-9" d="M384.86 297.14h5v11.73h-5v-11.73z"/><path class="cls-10" d="M384.86 297.14h1.25v11.73h-1.25v-11.73z"/><path class="cls-11" d="M382.69 321.66h5.53v10.16h-5.53v-10.16zM390.62 321.66h5.52v10.16h-5.52v-10.16zM400.96 321.66h5.53v10.16h-5.53v-10.16zM411.3 321.66h5.52v10.16h-5.52v-10.16zM419.23 321.66h5.53v10.16h-5.53v-10.16zM382.69 337.37h5.53v10.16h-5.53v-10.16zM390.62 337.37h5.52v10.16h-5.52v-10.16zM400.96 337.37h5.53v10.16h-5.53v-10.16zM411.3 337.37h5.52v10.16h-5.52v-10.16zM419.23 337.37h5.53v10.16h-5.53v-10.16zM382.69 353.07h5.53v10.17h-5.53v-10.17zM390.62 353.07h5.52v10.17h-5.52v-10.17zM411.3 353.07h5.52v10.17h-5.52v-10.17zM419.23 353.07h5.53v10.17h-5.53v-10.17z"/><path fill="#a0aa64" fill-rule="evenodd" d="M365.67 281.95h-3.53v6.46l3.53 1.83v-8.29z"/><path fill="#b9c18d" fill-rule="evenodd" d="M363.02 281.95h-.88v6.46l.88.46v-6.92z"/><path class="cls-9" d="M333.71 278.23h4.26v10.01l-4.26 2.16v-12.17z"/><path class="cls-10" d="M333.71 278.23h1.06v11.56l-1.06.61v-12.17z"/><path class="cls-5" d="M326.98 293.46l22.81-12.45 22.78 12.45-2.19.01H329.2l-2.22-.01z"/><path class="cls-14" d="M329.2 293.46l20.59-11.01 20.59 11.01v48.83H329.2v-48.83z"/><path class="cls-15" d="M342.83 353.77l20.59-16.07L384 348.48c-6.63 21.79-19.91 37.69-41.18 48.1v-42.81z" transform="translate(-13.63 -54.29)"/><path class="cls-11" d="M331.86 299.14h4.71v8.66h-4.71v-8.66zM338.62 299.14h4.71v8.66h-4.71v-8.66zM356.25 299.14h4.71v8.66h-4.71v-8.66zM363.01 299.14h4.71v8.66h-4.71v-8.66zM331.86 312.53h4.71v8.66h-4.71v-8.66zM338.62 312.53h4.71v8.66h-4.71v-8.66zM356.25 312.53h4.71v8.66h-4.71v-8.66zM363.01 312.53h4.71v8.66h-4.71v-8.66zM331.86 325.92h4.71v8.66h-4.71v-8.66zM338.62 325.92h4.71v8.66h-4.71v-8.66zM356.25 325.92h4.71v8.66h-4.71v-8.66zM363.01 325.92h4.71v8.66h-4.71v-8.66z"/><path class="cls-16" d="M82.26 204.5H76.5v14.58l5.76 3.02v-17.6zM74.25 209.02h-4.13v10.33l4.13 2.15v-12.48z"/><path class="cls-17" d="M77.94 204.5H76.5v14.58l1.44.75V204.5zM71.16 209.02h-1.04v10.33l1.04.54v-10.87z"/><path class="cls-18" d="M59.45 217.86h56.84l.02 11.03H51.32l8.13-11.03z"/><path class="cls-8" d="M113.69 216.59l26.76-14.61 26.72 14.61H113.69z"/><path class="cls-8" d="M73.09 272.14h54.2c-19.12 5.62-40.19 9-62.34 11l8.14-11z" transform="translate(-13.63 -54.29)"/><path class="cls-8" d="M125.07 221.54l15.52-9.35 15.5 9.35h-31.02z"/><path class="cls-16" d="M51.32 228.89h64.99v28.63H51.32v-28.63z"/><path class="cls-17" d="M65 287.61l62.48-3.21C114.19 297.68 86.2 308 65 311.81v-24.2z" transform="translate(-13.63 -54.29)"/><path class="cls-17" d="M116.29 216.59l24.15-12.93 24.16 12.93v40.93h-48.31v-40.93z"/><path class="cls-19" d="M116.29 217.42l24.15-12.92 24.16 12.92v20.79l-10-16.67-28.16 35.98-10.15-28.63v-11.47z"/><path class="cls-16" d="M126.58 221.54l14.01-8.27 14.01 8.27-.14 35.98h-28.02l.14-35.98z"/><path class="cls-17" d="M154.4 298.83l-.18-30.27 14 8.27c0 10.46-8.87 31.63-28.16 35l.14-36 14.19 23z" transform="translate(-13.63 -54.29)"/><path class="cls-20" d="M54.16 238.32h6.67v10.16h-6.67v-10.16zM63.74 238.32h6.67v10.16h-6.67v-10.16zM97.22 238.32h6.67v10.16h-6.67v-10.16zM106.8 238.32h6.67v10.16h-6.67v-10.16zM119.06 223.24h4.46v10.16h-4.46v-10.16zM157.37 223.24h4.46v10.16h-4.46v-10.16zM119.06 238.95h4.46v10.16h-4.46v-10.16zM157.37 238.95h4.46v10.16h-4.46v-10.16zM129.59 223.24h3.89v10.16h-3.89v-10.16zM147.56 223.24h3.89v10.16h-3.89v-10.16zM129.59 238.95h3.89v10.16h-3.89v-10.16zM147.56 238.95h3.89v10.16h-3.89v-10.16z"/><path class="cls-14" d="M64.59 118.1l16.76-12.93L98.1 118.1v57.28H64.59V118.1z"/><path class="cls-15" d="M78.22 175.61l18.41-13.8 14.42 10.91c-2.94 24.48-13.11 50.43-32.83 54.38v-51.49z" transform="translate(-13.63 -54.29)"/><path class="cls-4" d="M98.09 137.77l16.76-8.48 16.75 8.48v37.61H98.09v-37.61z"/><path class="cls-5" d="M116 194.46l12.17-6.08 17.1 4.24v37c-30 0-30-18.86-29.27-35.2z" transform="translate(-13.63 -54.29)"/><path class="cls-7" d="M131.54 128.55l-16.69-9.11-.01 9.86 16.77 8.47-.07-9.22zM97.9 109.1L81.35 96.17v9l16.76 12.93-.21-9z"/><path class="cls-18" d="M97.9 109.1L81.35 96.17l16.76 21.93-.21-9zM98.1 128.72l16.75-9.28-.01 9.86-16.75 8.47.01-9.05z"/><path class="cls-8" d="M114.85 119.44l-.01 9.86-15.1 7.64 15.11-17.5zM64.8 109.1l16.55-12.93v9L64.59 118.1l.21-9z"/><path class="cls-11" d="M67.53 124.75h5.1v9.13h-5.1v-9.13zM82.73 124.75h5.11v9.13h-5.11v-9.13zM74.86 124.75h5.1v9.13h-5.1v-9.13zM90.06 124.75h5.11v9.13h-5.11v-9.13zM67.53 138.86h5.1v9.13h-5.1v-9.13zM82.73 138.86h5.11v9.13h-5.11v-9.13zM74.86 138.86h5.1v9.13h-5.1v-9.13zM90.06 138.86h5.11v9.13h-5.11v-9.13zM102.33 140.17h6.29v7.96h-6.29v-7.96zM121.08 140.17h6.29v7.96h-6.29v-7.96zM111.36 140.17h6.3v7.96h-6.3v-7.96z"/><path class="cls-17" d="M142.64 55.47h48.31v43.57h-48.31V55.47zM190.95 55.47h22.88v43.57h-22.88V55.47z"/><path class="cls-17" d="M131.2 77.19h22.87v21.85H131.2V77.19z"/><path class="cls-16" d="M206.79 55.47h7.04v43.57h-7.04V55.47zM146.83 77.19h7.24v21.85h-7.24V77.19z"/><path class="cls-19" d="M156.27 110.5h48.31v42.83c-20.18-9.68-36.82-23.34-48.31-42.83zM144.83 132.13h15.63c-1.16 7.34-4.87 14.51-15.63 21.2v-21.2z" transform="translate(-13.63 -54.29)"/><path class="cls-15" d="M161.93 79.73h9.73v19.31h-9.73V79.73z"/><path class="cls-14" d="M162.89 83.55h7.81v15.49h-7.81V83.55z"/><path class="cls-5" d="M131.2 77.19h22.87l-11.41-21.72-11.46 21.72zM190.95 55.47h22.88l-11.42-15.79-11.46 15.79z"/><path class="cls-5" d="M145.04 45.57h53.09l-7.18 9.9h-48.31l2.4-9.9z"/><path class="cls-21" d="M158.67 99.86h53.09c-13.58 6.53-38.58 7.67-55.49 9.89l2.4-9.89z" transform="translate(-13.63 -54.29)"/><path class="cls-21" d="M131.2 77.19h15.62l-4.16-21.72-11.46 21.72zM190.95 55.47h15.84l-4.38-15.79-11.46 15.79z"/><path class="cls-20" d="M210.89 58.37h2.57v2.56h-2.57v-2.56zM156.48 80.27h2.77v11.79h-2.77V80.27zM207.18 58.37h2.56v2.56h-2.56v-2.56zM178.67 59.14h5.52v11.79h-5.52V59.14zM170.38 59.14h5.52v11.79h-5.52V59.14zM162.08 59.14h5.52v11.79h-5.52V59.14zM153.79 59.14h5.52v11.79h-5.52V59.14zM181.43 80.27h2.76v11.79h-2.76V80.27zM175.9 80.27h2.76v11.79h-2.76V80.27zM203.46 58.37h2.57v2.56h-2.57v-2.56zM199.75 58.37h2.56v2.56h-2.56v-2.56zM196.03 58.37h2.56v2.56h-2.56v-2.56zM192.32 58.37h2.56v2.56h-2.56v-2.56z"/><path class="cls-22" d="M281.73 127.13h46.34v38.08h-46.34v-38.08z"/><path class="cls-22" d="M328.07 127.13l15.39-17.22 13.17.01 15.32 17.38v37.91h-43.88v-38.08z"/><path class="cls-23" d="M350.1 63.79l1.22 22.33-2.59-.01 1.37-22.32zM343.46 96.72h13.11l.06 13.2-13.17-.01V96.72z"/><path class="cls-23" d="M295.36 182.15h46.34c-9.13 17.91-24.82 30.12-46.34 37.35v-37.35zM343.81 182.16l41.77.16c-7.41 20.06-33.73 19.81-41.77 37.19v-37.35zM344.06 181.54L357 166.69l5.86 7.47c2.5 3.17-4.09 7.49-18.78 7.38z" transform="translate(-13.63 -54.29)"/><path class="cls-22" d="M350.04 96.72h6.53l.06 13.2-6.59-.01V96.72zM350.1 63.79l1.22 22.33h-1.28l.06-22.33z"/><path class="cls-14" d="M289.65 118.48h46.29l-7.87 8.65h-46.34l7.92-8.65z"/><path class="cls-15" d="M343.46 96.72h13.11l-5.25-10.6-2.59-.01-5.27 10.61zM357.55 127.3h14.4l-15.32-17.38-13.17-.01 14.09 17.39z"/><path class="cls-15" d="M303.28 172.76h46.29c-13.6 4.21-29.33 7.16-52.24 6.5l5.95-6.5z" transform="translate(-13.63 -54.29)"/><path class="cls-14" d="M385.58 181.58l-15.32-17.37h-6.59c2.18 7.9 9.33 14.42 21.91 17.37z" transform="translate(-13.63 -54.29)"/><path class="cls-14" d="M350.04 96.72h6.53l-5.25-10.6h-1.3l.02 10.6z"/><path class="cls-15" d="M339.3 143.06h10.72v22.15H339.3v-22.15z"/><path class="cls-14" d="M340.36 147.45h8.6v17.76h-8.6v-17.76z"/><path class="cls-24" d="M318.6 133.08h5.29v8.69h-5.29v-8.69zM318.6 147.63h5.29v8.68h-5.29v-8.68zM310.64 133.08h5.3v8.69h-5.3v-8.69zM310.64 147.63h5.3v8.68h-5.3v-8.68zM293.86 133.08h5.3v8.69h-5.3v-8.69zM293.86 147.63h5.3v8.68h-5.3v-8.68zM285.91 133.08h5.29v8.69h-5.29v-8.69zM285.91 147.63h5.29v8.68h-5.29v-8.68zM332.44 143.69h3.05v13.51h-3.05v-13.51zM353.84 143.69h3.04v13.51h-3.04v-13.51z"/><path class="cls-24" d="M359.34 181.33H354c0-11.24 5.3-11.24 5.3 0z" transform="translate(-13.63 -54.29)"/><path class="cls-17" d="M438.51 377.27l16.75-12.93 16.76 12.93v57.27h-33.51v-57.27z"/><path class="cls-19" d="M452.14 437.61l16.75-17.84 16.76 12.63c-2.94 24.48-28.89 32.67-33.51 56.43v-51.22z" transform="translate(-13.63 -54.29)"/><path class="cls-4" d="M472.01 396.94l16.75-8.48 16.76 8.48v37.6h-33.51v-37.6z"/><path class="cls-5" d="M489.87 453.62l12.13-6.07 17.11 4.24v37c-28 0-30.53-15.94-29.28-35.21z" transform="translate(-13.63 -54.29)"/><path class="cls-7" d="M471.81 368.27l-16.55-12.94v9.01l16.76 12.93-.21-9zM505.45 387.72l-16.68-9.11-.01 9.85 16.76 8.48-.07-9.22z"/><path class="cls-18" d="M471.81 368.27l-16.55-12.94 16.76 21.94-.21-9zM472.02 387.89l16.74-9.28v9.85l-16.75 8.48.01-9.05z"/><path class="cls-8" d="M438.71 368.27l16.55-12.94v9.01l-16.75 12.93.2-9zM488.76 378.61v9.85l-15.1 7.65 15.1-17.5z"/><path class="cls-20" d="M441.44 383.92h5.11v9.13h-5.11v-9.13zM456.65 383.92h5.1v9.13h-5.1v-9.13zM448.77 383.92h5.11v9.13h-5.11v-9.13zM463.98 383.92h5.1v9.13h-5.1v-9.13zM441.44 398.03h5.11v9.13h-5.11v-9.13zM456.65 398.03h5.1v9.13h-5.1v-9.13zM448.77 398.03h5.11v9.13h-5.11v-9.13zM463.98 398.03h5.1v9.13h-5.1v-9.13zM476.24 399.34h6.29v7.96h-6.29v-7.96zM494.99 399.34h6.29v7.96h-6.29v-7.96zM485.28 399.34h6.29v7.96h-6.29v-7.96z"/><path class="cls-14" d="M368.94 195.62l16.75-12.93 16.76 12.93v57.28h-33.51v-57.28zM435.84 195.62l16.76-12.93 16.75 12.93v57.28h-33.51v-57.28z"/><path class="cls-15" d="M382.57 251l16.75-12.92 16.76 12.64c-2.94 24.47-28.89 32.66-33.51 56.42V251zM451.57 249.43l14.66-11.31L483 250.76c-2.93 24.47-6.26 49.5-31.41 51.95v-53.28z" transform="translate(-13.63 -54.29)"/><path class="cls-4" d="M402.44 215.29l16.75-8.48 16.76 8.48v37.61h-33.51v-37.61zM469.34 215.29l16.76-8.48 16.75 8.48v37.61h-33.51v-37.61z"/><path class="cls-5" d="M420.3 272l12.17-6.07 17.11 4.23v37c-24.8 0-29.61-12.16-29.28-35.2zM487.21 272l12.17-6.07 17.1 4.23v37c-28.18 0-29.35-12.35-29.27-35.2z" transform="translate(-13.63 -54.29)"/><path class="cls-7" d="M402.25 186.62l-16.56-12.93v9l16.76 12.93-.2-9zM435.88 206.07l-16.69-9.11v9.86l16.76 8.47-.07-9.22zM469.15 186.62l-16.55-12.93v9l16.76 12.93-.21-9zM502.79 206.07l-16.69-9.11-.01 9.86 16.77 8.47-.07-9.22z"/><path class="cls-18" d="M402.25 186.62l-16.56-12.93 16.76 21.93-.2-9zM402.45 206.24l16.74-9.28v9.86l-16.75 8.47.01-9.05zM469.15 186.62l-16.55-12.93 16.76 21.93-.21-9zM469.35 206.24l16.75-9.28-.01 9.86-16.75 8.47.01-9.05z"/><path class="cls-8" d="M369.14 186.62l16.55-12.93v9l-16.75 12.93.2-9zM419.19 196.96v9.86l-15.1 7.64 15.1-17.5zM436.05 186.62l16.55-12.93v9l-16.76 12.93.21-9zM486.1 196.96l-.01 9.86-15.1 7.64 15.11-17.5z"/><path class="cls-11" d="M371.87 202.27h5.11v9.13h-5.11v-9.13zM387.08 202.27h5.1v9.13h-5.1v-9.13zM379.2 202.27h5.11v9.13h-5.11v-9.13zM394.41 202.27h5.1v9.13h-5.1v-9.13zM371.87 216.38h5.11v9.13h-5.11v-9.13zM387.08 216.38h5.1v9.13h-5.1v-9.13zM379.2 216.38h5.11v9.13h-5.11v-9.13zM394.41 216.38h5.1v9.13h-5.1v-9.13zM406.67 217.69h6.29v7.97h-6.29v-7.97zM425.42 217.69h6.29v7.97h-6.29v-7.97zM415.71 217.69H422v7.97h-6.29v-7.97zM438.78 202.27h5.1v9.13h-5.1v-9.13zM453.98 202.27h5.11v9.13h-5.11v-9.13zM446.11 202.27h5.1v9.13h-5.1v-9.13zM461.31 202.27h5.11v9.13h-5.11v-9.13zM438.78 216.38h5.1v9.13h-5.1v-9.13zM453.98 216.38h5.11v9.13h-5.11v-9.13zM446.11 216.38h5.1v9.13h-5.1v-9.13zM461.31 216.38h5.11v9.13h-5.11v-9.13zM473.58 217.69h6.29v7.97h-6.29v-7.97zM492.33 217.69h6.29v7.97h-6.29v-7.97zM482.62 217.69h6.29v7.97h-6.29v-7.97z"/><path class="cls-22" d="M167.66 397.71h-46.35v38.09h46.35v-38.09zM121.31 397.71l-15.38-17.21-13.17.01-15.32 17.37v37.92h43.87v-38.09z"/><path class="cls-14" d="M159.73 389.06h-46.29l7.87 8.65h46.35l-7.93-8.65zM91.84 397.88h-14.4l15.32-17.37 13.17-.01-14.09 17.38z"/><path fill="#df3c65" fill-rule="evenodd" d="M121.31 397.71l-15.38-17.21-.12 55.3h15.5v-38.09z"/><path class="cls-23" d="M179.18 453.83h-44.24V488c29.48-1.44 44.59-13.13 44.24-34.15zM92.65 453.79c0 13.86-.1 34 13 34l-.38-34z" transform="translate(-13.63 -54.29)"/><path class="cls-15" d="M77.44 397.88l15.32-17.37 13.17-.01-15.39 13.09-13.1 4.29z"/><path class="cls-15" d="M173.36 443.35h-46.29c13.61 4.21 29.34 7.16 52.25 6.5l-6-6.5z" transform="translate(-13.63 -54.29)"/><path class="cls-6" d="M148.45 414.93h-8.1v20.87h8.1v-20.87zM109.75 413.65h-8.21v22.15h8.21v-22.15z"/><path class="cls-6" d="M147.65 419.06h-6.5v16.74h6.5v-16.74zM109.12 418.04h-6.58v17.76h6.58v-17.76z"/><path class="cls-24" d="M130.8 404.49h-5.32v9.99h5.32v-9.99zM130.8 421.21h-5.32v9.98h5.32v-9.98zM138.79 404.49h-5.32v9.99h5.32v-9.99zM138.79 421.21h-5.32v9.98h5.32v-9.98zM155.63 404.49h-5.32v9.99h5.32v-9.99zM155.63 421.21h-5.32v9.98h5.32v-9.98zM163.62 404.49h-5.32v9.99h5.32v-9.99zM163.62 421.21h-5.32v9.98h5.32v-9.98zM117.81 407.68h-3.05v15.53h3.05v-15.53zM98.47 406.73h-3.06v15.53h3.06v-15.53z"/><path class="cls-26" d="M131.85 140.73a13.13 13.13 0 0 1 13 13.23 13.46 13.46 0 0 1-.49 3.62h-25.05a13.25 13.25 0 0 1 12.54-16.85zM120.88 382c4.89 0 8.86 3.71 8.86 8.29a7.75 7.75 0 0 1-.34 2.27h-17a8.09 8.09 0 0 1-.33-2.27 8.58 8.58 0 0 1 8.85-8.29z" transform="translate(-13.63 -54.29)"/><path class="cls-26" d="M133.33 386.6a4.81 4.81 0 0 1 5 4.65 4.5 4.5 0 0 1-.18 1.28h-9.57a4.5 4.5 0 0 1-.19-1.28 4.82 4.82 0 0 1 5-4.65zM75.55 479.39c6.1 0 11 4.64 11 10.36a9.83 9.83 0 0 1-.41 2.83H64.91a9.83 9.83 0 0 1-.41-2.83c0-5.72 5-10.36 11-10.36zM234.93 472.8c5.66 0 10.26 4.3 10.26 9.61a9.2 9.2 0 0 1-.39 2.63h-19.75a9.2 9.2 0 0 1-.39-2.63c0-5.31 4.6-9.61 10.27-9.61z" transform="translate(-13.63 -54.29)"/><path class="cls-26" d="M249.36 478.17a5.58 5.58 0 0 1 5.76 5.39 5.2 5.2 0 0 1-.22 1.48h-11.09a5.2 5.2 0 0 1-.22-1.48 5.59 5.59 0 0 1 5.77-5.39zM404.89 206.37c6.5 0 11.77 4.93 11.77 11a10.29 10.29 0 0 1-.45 3h-22.64a10.29 10.29 0 0 1-.45-3c0-6.09 5.27-11 11.77-11z" transform="translate(-13.63 -54.29)"/><path class="cls-26" d="M421.44 212.52a6.41 6.41 0 0 1 6.61 6.19 5.85 5.85 0 0 1-.25 1.69h-12.72a5.85 5.85 0 0 1-.25-1.69 6.41 6.41 0 0 1 6.61-6.19zM281.76 211a6.41 6.41 0 0 1 6.6 6.19 5.58 5.58 0 0 1-.25 1.69H275.4a5.58 5.58 0 0 1-.25-1.69 6.41 6.41 0 0 1 6.61-6.19zM267.22 212.87a4.9 4.9 0 0 1 5 4.74 4.29 4.29 0 0 1-.19 1.29h-9.73a4.29 4.29 0 0 1-.19-1.29 4.9 4.9 0 0 1 5.06-4.74zM150.26 147a8.29 8.29 0 0 1 8.22 8.35 8.59 8.59 0 0 1-.31 2.28h-15.83a8.59 8.59 0 0 1-.31-2.28 8.3 8.3 0 0 1 8.23-8.35zM241.44 146.63a7.43 7.43 0 0 1 7.37 7.48 7.69 7.69 0 0 1-.28 2h-14.19a7.69 7.69 0 0 1-.28-2 7.43 7.43 0 0 1 7.38-7.48zM99.11 301.63c6.5 0 11.77 4.93 11.77 11a10.39 10.39 0 0 1-.45 3H87.79a10.39 10.39 0 0 1-.45-3c0-6.09 5.27-11 11.77-11z" transform="translate(-13.63 -54.29)"/><path class="cls-26" d="M115.66 307.78a6.41 6.41 0 0 1 6.61 6.19 5.91 5.91 0 0 1-.25 1.69H109.3a5.91 5.91 0 0 1-.25-1.69 6.41 6.41 0 0 1 6.61-6.19z" transform="translate(-13.63 -54.29)"/><path class="cls-27" d="M131.85 146.92a9.09 9.09 0 0 1 9 9.16 9.29 9.29 0 0 1-.12 1.5h-17.79a10.59 10.59 0 0 1-.12-1.5 9.1 9.1 0 0 1 9-9.16zM120.88 385.85a5.94 5.94 0 0 1 6.13 5.74 5.86 5.86 0 0 1-.08.94h-12.1a5.86 5.86 0 0 1-.08-.94 6 6 0 0 1 6.13-5.74zM133.33 388.78a3.33 3.33 0 0 1 3.44 3.22 3.15 3.15 0 0 1 0 .53h-6.79a3.17 3.17 0 0 1-.05-.53 3.33 3.33 0 0 1 3.44-3.22zM75.55 484.24a7.42 7.42 0 0 1 7.65 7.17 6.52 6.52 0 0 1-.1 1.17H68a6.52 6.52 0 0 1-.1-1.17 7.42 7.42 0 0 1 7.65-7.17zM234.93 477.29A6.9 6.9 0 0 1 242 484a6.59 6.59 0 0 1-.09 1.09h-14a6.59 6.59 0 0 1-.1-1.09 6.9 6.9 0 0 1 7.11-6.66zM249.36 480.69a3.87 3.87 0 0 1 4 3.74 3.15 3.15 0 0 1-.06.61h-7.87a4.18 4.18 0 0 1 0-.61 3.86 3.86 0 0 1 4-3.74zM404.89 211.52a7.91 7.91 0 0 1 8.15 7.64 7.24 7.24 0 0 1-.11 1.24h-16.08a7.24 7.24 0 0 1-.11-1.24 7.91 7.91 0 0 1 8.15-7.64zM421.44 215.42a4.44 4.44 0 0 1 4.56 4.28 4 4 0 0 1-.06.7h-9a4 4 0 0 1-.06-.7 4.44 4.44 0 0 1 4.58-4.28zM281.76 213.92a4.43 4.43 0 0 1 4.57 4.28 4 4 0 0 1-.06.7h-9a4 4 0 0 1-.06-.7 4.43 4.43 0 0 1 4.58-4.28zM267.22 215.08a3.4 3.4 0 0 1 3.5 3.28 3.1 3.1 0 0 1-.05.54h-6.91a3.1 3.1 0 0 1-.05-.54 3.4 3.4 0 0 1 3.51-3.28zM150.26 150.85a5.74 5.74 0 0 1 5.69 5.78 5.89 5.89 0 0 1-.08 1h-11.23a5.89 5.89 0 0 1-.08-1 5.74 5.74 0 0 1 5.7-5.78zM241.44 150.13a5.15 5.15 0 0 1 5.1 5.18 6 6 0 0 1-.07.85H236.4a6 6 0 0 1-.07-.85 5.15 5.15 0 0 1 5.11-5.18zM99.11 306.78a7.91 7.91 0 0 1 8.15 7.63 7.36 7.36 0 0 1-.11 1.25H91.07a7.36 7.36 0 0 1-.11-1.25 7.91 7.91 0 0 1 8.15-7.63zM115.66 310.67a4.44 4.44 0 0 1 4.57 4.29 4 4 0 0 1-.06.7h-9a4 4 0 0 1-.06-.7 4.44 4.44 0 0 1 4.58-4.29z" transform="translate(-13.63 -54.29)"/><path class="cls-28" d="M131.85 151.9a6.45 6.45 0 0 1 6.68 5.68h-13.37a6.46 6.46 0 0 1 6.69-5.68zM120.88 389c2.42 0 4.39 1.58 4.54 3.57h-9.08c.15-2 2.13-3.57 4.54-3.57zM133.33 390.53a2.4 2.4 0 0 1 2.55 2h-5.1a2.41 2.41 0 0 1 2.55-2zM75.55 488.13c3 0 5.48 2 5.67 4.45H69.88c.19-2.48 2.65-4.45 5.67-4.45zM234.93 480.91c2.8 0 5.09 1.82 5.26 4.13h-10.53c.18-2.31 2.47-4.13 5.27-4.13zM249.36 482.72a2.78 2.78 0 0 1 2.95 2.32h-5.91a2.79 2.79 0 0 1 3-2.32zM404.89 215.67c3.21 0 5.84 2.09 6 4.73h-12.04c.2-2.64 2.83-4.73 6-4.73zM421.44 217.75a3.21 3.21 0 0 1 3.39 2.65h-6.78a3.19 3.19 0 0 1 3.39-2.65zM281.76 216.24a3.2 3.2 0 0 1 3.38 2.66h-6.77a3.2 3.2 0 0 1 3.39-2.66zM267.22 216.87a2.44 2.44 0 0 1 2.59 2h-5.19a2.45 2.45 0 0 1 2.6-2zM150.26 154a4.07 4.07 0 0 1 4.21 3.59H146a4.08 4.08 0 0 1 4.22-3.59zM241.44 152.94a3.64 3.64 0 0 1 3.77 3.22h-7.55a3.64 3.64 0 0 1 3.78-3.22zM99.11 310.92c3.21 0 5.84 2.1 6 4.74H93.08c.19-2.64 2.82-4.74 6-4.74zM115.66 313a3.21 3.21 0 0 1 3.39 2.66h-6.78a3.21 3.21 0 0 1 3.39-2.66z" transform="translate(-13.63 -54.29)"/><path class="cls-29" d="M95.5 332.23a23.67 23.67 0 1 1-23.43 23.67 23.55 23.55 0 0 1 23.43-23.67zM525.22 364.21c8.89 0 16.1 11.16 16.1 24.93s-7.21 24.93-16.1 24.93-16.1-11.17-16.1-24.93 7.21-24.93 16.1-24.93zM459.88 363.12a13.73 13.73 0 1 1-13.38 13.73 13.56 13.56 0 0 1 13.38-13.73zM537.89 190.75c11.93 0 21.61 12.24 21.61 27.35s-9.68 27.34-21.61 27.34-21.62-12.24-21.62-27.34 9.68-27.35 21.62-27.35zM418.47 99.81c11.55 0 20.92 8.71 20.92 19.45s-9.37 19.45-20.92 19.45-20.91-8.71-20.91-19.45 9.37-19.45 20.91-19.45z" transform="translate(-13.63 -54.29)"/><path class="cls-30" d="M95.5 343.3a16.39 16.39 0 1 1-16.22 16.39A16.31 16.31 0 0 1 95.5 343.3zM525.22 375.87c6.15 0 11.14 7.73 11.14 17.26s-5 17.26-11.14 17.26-11.14-7.73-11.14-17.26 5-17.26 11.14-17.26zM459.88 369.54a9.51 9.51 0 1 1-9.26 9.5 9.38 9.38 0 0 1 9.26-9.5zM537.89 203.54c8.26 0 15 8.48 15 18.93s-6.7 18.93-15 18.93-15-8.47-15-18.93 6.7-18.93 15-18.93zM418.47 108.91c8 0 14.48 6 14.48 13.46s-6.48 13.46-14.48 13.46S404 129.8 404 122.37s6.48-13.46 14.47-13.46z" transform="translate(-13.63 -54.29)"/><path class="cls-31" d="M95.5 352.2c6.65 0 12 4.86 12 10.85s-5.39 10.85-12 10.85-12-4.85-12-10.85 5.39-10.85 12-10.85zM525.22 385.24c4.57 0 8.27 5.12 8.27 11.43s-3.7 11.43-8.27 11.43S517 403 517 396.67s3.7-11.43 8.27-11.43zM459.88 374.7c3.8 0 6.88 2.82 6.88 6.29s-3.08 6.3-6.88 6.3a6.32 6.32 0 1 1 0-12.59zM537.89 213.82c6.13 0 11.1 5.61 11.1 12.54s-5 12.54-11.1 12.54-11.11-5.62-11.11-12.54 5-12.54 11.11-12.54zM418.47 116.22c5.94 0 10.75 4 10.75 8.91s-4.81 8.92-10.75 8.92-10.74-4-10.74-8.92 4.81-8.91 10.74-8.91z" transform="translate(-13.63 -54.29)"/><path class="cls-2" d="M81.66 278.49h.42v9.82h-.42v-9.82zM75.33 279.38l.39-.1 2.52 9.48-.4.11-2.51-9.49zM69.43 281.91l.36-.21 4.86 8.51-.35.21-4.87-8.51zM64.39 285.89l.29-.3 6.88 6.95-.29.29-6.88-6.94z"/><path class="cls-2" d="M74.63 345.12l8 4.64-.25.34-7.89-4.6.18-.38zM72.55 351.11l8 2.17-.15.39-7.94-2.15c0-.14 0-.28.08-.41zM72.11 357.33h7.33v.41h-7.3v-.41zM73.25 363.34l6.15-1.66v.42l-6.07 1.64c0-.13-.09-.26-.13-.4zM75.83 368.77l4.7-2.75.17.39-4.64 2.71c-.08-.12-.16-.23-.23-.35zM79.61 373.29l3.27-3.3.27.32-3.24 3.26-.3-.28zM84.31 376.7l2-3.51.35.24-2 3.47-.36-.2zM89.64 378.83l.93-3.52.4.12-.93 3.5-.4-.1zM95.71 379.57v-3.5h-.42v3.5h.42zM101.36 378.83l-.93-3.52-.4.12.93 3.5.4-.1zM106.69 376.7l-2-3.51-.35.24 2 3.47.37-.2zM111.39 373.3l-3.27-3.3-.27.32 3.23 3.27.31-.28zM115.17 368.77l-4.71-2.77-.16.39 4.64 2.71.23-.35zM117.75 363.34l-6.15-1.66v.42l6.06 1.64c0-.13.09-.26.14-.4zM118.89 357.33h-7.34l.06.41h7.25v-.41zM118.45 351.11l-8 2.17c.06.13.11.26.16.39l7.94-2.15c0-.14 0-.28-.08-.41zM116.37 345.12l-8 4.64c.08.12.17.23.25.34l7.89-4.6-.18-.38z" transform="translate(-13.63 -54.29)"/><path class="cls-2" d="M99.35 285.89l-.3-.3-6.87 6.95.29.29 6.88-6.94zM94.3 281.91l-.36-.21-4.86 8.51.36.21 4.86-8.51zM88.41 279.38l-.4-.1-2.51 9.48.4.11 2.51-9.49z"/><path class="cls-2" d="M92.63 343.55l.82 6.33h-.31l-.82-6.31.31-.06zM88.32 345l2.3 5.61-.29.13-2.33-5.61.28-.14zM84.63 347.52l3.44 4.48-.25.2-3.42-4.51.23-.21zM81.82 350.88L86 354.1l-.2.25-4.13-3.2.17-.27zM80 354.77l4.46 1.87-.12.29-4.43-1.86.09-.3zM79.3 358.89l4.38.59v.31l-4.36-.58v-.32zM79.6 363l3.88-.52v.32l-3.79.51c0-.11 0-.21-.07-.31zM80.86 366.76l2.92-1.22c0 .1 0 .2.08.3L81 367l-.14-.28zM83 370.07l2.1-1.63c0 .09.11.18.17.27l-2.07 1.6-.2-.24zM85.71 372.76l1.44-1.89.24.2L86 373l-.26-.19zM89 374.71l.85-2.07.29.14-.85 2.06-.29-.13zM92.68 375.83l.28-2.17.31.06-.27 2.16-.31-.05zM96.86 376l-.28-2.16h-.31l.28 2.16h.31zM100.71 375.21l-.84-2-.3.1.84 2 .3-.1zM104.32 373.44l-1.4-1.84-.26.18 1.4 1.83.26-.17zM107.46 370.76l-2-1.58c-.06.09-.13.17-.19.25l2 1.56.21-.23zM109.88 367.27l-2.82-1.18c0 .1-.06.2-.1.3l2.78 1.16c.05-.09.1-.19.14-.28zM111.36 363.16l-3.83-.51v.32l3.75.5c0-.1 0-.21.07-.31zM111.69 358.7l-4.87.65.12.3 4.77-.63v-.32zM110.8 354.23l-5.63 2.35c.07.09.14.17.2.26l5.53-2.31-.1-.3zM108.67 350.12l-5.13 4 .19.25 5.12-4-.18-.26zM105.46 346.75l-4 5.29.25.2 4-5.29-.25-.2zM101.43 344.43l-2.53 6.17.29.13 2.53-6.18-.29-.12zM96.91 343.36l-.85 6.52h.31l.86-6.53h-.32z" transform="translate(-13.63 -54.29)"/><path class="cls-2" d="M511.45 310.5h.28v10.34h-.28V310.5zM507.1 311.45l.27-.12 1.73 9.99-.28.12-1.72-9.99zM503.05 314.1l.24-.22 3.34 8.96-.24.22-3.34-8.96zM499.58 318.29l.2-.31 4.73 7.32-.2.31-4.73-7.32z"/><path class="cls-2" d="M510.88 377.79l5.47 4.89-.17.35-5.42-4.85.12-.39zM509.45 384.09l5.51 2.29c0 .13-.07.27-.11.41l-5.45-2.27c0-.14 0-.29.05-.43zM509.15 390.64h5v.44h-5v-.44zM509.94 397l4.22-1.76v.44l-4.16 1.71-.09-.41zM511.71 402.69l3.23-2.89c0 .13.07.27.11.41l-3.19 2.85-.15-.37zM514.3 407.45l2.25-3.48.18.34-2.22 3.44-.21-.3zM517.53 411l1.38-3.69.23.24-1.36 3.66-.25-.21zM521.19 413.28l.64-3.71.28.13-.64 3.69-.28-.11zM525.36 414.06v-3.68h-.28v3.68h.28zM529.25 413.28l-.64-3.71-.28.13.64 3.69.28-.11zM532.91 411l-1.38-3.69-.24.25 1.37 3.65.25-.21zM536.14 407.46l-2.25-3.46-.18.34 2.21 3.44.22-.29zM538.73 402.69l-3.23-2.89c0 .13-.07.27-.11.41l3.19 2.85.15-.37zM540.5 397l-4.22-1.76v.44l4.17 1.73.09-.41zM541.29 390.64h-5v.44h5v-.44zM541 384.09l-5.51 2.29c0 .13.07.27.11.41l5.45-2.27v-.43zM539.56 377.79l-5.47 4.89c.06.11.11.23.17.35l5.42-4.85-.12-.39z" transform="translate(-13.63 -54.29)"/><path class="cls-2" d="M523.6 318.29l-.21-.31-4.72 7.32.2.31 4.73-7.32zM520.13 314.1l-.25-.22-3.33 8.96.24.22 3.34-8.96zM516.09 311.44l-.28-.11-1.73 9.99.28.11 1.73-9.99z"/><path class="cls-2" d="M523.25 376.14l.57 6.66h-.22l-.6-6.6.21-.06zM520.29 377.65l1.58 5.91-.2.13-1.58-5.89.2-.15zM517.76 380.31l2.36 4.77-.17.2-2.35-4.74.16-.23zM515.82 383.85l2.86 3.39-.13.27-2.84-3.38c0-.09.07-.19.11-.28zM514.59 388l3.06 2-.08.31-3.05-2c0-.11 0-.21.07-.32zM514.09 392.29l3 .61v.34l-3-.61v-.34zM514.3 396.58l2.7-.58v.34l-2.61.53v-.33zM515.16 400.57l2-1.29c0 .11 0 .22.06.33l-2 1.26c0-.1-.07-.2-.1-.3zM516.6 404.06l1.44-1.72.12.28-1.42 1.69-.14-.25zM518.5 406.89l1-2 .17.22-1 2-.17-.2zM520.76 409l.59-2.18.19.14-.58 2.17-.2-.13zM523.29 410.13l.19-2.29.21.06-.19 2.28-.21-.05zM526.16 410.32l-.2-2.27h-.21l.19 2.28h.22zM528.8 409.48l-.58-2.16-.2.11.57 2.15.21-.1zM531.28 407.61l-1-1.94-.18.19 1 1.93.18-.18zM533.44 404.78l-1.4-1.65c0 .09-.08.17-.13.26l1.38 1.64.15-.25zM535.1 401.11l-1.94-1.24c0 .1 0 .21-.07.31l1.91 1.22a2.47 2.47 0 0 0 .1-.29zM536.11 396.78l-2.62-.54v.34l2.58.53v-.33zM536.34 392.08l-3.34.69c0 .1 0 .21.08.32l3.27-.67v-.34zM535.73 387.38l-3.87 2.48c0 .09.1.18.14.27l3.8-2.44c0-.1 0-.21-.07-.31zM534.27 383.06l-3.52 4.18.13.27 3.51-4.18-.12-.27zM532.07 379.51l-2.76 5.57.17.2 2.75-5.56-.16-.21zM529.29 377.06l-1.74 6.5.2.13 1.74-6.51-.2-.12zM526.19 375.93l-.58 6.87h.21l.59-6.87h-.22z" transform="translate(-13.63 -54.29)"/><path class="cls-2" d="M446.13 309.15h.24v5.7h-.24v-5.7zM442.51 309.67l.23-.06 1.44 5.5-.23.06-1.44-5.5zM439.15 311.13l.21-.12 2.77 4.94-.2.12-2.78-4.94zM436.27 313.44l.17-.17 3.92 4.03-.16.17-3.93-4.03z"/><path class="cls-2" d="M448 370.6l4.54 2.69-.14.19-4.51-2.67a2.12 2.12 0 0 1 .11-.21zM446.78 374.07l4.57 1.26-.09.22-4.53-1.24v-.24zM446.53 377.67h4.18v.25h-4.14v-.25zM447.18 381.16l3.51-1v.24l-3.47.95c0-.07-.05-.15-.07-.23zM448.65 384.31l2.69-1.59.09.22-2.65 1.57-.13-.2zM450.81 386.93l1.87-1.91.15.18-1.83 1.9-.17-.17zM453.49 388.91l1.14-2 .2.13-1.13 2-.21-.11zM456.53 390.14l.54-2 .22.07-.53 2-.23-.06zM460 390.57v-2h-.24v2h.24zM463.23 390.14l-.54-2-.22.07.53 2 .23-.06zM466.27 388.91l-1.14-2-.2.13 1.13 2 .21-.11zM469 386.93l-1.92-1.93-.15.18 1.85 1.9.17-.17zM471.11 384.31l-2.69-1.59-.09.22 2.65 1.57a1.37 1.37 0 0 0 .13-.2zM472.58 381.16l-3.5-1v.24l3.47.95c0-.07.05-.15.07-.23zM473.23 377.67h-4.18v.25h4.14a2 2 0 0 0 0-.25zM473 374.07l-4.58 1.25.09.23 4.53-1.24v-.24zM471.8 370.6l-4.55 2.69.14.19 4.51-2.67-.1-.21z" transform="translate(-13.63 -54.29)"/><path class="cls-2" d="M456.23 313.44l-.17-.17-3.92 4.03.17.17 3.92-4.03zM453.35 311.13l-.21-.12-2.77 4.94.2.12 2.78-4.94zM449.99 309.67l-.23-.06-1.44 5.5.23.06 1.44-5.5z"/><path class="cls-2" d="M458.24 369.69l.47 3.67h-.17l-.47-3.66h.17zM455.78 370.52l1.32 3.26-.17.07-1.31-3.25.16-.08zM453.68 372l2 2.62-.14.11-2-2.61.14-.12zM452.07 373.93l2.37 1.87-.11.15-2.33-1.86s.07-.1.1-.16zM451 376.19l2.55 1.08-.07.17-2.48-1.07c0-.06 0-.12.05-.18zM450.63 378.58l2.5.34v.18l-2.49-.33v-.19zM450.8 381l2.22-.3a1.09 1.09 0 0 0 0 .18l-2.17.3a1 1 0 0 0 0-.18zM451.52 383.14l1.67-.71a1.21 1.21 0 0 0 .05.18l-1.64.7-.08-.17zM452.71 385.06l1.2-.94.1.15-1.18.93-.12-.14zM454.29 386.62l.82-1.09.14.12-.81 1.08-.15-.11zM456.18 387.76l.48-1.2.16.07-.48 1.2-.16-.07zM458.27 388.4l.16-1.25h.18l-.16 1.25h-.18zM460.66 388.51l-.16-1.25h-.18l.16 1.25h.18zM462.86 388.05l-.48-1.19-.17.06.48 1.18.17-.05zM464.92 387l-.8-1.07-.15.1.8 1.07.15-.1zM466.71 385.46l-1.16-.91-.11.15 1.15.9.12-.14zM468.09 383.44l-1.61-.69-.06.18 1.59.67a1.19 1.19 0 0 0 .08-.16zM468.93 381.06l-2.18-.3v.24l2.14.29a1.16 1.16 0 0 0 0-.18zM469.13 378.47l-2.79.38a.87.87 0 0 1 .07.17l2.72-.37v-.18zM468.62 375.88l-3.22 1.36.12.15 3.15-1.34a.84.84 0 0 0-.05-.17zM467.4 373.5l-2.93 2.3.11.15 2.93-2.3-.11-.15zM465.57 371.54l-2.29 3.07.14.11 2.29-3.06-.14-.12zM463.27 370.19l-1.45 3.59.17.07 1.44-3.59-.16-.07zM460.69 369.57l-.49 3.79h.18l.49-3.79h-.18z" transform="translate(-13.63 -54.29)"/><path class="cls-2" d="M524.06 137.09h.39v11.35h-.39v-11.35zM518.22 138.13l.37-.12 2.32 10.96-.37.12-2.32-10.96zM512.78 141.05l.34-.24 4.48 9.82-.33.24-4.49-9.82zM508.13 145.64l.27-.34 6.34 8.02-.27.35-6.34-8.03z"/><path class="cls-2" d="M518.63 205.64L526 211c-.08.13-.16.26-.23.39l-7.29-5.32c.06-.15.12-.29.17-.44zM516.71 212.56l7.4 2.51c-.05.14-.1.3-.15.45l-7.32-2.52c0-.15.05-.31.07-.47zM516.31 219.74h6.77c0 .16 0 .33-.05.49h-6.7v-.49zM517.36 226.69l5.67-1.92c0 .16 0 .32.05.48l-5.59 1.9c0-.15-.09-.3-.13-.46zM519.74 233l4.34-3.17.15.45-4.23 3.08-.21-.4zM523.23 238.19l3-3.82.24.37-3 3.77c-.1-.1-.19-.21-.28-.32zM527.56 242.13l1.85-4.06a2.69 2.69 0 0 0 .32.27l-1.83 4-.34-.22zM532.48 244.58l.86-4.07.37.14-.86 4-.37-.12zM538.08 245.44v-4h-.39v4h.39zM543.29 244.58l-.86-4.07-.36.14.85 4 .37-.12zM548.21 242.13l-1.85-4-.32.26 1.83 4 .34-.22zM552.54 238.19l-3-3.82-.24.37 3 3.78.28-.33zM556 233l-4.34-3.17-.15.45 4.28 3.13.21-.41zM558.41 226.69l-5.67-1.92v.48l5.6 1.9.12-.46zM559.46 219.74h-6.76v.49h6.69v-.49zM559.06 212.56l-7.4 2.51c.05.14.1.3.15.45l7.32-2.49c0-.15 0-.31-.07-.47zM557.14 205.64l-7.35 5.36c.08.13.16.26.23.39l7.29-5.32c-.06-.15-.12-.29-.17-.44z" transform="translate(-13.63 -54.29)"/><path class="cls-2" d="M540.38 145.64l-.27-.34-6.34 8.02.27.35 6.34-8.03zM535.73 141.05l-.34-.24-4.48 9.82.33.24 4.49-9.82zM530.29 138.13l-.37-.13-2.32 10.97.37.12 2.32-10.96z"/><path class="cls-2" d="M535.24 203.83l.76 7.31-.29.05-.71-7.29.29-.07zM531.26 205.49l2.13 6.49-.27.14-2.12-6.46.26-.17zM527.86 208.41l3.17 5.23-.23.22-3.15-5.2.21-.25zM525.26 212.29l3.84 3.71-.18.29-3.81-3.7.15-.32zM523.61 216.79l4.11 2.16-.11.34-4.09-2.15.09-.35zM522.94 221.55l4 .68v.36l-4-.67v-.37zM523.22 226.26l3.57-.6v.38l-3.5.58-.06-.36zM524.38 230.64l2.69-1.41c0 .12 0 .23.08.35l-2.64 1.42-.13-.33zM526.31 234.46l1.93-1.88c0 .11.11.21.16.31l-1.91 1.85-.18-.28zM528.86 237.57l1.32-2.18.22.23-1.31 2.17-.23-.22zM531.9 239.83l.78-2.39.27.15-.78 2.38-.27-.14zM535.29 241.12l.26-2.5.28.06-.26 2.5-.28-.06zM539.14 241.34l-.26-2.5h-.29l.26 2.49h.29zM542.69 240.41l-.77-2.37-.28.12.78 2.36.27-.11zM546 238.36l-1.3-2.13-.24.21 1.29 2.12.25-.2zM548.92 235.26l-1.87-1.82-.18.29 1.85 1.8.2-.27zM551.16 231.23l-2.61-1.37-.09.35 2.56 1.34c.05-.1.09-.21.14-.32zM552.51 226.48l-3.53-.59v.37l3.46.58.06-.36zM552.82 221.33l-4.49.75c0 .11.07.23.11.35l4.4-.73v-.37zM552 216.16l-5.2 2.72c.07.1.13.2.19.3l5.1-2.67-.09-.35zM550 211.42l-4.73 4.6.17.29 4.73-4.59c-.06-.1-.12-.2-.17-.3zM547.08 207.53l-3.71 6.11.23.22 3.7-6.1-.22-.23zM543.36 204.84L541 212l.27.14 2.33-7.14-.26-.14zM539.19 203.61l-.78 7.53.28.05.79-7.55h-.29z" transform="translate(-13.63 -54.29)"/><path class="cls-2" d="M404.66 45.98h.37v8.06h-.37v-8.06zM399 46.71l.36-.09 2.25 7.8-.36.09-2.25-7.8zM393.75 48.79l.32-.18 4.33 6.99-.32.17-4.33-6.98zM389.24 52.05l.27-.24 6.13 5.71-.26.24-6.14-5.71z"/><path class="cls-2" d="M399.85 110.41l7.1 3.81c-.07.09-.15.18-.22.28l-7.05-3.79.17-.3zM398 115.32l7.16 1.78-.15.32-7.08-1.76c0-.11 0-.23.07-.34zM397.6 120.43h6.55v.35h-6.48v-.35zM398.62 125.37l5.48-1.37v.34l-5.41 1.35-.12-.33zM400.92 129.83l4.2-2.25c.05.1.09.21.15.31l-4.15 2.23-.2-.29zM404.29 133.55l2.92-2.72.24.27-2.88 2.68-.28-.23zM408.48 136.35l1.79-2.88.31.19-1.77 2.85-.33-.16zM413.24 138.09l.84-2.89.35.1-.83 2.87-.36-.08zM418.66 138.7v-2.87h-.37v2.87h.37zM423.71 138.09l-.84-2.89-.35.1.83 2.87.36-.08zM428.46 136.35l-1.79-2.88-.3.19 1.77 2.85.32-.16zM432.66 133.55l-2.92-2.72-.24.27 2.88 2.68.28-.23zM436 129.83l-4.2-2.25-.15.31 4.15 2.23c.06-.1.13-.19.2-.29zM438.33 125.37l-5.48-1.37c0 .11 0 .23-.05.34l5.41 1.35.12-.33zM439.35 120.43h-6.55c0 .11 0 .23.05.35h6.48v-.35zM439 115.32l-7.16 1.78.14.32 7.09-1.76c0-.11 0-.23-.07-.34zM437.1 110.4l-7.1 3.82c.07.09.15.18.22.28l7-3.79-.16-.31z" transform="translate(-13.63 -54.29)"/><path class="cls-2" d="M420.44 52.05l-.26-.24-6.13 5.71.26.24 6.13-5.71zM415.94 48.79l-.32-.18-4.34 6.99.32.17 4.34-6.98zM410.68 46.71l-.35-.09-2.25 7.8.36.09 2.24-7.8z"/><path class="cls-2" d="M415.91 109.12l.74 5.19h-.28l-.73-5.18h.27zM412.07 110.29l2.05 4.62-.26.1-2-4.6.25-.12zM408.78 112.37l3.06 3.72-.22.16-3.05-3.7.21-.18zM406.26 115.13l3.71 2.65-.17.21-3.69-2.63.15-.23zM404.66 118.33l4 1.53-.11.24-3.95-1.52a2.41 2.41 0 0 1 .08-.25zM404 121.72l3.92.48v.26L404 122v-.26zM404.29 125.06l3.45-.42v.27l-3.39.41a2.38 2.38 0 0 1 0-.26zM405.41 128.18l2.6-1a2.58 2.58 0 0 0 .08.26l-2.56 1-.12-.23zM407.27 130.9l1.87-1.34c.06.07.11.15.16.22l-1.85 1.32-.18-.2zM409.74 133.11l1.28-1.55.22.16-1.24 1.54-.23-.15zM412.68 134.71l.76-1.7.26.11-.76 1.7-.26-.11zM416 135.63l.25-1.78.28.05-.25 1.77H416zM419.69 135.79l-.25-1.78h-.28l.25 1.78h.28zM423.13 135.12l-.75-1.68-.27.09.75 1.68.27-.09zM426.35 133.67l-1.25-1.52-.23.15 1.24 1.51.24-.14zM429.15 131.46l-1.81-1.29-.17.21 1.79 1.28.19-.2zM431.31 128.6l-2.52-1a2.34 2.34 0 0 1-.09.24l2.48 1 .13-.23zM432.63 125.22l-3.42-.42a2.44 2.44 0 0 1 0 .27l3.35.41.06-.26zM432.93 121.56l-4.35.53.1.25 4.26-.52v-.26zM432.13 117.88l-5 1.94.19.21 4.93-1.9-.09-.25zM430.23 114.51l-4.58 3.27.17.21 4.57-3.26c-.05-.07-.1-.15-.16-.22zM427.37 111.75l-3.59 4.34.22.16 3.59-4.34-.22-.16zM423.77 109.83l-2.26 5.08.26.1 2.26-5.08-.26-.1zM419.74 109l-.76 5.35h.28L420 109h-.28z" transform="translate(-13.63 -54.29)"/><path class="cls-32" d="M96.32 355.9h-1l-.2 4.17s-1.19.56-3.47-.75l-.27.58s2.14 1.68 3.59 1.2c.07 1.46 0 6.22 0 6.22a9.61 9.61 0 0 1-6.93-3l-.39.88a12.27 12.27 0 0 0 7.24 3.54c.31 1.21-1.24 22.58-1.24 22.58h4.78s-1.17-21.73-1.16-22.57c4.16-.35 5.64-1.93 6.47-2.93l-.39-.6s-3.06 2.65-6.19 2.08l-.33-6a5 5 0 0 0 3-1.15l-.28-.76a4.68 4.68 0 0 1-2.88.92c-.17-1.57-.33-4.37-.33-4.37zM525.79 389.14h-.67l-.14 4.39s-.81.59-2.39-.79l-.18.61s1.47 1.77 2.47 1.27v6.55s-2.63.23-4.76-3.17l-.27.92c.67.84 2.19 3.32 5 3.73.21 1.27-.86 23.78-.86 23.78h3.29s-.81-22.89-.8-23.77a5.4 5.4 0 0 0 4.45-3.09l-.27-.63s-2.1 2.79-4.25 2.19l-.23-6.32a2.78 2.78 0 0 0 2-1.21l-.19-.8a2.66 2.66 0 0 1-2 1c-.11-1.65-.22-4.6-.22-4.6zM460.35 376.85h-.55l-.12 2.42s-.68.32-2-.44l-.16.33s1.23 1 2 .71c.05.84 0 3.6 0 3.6a5.43 5.43 0 0 1-3.95-1.74l-.22.5a6.87 6.87 0 0 0 4.13 2.06c.17.7-.71 13.09-.71 13.09h2.73s-.67-12.61-.66-13.09c2.37-.21 3.22-1.12 3.69-1.7l-.22-.35a4.86 4.86 0 0 1-3.53 1.2l-.19-3.48a2.81 2.81 0 0 0 1.7-.66l-.16-.44a2.61 2.61 0 0 1-1.64.53c-.1-.91-.19-2.53-.19-2.53zM538.64 218.09h-.89l-.19 4.81s-1.09.65-3.2-.86l-.25.66s2 1.95 3.31 1.4c.07 1.68 0 7.18 0 7.18s-3.53.25-6.39-3.48l-.36 1c.89.92 2.94 3.64 6.68 4.09.28 1.39-1.15 26.08-1.15 26.08h4.41s-1.08-25.11-1.07-26.07c3.84-.41 5.2-2.23 6-3.39l-.36-.69s-2.82 3.06-5.71 2.4l-.3-6.93a4.05 4.05 0 0 0 2.75-1.33l-.26-.88a3.79 3.79 0 0 1-2.66 1.06c-.15-1.8-.3-5-.3-5zM419.21 119.26h-.87l-.18 3.43s-1.06.46-3.1-.62l-.24.47s1.92 1.39 3.21 1c.06 1.2 0 5.11 0 5.11a9 9 0 0 1-6.18-2.47l-.35.72a11.3 11.3 0 0 0 6.46 2.91c.28 1-1.1 18.55-1.1 18.55h4.26s-1-17.86-1-18.54c3.71-.29 5-1.59 5.77-2.41l-.34-.49s-2.74 2.17-5.53 1.7l-.29-4.93a4.66 4.66 0 0 0 2.66-.94l-.25-.63a4.35 4.35 0 0 1-2.57.76c-.15-1.29-.29-3.59-.29-3.59z" transform="translate(-13.63 -54.29)"/><path class="cls-33" d="M236.3 45.32l2.85 8h-1.74l3.23 6.47h-2.48l3.92 6.38-2.9.02 5.57 10h-3.31l5.76 12.24h-11.06l.16-43.11zM172.21 179.59l5.74 16.12h-3.51l6.52 13.06h-5l7.91 12.86-5.86.04 11.24 20.17h-6.68l11.61 24.69h-22.29l.32-86.94zM263.77 32.63l3.68 10.35h-2.25l4.18 8.38h-3.2l5.07 8.26-3.76.02 7.22 12.94h-4.29l7.45 15.85h-14.31l.21-55.8zM91.32 33.22L95 43.57h-2.25l4.18 8.38h-3.2l5.07 8.25-3.76.03 7.22 12.94h-4.29l7.45 15.85H91.11l.21-55.8zM420.09 389.38l3.01 8.47h-1.84l3.42 6.86h-2.62l4.15 6.75-3.08.02 5.91 10.59h-3.51l6.09 12.97h-11.7l.17-45.66zM190.8 380.75l3.69 10.34h-2.25l4.18 8.39h-3.21l5.07 8.25-3.75.02 7.21 12.94h-4.28l7.44 15.86h-14.3l.2-55.8z"/><path class="cls-34" d="M236.3 45.32l-2.81 8h1.73L232 59.79h2.47l-3.92 6.38 2.9.02-5.57 10h3.31l-5.75 12.24h10.7l.16-43.11zM172.21 179.59l-5.68 16.12h3.5l-6.51 13.06h4.99l-7.9 12.86 5.85.04-11.24 20.17h6.68l-11.6 24.69h21.59l.32-86.94zM263.77 32.63l-3.65 10.35h2.25l-4.18 8.38h3.21l-5.07 8.26 3.75.02-7.21 12.94h4.28l-7.44 15.85h13.85l.21-55.8zM91.32 33.22l-3.65 10.35h2.25l-4.18 8.38h3.2l-5.07 8.25 3.76.03-7.21 12.94h4.28l-7.45 15.85h13.86l.21-55.8zM420.09 389.38l-2.99 8.47h1.84l-3.42 6.86h2.62l-4.14 6.75 3.07.02-5.9 10.59h3.5l-6.09 12.97h11.34l.17-45.66zM190.8 380.75l-3.64 10.34h2.25l-4.18 8.39h3.2l-5.07 8.25 3.76.02-7.22 12.94h4.29l-7.45 15.86h13.86l.2-55.8z"/></svg>