<svg xmlns="http://www.w3.org/2000/svg" height="1496" width="1496"><defs><clipPath id="a" clipPathUnits="userSpaceOnUse"><path d="M0 1122h1122V0H0z"/></clipPath><clipPath id="b" clipPathUnits="userSpaceOnUse"><path d="M0 1122h1122V0H0z"/></clipPath></defs><path d="M1.75 1494.264H1496V0H1.75z" fill="#fff"/><g clip-path="url(#a)" transform="matrix(1.33333 0 0 -1.33333 0 1496)"><path d="M646.729 759.335c-7.981 9.18-15.994 18.328-23.977 27.507a1247.493 1247.493 0 0 1-32.05-43.47l16.118-31.038c13.692 15.411 27.015 31.068 39.909 47.001M461.64 710.615l18.82-43.655 20.905 51.576-19.985 41.168c-6.908-16.24-13.508-32.603-19.74-49.09M413.718 679.977a665.796 665.796 0 0 1 20.63-26.187 1309.876 1309.876 0 0 0 20.016 56.733c-6.078 14.09-12.157 28.213-18.235 42.305-8.596-24.008-16.087-48.291-22.411-72.851M582.873 743.863c-11.973 23.056-23.976 46.11-35.949 69.167-12.74-31.437-25.481-62.843-38.221-94.28 8.258-16.976 16.516-33.953 24.744-50.9a1281.806 1281.806 0 0 0 49.426 76.013" fill="#e6e6e6"/><path d="M384.86 937.67h.307c.89 2.026 4.298 2.18 5.863.46 24.959 1.965 49.949 3.9 74.938 5.833-.061 3.5-.061 7-.091 10.531-2.12.368-3.87 2.394-2.333 4.482.736 2.762 1.473 5.556 2.21 8.32-.031 4.082 6.416 3.898 6.877 0v-.215c.153.122.276.214.429.337 9.947 5.895 18.605-2.118 19.955-11.144.49-3.254.46-6.692.215-10.162 6.6.522 13.17 1.014 19.77 1.536 8.75.675 19.372 3.438 20.539-6.724.95-7.92-1.627-17.59-2.426-25.573-.982-9.762-1.964-19.525-2.946-29.257-1.934-19.525-3.9-39.019-5.833-58.513-1.044-10.377-.246-21.736-11.912-27.078-13.047-5.924-31.866-5.096-45.988-6.324-21.244-1.903-42.52-3.284-63.825-4.328-1.965-.093-3.316 1.504-3.438 3.131-3.93 46.172-7.86 92.314-11.82 138.487-.154 0-.307-.03-.491-.03-4.39-.339-4.36 5.894 0 6.231m164.643-115.063c12.587-24.19 25.143-48.413 37.73-72.604a1221.918 1221.918 0 0 0 32.357 43.593c1.137 1.443 3.899 2.333 5.403.645 8.627-9.885 17.254-19.8 25.91-29.687a1285.027 1285.027 0 0 1 56.335 75.86 263.087 263.087 0 0 0-26.678 13.63c-3.684 2.18-.245 7.552 3.469 5.373a259.264 259.264 0 0 1 26.83-13.693 1303.96 1303.96 0 0 1 25.114 38.375c-14.153-8.596-29.318-15.472-45.62-20.569-3.837-1.197-5.771 3.87-2.64 5.68l61.89 36.103c3.009 1.75 6.264-1.627 4.698-4.268-.768-1.258-1.566-2.517-2.333-3.807.06-.245.092-.522.092-.859-1.781-21.889-3.531-43.809-5.281-65.698-.153-1.934-2.086-3.653-4.36-3.008a277.671 277.671 0 0 0-28.948 10.07 1320.834 1320.834 0 0 0-58.177-78.254c1.074-1.228 2.118-2.426 3.193-3.653 5.004-5.772 10.039-11.513 15.043-17.285 4.144-4.758 8.503-12.679 14.09-15.994 12.22-7.276 31.683 16.731 41.108 27.6a120.261 120.261 0 0 0-18.36 23.085c-1.103 1.811-.091 3.96 2.059 4.574 18.204 5.158 36.624 8.811 55.535 11.083 3.193.4 4.145-3.53 2.426-5.31-1.75-1.782-3.5-3.562-5.25-5.374.153-15.196-2.64-29.686-8.627-43.962-.736-1.75-3.07-3.1-5.065-1.873a133.268 133.268 0 0 0-18.113 13.447l-7.183-7.337c-7.83-7.982-19.311-25.849-33.218-25.05-5.772.337-8.872 3.53-12.526 7.275-7.091 7.307-13.415 15.411-20.077 23.025-3.07 3.53-6.171 7.06-9.241 10.591a1281.683 1281.683 0 0 0-42.611-50.01c-1.32-1.473-4.482-1.074-5.372.645l-16.762 32.235a1260.268 1260.268 0 0 1-50.256-77.947c-1.105-1.903-4.851-2.149-5.925 0a38608.756 38608.756 0 0 1-24.836 51.115l-21.46-52.957c-1.227-2.978-5.372-2.886-6.631 0-6.324 14.705-12.678 29.441-19.002 44.146a1297.905 1297.905 0 0 1-19.25-55.413c-.92-2.794-4.543-2.794-6.262-.767a682.182 682.182 0 0 0-21.122 26.31 807.656 807.656 0 0 1-5.218-22.35c-.86-3.93-7.491-2.24-6.631 1.658a845.639 845.639 0 0 0 6.569 27.721 629.647 629.647 0 0 0-23.608 34.078c-2.241 3.438 3.684 6.57 5.925 3.131 6.324-9.824 12.955-19.433 19.893-28.92a825.412 825.412 0 0 0 24.008 75.83c1.136 3.07 5.403 2.823 6.6 0l18.666-43.288a1294.454 1294.454 0 0 0 20.047 49.09c.95 2.178 4.942 3.47 6.262.736l20.63-42.458 38.498 94.955c.92 2.271 4.88 3.377 6.263.736m7.399 16.025c26.34 1.321 52.342 4.483 78.13 9.58 4.298.858 6.11-5.159 1.812-5.988-26.371-5.219-52.988-8.473-79.942-9.824-4.421-.214-4.391 6.018 0 6.232m101.984 50.594c-32.02-3.347-64.04-6.662-96.028-10.008-4.391-.46-4.36 5.771 0 6.201 31.989 3.346 64.008 6.692 96.028 10.04 4.39.46 4.329-5.772 0-6.233m-99.037 48.076c65.973-4.36 132.132-2.149 197.553 6.815 4.329.583 6.17-5.403 1.81-6.017-66.034-9.026-132.745-11.42-199.363-7-4.39.277-4.39 6.508 0 6.202m195.219-287.688c-7.705-20.415-31.99-28.029-51.391-14.46-16.362 11.482-21.674 34.14-8.934 49.52 10.776 13.016 30.24 17.406 46.572 12.095.369-.03.737-.06 1.105-.154 22.012-5.157 18.236-32.112 12.648-47M608.2 694.281c11.666 8.688 29.104 8.166 39.113-1.443 3.56 1.474 8.012.584 8.687-3.868 2.947-19.555 4.42-44.146-17.96-55.137-16.331-8.012-33.8 1.013-40.645 15.29-7.215 15.011-3.5 34.536 10.805 45.158m132.532-97.349a1186.294 1186.294 0 0 0-202.127 11.513c-4.33.644-2.487 6.631 1.84 6.017 66.25-9.486 133.239-13.232 200.287-11.298 4.42.123 4.39-6.109 0-6.232m-335.58 11.697c27.23-1.136 54.43-2.272 81.662-3.377 4.42-.184 4.42-6.416 0-6.232-27.231 1.136-54.431 2.241-81.662 3.377-4.42.184-4.42 6.416 0 6.232m327.199-68.062c-1.26.308-2.365 1.443-2.456 2.672-19.157-1.628-72.083-2.15-78.101-2.273-27.14-.52-54.276-.583-81.385-.123-55.198.891-110.273 3.87-165.195 8.72-4.36.368-4.39 6.6 0 6.231 71.13-6.292 142.539-9.394 214.008-8.995 35.305.185 70.517 1.474 105.76 3.01 3.992.184 14.644 1.411 14.767-5.005.062-3.806-3.991-5.035-7.398-4.237m-356.762-20.507c8.289-.553 15.196-1.259 18.297-1.32l125.347-3.316c74.477-1.964 148.956-3.898 223.463-5.863 11.39-.308 23.179 0 34.784-.49a10092.13 10092.13 0 0 0 26.769 472.744c-74.97 14.184-151.841 11.728-227.884 7.768-8.442-.43-16.885-.89-25.327-1.32-68.43-3.593-136.86-7.368-205.29-11.052 9.947-152.395 19.925-304.757 29.84-457.15" fill="#e6e6e6"/><path d="M740.977 683.292c-23.915 12.525-51.146-12.218-34.107-33.309 4.021-5.004 9.854-8.811 16.884-9.118 10.161-.43 15.718 5.342 18.635 13.57 2.241 6.262 6.723 22.287.184 28.212a7.577 7.577 0 0 0-1.596.645" fill="#efd35b"/><path d="M476.53 962.046c-1.475-.89-2.918-.552-3.869.307.061-5.955.092-11.881.154-17.836 4.236.337 8.473.675 12.71.982.03 9.64-1.413 21.06-8.996 16.547M473.03 916.856c-1.474-5.434.215-6.201 5.096-2.302 5.25.767 7.215 3.653 5.925 8.626.399 3.592.553 7.184.829 10.745.03.399.246 2.456.43 5.342-1.443-.123-2.886-.215-4.33-.338l-8.165-.644c-.215-6.386-1.965-16.056.215-21.429" fill="#3766cc"/><path d="M637.703 649.43c7.337 7.89 7.307 18.696 6.11 28.705-1.597.306-3.07 1.258-4.084 3.008-6.385 11.205-21.337 7.46-27.753-1.596-5.525-7.798-6.109-18.389-1.473-26.648 5.833-10.345 18.358-12.955 27.2-3.469M777.203 468.24c-148.495 4.513-296.99 9.057-445.485 13.6-6.17-20.692 39.695-20.784 52.313-21.55a3504.538 3504.538 0 0 1 35.98-1.936c8.78-.46 17.56-.859 26.34-1.227 41.568-1.75 83.166-2.916 124.795-3.654 16.394-.306 32.787-.52 49.181-.706h.03c2.242 2.456 6.662 2.088 9.456-.09 22.963-.248 45.927-.37 68.921-.462 15.073-.062 30.116-.092 45.16-.123 4.85-.03 9.731-.03 14.582-.03 10.837-.03 21.705-.154 32.573-.03 4.113.03 9.056-.217 13.016.89 3.715 1.043 14.46 8.472 7.031 11.173-1.843.676-3.07 1.812-3.777 3.132-.952.092-1.903.154-2.794.184z" fill="#f45151"/><path d="M699.072 498.265c-39.94 1.044-79.912 2.088-119.883 3.162l-122.615 3.224c-19.985.52-39.97 1.044-59.957 1.565-9.056.245-18.143.49-27.199.737-.922 0-1.843.03-2.763.06-4.513.124-27.784-1.227-28.613.462 2.702-5.648-3.837-10.714-8.534-9.24.153-1.321.307-2.611.46-3.9 160.5-4.912 320.998-9.793 481.465-14.705 4.973 10.929-11.574 14.797-27.63 16.179-10.53.92-20.876.768-24.775.859-19.985.523-39.97 1.076-59.956 1.597" fill="#fc9595"/><path d="M605.254 1003.43c-.093 15.994-.154 31.958-.215 47.921-7.676.553-15.32 1.137-22.964 1.66-4.33.274-21.582 3.744-24.866 1.533-5.833-3.899-2.855-21.55-2.61-27.138.43-8.842 1.412-17.622 2.855-26.372 8.043.431 16.056.86 24.099 1.26 7.89.398 15.78.798 23.7 1.135M552.266 440.795c3.377-37.516 6.723-75.062 10.069-112.607l5.25-58.76c.768-8.534.03-19.002 2.64-27.2 1.996-6.324 14.092-15.687 23.148-12.525 9.149 3.224 5.526 22.227 5.802 29.38.338 8.934.768 17.867 1.29 26.77a1416.066 1416.066 0 0 0 4.237 55.965c3.13 32.942 7.428 65.82 12.74 98.547-21.767.245-43.532.583-65.268 1.043.03-.215.06-.398.092-.613" fill="#d1a900"/><path d="M706.747 436.343c13.231-58.421 28.49-116.475 44.76-174.252 14.215-50.47 29.165-100.756 44.178-151.012 3.622-12.127 6.354-25.911 14.335-36.44 7-9.21 24.192-18.728 34.722-7.583 14.522 15.442-3.438 49.18-8.596 65.053-33.125 101.708-66.25 203.417-99.375 305.094a6.354 6.354 0 0 0-.306 2.456c-10.592.03-21.153.06-31.744.092.982-.83 1.688-1.996 2.026-3.408M324.105 124.679c-3.991-13.354-7.89-29.257.675-41.874 7.829-11.543 23.578-15.411 33.924-4.482 8.135 8.565 10.99 20.69 14.521 31.283 3.899 11.543 7.705 23.147 11.482 34.72 32.265 98.977 61.123 198.813 86.726 299.355a4468.302 4468.302 0 0 0-45.221 1.903c-18.112-56.886-36.225-113.712-54.308-170.568-15.964-50.071-32.879-99.99-47.799-150.337" fill="#efd35b"/></g><g clip-path="url(#b)" transform="matrix(1.33333 0 0 -1.33333 0 1496)"><path d="M329.984 494.33l-.465 3.898c4.682-1.468 11.224 3.59 8.537 9.255.81-1.709 24.075-.354 28.594-.473l29.973-.789 59.948-1.579 122.62-3.229 119.894-3.157c19.982-.527 39.965-1.053 59.947-1.578 9.82-.259 60.624 1.067 52.403-17.04L329.984 494.33m492.123-1.387c-5.441 8.977-15.881 13.065-26.577 14.603-17.185 2.471-35.487 1.55-52.846 2.007l-223.441 5.883-125.344 3.3c-10.1.267-60.26 7.07-68.234-7.077-4.233 2.873-11.634 1.411-10.927-4.51l2.25-18.854c.41-3.436 2.814-6.099 6.859-6.222 151.123-4.612 302.246-9.223 453.368-13.836l27.31-.833c5.11-.156 11.494-1.763 15.776 1.49 7.379 5.604 5.892 17.305 1.806 24.05" fill="#333"/><path d="M814.745 476.09c-8.188 2.985-11.747-9.046-3.646-12 7.411-2.703-3.329-10.14-7.028-11.162-3.969-1.1-8.898-.865-13.03-.907-10.856-.11-21.722.02-32.577.036-19.91.027-39.82.066-59.73.145-42.534.169-85.068.513-127.594 1.275-41.608.745-83.21 1.889-124.782 3.66a3810.915 3810.915 0 0 0-62.324 3.156c-13.214.78-62.757.868-51.167 24.497 3.558 7.254-8.257 13.592-11.843 6.28-5.162-10.523-3.02-21.693 6.096-30.032 11.342-10.376 28.206-11.387 43.373-12.361 45.12-2.9 90.32-4.79 135.525-6.12 91.356-2.69 182.77-2.876 274.164-2.97 14.407-.015 35.497-1.943 43.794 11.663 5.906 9.685 1.866 20.793-9.23 24.84" fill="#333"/><path d="M472.024 446.02c-25.73-101.335-54.794-201.962-87.308-301.681a4657.928 4657.928 0 0 0-11.478-34.748c-3.536-10.566-6.396-22.706-14.524-31.27-10.371-10.928-26.117-7.063-33.945 4.484-8.548 12.608-4.643 28.53-.68 41.886 14.94 50.328 31.86 100.24 47.803 150.315l54.81 172.16c2.454 7.708-10.777 11-13.226 3.308a8900521.135 8900521.135 0 0 0-83.341-261.776c-8.418-26.442-21.344-54.494-23.85-82.06-1.685-18.536 6.54-39.517 27.6-46.085 20.397-6.36 36.234 7.05 44.04 22.946 12.09 24.62 18.482 52.579 26.773 78.416a4695.885 4695.885 0 0 1 26.028 83.792c19.627 65.33 37.77 131.02 54.524 197.005 1.979 7.794-11.242 11.121-13.226 3.308M843.634 152.977c-9.576 29.398-19.152 58.796-28.73 88.193l-65.223 200.223c-2.5 7.677-15.422 3.495-12.922-4.18l99.388-305.1c5.17-15.87 23.119-49.62 8.585-65.05-10.512-11.16-27.71-1.64-34.697 7.564-7.992 10.527-10.721 24.314-14.344 36.45-15.01 50.269-29.976 100.552-44.188 151.014-16.275 57.792-31.537 115.825-44.767 174.259-1.751 7.734-15.453 6.922-13.678-.913 13.115-57.932 28.11-115.484 44.193-172.794 16.197-57.723 31.564-116.141 50.786-173.101 6.339-18.783 19.236-39.161 43.672-39.754 19.339-.47 30.646 14.085 31.398 30.336 1.123 24.252-12.041 50.04-19.473 72.853M619.02 449.955c-6.035-35.903-10.892-71.96-14.332-108.146a1456.895 1456.895 0 0 1-4.236-55.942c-.504-8.929-.93-17.86-1.268-26.795-.27-7.138 3.34-26.157-5.821-29.367-9.033-3.166-21.138 6.208-23.144 12.524-2.606 8.21-1.857 18.656-2.622 27.211l-5.254 58.754-10.069 112.614c-.709 7.926-14.43 7.996-13.715 0l12.258-137.094c1.877-21 1.782-43.26 5.883-63.997 2.97-15.016 16.691-20.508 32.221-22.02 16.306-1.588 22.821 5.237 23.311 19.441.787 22.755 1.577 45.476 3.165 68.202 3.306 47.308 8.972 94.447 16.849 141.307 1.316 7.834-11.898 11.212-13.226 3.308M813.32 992.816c-76.215 15.266-154.33 13.433-231.775 9.475-81.018-4.141-162.015-8.67-243.02-13.015-3.533-.19-7.088-2.7-6.858-6.222l30.557-468.066c.52-7.96 14.24-8.013 13.716 0l-30.177 462.234c76.862 4.13 153.718 8.358 230.588 12.356 76.054 3.956 152.917 6.43 227.901-7.755a10073.948 10073.948 0 0 1-26.927-477.54c-.26-8.01 13.455-8.003 13.716 0a10072.8 10072.8 0 0 0 27.314 482.533c.208 2.582-2.266 5.445-5.035 6" fill="#333"/><path d="M618.718 1057.073c-.016 3.573-3.143 5.937-6.857 6.222a2932.768 2932.768 0 0 1-42.223 2.953c-8.137.507-19.17 2.984-25.166-3.524-6.15-6.675-3.928-20.332-3.808-28.23.202-13.193 1.715-26.267 3.97-39.288 1.368-7.889 14.586-4.539 13.227 3.308-1.661 9.582-2.797 19.2-3.25 28.892-.26 5.603-3.25 23.228 2.598 27.145 3.27 2.19 20.528-1.258 24.853-1.548 7.659-.512 15.312-1.085 22.966-1.659l.216-49.284c.036-8.006 13.75-8.022 13.716 0l-.242 55.013M744.252 884.727l-4.002-49.836a261.765 261.765 0 0 0-23.139 8.195 1279.07 1279.07 0 0 1 27.141 41.641m5.353 20.586l-61.904-36.099c-3.119-1.819-1.197-6.889 2.643-5.686 16.298 5.11 31.481 11.981 45.625 20.576a1284.266 1284.266 0 0 0-25.106-38.376 257.877 257.877 0 0 0-26.842 13.694c-3.717 2.182-7.159-3.202-3.462-5.373 8.648-5.077 17.547-9.599 26.693-13.64-30.572-44.483-64.101-87.247-100.428-128.085l-57.326 110.29c-1.374 2.644-5.348 1.524-6.267-.744l-62.778-154.895-41.305 95.856c-1.219 2.828-5.481 3.062-6.613 0-13.547-36.63-24.48-73.934-32.778-111.83-.856-3.912 5.753-5.586 6.613-1.655 7.668 35.021 17.615 69.526 29.767 103.47l41.111-95.403c1.246-2.892 5.4-2.994 6.613 0l63.068 155.611 56.173-108.069c.883-1.7 4.058-2.11 5.384-.629 38.063 42.477 73.126 87.021 104.999 133.421a272.744 272.744 0 0 1 28.945-10.067c2.262-.646 4.185 1.073 4.341 3 1.757 21.903 3.516 43.806 5.275 65.71.024.313-.021.59-.083.853.774 1.273 1.563 2.54 2.333 3.814 1.578 2.616-1.694 6.004-4.691 4.256" fill="#333"/><path d="M751.491 740.015c-4.85 3.228-9.405 6.69-13.606 10.44l20.212 20.61c-.609-10.612-2.803-20.906-6.606-31.05m-18.366 14.931c-5.482 5.483-10.316 11.501-14.596 17.995 13.095 3.555 26.337 6.364 39.801 8.383a3.078 3.078 0 0 1-.074-.754c-8.377-8.54-16.754-17.082-25.13-25.624m34.838 33.962c-18.903-2.284-37.34-5.92-55.543-11.1-2.14-.608-3.15-2.768-2.05-4.57a119.591 119.591 0 0 1 18.344-23.074c-9.42-10.866-28.864-34.896-41.098-27.607-5.576 3.322-9.93 11.243-14.072 15.993l-15.07 17.28-33.486 38.397c-1.485 1.705-4.257.824-5.385-.629a1276.017 1276.017 0 0 1-86.145-125.76l-49.346 101.546c-1.328 2.732-5.326 1.437-6.267-.743a1348.585 1348.585 0 0 1-43.513-114.863c-16.505 19.941-31.78 40.627-45.709 62.144-2.234 3.451-8.163.324-5.922-3.14 15.146-23.398 31.811-45.858 50.005-67.394 1.727-2.044 5.37-2.04 6.267.743 12.38 38.394 26.531 76.261 42.392 113.578 16.271-33.48 32.541-66.962 48.811-100.443 1.047-2.155 4.79-1.905 5.921 0 26.138 44.032 55.068 86.587 86.656 127.564l37.57-43.08c6.661-7.638 12.988-15.74 20.092-23.039 3.652-3.752 6.74-6.94 12.506-7.27 13.91-.8 25.388 17.057 33.216 25.038l7.208 7.35c5.53-4.9 11.565-9.384 18.114-13.449 1.986-1.232 4.31.125 5.038 1.86 5.986 14.282 8.788 28.792 8.626 43.99 1.755 1.788 3.51 3.577 5.264 5.367 1.73 1.763.776 5.697-2.424 5.311M486.82 605.24l-81.673 3.384c-4.41.183-4.402-6.04 0-6.222l81.673-3.384c4.412-.183 4.402 6.04 0 6.222M740.729 603.156c-67.048-1.929-134.027 1.81-200.292 11.3-4.317.618-6.176-5.376-1.822-6 66.874-9.578 134.44-13.469 202.114-11.522 4.4.127 4.42 6.35 0 6.222M724.994 549.813c-35.249-1.546-70.462-2.837-105.759-3.02-71.468-.375-142.903 2.708-214.032 8.992-4.389.387-4.359-5.837 0-6.222 54.921-4.853 110.02-7.825 165.193-8.724 27.13-.442 54.27-.397 81.397.134 6.013.118 58.95.628 78.087 2.255.104-1.209 1.212-2.364 2.465-2.657 3.402-.797 7.474.43 7.403 4.231-.12 6.405-10.782 5.186-14.754 5.011M524.242 915.337l-2.193-21.94c-1.46-14.627-2.923-29.254-4.385-43.881-.73-7.314-1.462-14.627-2.193-21.941-.992-9.926-2.21-20.834-14.653-23.345-31.02-6.26-65.245-6.56-97.067-8.003l-11.576 135.782 88.797 6.918 24.025 1.87c5.12.4 18.368 3.813 21.682-1.082 2.364-3.494-2.008-20.088-2.437-24.378m9.312 25.588c-1.19 10.173-11.79 7.402-20.549 6.72L391.02 938.14c-1.569 1.699-4.97 1.554-5.862-.457l-.285-.022c-4.364-.34-4.404-6.565 0-6.222l.49.038 11.808-138.506c.137-1.607 1.461-3.206 3.428-3.111 21.316 1.028 42.601 2.43 63.847 4.31 14.108 1.249 32.928.406 45.963 6.34 11.688 5.32 10.884 16.695 11.92 27.064l5.847 58.508 2.924 29.254c.798 7.99 3.383 17.656 2.454 25.588" fill="#333"/><path d="M484.894 933.924c-.283-3.572-.459-7.165-.849-10.729 1.309-4.987-.663-7.865-5.918-8.635-4.87-3.905-6.569-3.135-5.099 2.308-2.376 5.811-.135 16.66-.186 22.921l-.184 22.561c.957-.857 2.387-1.199 3.869-.318 12.164 7.235 8.506-26.343 8.367-28.108m8.11 22.352c-1.35 9.025-9.998 17.041-19.938 11.13-.163-.098-.296-.208-.432-.317-.007.071-.008.133-.016.205-.445 3.895-6.891 4.09-6.858 0l-2.228-8.327c-1.535-2.089.212-4.092 2.332-4.487l.157-19.275.149-18.337c.019-2.306-.897-7.856.197-9.995 4.34-8.489 17.239-2.9 20.958 2.641 3.909 5.826 3.569 13.556 4.087 20.118.675 8.533 2.866 18.13 1.592 26.644M757.404 944.112c-65.418-8.944-131.578-11.167-197.554-6.797-4.404.292-4.383-5.932 0-6.223 66.617-4.412 133.334-2.01 199.377 7.02 4.35.595 2.501 6.59-1.823 6M658.884 895.45l-96.038-10.017c-4.334-.452-4.384-6.68 0-6.223l96.038 10.018c4.333.452 4.384 6.68 0 6.222M635.018 848.216a541.679 541.679 0 0 0-78.127-9.585c-4.39-.22-4.417-6.442 0-6.223a554.39 554.39 0 0 1 79.95 9.808c4.31.85 2.487 6.85-1.823 6M637.708 649.445c-8.849-9.504-21.371-6.904-27.205 3.46-4.646 8.253-4.044 18.834 1.476 26.637 6.422 9.076 21.362 12.795 27.761 1.6 1.005-1.756 2.486-2.69 4.082-3.001 1.202-10.022 1.21-20.828-6.114-28.696m18.28 39.54c-.668 4.426-5.109 5.314-8.678 3.862-9.994 9.598-27.437 10.134-39.12 1.442-14.289-10.632-18.022-30.143-10.804-45.16 6.86-14.273 24.31-23.316 40.64-15.301 22.389 10.989 20.916 35.582 17.962 55.158M742.396 654.447c-2.93-8.243-8.48-14.006-18.653-13.575-7.023.298-12.848 4.106-16.88 9.106-17.023 21.1 10.201 45.853 34.117 33.3a7.821 7.821 0 0 1 1.592-.62c6.526-5.944 2.047-21.96-.176-28.211m.025 42.176c-.382.09-.744.12-1.106.157-16.34 5.293-35.799.896-46.56-12.1-12.75-15.4-7.448-38.028 8.937-49.511 19.393-13.592 43.677-5.957 51.362 14.432 5.616 14.9 9.366 41.858-12.633 47.022" fill="#333"/></g></svg>