<svg xmlns="http://www.w3.org/2000/svg" viewBox="0 0 508 285.75" height="1080" width="1920"><path fill="#f7f8fa" stroke-width="1.323" stroke-linecap="round" stroke-linejoin="round" d="M0 0h508v285.75H0z"/><path d="M220.4 17.661v105.815l152.73 88.178V105.84z" fill="#ececec" stroke-width=".265"/><path d="M226.509 119.949V28.243l140.51 81.124v91.706z" fill="#fff" stroke-width=".265"/><path d="M220.4 17.661l6.109-3.527 152.73 88.179-6.11 3.527z" fill="#e6e6e6" stroke-width=".265"/><path d="M373.13 105.84l6.108-3.527v105.814l-6.109 3.527z" fill="#ccc" stroke-width=".265"/><path d="M220.4 123.476l-91.638 52.907 152.73 88.178 91.637-52.907zM128.762 176.383v7.054l152.73 88.179v-7.055z" fill="#ececec" stroke-width=".265"/><path d="M281.491 271.616v-7.055l97.747-56.434v7.054z" fill="#ccc" stroke-width=".265"/><path d="M220.4 130.53l140.51 81.124-54.982 31.744-140.511-81.124z" fill="#f9f9f9" stroke-width=".265"/><path d="M214.29 197.546l30.546 17.635-18.327 10.582-30.546-17.636z" fill="#ccc" stroke-width=".265"/><path d="M220.4 17.661v105.815l152.73 88.178V105.84z" fill="#414141" stroke-width=".265"/><path d="M220.4 17.661l6.109-3.527 152.73 88.179-6.11 3.527z" fill="#e6e6e6" stroke-width=".265"/><path d="M373.13 105.84l6.108-3.527v105.814l-6.109 3.527z" fill="#ccc" stroke-width=".265"/><path d="M220.4 123.476l-91.638 52.907 152.73 88.178 91.637-52.907z" fill="#ececec" stroke-width=".265"/><path d="M128.762 176.383v7.054l152.73 88.179v-7.055z" fill="#e5e5e5" stroke-width=".265"/><path d="M281.491 271.616v-7.055l97.747-56.434v7.054z" fill="#ccc" stroke-width=".265"/><path style="line-height:normal;font-variant-ligatures:normal;font-variant-position:normal;font-variant-caps:normal;font-variant-numeric:normal;font-variant-alternates:normal;font-feature-settings:normal;text-indent:0;text-align:start;text-decoration-line:none;text-decoration-style:solid;text-decoration-color:#000;text-transform:none;text-orientation:mixed;white-space:normal;shape-padding:0;isolation:auto;mix-blend-mode:normal;solid-color:#000;solid-opacity:1" d="M220.399 130.61l140.37 81.044-54.842 31.663-140.371-81.043z" color="#000" font-weight="400" font-family="sans-serif" overflow="visible" fill="#ccc" stroke-width=".265"/><path d="M214.29 197.546l30.546 17.635-18.327 10.582-30.546-17.636z" fill="#ccc" stroke-width=".265"/><path d="M226.509 120.03V28.324l140.51 81.124v91.706z" fill="#fff" stroke-width=".265"/><g color="#000" font-weight="400" font-family="sans-serif" fill="#59f" stroke-linecap="round" stroke-linejoin="round"><path style="line-height:normal;font-variant-ligatures:normal;font-variant-position:normal;font-variant-caps:normal;font-variant-numeric:normal;font-variant-alternates:normal;font-feature-settings:normal;text-indent:0;text-align:start;text-decoration-line:none;text-decoration-style:solid;text-decoration-color:#000;text-transform:none;text-orientation:mixed;white-space:normal;shape-padding:0;isolation:auto;mix-blend-mode:normal;solid-color:#000;solid-opacity:1" d="M328.423 109.76a3.87 2.189 53.051 0 0-2.435-.21l-26.276 19.863-7.594-19.573a3.87 2.189 53.051 0 0-4.66-3.447l-29.101 12.3a3.87 2.189 53.051 1 0 4.115 6.49l26.246-11.092 7.894 20.347a3.87 2.189 53.051 0 0 4.931 3.291l29.1-22a3.87 2.189 53.051 0 0-2.22-5.97z" overflow="visible" fill-rule="evenodd" stroke-width="15.875"/><path style="line-height:normal;font-variant-ligatures:normal;font-variant-position:normal;font-variant-caps:normal;font-variant-numeric:normal;font-variant-alternates:normal;font-feature-settings:normal;text-indent:0;text-align:start;text-decoration-line:none;text-decoration-style:solid;text-decoration-color:#000;text-transform:none;text-orientation:mixed;white-space:normal;shape-padding:0;isolation:auto;mix-blend-mode:normal;solid-color:#000;solid-opacity:1" d="M334.086 105.156a2.748 1.555 53.051 0 0-.206-.118 2.748 1.555 53.051 0 0-.784-.25l-6.02-.57-6.019-.569a2.748 1.555 53.051 0 0-.264 3.419l5.526 6.95 5.527 6.95a2.748 1.555 53.051 0 0 3.224.306l.493-6.382.493-6.382a2.748 1.555 53.051 0 0-1.97-3.354z" overflow="visible" stroke-width="42.618"/></g></svg>